<svg width="32" height="32" viewBox="0 0 32 32" fill="none" xmlns="http://www.w3.org/2000/svg">
<path d="M30.9019 16C30.9019 17.52 30.6784 18.9953 30.2463 20.3812C29.069 17.8031 26.4761 16 23.451 16C19.338 16 16 19.338 16 23.451C16 26.4761 17.8031 29.069 20.3812 30.2463C18.9953 30.6784 17.52 30.9019 16 30.9019C7.7741 30.9019 1.09802 24.2259 1.09802 16C1.09802 7.7741 7.7741 1.09802 16 1.09802C24.2259 1.09802 30.9019 7.7741 30.9019 16Z" stroke="#444C61" stroke-width="2" stroke-miterlimit="10" stroke-linecap="round" stroke-linejoin="round"/>
<path d="M20.3663 30.2313C17.7882 29.0541 16 26.4611 16 23.4509C16 21.8117 16.5216 20.3066 17.4306 19.0698C16.9537 19.0102 16.4769 18.9803 16 18.9803C11.1121 18.9803 6.92469 21.916 5.07684 26.1184C7.8039 29.0541 11.6784 30.9019 16 30.9019C17.52 30.9019 18.9804 30.6784 20.3663 30.2313Z" stroke="#444C61" stroke-width="2" stroke-miterlimit="10" stroke-linecap="round"/>
<path d="M17.669 18.742H17.6839C18.5035 17.7286 19.6062 16.9239 20.858 16.462C21.5584 15.4784 21.9608 14.3012 21.9608 13.0196C21.9608 9.72629 19.2933 7.05884 16 7.05884C12.7066 7.05884 10.0392 9.72629 10.0392 13.0196C10.0392 16.313 12.7066 18.9804 16 18.9804C16.5811 18.9804 17.1474 18.891 17.6839 18.742" stroke="#444C61" stroke-width="2" stroke-miterlimit="10" stroke-linecap="round" stroke-linejoin="round"/>
<path d="M23.451 30.902C27.566 30.902 30.902 27.566 30.902 23.451C30.902 19.336 27.566 16 23.451 16C19.336 16 16 19.336 16 23.451C16 27.566 19.336 30.902 23.451 30.902Z" stroke="#E81E75" stroke-width="2" stroke-miterlimit="10" stroke-linecap="round" stroke-linejoin="round"/>
<path d="M19.8745 22.4823L22.5569 25.1647L27.0275 20.6941" stroke="#E81E75" stroke-width="2" stroke-miterlimit="10"/>
</svg>
