<svg width="508" height="238" viewBox="0 0 508 238" fill="none" xmlns="http://www.w3.org/2000/svg">
<g clip-path="url(#clip0)">
<g clip-path="url(#clip1)">
<path d="M307.849 20.8564C283.215 24.7524 266.409 47.8986 270.305 72.5323C274.201 97.1661 297.33 113.972 321.981 110.076C346.615 106.18 363.421 83.034 359.525 58.4002C355.629 33.7665 332.483 16.9603 307.849 20.8564Z" fill="#E81E75"/>
<path d="M327.684 146.079C303.05 149.975 286.244 173.121 290.14 197.755C294.036 222.389 317.164 239.195 341.816 235.299C366.449 231.403 383.256 208.257 379.36 183.623C375.463 158.989 352.335 142.183 327.684 146.079Z" fill="#A60043"/>
<path d="M433.09 1.02185C408.456 4.91791 391.65 28.0641 395.546 52.6978C399.442 77.3316 422.57 94.1378 447.222 90.2417C471.856 86.3456 488.662 63.1995 484.766 38.5657C480.852 13.932 457.724 -2.87421 433.09 1.02185Z" fill="#69BAA5"/>
<path d="M452.924 126.263C428.291 130.159 411.484 153.305 415.38 177.939C419.276 202.572 442.405 219.378 467.039 215.482C491.672 211.586 508.479 188.44 504.583 163.806C500.687 139.173 477.558 122.349 452.924 126.263Z" fill="#0E6B59"/>
</g>
<path d="M314.927 68.4658L442.078 48.9041" stroke="#69BAA5" stroke-width="5.15375"/>
<path d="M440.448 45.6438L460.009 172.795" stroke="#0E6B59" stroke-width="5.15375"/>
<path d="M334.489 192.356L461.639 172.795" stroke="#A60043" stroke-width="5.15375"/>
<path d="M314.927 65.2055L334.489 192.356" stroke="#E81E75" stroke-width="5.15375"/>
<path d="M314.927 68.4657L409.475 55.4247" stroke="#69BAA5" stroke-width="5.15375"/>
</g>
<path d="M25.845 169.874C25.3983 169.874 25.041 169.74 24.773 169.472C24.505 169.204 24.371 168.846 24.371 168.4V124.449C24.371 124.002 24.505 123.645 24.773 123.377C25.041 123.109 25.3983 122.975 25.845 122.975H27.118C27.5646 122.975 27.922 123.109 28.19 123.377C28.458 123.645 28.5919 124.002 28.5919 124.449V168.4C28.5919 168.846 28.458 169.204 28.19 169.472C27.922 169.74 27.5646 169.874 27.118 169.874H25.845ZM42.6601 169.874C42.2134 169.874 41.8561 169.74 41.5881 169.472C41.3201 169.204 41.1861 168.846 41.1861 168.4V124.516C41.1861 124.069 41.3201 123.712 41.5881 123.444C41.8561 123.131 42.2134 122.975 42.6601 122.975H44.0671C44.6477 122.975 45.1167 123.243 45.4741 123.779L70.1966 161.566V124.516C70.1966 124.069 70.3306 123.712 70.5986 123.444C70.8666 123.131 71.2239 122.975 71.6705 122.975H72.8765C73.3678 122.975 73.7475 123.109 74.0155 123.377C74.2835 123.645 74.4175 124.024 74.4175 124.516V168.333C74.4175 168.779 74.2835 169.159 74.0155 169.472C73.7475 169.74 73.3902 169.874 72.9435 169.874H71.4695C70.8889 169.874 70.4199 169.606 70.0626 169.07L45.4071 131.416V168.4C45.4071 168.846 45.2507 169.204 44.9381 169.472C44.6701 169.74 44.3127 169.874 43.8661 169.874H42.6601ZM101.056 170.544C97.5718 170.544 94.5346 169.985 91.9439 168.869C89.398 167.707 87.4327 166.211 86.0481 164.38C84.7081 162.548 83.9934 160.583 83.9041 158.484C83.9041 158.127 84.0381 157.814 84.3061 157.546C84.5741 157.278 84.9091 157.144 85.3111 157.144H86.651C87.455 157.144 87.9463 157.591 88.125 158.484C88.4377 160.628 89.666 162.504 91.8099 164.112C93.9539 165.72 97.0358 166.524 101.056 166.524C105.299 166.524 108.448 165.764 110.503 164.246C112.602 162.682 113.652 160.516 113.652 157.747C113.652 156.05 113.138 154.665 112.111 153.593C111.128 152.476 109.676 151.516 107.756 150.712C105.835 149.863 102.932 148.814 99.0458 147.563C95.6065 146.446 92.9043 145.352 90.939 144.28C89.0183 143.208 87.589 141.891 86.651 140.327C85.7131 138.764 85.2441 136.776 85.2441 134.364C85.2441 132.086 85.8471 130.032 87.053 128.2C88.3037 126.369 90.0903 124.94 92.4129 123.913C94.7356 122.841 97.5048 122.305 100.721 122.305C104.026 122.305 106.862 122.908 109.23 124.114C111.597 125.275 113.384 126.771 114.59 128.602C115.795 130.389 116.443 132.198 116.532 134.029C116.532 134.387 116.398 134.699 116.13 134.967C115.907 135.235 115.572 135.369 115.125 135.369H113.786C113.473 135.369 113.16 135.28 112.848 135.101C112.535 134.878 112.356 134.521 112.312 134.029C112.044 131.796 110.838 129.965 108.694 128.535C106.594 127.062 103.937 126.325 100.721 126.325C97.2815 126.325 94.5346 126.995 92.4799 128.334C90.47 129.674 89.465 131.684 89.465 134.364C89.465 136.106 89.9116 137.558 90.805 138.719C91.7429 139.836 93.1276 140.819 94.9589 141.667C96.7902 142.471 99.4925 143.454 103.066 144.615C106.728 145.776 109.587 146.893 111.642 147.965C113.696 149.037 115.237 150.332 116.264 151.851C117.336 153.37 117.872 155.335 117.872 157.747C117.872 161.767 116.376 164.916 113.384 167.194C110.391 169.427 106.282 170.544 101.056 170.544ZM129.026 169.874C128.579 169.874 128.222 169.74 127.954 169.472C127.686 169.204 127.552 168.846 127.552 168.4V124.449C127.552 124.002 127.686 123.645 127.954 123.377C128.222 123.109 128.579 122.975 129.026 122.975H130.299C130.745 122.975 131.103 123.109 131.371 123.377C131.639 123.645 131.773 124.002 131.773 124.449V168.4C131.773 168.846 131.639 169.204 131.371 169.472C131.103 169.74 130.745 169.874 130.299 169.874H129.026ZM160.446 170.544C154.863 170.544 150.531 168.936 147.449 165.72C144.367 162.504 142.736 158.194 142.558 152.789C142.513 151.449 142.491 149.327 142.491 146.424C142.491 143.521 142.513 141.399 142.558 140.059C142.736 134.655 144.367 130.344 147.449 127.129C150.531 123.913 154.863 122.305 160.446 122.305C164.243 122.305 167.437 123.019 170.027 124.449C172.618 125.878 174.539 127.575 175.789 129.54C177.084 131.461 177.777 133.181 177.866 134.699V134.833C177.866 135.191 177.732 135.481 177.464 135.704C177.196 135.928 176.861 136.039 176.459 136.039H174.985C174.583 136.039 174.293 135.95 174.114 135.771C173.936 135.593 173.757 135.235 173.578 134.699C172.819 132.332 171.345 130.344 169.156 128.736C167.012 127.129 164.109 126.325 160.446 126.325C156.293 126.325 153.01 127.464 150.598 129.741C148.23 132.019 146.957 135.57 146.779 140.394C146.734 141.734 146.712 143.744 146.712 146.424C146.712 149.104 146.734 151.114 146.779 152.454C146.957 157.278 148.23 160.829 150.598 163.107C153.01 165.385 156.293 166.524 160.446 166.524C164.6 166.524 167.95 165.34 170.496 162.973C173.042 160.606 174.315 157.099 174.315 152.454V149.037H162.657C162.211 149.037 161.853 148.903 161.585 148.635C161.317 148.322 161.183 147.943 161.183 147.496V146.558C161.183 146.111 161.317 145.754 161.585 145.486C161.853 145.173 162.211 145.017 162.657 145.017H176.995C177.486 145.017 177.866 145.151 178.134 145.419C178.402 145.687 178.536 146.067 178.536 146.558V152.454C178.536 156.027 177.821 159.176 176.392 161.901C174.963 164.625 172.886 166.747 170.161 168.266C167.437 169.784 164.198 170.544 160.446 170.544ZM190.332 169.874C189.885 169.874 189.528 169.74 189.26 169.472C188.992 169.204 188.858 168.846 188.858 168.4V124.516C188.858 124.069 188.992 123.712 189.26 123.444C189.528 123.131 189.885 122.975 190.332 122.975H191.538C192.029 122.975 192.409 123.109 192.677 123.377C192.945 123.645 193.079 124.024 193.079 124.516V144.079H218.94V124.516C218.94 124.069 219.074 123.712 219.342 123.444C219.61 123.131 219.968 122.975 220.414 122.975H221.62C222.112 122.975 222.491 123.109 222.759 123.377C223.027 123.645 223.161 124.024 223.161 124.516V168.4C223.161 168.846 223.005 169.204 222.692 169.472C222.424 169.74 222.067 169.874 221.62 169.874H220.414C219.968 169.874 219.61 169.74 219.342 169.472C219.074 169.204 218.94 168.846 218.94 168.4V148.099H193.079V168.4C193.079 168.846 192.923 169.204 192.61 169.472C192.342 169.74 191.985 169.874 191.538 169.874H190.332ZM247.495 169.874C247.048 169.874 246.691 169.74 246.423 169.472C246.155 169.204 246.021 168.846 246.021 168.4V126.995H232.755C232.309 126.995 231.951 126.861 231.683 126.593C231.415 126.325 231.281 125.967 231.281 125.521V124.516C231.281 124.069 231.415 123.712 231.683 123.444C231.951 123.131 232.309 122.975 232.755 122.975H263.441C263.932 122.975 264.312 123.109 264.58 123.377C264.848 123.645 264.982 124.024 264.982 124.516V125.521C264.982 125.967 264.825 126.325 264.513 126.593C264.245 126.861 263.887 126.995 263.441 126.995H250.242V168.4C250.242 168.846 250.086 169.204 249.773 169.472C249.505 169.74 249.148 169.874 248.701 169.874H247.495Z" fill="black"/>
<path d="M82.8666 65.321H90.8025V99.2654H94.5507V99.9367H86.7117V95.76H86.6148C86.4841 96.1446 86.2903 96.6092 86.0311 97.1515C85.7719 97.6961 85.3887 98.2251 84.8861 98.7364C84.3835 99.2498 83.7502 99.69 82.9883 100.057C82.2243 100.423 81.2912 100.608 80.189 100.608C78.7601 100.608 77.4055 100.303 76.1231 99.6966C74.8406 99.0898 73.7137 98.2718 72.74 97.2471C71.7663 96.2224 70.9955 95.0465 70.4275 93.7173C69.8596 92.3925 69.5756 90.9921 69.5756 89.5184C69.5756 88.0781 69.8505 86.7021 70.4027 85.3885C70.9549 84.077 71.701 82.9323 72.6431 81.9565C73.583 80.9807 74.6716 80.196 75.9044 79.6047C77.1373 79.0135 78.4513 78.7156 79.8487 78.7156C81.6338 78.7156 83.0785 79.1468 84.1806 80.0115C85.2828 80.8762 86.0626 81.932 86.5179 83.1812H86.6148V65.9923H82.8666V65.321ZM74.4439 88.9427C74.4439 90.6076 74.4935 92.1191 74.5904 93.4795C74.6873 94.8398 74.9308 96.0001 75.3207 96.9604C75.7106 97.9206 76.2944 98.6564 77.0742 99.1698C77.854 99.6833 78.9066 99.9389 80.2386 99.9389C81.6022 99.9389 82.6976 99.6499 83.5248 99.0742C84.3519 98.4985 84.992 97.7539 85.4473 96.8425C85.9026 95.9312 86.2091 94.9154 86.3714 93.7929C86.5337 92.6726 86.6148 91.5834 86.6148 90.5276C86.6148 89.2784 86.59 88.1981 86.5427 87.2867C86.4931 86.3754 86.4052 85.5663 86.2745 84.8617C86.1438 84.157 85.9657 83.5502 85.7381 83.0367C85.5104 82.5255 85.2355 82.0454 84.9109 81.5964C84.4241 80.9562 83.7907 80.4294 83.0131 80.0115C82.2333 79.5958 81.2439 79.3869 80.0425 79.3869C78.9066 79.3869 77.9735 79.6114 77.2432 80.0582C76.513 80.5072 75.945 81.1474 75.5393 81.9787C75.1336 82.8122 74.8496 83.8125 74.6873 84.9795C74.5251 86.1509 74.4439 87.4712 74.4439 88.9427Z" fill="black"/>
<path d="M95.281 99.2654H99.0291V80.0115H95.281V79.3402H103.12V84.1904H103.217C103.345 83.7102 103.557 83.1657 103.85 82.5588C104.143 81.952 104.547 81.3674 105.067 80.8073C105.586 80.2471 106.212 79.7759 106.942 79.3913C107.673 79.0068 108.556 78.8156 109.595 78.8156C110.341 78.8156 110.99 78.9357 111.543 79.1757C112.095 79.4158 112.548 79.7203 112.906 80.0871C113.262 80.4561 113.522 80.8784 113.686 81.3585C113.848 81.8386 113.929 82.3188 113.929 82.7989C113.929 83.8547 113.686 84.5594 113.199 84.9106C112.712 85.264 112.144 85.4396 111.495 85.4396C110.066 85.4396 109.354 84.9906 109.354 84.0948C109.354 83.8058 109.386 83.5747 109.451 83.3991C109.516 83.2235 109.589 83.0479 109.67 82.87C109.751 82.6944 109.823 82.4944 109.888 82.2699C109.954 82.0454 109.985 81.7253 109.985 81.3096C109.985 80.2849 109.417 79.7737 108.281 79.7737C107.761 79.7737 107.211 79.9648 106.627 80.3494C106.043 80.7339 105.498 81.2941 104.995 82.0298C104.493 82.7656 104.071 83.6547 103.728 84.6949C103.388 85.7352 103.217 86.9266 103.217 88.2714V99.2654H107.452V99.9367H95.281V99.2654V99.2654Z" fill="black"/>
<path d="M118.94 88.0291C118.94 88.3492 118.931 88.6782 118.915 89.0138C118.899 89.3495 118.89 89.774 118.89 90.2853C118.89 91.3411 118.956 92.4458 119.084 93.5973C119.213 94.7487 119.499 95.7912 119.936 96.7181C120.373 97.6472 121.022 98.4141 121.883 99.0231C122.742 99.6322 123.887 99.9345 125.316 99.9345C126.745 99.9345 127.921 99.7277 128.846 99.3098C129.77 98.8942 130.5 98.3896 131.036 97.7983C131.573 97.2071 131.969 96.6069 132.229 95.9979C132.488 95.3911 132.682 94.8931 132.812 94.5086L133.543 94.6531C133.446 95.0065 133.259 95.5089 132.984 96.1646C132.709 96.8203 132.269 97.4783 131.67 98.134C131.068 98.7897 130.259 99.3654 129.236 99.8633C128.212 100.359 126.889 100.608 125.269 100.608C123.646 100.608 122.145 100.352 120.765 99.8389C119.386 99.3276 118.194 98.5897 117.186 97.6294C116.181 96.6692 115.401 95.5244 114.849 94.1974C114.297 92.8704 114.022 91.3878 114.022 89.7563C114.022 88.347 114.306 86.98 114.874 85.6507C115.442 84.3237 116.219 83.1457 117.211 82.1209C118.201 81.0962 119.361 80.2716 120.691 79.6492C122.021 79.0246 123.45 78.7134 124.976 78.7134C125.884 78.7134 126.858 78.8734 127.897 79.1935C128.936 79.5136 129.9 80.0337 130.793 80.7539C131.685 81.4741 132.431 82.4277 133.033 83.6102C133.633 84.795 133.935 86.2665 133.935 88.0269H118.94V88.0291ZM128.97 87.3579C129.035 86.9111 129.066 86.4932 129.066 86.1086C129.066 85.7241 129.066 85.324 129.066 84.9083C129.066 83.8214 128.961 82.9234 128.751 82.2187C128.539 81.5141 128.248 80.954 127.874 80.5383C127.5 80.1226 127.047 79.827 126.511 79.6492C125.974 79.4736 125.399 79.3847 124.782 79.3847C123.677 79.3847 122.769 79.6003 122.055 80.0337C121.34 80.465 120.772 81.0496 120.351 81.7853C119.929 82.521 119.611 83.3702 119.402 84.3304C119.19 85.2907 119.053 86.2998 118.987 87.3556H128.97V87.3579Z" fill="black"/>
<path d="M136.953 93.2149H137.489C137.717 93.984 138.008 94.7598 138.366 95.5444C138.722 96.3291 139.202 97.0493 139.802 97.705C140.401 98.3607 141.14 98.8986 142.017 99.3143C142.894 99.73 143.949 99.9389 145.182 99.9389C146.221 99.9389 147.145 99.6277 147.956 99.0031C148.768 98.3785 149.173 97.3627 149.173 95.9534C149.173 94.7376 148.858 93.8818 148.224 93.3839C147.591 92.8882 146.854 92.4948 146.009 92.208L142.211 90.9121C141.724 90.7521 141.197 90.552 140.629 90.312C140.061 90.0719 139.533 89.7363 139.047 89.3028C138.56 88.8716 138.163 88.3181 137.854 87.6468C137.546 86.9755 137.392 86.1109 137.392 85.055C137.392 84.1593 137.57 83.3257 137.929 82.5588C138.285 81.7897 138.772 81.1185 139.389 80.5428C140.004 79.967 140.744 79.518 141.605 79.198C142.463 78.8779 143.399 78.7178 144.404 78.7178C145.119 78.7178 145.693 78.7734 146.133 78.8868C146.57 79.0001 146.953 79.1113 147.278 79.2224C147.602 79.3358 147.893 79.4469 148.154 79.5581C148.414 79.6714 148.722 79.727 149.079 79.727C149.435 79.727 149.694 79.6003 149.858 79.3424H150.395V84.815H149.858C149.631 84.1103 149.372 83.4302 149.079 82.7744C148.786 82.1187 148.438 81.5341 148.033 81.0229C147.627 80.5116 147.124 80.1115 146.523 79.8226C145.921 79.5336 145.215 79.3913 144.404 79.3913C142.847 79.3913 141.636 79.7359 140.778 80.4227C139.917 81.1118 139.488 82.032 139.488 83.1834C139.488 84.2082 139.853 84.9839 140.584 85.5129C141.314 86.042 142.394 86.5288 143.82 86.9778L147.375 88.1292C148.9 88.6404 150.149 89.345 151.123 90.2408C152.096 91.1366 152.583 92.3214 152.583 93.7929C152.583 94.6575 152.412 95.5066 152.072 96.338C151.731 97.1715 151.226 97.8984 150.562 98.523C149.897 99.1476 149.085 99.6522 148.127 100.034C147.17 100.419 146.074 100.61 144.841 100.61C144.127 100.61 143.469 100.539 142.869 100.395C142.267 100.25 141.717 100.099 141.215 99.9389C140.712 99.7789 140.248 99.6277 139.826 99.4832C139.405 99.3388 139.015 99.2676 138.659 99.2676C138.301 99.2676 138.041 99.3388 137.879 99.4832C137.717 99.6277 137.586 99.7789 137.489 99.9389H136.953V93.2149V93.2149Z" fill="black"/>
<path d="M155.743 93.2149H156.28C156.507 93.984 156.798 94.7598 157.156 95.5444C157.513 96.3291 157.993 97.0493 158.592 97.705C159.192 98.3607 159.931 98.8986 160.808 99.3143C161.684 99.73 162.739 99.9389 163.972 99.9389C165.011 99.9389 165.935 99.6277 166.747 99.0031C167.558 98.3785 167.964 97.3627 167.964 95.9534C167.964 94.7376 167.648 93.8818 167.015 93.3839C166.382 92.8882 165.644 92.4948 164.799 92.208L161.002 90.9121C160.515 90.7521 159.987 90.552 159.419 90.312C158.851 90.0719 158.324 89.7363 157.837 89.3028C157.35 88.8716 156.954 88.3181 156.645 87.6468C156.336 86.9755 156.183 86.1109 156.183 85.055C156.183 84.1593 156.361 83.3257 156.719 82.5588C157.075 81.7897 157.562 81.1185 158.18 80.5428C158.795 79.967 159.534 79.518 160.395 79.198C161.254 78.8779 162.189 78.7178 163.195 78.7178C163.909 78.7178 164.484 78.7734 164.923 78.8868C165.361 79.0001 165.744 79.1113 166.068 79.2224C166.393 79.3358 166.684 79.4469 166.945 79.5581C167.204 79.6714 167.513 79.727 167.869 79.727C168.225 79.727 168.484 79.6003 168.649 79.3424H169.185V84.815H168.649C168.421 84.1103 168.162 83.4302 167.869 82.7744C167.576 82.1187 167.229 81.5341 166.823 81.0229C166.418 80.5116 165.915 80.1115 165.313 79.8226C164.711 79.5336 164.006 79.3913 163.195 79.3913C161.637 79.3913 160.427 79.7359 159.568 80.4227C158.707 81.1118 158.279 82.032 158.279 83.1834C158.279 84.2082 158.644 84.9839 159.374 85.5129C160.104 86.042 161.184 86.5288 162.611 86.9778L166.165 88.1292C167.691 88.6404 168.94 89.345 169.913 90.2408C170.887 91.1366 171.374 92.3214 171.374 93.7929C171.374 94.6575 171.203 95.5066 170.862 96.338C170.522 97.1715 170.017 97.8984 169.352 98.523C168.687 99.1476 167.876 99.6522 166.918 100.034C165.96 100.419 164.865 100.61 163.632 100.61C162.917 100.61 162.259 100.539 161.66 100.395C161.058 100.25 160.508 100.099 160.005 99.9389C159.503 99.7789 159.038 99.6277 158.617 99.4832C158.195 99.3388 157.806 99.2676 157.449 99.2676C157.091 99.2676 156.832 99.3388 156.67 99.4832C156.507 99.6277 156.377 99.7789 156.28 99.9389H155.743V93.2149V93.2149Z" fill="black"/>
<path d="M173.172 99.2654H176.921V80.0115H173.172V79.3402H181.108V99.2654H184.856V99.9367H173.172V99.2654Z" fill="black"/>
<path d="M185.636 112.709H189.384V80.0115H185.636V79.3402H193.475V83.3724H193.572C194.059 82.0276 194.861 80.9162 195.982 80.036C197.102 79.1557 198.553 78.7156 200.338 78.7156C201.733 78.7156 203.047 79.0112 204.283 79.6047C205.515 80.1982 206.602 80.9806 207.544 81.9565C208.484 82.9323 209.232 84.077 209.784 85.3885C210.336 86.7021 210.611 88.078 210.611 89.5184C210.611 90.9899 210.327 92.3925 209.759 93.7195C209.191 95.0488 208.421 96.2246 207.447 97.2493C206.473 98.274 205.344 99.0898 204.064 99.6988C202.781 100.306 201.427 100.61 199.998 100.61C198.894 100.61 197.96 100.426 197.199 100.059C196.437 99.6922 195.81 99.2587 195.323 98.763C194.837 98.2674 194.462 97.7539 194.203 97.2271C193.944 96.6981 193.766 96.2757 193.667 95.9557H193.57V112.711H197.318V113.382H185.634V112.709H185.636ZM205.741 88.9427C205.741 87.4712 205.66 86.1509 205.497 84.9817C205.335 83.8147 205.051 82.8145 204.645 81.9809C204.24 81.1496 203.672 80.5094 202.941 80.0604C202.211 79.6114 201.278 79.3891 200.142 79.3891C198.941 79.3891 197.951 79.5981 197.172 80.0137C196.392 80.4294 195.761 80.9584 195.274 81.5986C194.915 82.0476 194.631 82.5277 194.422 83.039C194.21 83.5524 194.041 84.1593 193.91 84.8639C193.78 85.5685 193.692 86.3754 193.642 87.289C193.592 88.2003 193.57 89.2806 193.57 90.5298C193.57 91.5856 193.651 92.6748 193.813 93.7951C193.976 94.9154 194.284 95.9312 194.737 96.8448C195.19 97.7561 195.833 98.5008 196.66 99.0765C197.487 99.6522 198.583 99.9411 199.946 99.9411C201.276 99.9411 202.331 99.6855 203.111 99.172C203.89 98.6608 204.474 97.9228 204.864 96.9626C205.254 96.0023 205.497 94.842 205.594 93.4817C205.693 92.1191 205.741 90.6076 205.741 88.9427Z" fill="black"/>
<path d="M212.557 99.2654H216.305V80.0115H212.557V79.3402H220.492V99.2654H224.241V99.9367H212.557V99.2654Z" fill="black"/>
<path d="M170.224 66.159C171.345 61.3756 176.184 58.3948 181.034 59.4973C185.884 60.602 188.909 65.3766 187.789 70.1601C186.669 74.9435 181.83 77.9265 176.979 76.8218C172.129 75.7171 169.104 70.9425 170.224 66.159ZM177.608 63.7273C176.697 63.5206 175.789 64.0807 175.58 64.9765C175.37 65.8745 175.936 66.7681 176.846 66.977C177.757 67.1837 178.665 66.6236 178.875 65.7278C179.084 64.8298 178.519 63.934 177.608 63.7273ZM176.54 68.2885C175.629 68.0818 174.723 68.6397 174.511 69.5377C174.302 70.4357 174.867 71.3315 175.778 71.5382C176.688 71.7449 177.597 71.1848 177.806 70.289C178.018 69.391 177.45 68.4952 176.54 68.2885ZM182.233 64.7809C181.322 64.5742 180.414 65.1321 180.204 66.0301C179.995 66.9281 180.561 67.8217 181.471 68.0306C182.382 68.2373 183.29 67.6794 183.5 66.7814C183.709 65.8834 183.144 64.9876 182.233 64.7809ZM181.165 69.3421C180.254 69.1354 179.348 69.6955 179.136 70.5913C178.927 71.4871 179.495 72.3829 180.403 72.5918C181.313 72.7985 182.222 72.2406 182.431 71.3426C182.643 70.4446 182.075 69.5488 181.165 69.3421Z" fill="black"/>
<path d="M212.71 69.6444C211.93 64.7942 215.286 60.2419 220.204 59.4729C225.122 58.7038 229.738 62.0135 230.518 66.8637C231.297 71.7138 227.941 76.2661 223.023 77.0352C218.106 77.8021 213.487 74.4945 212.71 69.6444ZM218.633 64.6609C217.711 64.8053 217.082 65.6589 217.227 66.568C217.373 67.4772 218.239 68.0973 219.16 67.9551C220.082 67.8106 220.711 66.957 220.567 66.0479C220.42 65.1388 219.555 64.5186 218.633 64.6609ZM219.374 69.2843C218.453 69.4288 217.824 70.2823 217.968 71.1915C218.115 72.1006 218.98 72.7207 219.902 72.5785C220.824 72.434 221.453 71.5804 221.308 70.6713C221.164 69.7622 220.296 69.142 219.374 69.2843ZM223.321 63.9296C222.399 64.074 221.77 64.9276 221.915 65.8367C222.061 66.7459 222.927 67.366 223.848 67.2238C224.77 67.0793 225.399 66.2257 225.255 65.3166C225.108 64.4052 224.243 63.7851 223.321 63.9296ZM224.063 68.553C223.141 68.6975 222.512 69.551 222.656 70.4602C222.803 71.3693 223.668 71.9894 224.59 71.8472C225.512 71.7027 226.141 70.8491 225.996 69.94C225.852 69.0309 224.984 68.4085 224.063 68.553Z" fill="black"/>
<defs>
<clipPath id="clip0">
<rect width="238" height="238" fill="white" transform="translate(269.283)"/>
</clipPath>
<clipPath id="clip1">
<rect width="236.435" height="236.435" fill="white" transform="translate(269.283)"/>
</clipPath>
</defs>
</svg>
