<svg enable-background="new 0 0 285.375 160" height="68.391" preserveAspectRatio="xMinYMin meet" viewBox="0 0 285.375 160" width="122" xmlns="http://www.w3.org/2000/svg"><path d="m37.163 90.951c0 7.372-5.046 12.338-16.216 12.338h-20.946v-45.695h20.325c9.698 0 14.9 4.4 14.9 11.9 0 5.351-3.105 9.077-7.99 10.316 6.433 1.39 9.964 5.69 9.964 11.141zm-24.598-14.353h4.891c3.258 0 5.273-1.239 5.273-4.344s-2.015-4.344-5.273-4.344h-4.891zm0 16.219h6.596c3.183 0 4.965-1.397 4.965-4.037s-1.783-4.033-4.965-4.033h-6.596z"/><path d="m64.737 96.612c-1.009 4.732-4.658 7.604-10.782 7.604-6.521 0-11.096-4.033-11.096-12.492v-24.28h12.564v21.647c0 3.6 1 5.7 3.9 5.739 3.257 0 5.276-2.95 5.276-8.767v-18.62h12.57v35.845h-11.25z"/><path d="m92.779 90.951c.705 3 3 4.5 5.7 4.5 2.251 0 3.798-.776 3.798-2.326s-1.314-2.245-3.875-2.789l-4.813-1.012c-6.509-1.395-9.925-4.732-9.925-10.627 0-8.691 7.447-12.104 15.437-12.104 8.611 0 13.8 3.6 15.1 10.238l-11.406 1.7c-.394-2.016-1.63-3.177-4.037-3.177-1.786 0-3.028.851-3.028 2.251s1 2.1 2.9 2.404l4.807.9c7.918 1.3 11.3 5.6 11.3 11.642 0 8.45-7.375 11.71-16.219 11.71-8.146 0-13.574-2.949-15.592-9.31z"/><path d="m126.137 51.93c3.726 0 6.9 2.6 6.9 6.592 0 4.034-3.177 6.599-6.903 6.599-3.72 0-6.903-2.564-6.903-6.599.003-4.022 3.169-6.622 6.869-6.592zm6.288 15.514v35.845h-12.493v-35.845z"/><path d="m152.013 74.347c1.856-5.348 6.049-7.754 11.399-7.754 5.512 0 10.5 3.3 10.5 11.478v25.219h-12.493v-20.409c0-3.643-1.087-5.895-4.27-5.895-2.711 0-5.04 1.633-5.04 7.14v19.163h-12.492v-35.845h11.25z"/><path d="m202.497 90.336 10.402 3.255c-2.024 7.677-8.385 10.626-15.521 10.626-10.63 0-18.387-6.751-18.387-18.464 0-12.104 6.825-19.16 18.076-19.16 10.63 0 16.1 6.8 16.1 16.76 0 1.3 0 2.866-.155 4.499h-21.874c.233 4.4 2.4 6.8 6.1 6.823 2.625.025 4.362-1.175 5.262-4.339zm-1.236-8.836c0-3.105-1.087-5.816-4.58-5.816-3.022 0-4.963 2.478-5.273 5.816z"/><path d="m227.464 90.951c.699 3 3 4.5 5.7 4.5 2.252 0 3.804-.776 3.804-2.326s-1.319-2.245-3.881-2.789l-4.808-1.012c-6.521-1.395-9.931-4.732-9.931-10.627 0-8.691 7.446-12.104 15.437-12.104 8.611 0 13.8 3.6 15.1 10.238l-11.406 1.7c-.388-2.016-1.63-3.177-4.036-3.177-1.786 0-3.022.851-3.022 2.251s1 2.1 2.9 2.404l4.812.9c7.913 1.3 11.2 5.6 11.2 11.642 0 8.45-7.369 11.71-16.213 11.71-8.146 0-13.574-2.949-15.592-9.31z"/><path d="m263.515 90.951c.699 3 3 4.5 5.7 4.5 2.246 0 3.798-.776 3.798-2.326s-1.319-2.245-3.881-2.789l-4.808-1.012c-6.515-1.395-9.931-4.732-9.931-10.627 0-8.691 7.446-12.104 15.437-12.104 8.611 0 13.8 3.6 15.1 10.238l-11.406 1.7c-.388-2.016-1.63-3.177-4.03-3.177-1.786 0-3.027.851-3.027 2.251s1 2.1 2.9 2.404l4.807.9c7.913 1.3 11.3 5.6 11.3 11.642 0 8.45-7.369 11.71-16.219 11.71-8.146 0-13.574-2.949-15.592-9.31z"/><path d="m25.602 158.628c-1.475-1.242-2.019-2.95-2.562-5.121l-1.397-5.667c-.773-3.254-2.093-3.875-5.04-3.875h-3.959v14.663h-12.643v-45.698h19.548c10.241 0 17.3 4 17.3 14.353 0 7.217-4.658 10.788-9.698 11.633 4.186.9 6.3 2.7 7.4 6.7l2.174 7.838c.541 2 1.2 3.6 2.8 5.198h-13.923zm-12.959-24.908h4.891c4.422 0 6.36-1.782 6.36-5.037 0-3.26-1.938-5.049-6.36-5.049h-4.891z"/><path d="m63.781 145.669 10.396 3.261c-2.019 7.677-8.378 10.627-15.517 10.627-10.63 0-18.387-6.745-18.387-18.465 0-12.104 6.829-19.16 18.076-19.16 10.635 0 16.1 6.8 16.1 16.76 0 1.3 0 2.866-.155 4.5h-21.916c.233 4.4 2.4 6.8 6.1 6.822 2.664-.014 4.422-1.114 5.322-4.345zm-1.239-8.869c0-3.105-1.09-5.816-4.58-5.816-3.022 0-4.962 2.479-5.273 5.816z"/><path d="m76.196 122.783h13.191l4.114 14.431c1.469 5.2 2.3 8.8 2.3 8.772h.155s.776-3.577 2.406-8.772l4.658-14.431h12.176l-13.036 35.845h-13.471z"/><path d="m125.396 107.263c3.732 0 6.9 2.6 6.9 6.599s-3.171 6.599-6.903 6.599c-3.72 0-6.897-2.564-6.897-6.599s3.18-6.562 6.904-6.599zm6.295 15.52v35.845h-12.499v-35.845z"/><path d="m160.838 145.669 10.403 3.261c-2.024 7.677-8.379 10.627-15.526 10.627-10.624 0-18.381-6.745-18.381-18.465 0-12.104 6.825-19.16 18.076-19.16 10.624 0 16.1 6.8 16.1 16.76 0 1.3 0 2.866-.155 4.5h-21.886c.232 4.4 2.4 6.8 6.1 6.822 2.63-.014 4.431-1.114 5.231-4.345zm-1.235-8.869c0-3.105-1.087-5.816-4.574-5.816-3.034 0-4.969 2.479-5.279 5.816z"/><path d="m207.728 122.783 2.562 12.492c1.313 6.4 2 11.3 2 11.254h.155s.776-4.732 2.252-11.099l2.866-12.647h12.182l-9.697 35.845h-14.04l-2.174-10.475c-1.086-5.272-1.94-11.483-1.94-11.483h-.149s-.854 6.211-1.94 11.5l-2.174 10.475h-13.951l-9.697-35.845h12.642l2.866 12.647c1.476 6.4 2.3 11.1 2.3 11.099h.155s.699-4.816 2.013-11.254l2.574-12.492h11.195z"/><path d="m79.218 36.155c0 1.7.5 2.6 1.8 2.64.771 0 1.553-.311 2.251-.699v8.844c-1.708 1.242-3.338 1.705-6.21 1.7-4.808 0-7.45-2.167-8.847-5.661-2.009 3.72-5.192 5.816-10.313 5.816-6.596 0-10.707-3.878-10.707-10.005 0-7.683 5.509-11.558 16.291-11.558h3.648v-2.402c0-2.326-.779-3.959-3.024-3.959-2.174 0-3.18 1.319-3.338 4.27l-11.946-1.866c.696-7.366 6.438-12.021 15.673-12.021 10.235 0 14.7 4.5 14.7 12.337v12.564zm-12.102-2.558h-1.63c-4.5 0-6.049 1.394-6.049 3.726 0 1.7 1.2 3 3.3 3.021 2.093 0 4.344-1.086 4.344-4.416v-2.331z"/><path d="m112.522 26.225c-1.469-.543-2.329-.929-4.342-.929-2.95 0-6.521 1.162-6.521 7.527v15.126h-12.492v-35.845h10.713l1.236 8.844c1.009-5.972 6.056-8.844 12.182-8.844z"/><path d="m116.857 12.104h13.197l4.103 14.431c1.481 5.2 2.3 8.8 2.3 8.766h.155s.777-3.565 2.407-8.766l4.652-14.431h12.182l-13.03 35.845h-13.473z"/><path d="m188.863 36.155c0 1.7.5 2.6 1.8 2.64.776 0 1.553-.311 2.252-.699v8.844c-1.708 1.242-3.338 1.705-6.205 1.705-4.812 0-7.452-2.167-8.85-5.661-2.013 3.72-5.195 5.816-10.313 5.8-6.599 0-10.707-3.878-10.707-10.005 0-7.683 5.506-11.558 16.291-11.558h3.643v-2.391c0-2.326-.771-3.959-3.021-3.959-2.174 0-3.183 1.319-3.338 4.27l-11.949-1.866c.704-7.366 6.437-12.021 15.675-12.021 10.241 0 14.7 4.5 14.7 12.337v12.564zm-12.104-2.558h-1.624c-4.503 0-6.056 1.394-6.056 3.726 0 1.7 1.2 3 3.3 3.021 2.091 0 4.342-1.086 4.342-4.416v-2.331z"/><path d="m222.186 26.225c-1.476-.543-2.329-.929-4.348-.929-2.944 0-6.516 1.162-6.516 7.527v15.126h-12.486v-35.845h10.701l1.242 8.844c1.009-5.972 6.049-8.844 12.183-8.844z"/><path d="m252.288 0h12.564v47.949h-11.322l-1.164-6.205c-1.32 4.804-5.59 7.133-11.019 7.133-8.378 0-14.35-6.515-14.35-18.154 0-12.027 5.739-19.471 15.825-19.471 4.58 0 8.2 2.1 9.5 5.506v-16.758zm.078 27.463c0-4.577-2.252-7.055-5.895-7.055-3.648 0-6.754 2.717-6.754 9.85 0 5.9 2.5 9 6.6 9 3.177 0 6.05-2.401 6.05-7.289v-4.506z"/><path d="m.001 47.949v-45.695h12.723v16.983h15.669v-16.983h12.723v45.695h-12.723v-17.691h-15.669v17.691z"/></svg>