<?xml version="1.0" encoding="utf-8"?>
<!-- Generator: Adobe Illustrator 23.0.1, SVG Export Plug-In . SVG Version: 6.00 Build 0)  -->
<svg version="1.1" id="Layer_1" xmlns="http://www.w3.org/2000/svg" xmlns:xlink="http://www.w3.org/1999/xlink" x="0px" y="0px"
	 viewBox="0 0 43 46" style="enable-background:new 0 0 43 46;" xml:space="preserve">
<style type="text/css">
	.st0{fill:#333230;}
	.st1{fill:#E81E75;}
</style>
<g>
	<g transform="translate(0.000000,512.000000) scale(0.100000,-0.100000)">
		<path class="st0" d="M236.6,5095.9c-10.8-1.8-6.7,2.1-121.9-113.3c-104.8-104.9-108-108.3-110-113.5c-1.4-4-1.9-6.7-1.6-10.8
			c0.8-11.3-3.1-6.9,88.2-98.1c80-79.9,84-83.8,89-85.6c6.6-2.4,12.7-2.4,19.2,0c5,1.8,9.7,6.4,113.3,109.9
			c86.2,86.1,108.6,108.8,110.3,112.4c1.2,2.5,2.6,7.4,3.1,10.8c0.6,4.1,0.9,32.9,0.7,85.4l-0.3,79.1l-2.8,5.8
			c-3.6,7.4-8.3,12-15.6,15.6l-5.8,2.8l-80.4,0.1C276.9,5096.7,239.4,5096.4,236.6,5095.9z M396.6,5077.2c3-0.6,4.9-1.8,7.3-4.4
			c2.9-3.1,3.4-4.3,4-9.3c0.3-3.1,0.4-38.9,0.3-79.4c-0.2-57.5-0.5-74.3-1.4-76.4c-0.6-1.4-49-50.5-107.4-109
			c-100.6-100.6-106.4-106.2-109.4-106.2s-7.6,4.5-85.1,82c-77.7,77.7-82.1,82.2-82.1,85.2s5.6,8.7,106.8,109.8
			c114.2,114.1,106.5,107,116.1,107.9C252.6,5078.1,392.8,5078,396.6,5077.2z"/>
		<path class="st0" d="M333.5,5049.7c-20.4-4.2-33.6-25.4-28.4-45.7c7-27.6,40.7-37.2,61.7-17.6c19.4,18.2,12.8,51.9-12.2,61.4
			C349,5050,339,5050.8,333.5,5049.7z M347.7,5029.5c6.7-2.9,10.9-9.2,11-16.4c0-10.7-10.7-19.4-21.1-17.1
			c-13.6,3.1-18.9,19.9-9.2,29.3C334.2,5030.9,340.8,5032.3,347.7,5029.5z"/>
		<path class="st1" d="M225.5,4950.4c-6.7-1.8-12.1-4.9-17.3-9.6c-7.6-7-14.8-19.1-17.2-28.8l-0.6-2.6l-4.3,4.3l-4.4,4.3l-3.8-3.8
			l-3.9-3.8l6.6-6.6l6.5-6.6l-3.1-6.4c-5.1-10.7-11.1-15.9-22.6-20.2c-4.4-1.5-7.3-1.9-16.7-1.9l-11.4-0.1l-0.4-2.2
			c-1.8-8.8-2.3-13.9-1.7-14.5c0.4-0.4,3.1-1.4,6-2.3c6.2-1.9,12.8-6.6,17.1-12.1c1.7-2.2,6.2-9.3,10.1-16
			c10.9-18.8,22.6-28.8,36.7-31.5c3.4-0.6,4.1-0.5,4.5,0.7c0.6,1.9,3.2,14.4,3.2,15.3c0,0.4-2,1.2-4.4,1.7c-6.4,1.4-12,4.3-15.1,7.6
			c-1.5,1.6-5.1,6.9-7.9,11.9c-9.4,16.4-14.8,22.2-25.6,27.3l-5.8,2.8h10.4c7.9,0,12,0.4,16.2,1.8c10.5,3.2,18.7,9.9,22.8,18.8
			l2.3,4.9l10.3-10.2l10.2-10.2l3.8,3.9l3.9,3.8l-12,12c-6.5,6.6-11.9,12.6-11.9,13.4c0,2.6,5.1,15.4,8.4,21
			c10.4,17.9,30.4,20.9,45.5,6.9c7.2-6.6,10.3-13,10.1-20.6c-0.2-8.5-4.8-18.3-12.2-26.2l-2.7-2.9l6.7-6.7c3.7-3.7,7-6.7,7.4-6.7
			c1.6,0,12,13.8,15.2,20.2c9.2,18.7,5.1,37.7-11.7,54.5c-6.3,6.4-9.2,8.4-15.4,11.4C245.4,4951.7,235.2,4953.1,225.5,4950.4z"/>
	</g>
</g>
</svg>
