<svg xmlns="http://www.w3.org/2000/svg" width="46" height="48" viewBox="0 0 46 48"><g fill="none" fill-rule="evenodd" stroke-width="2" stroke-linecap="round"><path stroke="#333230" d="M22.783 28.78c5.35 0 8.904-7.116 9.423-8.92.038-.13.838-.536.905-.654 2.896-5.125-.27-5.707-.27-5.707s.15-2.7-.522-5.238c0 0-1.697-6.296-9.535-6.296s-9.535 6.296-9.535 6.296c-.672 2.537-.523 5.237-.523 5.237s-3.165.58-.27 5.706c.067.118.868.524.905.655.52 1.804 4.073 8.92 9.423 8.92zm4.91-1.53s.456.885 2.305 1.844M17.872 27.25s-2.038 2.02-5.92 3.245c-5.5 1.735-10.21 5.002-10.62 13.624 0 0 14.12 2.23 26.668 1.88" stroke-linejoin="round"/><path stroke="#E81E75" d="M37 35c0-2.21 1.79-4 4-4s4 1.79 4 4c0 6.267-8 11-8 11s-8-5.467-8-11c0-2.21 1.79-4 4-4s4 1.79 4 4"/></g></svg>