<svg width="70" height="70" viewBox="0 0 70 70" fill="none" xmlns="http://www.w3.org/2000/svg">
<path d="M62.806 57.1735C62.8016 57.1357 62.8105 57.0979 62.7993 57.06C59.6558 44.6851 47.2973 30.0934 45.1787 27.6563C45.3788 27.0019 45.8367 25.5975 46.2569 24.3155C48.1577 18.502 48.1577 18.502 47.9821 18.088C46.1346 13.8169 46.2414 9.26535 46.4681 6.93281C46.6082 5.49501 45.7389 4.17517 44.3539 3.71668C42.9133 3.2426 41.4371 3.00223 39.9699 3.00223C39.9676 3.00223 39.9654 3.00445 39.9632 3.00445C39.9365 3.00445 39.9143 3.01781 39.8898 3.02003C39.7876 3.03116 39.692 3.05342 39.603 3.09793C39.5919 3.10238 39.5808 3.10238 39.5697 3.10683C35.4836 5.35479 31.2885 3.12464 31.2485 3.10238C31.2374 3.09571 31.224 3.09793 31.2129 3.09348C31.1106 3.04229 30.9973 3.01113 30.8772 3.00668C30.8705 3.00668 30.8661 3.00223 30.8594 3.00223C30.855 3.00223 30.8527 3 30.8483 3C29.3788 3 27.9049 3.24038 26.462 3.71445C25.077 4.17294 24.2078 5.49724 24.3478 6.93059C24.5768 9.26312 24.6813 13.8147 22.8361 18.0836C22.656 18.4953 22.656 18.4953 24.579 24.3111C25.0237 25.6599 25.515 27.1422 25.6906 27.6274C23.6164 30.0066 11.1801 44.6406 8.02328 57.0422C8.02328 57.0444 8.02328 57.0444 8.02328 57.0467C8.02328 57.0511 8.02105 57.0533 8.01883 57.0578C8.00994 57.0934 8.01883 57.129 8.01438 57.1646C8.00549 57.2359 7.99438 57.3049 8.00327 57.3761C8.01216 57.4406 8.03884 57.4985 8.06329 57.5564C8.07886 57.5964 8.08108 57.6387 8.10331 57.6788C8.32118 58.0594 13.6745 67 35.4102 67C57.0436 67 62.4436 58.1484 62.7082 57.6899C62.7082 57.6899 62.7082 57.6877 62.7104 57.6877C62.7104 57.6854 62.7171 57.6788 62.7171 57.6765C62.7371 57.6432 62.7393 57.6053 62.7527 57.5697C62.7793 57.5052 62.8082 57.4451 62.8171 57.3761C62.826 57.3093 62.8149 57.2425 62.806 57.1735ZM39.1206 5.1478C39.0406 5.75097 38.8338 6.47209 38.3425 7.0441C37.7223 7.76967 36.7352 8.14582 35.408 8.16585C34.0874 8.14582 33.1026 7.7719 32.4823 7.053C31.9732 6.46319 31.7665 5.71758 31.6909 5.10551C33.256 5.66639 36.0994 6.30739 39.1206 5.1478ZM35.4102 65.333C16.7914 65.333 10.78 58.5223 9.73955 57.1179C13.1699 44.3157 27.0712 28.58 27.2135 28.4219C27.2668 28.3641 27.2535 28.2817 27.2846 28.215C27.3313 28.1215 27.4113 28.0458 27.4202 27.9345C27.4402 27.683 27.4424 27.6674 26.1619 23.788C25.5594 21.963 24.6746 19.2877 24.4679 18.5131C26.3598 13.966 26.2486 9.22083 26.0085 6.77256C25.944 6.11821 26.3464 5.51504 26.9845 5.3036C27.976 4.97642 28.9831 4.81395 29.9902 4.7405C30.0302 5.65971 30.2658 7.02852 31.2107 8.13024C32.1577 9.23641 33.5672 9.81064 35.3991 9.83512C35.4013 9.83512 35.4057 9.83512 35.4102 9.83512C35.4146 9.83512 35.4169 9.83512 35.4213 9.83512C37.2532 9.81064 38.6627 9.23641 39.6097 8.13024C40.5546 7.02852 40.7902 5.65971 40.8302 4.7405C41.8373 4.81395 42.8444 4.97642 43.8359 5.3036C44.474 5.51504 44.8763 6.11821 44.8119 6.77256C44.5718 9.22306 44.4606 13.9705 46.3525 18.5131C46.1458 19.2899 45.2721 21.9674 44.6718 23.7947C43.4068 27.6674 43.4068 27.6808 43.4246 27.9301C43.4446 28.1971 43.5936 28.4442 43.7981 28.6089C45.3188 30.3583 57.8417 45.0368 61.0786 57.1179C60.0315 58.5312 54.0157 65.333 35.4102 65.333Z" fill="black" stroke="black" stroke-width="0.5"/>
<path d="M46.6565 46.2122L46.6554 46.2109L41.2426 40.4617L41.5438 40.1565C41.9087 39.7868 41.9087 39.2217 41.5438 38.8519C41.178 38.4812 40.6165 38.4803 40.2497 38.8492C39.8895 39.194 39.6906 39.3813 39.5509 39.5128C39.245 39.8009 39.2235 39.8212 38.4138 40.6416L35.1182 37.1165C38.8826 32.794 38.8965 26.1606 34.8277 21.8314L34.8275 21.8312C30.5656 17.3035 23.483 17.1628 19.0814 21.483C14.6146 25.8011 14.4785 32.9032 18.7376 37.4281C22.7405 41.6906 29.2866 42.0853 33.8171 38.4167L37.1173 41.9467C36.5833 42.4624 36.4006 42.6475 36.2316 42.8187L36.2307 42.8197C36.0481 43.0047 35.8814 43.1737 35.2791 43.7501L35.279 43.75L35.274 43.7551C34.9091 44.1249 34.9091 44.69 35.274 45.0597C35.6383 45.4289 36.1966 45.4313 36.5635 45.067L36.8458 44.8218L42.258 50.5703C42.2581 50.5705 42.2583 50.5708 42.2585 50.571C43.4281 51.8295 45.4063 51.9055 46.6513 50.6439C47.8963 49.3823 47.8144 47.4588 46.6565 46.2122ZM20.0431 36.1326L20.0432 36.1326L20.0402 36.1295C16.4423 32.4174 16.5697 26.4466 20.3035 22.795C24.0345 19.2141 29.9221 19.348 33.4548 23.1267L33.4564 23.1284C37.0562 26.9088 36.8614 32.8808 33.1946 36.4645C29.5273 39.9808 23.7069 40.0442 20.0431 36.1326ZM45.2874 49.3393C44.7954 49.8378 44.0166 49.8002 43.4947 49.2732L38.0891 43.5316C38.3341 43.2978 38.5246 43.1159 38.6875 42.9603C39.1283 42.5393 39.3683 42.31 39.9444 41.7649L45.3473 47.5037C45.7981 48.0209 45.7965 48.8233 45.2874 49.3393Z" fill="#E81E75" stroke="#E81E75" stroke-width="0.5"/>
</svg>
