<svg width="70" height="70" viewBox="0 0 70 70" fill="none" xmlns="http://www.w3.org/2000/svg">
<path d="M56.91 24.5209V24.5199C56.7614 23.3803 56.2453 22.3775 55.44 21.6406C55.7352 20.587 55.6413 19.4639 55.1644 18.4211C54.6874 17.3763 53.8996 16.571 52.9125 16.1038C52.8831 15.012 52.4629 13.9662 51.6986 13.1071C50.9362 12.2499 49.9451 11.7123 48.8661 11.5569C48.5142 10.5239 47.8066 9.64907 46.8233 9.0528C45.8381 8.45853 44.7316 8.2396 43.6564 8.4068C43.0192 7.52226 42.0828 6.89386 40.9627 6.61333C39.8466 6.33666 38.7303 6.45106 37.751 6.93199C36.8664 6.26346 35.7571 5.93012 34.6527 6.01226C33.5061 6.07572 32.4692 6.51466 31.6745 7.2604C30.6463 6.88599 29.5222 6.89679 28.4442 7.2956C27.3633 7.69333 26.5002 8.42053 25.9617 9.37254C24.8562 9.31494 23.7938 9.66187 22.8849 10.3548C21.9719 11.0536 21.3621 12.0007 21.1275 13.0662C20.069 13.3388 19.1445 13.981 18.4789 14.9154C17.8123 15.8518 17.5074 16.9356 17.5973 18.0235C16.6658 18.5952 15.9699 19.4827 15.6093 20.5735C15.2486 21.6643 15.2779 22.7893 15.6835 23.8009C14.9622 24.6219 14.5595 25.6745 14.537 26.823C14.5126 27.9725 14.8722 29.0397 15.5594 29.8872C15.1118 30.8841 15.0365 32.0081 15.3531 33.1125C15.6698 34.218 16.3275 35.1318 17.2346 35.7397C17.0997 36.8227 17.3587 37.9184 17.9862 38.882C18.6146 39.8457 19.5138 40.524 20.5597 40.8388C20.7502 41.912 21.321 42.8835 22.2066 43.6204C22.5128 43.8748 22.851 44.0715 23.2004 44.2403L14.0698 64.7064C13.9407 64.9957 13.9935 65.3318 14.2047 65.5665C14.4159 65.8012 14.7423 65.889 15.0443 65.7952L21.8382 63.6234L25.177 69.4859C25.3285 69.7517 25.61 69.8924 25.9248 69.8885C26.2297 69.8689 26.4976 69.6755 26.6138 69.392L34.65 49.8031L42.8943 69.5073C43.0116 69.7888 43.2794 69.9784 43.5824 69.998C43.6 69.998 43.6176 70 43.6332 70C43.9187 70 44.1844 69.8475 44.3272 69.5973L47.7071 63.7056L53.9644 65.2616C54.2596 65.3437 54.5724 65.2361 54.7658 65.0054C54.9633 64.7748 55.0141 64.4522 54.8949 64.1726L46.8974 45.3139C47.4814 44.8128 47.935 44.1956 48.2075 43.4871C49.269 43.3855 50.2991 42.8811 51.1085 42.0464C51.9061 41.2195 52.3693 40.1913 52.4417 39.1035C53.4465 38.6783 54.2656 37.9061 54.7854 36.8799C55.3054 35.8556 55.4442 34.7374 55.194 33.675C56.0286 32.9742 56.5838 31.9958 56.7793 30.8621C56.9748 29.7302 56.7793 28.62 56.2241 27.6758C56.8142 26.7591 57.0566 25.6605 56.91 24.5209ZM25.7556 67.2652L22.9084 62.2668C22.7197 61.9384 22.3249 61.7878 21.969 61.9012L16.261 63.725L24.7554 44.6844C24.9128 44.7008 25.0694 44.7264 25.2277 44.7264C25.2316 44.7264 25.2356 44.7264 25.2385 44.7264C25.738 45.6979 26.5688 46.4564 27.6282 46.9002C27.6704 46.9179 27.7141 46.9252 27.7565 46.9416L23.8125 56.9557C23.6502 57.3662 23.8526 57.8314 24.2641 57.9937C24.3598 58.0327 24.4596 58.0503 24.5573 58.0503C24.8769 58.0503 25.178 57.8569 25.3021 57.5421L29.3477 47.27C29.8591 47.2851 30.3684 47.2226 30.8596 47.0683C31.5587 47.7826 32.4764 48.2306 33.5004 48.3878L25.7556 67.2652ZM47.5074 62.0069C47.1634 61.917 46.7978 62.0753 46.6199 62.3842L43.7464 67.3924L35.7249 48.2227C36.148 48.086 36.552 47.8983 36.9164 47.647C37.8723 48.165 38.9886 48.3272 40.1164 48.0966C40.1536 48.0888 40.187 48.0732 40.2238 48.0648L44.3192 57.8862C44.4483 58.1931 44.7454 58.3789 45.0582 58.3789C45.1618 58.3789 45.2654 58.3593 45.367 58.3163C45.7735 58.1463 45.9671 57.6771 45.797 57.2686L41.707 47.4607C42.1547 47.1806 42.5516 46.8306 42.8784 46.4136C43.7538 46.5883 44.6562 46.4874 45.5111 46.1474L52.795 63.3205L47.5074 62.0069ZM54.6132 28.15C55.1468 28.8302 55.356 29.6962 55.1996 30.5896C55.0452 31.4858 54.5624 32.2306 53.837 32.688C53.5125 32.8913 53.3795 33.2949 53.5165 33.6517C53.8234 34.457 53.7686 35.3465 53.3581 36.1568C52.9457 36.9671 52.2634 37.5369 51.4326 37.7607C51.0631 37.8604 50.8169 38.2073 50.8422 38.5885C50.9009 39.4476 50.5861 40.2813 49.9567 40.9343C49.3214 41.5872 48.4418 41.9723 47.6638 41.8999C47.2201 41.8979 46.9249 42.1364 46.835 42.5156C46.6375 43.3562 46.0902 44.0599 45.2986 44.4958C44.501 44.9316 43.6175 45.0176 42.7984 44.7382C42.4348 44.6131 42.04 44.7596 41.8484 45.088C41.4106 45.8328 40.6795 46.345 39.7959 46.5267C38.9006 46.7143 38.0268 46.5267 37.3368 46.0223C37.0289 45.7975 36.6048 45.821 36.3223 46.0771C35.6987 46.6499 34.8777 46.9391 33.9364 46.8434C33.0333 46.7594 32.2533 46.3292 31.7403 45.6372C31.5848 45.428 31.3444 45.3127 31.0972 45.3127C30.9809 45.3127 30.8636 45.3382 30.7532 45.3908C29.9743 45.7642 29.0838 45.772 28.2472 45.4222C27.4096 45.0723 26.7898 44.4331 26.5025 43.6218C26.3754 43.262 26.0128 43.0412 25.6346 43.0979C24.7833 43.2152 23.9281 42.9669 23.2302 42.3883C22.5314 41.8057 22.1277 41.0121 22.0936 40.154C22.078 39.7719 21.7945 39.4532 21.4171 39.3945C20.5669 39.2607 19.8239 38.768 19.3275 38.0067C18.8319 37.2463 18.6805 36.3685 18.9014 35.5368C18.9991 35.1673 18.8222 34.7802 18.4791 34.6121C17.7061 34.2338 17.143 33.5448 16.8929 32.671C16.6426 31.7982 16.7561 30.9146 17.2125 30.1826C17.4147 29.8592 17.3601 29.4369 17.0805 29.1749C16.4539 28.5874 16.1197 27.7635 16.1382 26.8546C16.1558 25.9466 16.5243 25.1363 17.1762 24.5714C17.4645 24.3211 17.5359 23.9019 17.3473 23.5706C16.9221 22.8229 16.8449 21.9374 17.1303 21.0753C17.4147 20.2142 18.0061 19.5476 18.7958 19.1987C19.1447 19.0452 19.3363 18.666 19.2542 18.2936C19.0685 17.4531 19.2562 16.5832 19.783 15.8434C20.3089 15.1055 21.0702 14.6431 21.9274 14.5424C22.3057 14.4975 22.6009 14.1915 22.6312 13.8123C22.7016 12.9542 23.1374 12.1781 23.8568 11.6277C24.5752 11.0804 25.4412 10.8673 26.2964 11.0168C26.6746 11.0881 27.0401 10.878 27.1809 10.5261C27.5005 9.72561 28.1456 9.11187 29.0008 8.79707C29.8492 8.4784 30.7367 8.5292 31.4991 8.93C31.8353 9.10787 32.2527 9.0228 32.494 8.72573C33.0364 8.0572 33.8349 7.66133 34.7547 7.6096C35.6313 7.55386 36.4779 7.8628 37.0925 8.47453C37.3614 8.74333 37.7866 8.78533 38.1032 8.57227C38.8207 8.09333 39.7042 7.94973 40.576 8.16667C41.4596 8.3876 42.1692 8.928 42.5719 9.68747C42.7536 10.0256 43.1466 10.1928 43.5102 10.0784C44.339 9.83307 45.2206 9.95521 45.9947 10.4224C46.7707 10.8925 47.2887 11.6177 47.453 12.4632C47.5253 12.8376 47.8518 13.1083 48.233 13.1112C49.095 13.118 49.9005 13.4944 50.5025 14.1718C51.1065 14.85 51.3879 15.6964 51.2961 16.5536C51.255 16.9328 51.4877 17.2876 51.8493 17.403C52.6722 17.663 53.331 18.2602 53.7082 19.086C54.0856 19.9101 54.105 20.8005 53.763 21.5921C53.6125 21.943 53.7278 22.3505 54.0425 22.5675C54.7501 23.0582 55.2056 23.8245 55.3229 24.7257C55.4382 25.6249 55.1938 26.4801 54.6348 27.1339C54.3864 27.4247 54.3766 27.8498 54.6132 28.15Z" fill="black"/>
<path d="M35.7435 11.7228C27.1923 11.7228 20.2361 18.679 20.2361 27.2302C20.2361 35.7814 27.1924 42.7385 35.7435 42.7385C44.2957 42.7385 51.2528 35.7814 51.2528 27.2302C51.2528 18.679 44.2958 11.7228 35.7435 11.7228ZM35.7435 41.1356C28.0759 41.1356 21.8372 34.8978 21.8372 27.2302C21.8372 19.5626 28.0759 13.3239 35.7435 13.3239C43.4122 13.3239 49.6498 19.5626 49.6498 27.2302C49.6498 34.8978 43.4122 41.1356 35.7435 41.1356Z" fill="black"/>
<path d="M36.2831 15.9461C36.1394 15.6773 35.8344 15.5229 35.552 15.5209C35.2471 15.5297 34.9744 15.7115 34.8474 15.9881L31.9279 22.3744L25.0128 23.5883C24.7128 23.6411 24.4684 23.86 24.3833 24.1523C24.2973 24.4446 24.3853 24.7603 24.6101 24.9664L29.7805 29.7166L28.7983 36.6678C28.7552 36.9698 28.8881 37.27 29.1393 37.442C29.2752 37.5338 29.4325 37.5808 29.5909 37.5808C29.7259 37.5808 29.8617 37.5465 29.9839 37.4781L36.0994 34.0279L42.4075 37.1106C42.6831 37.2465 43.0077 37.2113 43.2481 37.0246C43.4905 36.8389 43.6038 36.531 43.5433 36.2329L42.1534 29.351L47.0326 24.3027C47.2457 24.0838 47.3141 23.7632 47.2125 23.4768C47.1089 23.1895 46.8528 22.9862 46.5498 22.951L39.5751 22.1475L36.2831 15.9461ZM40.7107 28.5409C40.527 28.7295 40.4487 28.9973 40.5015 29.2554L41.6529 34.9594L36.4248 32.4045C36.1874 32.2891 35.9098 32.2989 35.68 32.4259L30.6103 35.2858L31.4244 29.5241C31.4616 29.2631 31.3678 29.0002 31.1732 28.8223L26.8883 24.8854L32.6198 23.8787C32.8788 23.8327 33.0996 23.6627 33.2091 23.4232L35.6291 18.1296L38.357 23.2707C38.4802 23.5034 38.7109 23.6607 38.9727 23.691L44.755 24.3566L40.7107 28.5409Z" fill="#E81E75"/>
</svg>
