<svg xmlns="http://www.w3.org/2000/svg" width="43" height="46" viewBox="0 0 43 46"><g fill="none" fill-rule="evenodd" stroke-width="2" stroke-linecap="round"><path stroke="#333230" stroke-linejoin="round" d="M23.824 24.444L15 30 1 21l4-2M39 11l3 2-10.858 6.836"/><path stroke="#333230" stroke-linejoin="round" d="M23.94 29.37L15 35 1 26l4-2M39 16l3 2-10.888 6.855"/><path stroke="#333230" stroke-linejoin="round" d="M23.91 34.39L15 40 1 31l4-2M39 21l3 2-10.906 6.867"/><path stroke="#E81E75" d="M12 10l11.2 8.4c.504.378.8.97.8 1.6v19M20 6l10.183 7.406c.514.373.82.97.823 1.605l.12 19.303"/><path stroke="#333230" stroke-linejoin="round" d="M23.794 19.463L15 25 1 16 28 1l14 7-10.84 6.825M39 26l3 2-27 17-14-9 4-2"/></g></svg>