<svg width="70" height="70" viewBox="0 0 70 70" fill="none" xmlns="http://www.w3.org/2000/svg">
<path d="M9.93976 14.9539C13.7952 14.9539 16.9249 18.0836 16.9249 21.9391C16.9249 22.4833 16.8568 23.0276 16.7434 23.5266L27.7201 28.0624C28.7179 26.2481 30.2828 24.7739 32.1425 23.8668L28.3551 13.1396C28.219 13.1623 28.0829 13.1623 27.9468 13.1623C25.4295 13.1623 23.3657 11.0985 23.3657 8.58115C23.3657 6.06378 25.4295 4 27.9468 4C30.4642 4 32.528 6.06378 32.528 8.58115C32.528 10.1687 31.7116 11.5748 30.4869 12.3912L34.297 23.1184C35.0227 22.9596 35.7938 22.8689 36.5648 22.8689C38.1751 22.8689 39.6945 23.2544 41.0553 23.9121L44.5252 18.5145C43.2778 17.3579 42.4841 15.6797 42.4841 13.8427C42.4841 10.3274 45.3416 7.4472 48.8795 7.4472C52.4174 7.4472 55.275 10.3274 55.275 13.8427C55.275 17.3579 52.4174 20.2381 48.8795 20.2381C48.0177 20.2381 47.1786 20.0567 46.4302 19.7392L42.9603 25.1368C44.6386 26.4975 45.8632 28.3799 46.3848 30.5571L59.7654 28.8335C60.0829 27.1552 61.5797 25.8625 63.3487 25.8625C65.3671 25.8625 67 27.4954 67 29.5138C67 31.5322 65.3671 33.1651 63.3487 33.1651C61.8972 33.1651 60.6499 32.3033 60.0602 31.0787L46.6797 32.8023C46.6797 32.8476 46.6797 32.9157 46.6797 32.961C46.6797 35.433 45.7952 37.6782 44.3211 39.4472L54.005 49.6074C55.2523 48.7229 56.7491 48.224 58.382 48.224C62.5776 48.224 66.0021 51.6485 66.0021 55.8441C66.0021 60.0397 62.5776 63.4642 58.382 63.4642C54.1864 63.4642 50.7619 60.0397 50.7619 55.8441C50.7619 54.0751 51.3515 52.4649 52.3721 51.1722L42.6882 41.012C41.2821 42.078 39.6038 42.781 37.7668 43.0078L38.107 49.0631C39.6038 49.5167 40.6697 50.9228 40.6697 52.5556C40.6697 54.5741 39.0369 56.2069 37.0184 56.2069C35 56.2069 33.3671 54.5741 33.3671 52.5556C33.3671 50.9681 34.3877 49.6074 35.8391 49.1084L35.4989 43.0305C34.2743 42.8944 33.1176 42.5542 32.0517 42.0099L22.2544 57.1141C23.0028 57.9305 23.4791 59.0191 23.4791 60.2211C23.4791 62.7385 21.4153 64.8023 18.8979 64.8023C16.3806 64.8023 14.3168 62.7385 14.3168 60.2211C14.3168 57.7038 16.3806 55.64 18.8979 55.64C19.4196 55.64 19.8958 55.7307 20.3721 55.8894L30.1694 40.7853C29.2395 40.0142 28.4231 39.0617 27.8335 37.9957L19.4649 41.6244C19.4649 41.7378 19.4876 41.8512 19.4876 41.9646C19.4876 43.983 17.8547 45.6159 15.8363 45.6159C13.8179 45.6159 12.185 43.983 12.185 41.9646C12.185 39.9461 13.8179 38.3133 15.8363 38.3133C16.9249 38.3133 17.9001 38.7895 18.5578 39.5379L26.9263 35.9093C26.6315 34.9794 26.4954 33.9816 26.4954 32.961C26.4954 31.9858 26.6315 31.056 26.8809 30.1715L15.9043 25.613C14.6797 27.5861 12.4798 28.9015 9.98512 28.9015C6.1297 28.9015 3 25.7718 3 21.9164C3 18.0609 6.10702 14.9539 9.93976 14.9539ZM27.9695 6.2679C26.6995 6.2679 25.6563 7.31113 25.6563 8.58115C25.6563 9.85117 26.6995 10.8944 27.9695 10.8944C29.2395 10.8944 30.2828 9.85117 30.2828 8.58115C30.2828 7.31113 29.2395 6.2679 27.9695 6.2679ZM53.0071 13.8427C53.0071 11.5748 51.1474 9.7151 48.8795 9.7151C46.6116 9.7151 44.752 11.5748 44.752 13.8427C44.752 16.1106 46.6116 17.9702 48.8795 17.9702C51.1474 17.9702 53.0071 16.1106 53.0071 13.8427ZM63.3487 30.8972C64.1198 30.8972 64.7321 30.2849 64.7321 29.5138C64.7321 28.7427 64.1198 28.1304 63.3487 28.1304C62.5776 28.1304 61.9653 28.7427 61.9653 29.5138C61.9653 30.2849 62.5776 30.8972 63.3487 30.8972ZM16.562 60.1984C16.562 61.4685 17.6052 62.5117 18.8753 62.5117C20.1453 62.5117 21.1885 61.4685 21.1885 60.1984C21.1885 58.9284 20.1453 57.8852 18.8753 57.8852C17.6052 57.8852 16.562 58.8831 16.562 60.1984ZM15.7909 40.5585C15.0198 40.5585 14.4075 41.1708 14.4075 41.9419C14.4075 42.713 15.0198 43.3253 15.7909 43.3253C16.562 43.3253 17.1743 42.713 17.1743 41.9419C17.1743 41.1708 16.562 40.5585 15.7909 40.5585ZM58.382 61.1736C61.3303 61.1736 63.7342 58.7697 63.7342 55.8214C63.7342 52.8731 61.3303 50.4692 58.382 50.4692C55.4337 50.4692 53.0298 52.8731 53.0298 55.8214C53.0298 58.7697 55.4337 61.1736 58.382 61.1736ZM37.0184 53.9164C37.7895 53.9164 38.4018 53.304 38.4018 52.533C38.4018 51.7619 37.7895 51.1495 37.0184 51.1495C36.2473 51.1495 35.635 51.7619 35.635 52.533C35.635 53.304 36.2473 53.9164 37.0184 53.9164ZM36.5648 40.8079C40.8965 40.8079 44.4118 37.2927 44.4118 32.961C44.4118 28.6293 40.8965 25.1141 36.5648 25.1141C32.2332 25.1141 28.7179 28.6293 28.7179 32.961C28.7179 37.2927 32.2332 40.8079 36.5648 40.8079ZM9.93976 26.6336C12.5478 26.6336 14.657 24.5245 14.657 21.9164C14.657 19.3083 12.5478 17.1991 9.93976 17.1991C7.33168 17.1991 5.22254 19.3083 5.22254 21.9164C5.22254 24.5245 7.35436 26.6336 9.93976 26.6336Z" fill="black"/>
<circle cx="36.486" cy="33.1374" r="9.83657" fill="white" stroke="#E81E75" stroke-width="2.17989"/>
</svg>
