<svg width="116" height="116" viewBox="0 0 116 116" fill="none" xmlns="http://www.w3.org/2000/svg">
<g clip-path="url(#clip0)">
<g clip-path="url(#clip1)">
<path d="M1.13714 67.0292C-3.86306 35.4436 17.6881 5.77881 49.2737 0.774349C80.8593 -4.23011 110.524 17.321 115.524 48.9109C120.529 80.4965 98.9776 110.161 67.3877 115.162C35.8021 120.166 6.14161 98.6148 1.13714 67.0292Z" fill="white"/>
<path d="M38.6245 34.5662C32.7001 35.5032 28.6582 41.0699 29.5952 46.9943C30.5322 52.9187 36.0946 56.9606 42.0233 56.0236C47.9477 55.0866 51.9896 49.52 51.0526 43.5955C50.1156 37.6711 44.5489 33.6292 38.6245 34.5662Z" fill="#E81E75"/>
<path d="M43.3947 64.6824C37.4703 65.6194 33.4284 71.1861 34.3654 77.1105C35.3024 83.0349 40.8648 87.0769 46.7935 86.1398C52.7179 85.2028 56.7598 79.6362 55.8228 73.7117C54.8858 67.7873 49.3234 63.7454 43.3947 64.6824Z" fill="#A60043"/>
<path d="M68.7449 29.796C62.8205 30.733 58.7786 36.2997 59.7156 42.2241C60.6526 48.1485 66.215 52.1904 72.1437 51.2534C78.0682 50.3164 82.1101 44.7497 81.1731 38.8253C80.2318 32.9009 74.6694 28.859 68.7449 29.796Z" fill="#69BAA5"/>
<path d="M73.5152 59.9165C67.5907 60.8535 63.5488 66.4202 64.4858 72.3446C65.4229 78.269 70.9853 82.3109 76.9097 81.3739C82.8341 80.4369 86.876 74.8702 85.939 68.9458C85.002 63.0214 79.4396 58.9752 73.5152 59.9165Z" fill="#0E6B59"/>
</g>
<path d="M74.0128 74.8496L75.1017 73.6038L80.5048 67.576L79.2591 66.4871L73.856 72.5149L71.5094 70.4623L70.4205 71.708L72.767 73.7607L74.0128 74.8496Z" fill="white"/>
<path d="M38.8841 49.0885L39.973 47.8428L45.3761 41.815L44.1304 40.7261L38.7273 46.7539L36.3807 44.7013L35.2918 45.947L37.6384 47.9996L38.8841 49.0885Z" fill="white"/>
<path d="M75.7659 36.2245L74.7246 35.1832L70.5965 39.3113L66.4685 35.1832L65.4272 36.2245L69.5553 40.3525L65.4272 44.4806L66.4685 45.5218L70.5965 41.3938L74.7246 45.5218L75.7659 44.4806L71.6378 40.3525L75.7659 36.2245Z" fill="white"/>
<path d="M50.0048 71.3532L48.9636 70.3119L44.8355 74.44L40.7074 70.3119L39.6662 71.3532L43.7943 75.4812L39.6662 79.6093L40.7074 80.6505L44.8355 76.5225L48.9636 80.6505L50.0048 79.6093L45.8767 75.4812L50.0048 71.3532Z" fill="white"/>
</g>
<defs>
<clipPath id="clip0">
<rect width="115.83" height="115.83" fill="white" transform="translate(0.0849915)"/>
</clipPath>
<clipPath id="clip1">
<rect width="115.831" height="115.831" fill="white" transform="translate(-0.146301 0.0545502)"/>
</clipPath>
</defs>
</svg>
