<svg width="36" height="36" viewBox="0 0 36 36" fill="none" xmlns="http://www.w3.org/2000/svg">
<path d="M34.7647 18.0001C34.7647 19.7101 34.5132 21.3698 34.0271 22.9289C32.7026 20.0286 29.7856 18.0001 26.3823 18.0001C21.7553 18.0001 18 21.7554 18 26.3824C18 29.7856 20.0285 32.7027 22.9288 34.0271C21.3697 34.5133 19.71 34.7648 18 34.7648C8.74588 34.7648 1.23529 27.2542 1.23529 18.0001C1.23529 8.74594 8.74588 1.23535 18 1.23535C27.2541 1.23535 34.7647 8.74594 34.7647 18.0001Z" stroke="#444C61" stroke-width="2" stroke-miterlimit="10" stroke-linecap="round" stroke-linejoin="round"/>
<path d="M22.912 34.0103C20.0118 32.6858 18 29.7688 18 26.3823C18 24.5382 18.5868 22.845 19.6094 21.4535C19.0729 21.3864 18.5365 21.3529 18 21.3529C12.5011 21.3529 7.79025 24.6556 5.71143 29.3832C8.77937 32.6859 13.1382 34.7647 18 34.7647C19.71 34.7647 21.3529 34.5132 22.912 34.0103Z" stroke="#444C61" stroke-width="2" stroke-miterlimit="10" stroke-linecap="round"/>
<path d="M19.8777 21.0847H19.8944C20.8165 19.9447 22.0571 19.0394 23.4653 18.5197C24.2532 17.4132 24.7059 16.0888 24.7059 14.647C24.7059 10.942 21.705 7.94116 18 7.94116C14.295 7.94116 11.2941 10.942 11.2941 14.647C11.2941 18.352 14.295 21.3529 18 21.3529C18.6538 21.3529 19.2909 21.2523 19.8944 21.0847" stroke="#444C61" stroke-width="2" stroke-miterlimit="10" stroke-linecap="round" stroke-linejoin="round"/>
<path d="M26.3824 34.7647C31.0118 34.7647 34.7647 31.0118 34.7647 26.3824C34.7647 21.7529 31.0118 18 26.3824 18C21.7529 18 18 21.7529 18 26.3824C18 31.0118 21.7529 34.7647 26.3824 34.7647Z" stroke="#E81E75" stroke-width="2" stroke-miterlimit="10" stroke-linecap="round" stroke-linejoin="round"/>
<path d="M22.3588 25.2927L25.3765 28.3103L30.4059 23.2809" stroke="#E81E75" stroke-width="2" stroke-miterlimit="10"/>
</svg>
