<svg xmlns="http://www.w3.org/2000/svg" width="47" height="45" viewBox="0 0 47 45"><g fill="none" fill-rule="evenodd" stroke-width="2" stroke-linecap="round"><path d="M16.667 33.302c3.74 0 6.226-4.976 6.588-6.236.027-.092.587-.376.633-.46 2.025-3.582-.188-3.99-.188-3.99s.104-1.887-.366-3.66c0 0-1.186-4.403-6.667-4.403-5.48 0-6.668 4.402-6.668 4.402-.47 1.774-.367 3.662-.367 3.662s-2.213.407-.188 3.99c.047.083.606.367.633.46.363 1.26 2.848 6.235 6.59 6.235zm-15 10.726c.287-6.03 3.58-8.313 7.426-9.527 2.714-.855 4.14-2.268 4.14-2.268m6.868 0s1.426 1.413 4.14 2.27c3.846 1.213 7.14 3.497 7.427 9.526" stroke="#333230" stroke-linejoin="round"/><path stroke="#E81E75" d="M45.5 10c0 4.138-3.443 7.596-8.035 8.432-.694.127-5.414 5.193-6.153 5.193-1.574 0 .936-5.302-.395-5.842-3.426-1.39-5.792-4.352-5.792-7.783 0-4.763 4.56-8.625 10.187-8.625S45.5 5.237 45.5 10z"/></g></svg>