<svg width="49" height="49" viewBox="0 0 49 49" fill="none" xmlns="http://www.w3.org/2000/svg">
<circle cx="24.5" cy="24.5" r="24.5" fill="#444C61"/>
<path d="M34.7376 17.1286L36.7518 15.1C36.1418 14.3714 35.4752 13.6857 34.7518 13.0857L32.7376 15.1143C30.539 13.3428 27.773 12.2857 24.766 12.2857C17.7163 12.2857 12 18.0428 12 25.1428C12 32.2428 17.7021 38 24.766 38C31.8298 38 37.5319 32.2428 37.5319 25.1428C37.5319 22.1143 36.4823 19.3286 34.7376 17.1286ZM24.766 35.1428C19.2766 35.1428 14.8369 30.6714 14.8369 25.1428C14.8369 19.6143 19.2766 15.1428 24.766 15.1428C30.2553 15.1428 34.695 19.6143 34.695 25.1428C34.695 30.6714 30.2553 35.1428 24.766 35.1428Z" fill="white"/>
<path d="M29.0213 8H20.5107V10.8571H29.0213V8ZM23.3475 26.5714H26.1844V18H23.3475V26.5714Z" fill="white"/>
</svg>
