<svg width="49" height="49" viewBox="0 0 49 49" fill="none" xmlns="http://www.w3.org/2000/svg">
<circle cx="24.5" cy="24.5" r="24.5" fill="#444C61"/>
<path d="M30.4596 9H19.5404C15.3758 9 12 12.9857 12 17.9026V38.2301C12 38.6931 12.3211 39 12.6557 39C12.8156 39 12.9786 38.9299 13.1113 38.7732L18.3916 32.539C18.5135 32.395 18.6792 32.3138 18.8516 32.3138H30.4592C34.6242 32.3144 38 28.3282 38 23.4117V17.9026C38 12.9862 34.6242 9 30.4596 9ZM36.6877 23.4117C36.6877 27.4665 33.8939 30.765 30.4596 30.765H18.8521C18.3277 30.765 17.8346 31.006 17.4639 31.4437L13.3123 36.3454V17.9026C13.3123 13.8479 16.1061 10.5493 19.5404 10.5493H30.4596C33.8939 10.5493 36.6877 13.8479 36.6877 17.9026V23.4117Z" fill="white" stroke="white" stroke-width="0.75"/>
<path d="M24.24 23.31C24.24 22.95 24.27 22.62 24.33 22.32C24.39 22.02 24.486 21.726 24.618 21.438C24.762 21.15 24.954 20.862 25.194 20.574C25.434 20.274 25.734 19.944 26.094 19.584C26.514 19.164 26.814 18.762 26.994 18.378C27.174 17.994 27.264 17.562 27.264 17.082C27.264 16.446 27.084 15.96 26.724 15.624C26.364 15.276 25.842 15.102 25.158 15.102C24.81 15.102 24.504 15.192 24.24 15.372C23.976 15.54 23.844 15.744 23.844 15.984C24.084 16.116 24.27 16.302 24.402 16.542C24.546 16.77 24.618 17.016 24.618 17.28C24.618 17.616 24.48 17.916 24.204 18.18C23.94 18.432 23.58 18.558 23.124 18.558C22.896 18.558 22.686 18.51 22.494 18.414C22.302 18.306 22.14 18.162 22.008 17.982C21.876 17.802 21.768 17.592 21.684 17.352C21.612 17.112 21.576 16.86 21.576 16.596C21.576 16.212 21.672 15.852 21.864 15.516C22.056 15.18 22.32 14.892 22.656 14.652C22.992 14.4 23.388 14.202 23.844 14.058C24.3 13.914 24.792 13.842 25.32 13.842C25.956 13.842 26.538 13.92 27.066 14.076C27.594 14.232 28.044 14.448 28.416 14.724C28.8 15 29.094 15.33 29.298 15.714C29.514 16.098 29.622 16.518 29.622 16.974C29.622 17.514 29.472 18.042 29.172 18.558C28.872 19.062 28.356 19.656 27.624 20.34C27.276 20.664 26.982 20.952 26.742 21.204C26.514 21.456 26.328 21.696 26.184 21.924C26.04 22.14 25.938 22.362 25.878 22.59C25.818 22.806 25.788 23.046 25.788 23.31H24.24ZM23.628 26.064C23.628 25.608 23.754 25.254 24.006 25.002C24.258 24.738 24.6 24.606 25.032 24.606C25.464 24.606 25.806 24.738 26.058 25.002C26.322 25.266 26.454 25.614 26.454 26.046C26.454 26.478 26.328 26.82 26.076 27.072C25.824 27.324 25.47 27.45 25.014 27.45C24.582 27.45 24.24 27.33 23.988 27.09C23.748 26.85 23.628 26.508 23.628 26.064Z" fill="white"/>
</svg>
