<svg xmlns="http://www.w3.org/2000/svg" width="43" height="44" viewBox="0 0 43 44"><g fill="none" fill-rule="evenodd" stroke-width="2" transform="translate(1 1)" stroke-linecap="round"><path stroke="#333230" d="M41 14l-3.62 14.485c-.224.89-1.024 1.515-1.942 1.515H15.473c-.876 0-1.65-.57-1.91-1.407L5 1H0" stroke-linejoin="round"/><circle cx="19" cy="38" r="4" stroke="#333230" stroke-linejoin="round"/><circle cx="34" cy="38" r="4" stroke="#333230" stroke-linejoin="round"/><path stroke="#333230" d="M11 18h29m-28 4h27m-25 4h23" stroke-linejoin="round"/><path stroke="#E81E75" d="M33.63 12l1.91-3.36c.547-.96.212-2.18-.748-2.726L25.175.442c-.96-.547-2.18-.21-2.727.75L16.298 12M28 3l-6 10"/></g></svg>