<svg xmlns="http://www.w3.org/2000/svg" width="45" height="42" viewBox="0 0 45 42"><g fill="none" fill-rule="evenodd" stroke-width="2" stroke-linecap="round"><path stroke="#333230" d="M31.008 41.025c-.878-1.695-1.348-6.402-6.736-8.75-3.822-1.667-3.98-1.68-3.98-3.232 1.463-.43 5.11.39 6.37-1.293 1.165-1.55-.222-2.827-1.356-4.782-1.874-3.232-1.89-4.474-2.068-6.205-.49-4.777-3.33-6.974-7.226-7.237-3.896.263-6.734 2.46-7.225 7.237-.178 1.73-.194 2.973-2.068 6.205-1.135 1.955-2.522 3.23-1.358 4.782 1.26 1.682 4.907.862 6.372 1.293 0 1.55-.082 1.756-3.98 3.23-5.147 1.948-5.872 7.07-6.746 8.77" stroke-linejoin="round"/><path stroke="#E81E75" d="M42 13h-2l-8 7v-7h-3c-1.105 0-2-.895-2-2V3c0-1.105.895-2 2-2h13c1.105 0 2 .895 2 2v8c0 1.105-.895 2-2 2zM32 5h7m-7 3h2"/></g></svg>