<?xml version="1.0" encoding="utf-8"?>
<!-- Generator: Adobe Illustrator 23.0.1, SVG Export Plug-In . SVG Version: 6.00 Build 0)  -->
<svg version="1.1" id="Layer_1" xmlns="http://www.w3.org/2000/svg" xmlns:xlink="http://www.w3.org/1999/xlink" x="0px" y="0px"
	 viewBox="0 0 50.2 26.1" style="enable-background:new 0 0 50.2 26.1;" xml:space="preserve">
<style type="text/css">
	.st0{fill:#E81E75;}
</style>
<g transform="translate(0.000000,1600.000000) scale(0.100000,-0.100000)">
	<path class="st0" d="M244.2,15999.5c-19-3.4-33.2-20-33.2-38.6c0-3.4,0.1-3.9,0.8-5.4c1.1-2.2,3.8-4.6,5.9-5.3
		c2.2-0.7,5.6-0.5,7.6,0.4c1.9,0.9,3.9,2.9,4.7,4.7c0.4,0.9,0.9,2.8,1.1,5.3c0.5,4.5,0.8,5.7,2.1,8.3c3.4,6.8,10.2,10.9,17.9,10.9
		c9.5,0,17.6-6.6,19.5-15.9c1.2-5.7,0-13.2-2.8-17.5c-1.6-2.5-4.6-5.4-10.8-10.3c-8.9-7.1-12.3-11.3-14.7-18.1l-1.1-3.3l-0.2-9.4
		l-0.2-9.5l-24.5-11c-35.5-15.9-53.7-24.1-106.5-48.1c-90.6-41.2-90.7-41.2-96.2-44.9c-7.1-4.7-11.4-10.4-13.2-17.4
		c-1.3-5-0.5-12.3,1.9-17.6c3.6-7.9,10.3-13.8,19-16.8l2.7-0.9l225.7-0.1c205.9-0.1,226,0,228.3,0.4c5.2,1,10.2,3.7,14.3,7.5
		c3.3,3.1,5,5.5,6.9,9.4c2,4.1,2.4,6.1,2.6,11.1c0.2,5.2-0.3,7.9-2.2,11.9c-3,6.6-8.2,11.5-16.6,15.7c-4.4,2.2-91.8,41.9-188,85.3
		l-33.9,15.3l0,8.1v8.1l0.9,1.4c1.1,1.7,2.4,2.9,8.4,7.9c13,10.9,18.9,20.5,20.4,33.8c2.4,21.1-12.3,40.8-33.2,44.4
		C254.2,16000.1,247.6,16000.2,244.2,15999.5z M338.8,15838.6c90.6-41.2,127.3-57.9,133-60.6c4.2-2,7.5-4,9-5.5c1-1,1-1.2,1-3.3
		c0-2.9-0.9-5.3-2.6-7c-1.8-1.8-3.2-2.5-5.9-2.9c-1.5-0.2-71.1-0.3-223.8-0.3c-213.7,0.1-221.7,0.1-223.1,0.7
		c-3.6,1.4-5.9,4.7-6.2,8.8c-0.2,2.8,0.1,3.3,3.2,5.5c4.3,3.1,1.4,1.7,100.4,46.6c35.7,16.2,78.9,35.8,96,43.7
		c29.9,13.7,31.2,14.2,32.1,13.8C252.5,15877.9,291.6,15860.1,338.8,15838.6z"/>
</g>
</svg>
