<svg xmlns="http://www.w3.org/2000/svg" width="48" height="39" viewBox="0 0 48 39"><g fill="none" fill-rule="evenodd" stroke-width="2" stroke-linecap="round"><path stroke="#333230" d="M37.935 31.613c3.18-.184 5.61-.767 7.923-2.63.615-.494.804-1.35.498-2.08-.87-2.07-2.395-5.628-5.166-6.582-3.322-1.143-3.355-1.415-3.355-2.722 1.234-.363 4.306.328 5.37-1.09.98-1.305-.19-2.38-1.144-4.028-1.578-2.722-1.592-3.768-1.742-5.226-.413-4.025-2.804-5.876-6.087-6.097-2.046.138-3.746.91-4.837 2.447m-19.44 27.96c-3.18-.183-5.498-.718-7.812-2.58-.613-.495-.802-1.352-.496-2.08.87-2.07 2.395-5.63 5.166-6.583 3.32-1.143 3.354-1.415 3.354-2.722-1.234-.363-4.306.328-5.37-1.09-.98-1.305.19-2.38 1.145-4.028 1.578-2.722 1.59-3.768 1.74-5.226.415-4.025 2.806-5.876 6.088-6.097 2.047.138 3.748.91 4.838 2.447" stroke-linejoin="round"/><path stroke="#E81E75" d="M31.89 22.883c-3.764-1.295-3.802-1.603-3.802-3.084 1.4-.412 4.88.37 6.083-1.235 1.112-1.48-.212-2.7-1.294-4.565-1.79-3.085-1.804-4.27-1.974-5.922-.47-4.56-3.178-6.658-6.898-6.91-3.72.252-6.428 2.35-6.897 6.91-.17 1.652-.185 2.837-1.974 5.922-1.082 1.866-2.406 3.085-1.295 4.565 1.204 1.605 4.684.823 6.083 1.234 0 1.48-.037 1.788-3.8 3.083-3.152 1.085-4.88 7.17-5.865 9.522-.345.824-.13 1.795.567 2.355 3.493 2.804 8.103 3.072 13.17 3.072 5.075 0 9.692-.273 13.187-3.087.695-.56.91-1.532.563-2.356-.987-2.347-2.714-8.426-5.854-9.507z"/></g></svg>