<svg height="46" viewBox="0 0 44 46" width="44" xmlns="http://www.w3.org/2000/svg"><g fill="none" fill-rule="evenodd" stroke-linecap="round" stroke-width="2" transform="translate(1 1)"><path d="m27 44h-12c-1.105 0-2-.895-2-2v-19c0-4.418 3.582-8 8-8s8 3.582 8 8v19c0 1.105-.895 2-2 2z" stroke="#e81e75"/><path d="m33 20h1c4.418 0 8 3.582 8 8v14c0 1.105-.895 2-2 2h-7m-24 0h-7c-1.105 0-2-.895-2-2v-14c0-4.418 3.582-8 8-8h1" stroke="#333230" stroke-linejoin="round"/><circle cx="21" cy="6" r="6" stroke="#e81e75"/><g stroke="#333230" stroke-linejoin="round"><circle cx="34" cy="11" r="5"/><circle cx="8" cy="11" r="5"/></g></g></svg>