<svg width="373" height="373" viewBox="0 0 373 373" fill="none" xmlns="http://www.w3.org/2000/svg">
<path d="M60.2757 32.2624C21.3093 38.4254 -5.27528 75.0386 0.887632 114.005C7.05054 152.971 43.6358 179.556 82.6302 173.393C121.597 167.23 148.181 130.617 142.018 91.6505C135.855 52.6841 99.2421 26.0995 60.2757 32.2624Z" fill="#444C61"/>
<path d="M91.6505 230.344C52.6841 236.507 26.0996 273.12 32.2625 312.086C38.4254 351.053 75.0107 377.637 114.005 371.474C152.971 365.312 179.556 328.698 173.393 289.732C167.23 250.765 130.645 224.181 91.6505 230.344Z" fill="#444C61"/>
<path d="M258.385 0.887631C219.419 7.05054 192.834 43.6638 198.997 82.6302C205.16 121.597 241.745 148.181 280.74 142.018C319.706 135.855 346.291 99.242 340.128 60.2757C333.937 21.3093 297.351 -5.27528 258.385 0.887631Z" fill="#444C61"/>
<path d="M289.76 198.997C250.793 205.16 224.209 241.773 230.372 280.74C236.535 319.706 273.12 346.291 312.086 340.128C351.053 333.965 377.637 297.352 371.474 258.385C365.312 219.419 328.726 192.806 289.76 198.997Z" fill="#444C61"/>
<path d="M103.613 71L73.0007 135.613L67.8946 106.719L39 101.613L103.613 71Z" fill="white"/>
<path d="M63 277.723L133.335 290.569L106.746 302.98L109.293 332.212L63 277.723Z" fill="white"/>
<path d="M309.135 93.4116L238.8 80.5653L265.389 68.1547L262.842 38.9231L309.135 93.4116Z" fill="white"/>
<path d="M301.121 245C273.438 245 251 256.128 251 269.849C251 283.575 273.438 294.702 301.121 294.702C328.803 294.702 351.242 283.575 351.242 269.849C351.242 256.128 328.803 245 301.121 245ZM301.121 288.13C278.907 288.13 260.903 279.209 260.903 268.208C260.903 257.207 278.907 248.286 301.121 248.286C323.334 248.286 341.34 257.207 341.34 268.208C341.34 279.209 323.334 288.13 301.121 288.13Z" fill="white"/>
<path d="M301.121 250.964C286.617 250.964 274.864 256.925 274.864 264.271C274.864 271.617 286.617 277.578 301.121 277.578C315.623 277.578 327.38 271.617 327.38 264.271C327.38 256.925 315.623 250.964 301.121 250.964ZM301.924 272.099C291.327 272.099 282.733 268.183 282.733 263.351C282.733 258.521 291.327 254.606 301.924 254.606C312.523 254.606 321.113 258.521 321.113 263.351C321.113 268.183 312.523 272.099 301.924 272.099Z" fill="white"/>
<path d="M308.639 262.75C308.639 264.943 305.272 266.721 301.121 266.721C296.968 266.721 293.603 264.943 293.603 262.75C293.603 260.56 296.968 258.781 301.121 258.781C305.272 258.781 308.639 260.56 308.639 262.75Z" fill="white"/>
</svg>
