<svg id="Layer_1" data-name="Layer 1" xmlns="http://www.w3.org/2000/svg" xmlns:xlink="http://www.w3.org/1999/xlink" viewBox="0 0 146.68 146.03"><defs><style>.cls-1{fill:none;}.cls-2{clip-path:url(#clip-path);}.cls-3{fill:#444c61;}.cls-4{fill:#fff;}</style><clipPath id="clip-path" transform="translate(-1.75 -3)"><rect class="cls-1" x="0.32" y="3" width="149.68" height="147"/></clipPath></defs><title>icon_personalised-recommendations-grey</title><g class="cls-2"><path class="cls-3" d="M25.49,15.65a28,28,0,1,0,32.2,23.29A28,28,0,0,0,25.49,15.65Z" transform="translate(-1.75 -3)"/><path class="cls-3" d="M37.85,93.34a28,28,0,1,0,32.2,23.29A28,28,0,0,0,37.85,93.34Z" transform="translate(-1.75 -3)"/><path class="cls-3" d="M103.53,3.35a28,28,0,1,0,32.2,23.29A28,28,0,0,0,103.53,3.35Z" transform="translate(-1.75 -3)"/><path class="cls-3" d="M115.89,81a28,28,0,1,0,32.19,23.29A28,28,0,0,0,115.89,81Z" transform="translate(-1.75 -3)"/><path class="cls-4" d="M115.61,118.14l2.82-3.22,14-15.54-3.23-2.81-14,15.55-6.08-5.3L106.3,110l6.08,5.3Z" transform="translate(-1.75 -3)"/><path class="cls-4" d="M26.61,52.58l2.83-3.21,14-15.55L40.21,31l-14,15.55-6.08-5.29-2.82,3.21,6.08,5.3Z" transform="translate(-1.75 -3)"/><path class="cls-4" d="M120.15,19.59l-2.69-2.68-10.7,10.64L96.06,16.91l-2.69,2.68,10.69,10.65L93.37,40.89l2.69,2.68,10.7-10.64,10.7,10.64,2.69-2.68L109.46,30.24Z" transform="translate(-1.75 -3)"/><path class="cls-4" d="M55.43,109l-2.7-2.68L42,117,31.34,106.3,28.64,109l10.7,10.65-10.7,10.65,2.7,2.69L42,122.32,52.73,133l2.7-2.69-10.7-10.65Z" transform="translate(-1.75 -3)"/></g></svg>