<svg width="373" height="373" viewBox="0 0 373 373" fill="none" xmlns="http://www.w3.org/2000/svg">
<path d="M60.2757 32.2624C21.3093 38.4254 -5.27528 75.0386 0.887632 114.005C7.05054 152.971 43.6358 179.556 82.6302 173.393C121.597 167.23 148.181 130.617 142.018 91.6505C135.855 52.6841 99.2421 26.0995 60.2757 32.2624Z" fill="#444C61"/>
<path d="M91.6505 230.344C52.6841 236.507 26.0996 273.12 32.2625 312.086C38.4254 351.053 75.0107 377.637 114.005 371.474C152.971 365.312 179.556 328.698 173.393 289.732C167.23 250.765 130.645 224.181 91.6505 230.344Z" fill="#444C61"/>
<path d="M258.385 0.887631C219.419 7.05054 192.834 43.6638 198.997 82.6302C205.16 121.597 241.745 148.181 280.74 142.018C319.706 135.855 346.291 99.242 340.128 60.2757C333.937 21.3093 297.351 -5.27528 258.385 0.887631Z" fill="#444C61"/>
<path d="M289.76 198.997C250.793 205.16 224.209 241.773 230.372 280.74C236.535 319.706 273.12 346.291 312.086 340.128C351.053 333.965 377.637 297.352 371.474 258.385C365.312 219.419 328.726 192.806 289.76 198.997Z" fill="#444C61"/>
<path d="M78 115.8H57.7L53.5 137H47.8L52 115.8H37.5V110.5H53L57.1 89.9H42.4V84.6H58.1L62.4 63H68.1L63.8 84.6H84.1L88.4 63H94.1L89.8 84.6H104.1V89.9H88.8L84.7 110.5H99.2V115.8H83.7L79.5 137H73.8L78 115.8ZM58.7 110.5H79L83.1 89.9H62.8L58.7 110.5Z" fill="white"/>
<path d="M277 83.8H256.7L252.5 105H246.8L251 83.8H236.5V78.5H252L256.1 57.9H241.4V52.6H257.1L261.4 31H267.1L262.8 52.6H283.1L287.4 31H293.1L288.8 52.6H303.1V57.9H287.8L283.7 78.5H298.2V83.8H282.7L278.5 105H272.8L277 83.8ZM257.7 78.5H278L282.1 57.9H261.8L257.7 78.5Z" fill="white"/>
<path d="M308 282.8H287.7L283.5 304H277.8L282 282.8H267.5V277.5H283L287.1 256.9H272.4V251.6H288.1L292.4 230H298.1L293.8 251.6H314.1L318.4 230H324.1L319.8 251.6H334.1V256.9H318.8L314.7 277.5H329.2V282.8H313.7L309.5 304H303.8L308 282.8ZM288.7 277.5H309L313.1 256.9H292.8L288.7 277.5Z" fill="white"/>
<path d="M110 313.8H89.7L85.5 335H79.8L84 313.8H69.5V308.5H85L89.1 287.9H74.4V282.6H90.1L94.4 261H100.1L95.8 282.6H116.1L120.4 261H126.1L121.8 282.6H136.1V287.9H120.8L116.7 308.5H131.2V313.8H115.7L111.5 335H105.8L110 313.8ZM90.7 308.5H111L115.1 287.9H94.8L90.7 308.5Z" fill="white"/>
</svg>
