<svg enable-background="new 0 0 43 46" viewBox="0 0 43 46" xmlns="http://www.w3.org/2000/svg"><g transform="matrix(.1 0 0 -.1 0 512)"><path d="m236.6 5095.9c-10.8-1.8-6.7 2.1-121.9-113.3-104.8-104.9-108-108.3-110-113.5-1.4-4-1.9-6.7-1.6-10.8.8-11.3-3.1-6.9 88.2-98.1 80-79.9 84-83.8 89-85.6 6.6-2.4 12.7-2.4 19.2 0 5 1.8 9.7 6.4 113.3 109.9 86.2 86.1 108.6 108.8 110.3 112.4 1.2 2.5 2.6 7.4 3.1 10.8.6 4.1.9 32.9.7 85.4l-.3 79.1-2.8 5.8c-3.6 7.4-8.3 12-15.6 15.6l-5.8 2.8-80.4.1c-45.1.2-82.6-.1-85.4-.6zm160-18.7c3-.6 4.9-1.8 7.3-4.4 2.9-3.1 3.4-4.3 4-9.3.3-3.1.4-38.9.3-79.4-.2-57.5-.5-74.3-1.4-76.4-.6-1.4-49-50.5-107.4-109-100.6-100.6-106.4-106.2-109.4-106.2s-7.6 4.5-85.1 82c-77.7 77.7-82.1 82.2-82.1 85.2s5.6 8.7 106.8 109.8c114.2 114.1 106.5 107 116.1 107.9 6.9.7 147.1.6 150.9-.2z" fill="#333230"/><path d="m333.5 5049.7c-20.4-4.2-33.6-25.4-28.4-45.7 7-27.6 40.7-37.2 61.7-17.6 19.4 18.2 12.8 51.9-12.2 61.4-5.6 2.2-15.6 3-21.1 1.9zm14.2-20.2c6.7-2.9 10.9-9.2 11-16.4 0-10.7-10.7-19.4-21.1-17.1-13.6 3.1-18.9 19.9-9.2 29.3 5.8 5.6 12.4 7 19.3 4.2z" fill="#333230"/><path d="m225.5 4950.4c-6.7-1.8-12.1-4.9-17.3-9.6-7.6-7-14.8-19.1-17.2-28.8l-.6-2.6-4.3 4.3-4.4 4.3-3.8-3.8-3.9-3.8 6.6-6.6 6.5-6.6-3.1-6.4c-5.1-10.7-11.1-15.9-22.6-20.2-4.4-1.5-7.3-1.9-16.7-1.9l-11.4-.1-.4-2.2c-1.8-8.8-2.3-13.9-1.7-14.5.4-.4 3.1-1.4 6-2.3 6.2-1.9 12.8-6.6 17.1-12.1 1.7-2.2 6.2-9.3 10.1-16 10.9-18.8 22.6-28.8 36.7-31.5 3.4-.6 4.1-.5 4.5.7.6 1.9 3.2 14.4 3.2 15.3 0 .4-2 1.2-4.4 1.7-6.4 1.4-12 4.3-15.1 7.6-1.5 1.6-5.1 6.9-7.9 11.9-9.4 16.4-14.8 22.2-25.6 27.3l-5.8 2.8h10.4c7.9 0 12 .4 16.2 1.8 10.5 3.2 18.7 9.9 22.8 18.8l2.3 4.9 10.3-10.2 10.2-10.2 3.8 3.9 3.9 3.8-12 12c-6.5 6.6-11.9 12.6-11.9 13.4 0 2.6 5.1 15.4 8.4 21 10.4 17.9 30.4 20.9 45.5 6.9 7.2-6.6 10.3-13 10.1-20.6-.2-8.5-4.8-18.3-12.2-26.2l-2.7-2.9 6.7-6.7c3.7-3.7 7-6.7 7.4-6.7 1.6 0 12 13.8 15.2 20.2 9.2 18.7 5.1 37.7-11.7 54.5-6.3 6.4-9.2 8.4-15.4 11.4-11.9 5.3-22.1 6.7-31.8 4z" fill="#e81e75"/></g></svg>