<svg height="46" viewBox="0 0 43 46" width="43" xmlns="http://www.w3.org/2000/svg"><g fill="none" fill-rule="evenodd" stroke-linecap="round" stroke-width="2"><g stroke="#333230" stroke-linejoin="round"><path d="m23.824 24.444-8.824 5.556-14-9 4-2m34-8 3 2-10.858 6.836"/><path d="m23.94 29.37-8.94 5.63-14-9 4-2m34-8 3 2-10.888 6.855"/><path d="m23.91 34.39-8.91 5.61-14-9 4-2m34-8 3 2-10.906 6.867"/></g><path d="m12 10 11.2 8.4c.504.378.8.97.8 1.6v19m-4-33 10.183 7.406c.514.373.82.97.823 1.605l.12 19.303" stroke="#e81e75"/><path d="m23.794 19.463-8.794 5.537-14-9 27-15 14 7-10.84 6.825m7.84 11.175 3 2-27 17-14-9 4-2" stroke="#333230" stroke-linejoin="round"/></g></svg>