<svg width="36" height="36" viewBox="0 0 36 36" fill="none" xmlns="http://www.w3.org/2000/svg">
<path d="M24.8164 0.085252C21.0739 0.677165 18.5206 4.19366 19.1125 7.93617C19.7044 11.6787 23.2183 14.232 26.9634 13.6401C30.7059 13.0481 33.2592 9.53164 32.6673 5.78914C32.0727 2.04664 28.5589 -0.506661 24.8164 0.085252Z" fill="#444C61"/>
<path d="M27.8298 19.1126C24.0873 19.7045 21.534 23.221 22.1259 26.9635C22.7178 30.706 26.2316 33.2593 29.9741 32.6674C33.7166 32.0755 36.2699 28.559 35.678 24.8165C35.0861 21.074 31.5723 18.518 27.8298 19.1126Z" fill="#444C61"/>
<path d="M8.80251 22.1232C5.06 22.7151 2.50671 26.2316 3.09862 29.9741C3.69053 33.7167 7.20434 36.2699 10.9495 35.678C14.692 35.0861 17.2453 31.5696 16.6534 27.8271C16.0615 24.0846 12.5477 21.5313 8.80251 22.1232Z" fill="#444C61"/>
<path d="M5.78914 3.09862C2.04664 3.69053 -0.506661 7.20703 0.085252 10.9495C0.677165 14.692 4.19097 17.2453 7.93617 16.6534C11.6787 16.0615 14.232 12.545 13.6401 8.80251C13.0481 5.06 9.53164 2.50671 5.78914 3.09862Z" fill="#444C61"/>
<path d="M25.8904 6.90411L28.8493 26.137" stroke="#444C61" stroke-width="2.5"/>
<path d="M9.86304 29.0959L29.0959 26.137" stroke="#444C61" stroke-width="2.5"/>
<path d="M6.81079 9.76972L26.0437 6.81082" stroke="#444C61" stroke-width="2.5"/>
<path d="M6.90411 9.86301L9.86302 29.0959" stroke="#444C61" stroke-width="2.5"/>
</svg>
