<svg height="44" viewBox="0 0 43 44" width="43" xmlns="http://www.w3.org/2000/svg"><g fill="none" fill-rule="evenodd" stroke-linecap="round" stroke-width="2" transform="translate(1 1)"><g stroke="#333230" stroke-linejoin="round"><path d="m41 14-3.62 14.485c-.224.89-1.024 1.515-1.942 1.515h-19.965c-.876 0-1.65-.57-1.91-1.407l-8.563-27.593h-5"/><circle cx="19" cy="38" r="4"/><circle cx="34" cy="38" r="4"/><path d="m11 18h29m-28 4h27m-25 4h23"/></g><path d="m33.63 12 1.91-3.36c.547-.96.212-2.18-.748-2.726l-9.617-5.472c-.96-.547-2.18-.21-2.727.75l-6.15 10.808m11.702-9-6 10" stroke="#e81e75"/></g></svg>