<svg width="73" height="73" viewBox="0 0 73 73" fill="none" xmlns="http://www.w3.org/2000/svg">
<g clip-path="url(#clip0_101_54)">
<path d="M11.829 6.39712C4.27328 7.59213 -0.881562 14.6916 0.31345 22.2473C1.50846 29.803 8.60248 34.9579 16.1636 33.7629C23.7194 32.5679 28.8742 25.4684 27.6792 17.9127C26.4842 10.357 19.3847 5.2021 11.829 6.39712Z" fill="#444C61"/>
<path d="M17.9127 44.8058C10.357 46.0008 5.20214 53.1003 6.39715 60.656C7.59216 68.2118 14.6862 73.3666 22.2473 72.1716C29.8031 70.9766 34.9579 63.8771 33.7629 56.3214C32.5679 48.7656 25.4739 43.6108 17.9127 44.8058Z" fill="#CFD3DE"/>
<path d="M50.2432 0.313423C42.6874 1.50843 37.5326 8.60789 38.7276 16.1636C39.9226 23.7193 47.0166 28.8742 54.5778 27.6792C62.1335 26.4842 67.2884 19.3847 66.0933 11.829C64.8929 4.27325 57.7989 -0.881588 50.2432 0.313423Z" fill="#CFD3DE"/>
<path d="M56.3269 38.7276C48.7711 39.9226 43.6163 47.0221 44.8113 54.5778C46.0063 62.1335 53.1003 67.2883 60.6561 66.0933C68.2118 64.8983 73.3666 57.7989 72.1716 50.2432C70.9766 42.6875 63.8826 37.5272 56.3269 38.7276Z" fill="#444C61"/>
</g>
<path d="M14 21L53 15" stroke="#CFD3DE" stroke-width="2.5"/>
<path d="M52.5 14L58.5 53" stroke="#444C61" stroke-width="2.5"/>
<path d="M20 59L59 53" stroke="#CFD3DE" stroke-width="2.5"/>
<path d="M14 20L20 59" stroke="#444C61" stroke-width="2.5"/>
<path d="M14.0396 21.2688L42.9604 16.7312" stroke="#CFD3DE" stroke-width="2.5"/>
<defs>
<clipPath id="clip0_101_54">
<rect width="72.52" height="72.52" fill="white"/>
</clipPath>
</defs>
</svg>
