<svg xmlns="http://www.w3.org/2000/svg" width="44" height="46" viewBox="0 0 44 46"><g fill="none" fill-rule="evenodd" stroke-width="2" transform="translate(1 1)" stroke-linecap="round"><path stroke="#E81E75" d="M27 44H15c-1.105 0-2-.895-2-2V23c0-4.418 3.582-8 8-8s8 3.582 8 8v19c0 1.105-.895 2-2 2z"/><path stroke="#333230" d="M33 20h1c4.418 0 8 3.582 8 8v14c0 1.105-.895 2-2 2h-7M9 44H2c-1.105 0-2-.895-2-2V28c0-4.418 3.582-8 8-8h1" stroke-linejoin="round"/><circle cx="21" cy="6" r="6" stroke="#E81E75"/><circle cx="34" cy="11" r="5" stroke="#333230" stroke-linejoin="round"/><circle cx="8" cy="11" r="5" stroke="#333230" stroke-linejoin="round"/></g></svg>