<svg xmlns="http://www.w3.org/2000/svg" width="44" height="46" viewBox="0 0 44 46"><g fill="none" fill-rule="evenodd" stroke-width="2" stroke-linecap="round"><path stroke="#333230" d="M1 3v41c0 .552.448 1 1 1h41" stroke-linejoin="round"/><path stroke="#333230" d="M7 40h2c.552 0 1-.448 1-1v-4c0-.552-.448-1-1-1H7c-.552 0-1 .448-1 1v4c0 .552.448 1 1 1zm9 0h2c.552 0 1-.448 1-1V28c0-.552-.448-1-1-1h-2c-.552 0-1 .448-1 1v11c0 .552.448 1 1 1zm9 0h2c.552 0 1-.448 1-1V21c0-.552-.448-1-1-1h-2c-.552 0-1 .448-1 1v18c0 .552.448 1 1 1zm9 0h2c.552 0 1-.448 1-1V14c0-.552-.448-1-1-1h-2c-.552 0-1 .448-1 1v25c0 .552.448 1 1 1z" stroke-linejoin="round"/><path stroke="#E81E75" d="M6 22s14.167-2.333 30-20M32 1h5v5"/></g></svg>