<svg enable-background="new 0 0 50.2 26.1" viewBox="0 0 50.2 26.1" xmlns="http://www.w3.org/2000/svg"><path d="m244.2 15999.5c-19-3.4-33.2-20-33.2-38.6 0-3.4.1-3.9.8-5.4 1.1-2.2 3.8-4.6 5.9-5.3 2.2-.7 5.6-.5 7.6.4 1.9.9 3.9 2.9 4.7 4.7.4.9.9 2.8 1.1 5.3.5 4.5.8 5.7 2.1 8.3 3.4 6.8 10.2 10.9 17.9 10.9 9.5 0 17.6-6.6 19.5-15.9 1.2-5.7 0-13.2-2.8-17.5-1.6-2.5-4.6-5.4-10.8-10.3-8.9-7.1-12.3-11.3-14.7-18.1l-1.1-3.3-.2-9.4-.2-9.5-24.5-11c-35.5-15.9-53.7-24.1-106.5-48.1-90.6-41.2-90.7-41.2-96.2-44.9-7.1-4.7-11.4-10.4-13.2-17.4-1.3-5-.5-12.3 1.9-17.6 3.6-7.9 10.3-13.8 19-16.8l2.7-.9 225.7-.1c205.9-.1 226 0 228.3.4 5.2 1 10.2 3.7 14.3 7.5 3.3 3.1 5 5.5 6.9 9.4 2 4.1 2.4 6.1 2.6 11.1.2 5.2-.3 7.9-2.2 11.9-3 6.6-8.2 11.5-16.6 15.7-4.4 2.2-91.8 41.9-188 85.3l-33.9 15.3v8.1 8.1l.9 1.4c1.1 1.7 2.4 2.9 8.4 7.9 13 10.9 18.9 20.5 20.4 33.8 2.4 21.1-12.3 40.8-33.2 44.4-3.4.8-10 .9-13.4.2zm94.6-160.9c90.6-41.2 127.3-57.9 133-60.6 4.2-2 7.5-4 9-5.5 1-1 1-1.2 1-3.3 0-2.9-.9-5.3-2.6-7-1.8-1.8-3.2-2.5-5.9-2.9-1.5-.2-71.1-.3-223.8-.3-213.7.1-221.7.1-223.1.7-3.6 1.4-5.9 4.7-6.2 8.8-.2 2.8.1 3.3 3.2 5.5 4.3 3.1 1.4 1.7 100.4 46.6 35.7 16.2 78.9 35.8 96 43.7 29.9 13.7 31.2 14.2 32.1 13.8.6-.2 39.7-18 86.9-39.5z" fill="#e81e75" transform="matrix(.1 0 0 -.1 0 1600)"/></svg>