<?xml version="1.0" encoding="utf-8"?>
<!-- Generator: Adobe Illustrator 23.0.1, SVG Export Plug-In . SVG Version: 6.00 Build 0)  -->
<svg version="1.1" id="Layer_1" xmlns="http://www.w3.org/2000/svg" xmlns:xlink="http://www.w3.org/1999/xlink" x="0px" y="0px"
	 viewBox="0 0 476.3 232.3" style="enable-background:new 0 0 476.3 232.3;" xml:space="preserve">
<style type="text/css">
	.st0{fill:#797979;}
</style>
<title>Evans_Boutique_Logo</title>
<path class="st0" d="M0,1.5h62.7V5H13.3v48.6H53v3.5l-39.8-0.5v50.9h49.5v3.5H0V1.5z M131,111L175.4,1.5h-5.2l-36.5,90.1h-0.5
	L95.7,1.5H82.5L128.4,111L131,111z M298.8,22l76.5,89h2.4V1.5h-4.3v88.2L297,1.5h-2.5V111h4.3L298.8,22z M475.7,75.8
	c-0.8-4.6-2.8-8.8-5.9-12.3c-2.7-2.9-5.8-5.3-9.3-7.1c-3.6-1.9-7.3-3.6-11.1-5c-4.7-1.9-9.3-3.8-14-5.7c-3.4-1.3-6.5-3.1-9.3-5.3
	c-2.8-2.2-5-5.2-6.2-8.5c-1.2-3.7-1.5-7.6-0.9-11.4c0.6-4.5,2.8-8.5,6.3-11.4c3.9-3.2,8.7-5.1,13.7-5.5c2.2-0.2,4.4-0.3,6.7-0.2
	c3.2,0,6.3,0.3,9.4,1c4.4,1,8.6,2.7,12.4,5c0.6,0.4,1.3,0.8,1.9,1.2V6C464.1,3.5,456.2,0,445.9,0c-3.2-0.1-6.4,0.1-9.6,0.5
	c-3.3,0.5-6.5,1.4-9.5,2.8c-4.3,1.8-8.1,4.7-11,8.3c-3.2,4-5.2,8.9-5.6,14c-0.2,2.7-0.1,5.4,0.3,8.1c0.4,3.2,1.5,6.2,3.1,9
	c2.6,4.2,6.1,7.7,10.4,10.1c4.3,2.4,8.8,4.5,13.4,6.2c4.7,1.8,9.4,3.6,13.9,5.7c3.9,1.8,7.5,4.2,10.6,7.3c2.1,2.1,3.7,4.7,4.7,7.5
	c1.4,4.3,1.6,8.9,0.7,13.4c-1.1,6-5,11.1-10.5,13.7c-3.7,1.8-7.7,2.8-11.7,3.2c-3.7,0.4-7.5,0.4-11.2,0.1c-3.2-0.3-6.4-0.9-9.4-1.7
	c-4.5-1.2-8.7-3.2-12.5-5.8c-0.8-0.6-1.6-1.2-2.4-1.8v4.9c0,0,3.7,2.3,5.6,3.1c6.7,3.1,14,4.7,21.4,4.8c4.4,0.1,8.7-0.2,13.1-0.9
	c4.1-0.7,8-2,11.8-3.8c8.5-4.2,14.2-12.6,14.8-22.1C476.5,82.9,476.3,79.3,475.7,75.8L475.7,75.8z M220.9,1.5l51,109.5h-12.5
	l-16.4-35.2l-50.8-0.1L177.2,111H172L218.3,1.5H220.9z M241.3,72.1l-24.6-52.7h-0.5l-22.5,52.7L241.3,72.1z M114.1,186.2
	c0.1,13.1-10.5,23.9-23.6,24c-0.1,0-0.3,0-0.4,0c-4.9-0.1-9.7-1.3-14.1-3.4v-53.2c0-5.9-0.2-6.5-6.3-7.1v-2.2
	c4.7-0.7,9.3-1.8,13.9-3.3v29.5l7.8-3.4c1.2-0.6,2.6-0.9,3.9-1C105.5,166.1,114.1,175,114.1,186.2z M105.6,188.7
	c0-10.9-6.7-17.2-14.7-17.2c-2.6,0-5.2,0.6-7.5,1.8V198c0,1.1,0.2,2.2,0.6,3.3c0.6,1.9,3.5,5.3,8.5,5.4
	C100.6,206.6,105.7,199.8,105.6,188.7L105.6,188.7z M163.8,187.5c0,15.4-11.3,22.8-20.8,22.8c-13.1,0-21-10.5-21-21.2
	c0-15.8,12.3-23,21-23C154.9,166.1,163.8,175.6,163.8,187.5L163.8,187.5z M154.9,189.6c0-11.2-4.5-20.3-12.8-20.3
	c-5.9,0-11.1,5.9-11.1,16.8c0,12.1,5.3,21.1,13.1,21.1C150,207.1,154.9,202.7,154.9,189.6L154.9,189.6z M207.2,198.6v-32
	c-5,0.9-10,1.5-15,1.7v2.2c6.9,1,7.5,1.3,7.5,6.8v22.3c-2.7,2.8-6.4,4.5-10.3,4.6c-4.3,0-8.4-2.3-8.4-10.8v-12.8c0-6.5,0-11,0.3-14
	c-4.5,0.8-9.1,1.4-13.7,1.7v2.2c5.5,1.1,5.8,1.4,5.8,6.7V196c0,10.3,5.5,14.3,11.9,14.3c2.6,0,4.6-0.8,7.4-2.4s4.9-3.4,7.1-5v6.8
	l0.6,0.6c4.6-1.5,9.3-2.6,14.1-3.4v-2.4l-2.7-0.2C208,204.1,207.3,203.4,207.2,198.6L207.2,198.6z M236.2,204.8
	c-2.4,0-5.6-1.4-5.6-9.2V171h10.2c1.2-0.9,1.4-2.5,0.6-3.7h-10.8v-13.1l-1.4-0.2l-6.2,6.3v7h-4.4l-2.6,2.8l0.4,1h6.6v27.9
	c0,7.6,3.3,11.4,9.4,11.4c1.4-0.1,2.8-0.5,4-1.2l6.5-3.4l-0.9-2.5C240.2,204.2,238.2,204.8,236.2,204.8L236.2,204.8z M261.5,199v-33
	c-4.4,1.8-8.9,3-13.6,3.7v2.3c5.8,1,6,1.3,6,7.3V199c0,6.5-0.7,7.1-6.7,7.7v2.5h21.1v-2.5C262.1,206.1,261.5,205.5,261.5,199
	L261.5,199z M261.9,152.9c0.1-2.6-1.9-4.9-4.6-5c-0.1,0-0.1,0-0.2,0c-2.7,0-4.9,2.3-4.9,5c0,0,0,0,0,0c0.1,2.6,2.2,4.8,4.8,4.9
	C259.7,157.8,261.9,155.6,261.9,152.9L261.9,152.9z M319.1,229.7v2.6h-23v-2.6c7.5-0.7,8.1-1.1,8.1-7.9v-15.5l-10.2,4
	c-14,0-20.6-10.8-20.6-20.1c0-13.7,12.4-24.1,25.6-24c2.3,0.1,4.5,0.5,6.7,1.2c0.8,0.3,1.7,0.5,2.6,0.5c1.1-0.2,2.2-0.5,3.3-1.1
	l0.4,0.3c-0.1,2-0.3,3.8-0.3,10.2v44.5C311.7,228.7,312.4,229,319.1,229.7L319.1,229.7z M304.3,174c-2.5-2.5-5.9-3.9-9.4-4
	c-6.5,0-12.8,5.8-12.8,17c0,11.6,8,17.9,15.1,17.9c2.4,0,4.9-0.5,7.1-1.5V174z M360.3,198.6v-32c-5,0.9-10,1.5-15,1.7v2.2
	c6.9,1,7.5,1.3,7.5,6.8v22.3c-2.7,2.8-6.4,4.5-10.3,4.6c-4.3,0-8.4-2.3-8.4-10.8v-12.8c0-6.5,0-11,0.3-14c-4.5,0.8-9.1,1.4-13.7,1.7
	v2.2c5.5,1.1,5.8,1.4,5.8,6.7V196c0,10.3,5.5,14.3,11.9,14.3c2.6,0,4.6-0.8,7.4-2.4s4.9-3.4,7.1-5v6.8l0.6,0.6
	c4.6-1.5,9.3-2.6,14.1-3.4v-2.4l-2.7-0.2C361.1,204.1,360.3,203.4,360.3,198.6L360.3,198.6z M404.7,183.8c-1.6,0.3-13.6,1.2-25,1.6
	c0.1,13,7.6,18.4,14.3,18.4c3.8,0,7.5-1.5,10.9-4.8l1.5,2c-6,7.6-12.6,9.3-15.6,9.3c-11.8,0-18.7-9.6-18.7-20.4
	c-0.1-6.2,2.2-12.2,6.3-16.8c3.9-4.4,9.1-7,14.1-7c7.9,0,14.4,7.1,14.4,14.6C406.9,182.6,406.5,183.4,404.7,183.8L404.7,183.8z
	 M398.7,179.2c0.1-5-3.2-9.6-8.4-9.6c-4.4,0-8.6,4-10.1,11.8c5.4,0,10.6-0.1,16.2-0.3C398.1,181.2,398.7,180.6,398.7,179.2
	L398.7,179.2z"/>
</svg>
