<svg enable-background="new 0 0 92 40" viewBox="0 0 92 40" xmlns="http://www.w3.org/2000/svg"><path d="m9.1 38.8h-1.6c-2.6-9.9-5.1-19.7-7.1-29.9h3.3c1.8 7.1 3.9 14.1 5.5 21.2l.4-.6 7.7-20.5h1.5l7.3 21.3c1.9-7.1 4.1-14.3 6.2-21.3h2.4c-2.4 10.1-5.1 20-8.2 29.9h-1.5l-7.5-22zm67.7-29.9c.4 9.9.3 20.1-.1 29.9h-2.7c-.4-9.7-.7-20-.1-29.9zm.2-6.5c0 1.3-1.1 2.3-1.8 2.3s-1.8-1.1-1.8-2.3c0-1.8 1.1-2.3 1.8-2.3.7 0 1.8.5 1.8 2.3zm-14.7-2.4.3 16-.5 22.7h-2.9l-.3-22.7.2-16"/><path d="m62.3 0 .3 16-.5 22.7h-2.9l-.3-22.7.2-16"/><path d="m69.3 0 .3 16-.5 22.7h-2.9l-.3-22.7.2-16"/><path d="m69.3 0 .3 16-.5 22.7h-2.9l-.3-22.7.2-16"/><path d="m91 9.3v2.6c-2-.8-4.7-.9-6.6.1-.8.6-1.2 1.4-1.4 2.3-.1 1.5.8 2.5 1.6 3.6 3.2 4 8.6 6.9 6.9 13-1.1 3.2-4.2 6.2-7 8h-3.9c3.1-2.6 8.2-5.9 7.3-10.9-1.9-5.6-12.1-10-6.9-17.2 2.5-2.8 6.8-2 10-1.5zm-35.7 11.2c-2.4-7.5-10.3-11.2-17.9-11.9l-.2 2.4c5.1.7 11.4 3 13.2 7.9-1.2-.9-2.7-1.1-4.2-1.5-3.9-.7-7.7.5-10.3 3.1-2.9 2.8-3.4 7.4-2.4 11.4 1.1 3.7 4.1 6.8 7.9 7.4 4.6 1 9.7-.2 12.3-3.9 2.9-4 3.2-10.2 1.6-14.9zm-4.7 13.7c-1.6 2.7-4.9 3.2-7.9 2.7-2.3-.4-3.9-2.2-4.9-4.2-1.1-3.7-1.1-8.7 1.9-11.3 2-1.7 5-2.1 7.6-1.4 1.2.4 2.2 1.1 3.2 2.2 2.1 3.3 2 8.7.1 12z"/></svg>