<svg xmlns="http://www.w3.org/2000/svg" width="116" height="42" viewBox="0 0 116 42"><path d="M14.345 0c.522.096 1.052.137 1.582.064.144-.016.29-.04.433-.064-.072 1.51-.144 3.028-.16 4.537-.008.74-.008 1.478 0 2.225.024.674.008 1.35.024 2.03.016.507.008 1.005.016 1.51.016.555.016 1.118.016 1.672 0 .473.016.947-.056 1.42-.064.443-.177.884-.377 1.278-.378.755-.98 1.397-1.71 1.815-.61.345-1.31.49-2.007.49-.056-.193-.113-.386-.16-.58.457 0 .93-.08 1.308-.344.41-.28.674-.723.85-1.18.21-.538.29-1.11.346-1.68.088-1.348.056-2.705.064-4.054 0-1.52.008-3.03-.008-4.547-.016-1.533-.088-3.06-.16-4.593zm4.167 0c1.42.08 2.842.145 4.263.072.802-.04 1.605-.088 2.408-.064 1.116.04 2.248.233 3.25.73.53.266 1.02.61 1.438 1.03.61.625 1.03 1.42 1.277 2.255.2.73.305 1.486.338 2.25.048 1.22-.05 2.48-.514 3.62-.385.892-.938 1.71-1.653 2.37-.698.634-1.533 1.116-2.432 1.397-.57.17-1.156.305-1.75.386-.53.072-1.06.08-1.59.072-.843-.008-1.678-.04-2.52-.04-.835 0-1.67-.016-2.505.04.072-1.582.152-3.172.16-4.754.008-1.34 0-2.683 0-4.032-.008-1.774-.088-3.557-.168-5.332zm1.975 1.068c-.073 1.116-.105 2.24-.12 3.357-.01 1.357 0 2.722-.01 4.08-.007 1.565.033 3.13.122 4.697.665.153 1.355.17 2.038.193.698.024 1.396.008 2.08-.096.53-.082 1.05-.194 1.548-.395.506-.2.972-.482 1.38-.835.65-.562 1.1-1.317 1.438-2.096.257-.634.385-1.31.45-1.992.056-.61.064-1.22.04-1.83-.033-.643-.113-1.277-.28-1.896-.122-.425-.306-.835-.53-1.22-.218-.37-.483-.715-.804-1.004-.4-.346-.875-.603-1.38-.787-.45-.17-.924-.24-1.39-.305-.81-.105-1.63-.097-2.44-.065-.714.05-1.43.113-2.143.193zm23.176 15.42c-.025-.53-.057-1.07-.12-1.59.4.063.794.127 1.195.16.667.064 1.333-.065 1.983-.16-.087 1.59-.143 3.18-.208 4.777-.032.923-.032 1.847-.032 2.77-.024.707-.032 1.406-.032 2.113v4.77c.008 1.445-.016 2.89.024 4.328.032.715.008 1.422.024 2.136.008.803.048 1.606.08 2.41.05 1.132.09 2.264.16 3.388-.697-.048-1.396-.088-2.102-.064-.36.016-.723.04-1.084.056.088-.658.105-1.325.137-1.99.032-.74.064-1.48.072-2.218 0-.698.047-1.39.055-2.088.024-.746.016-1.5.016-2.248V22.95c.01-.794-.007-1.59-.04-2.384-.007-.41-.04-.82-.03-1.236-.01-.94-.05-1.896-.097-2.843zm7.192.248c-.032-.62-.056-1.23-.128-1.84.658.097 1.324.226 1.99.16.402-.03.804-.095 1.197-.16-.088 1.51-.145 3.02-.2 4.53-.04 1.004-.05 2.008-.05 3.01-.047 1.487-.03 2.98-.03 4.466v4.578c0 .73 0 1.46.023 2.192.024.69.008 1.39.024 2.08.01.78.05 1.55.073 2.33.05 1.164.097 2.336.17 3.5-.69-.048-1.382-.088-2.072-.064-.368.016-.746.04-1.115.064.072-.562.096-1.124.128-1.686.04-.843.073-1.678.09-2.522 0-.698.047-1.39.055-2.088.016-.618.016-1.244.016-1.863v-9.917c0-.74.008-1.478-.016-2.217-.008-.683-.056-1.374-.056-2.057l-.097-2.497zm-13.197.096c.433-.072.89.016 1.26.25.41.256.715.682.81 1.164.09.433.017.907-.216 1.284-.225.386-.602.675-1.027.803-.45.137-.948.09-1.357-.128-.433-.225-.77-.642-.907-1.116-.136-.475-.063-.997.202-1.415.265-.44.73-.755 1.236-.843zm21.53 0c.45-.08.93.024 1.31.28.384.258.665.676.76 1.134.098.465 0 .963-.256 1.357-.257.393-.674.682-1.14.78-.457.095-.955.007-1.34-.25-.402-.257-.7-.675-.795-1.15-.096-.448-.008-.938.233-1.324.273-.434.73-.748 1.228-.828zM0 17.266c.61.104 1.228.184 1.846.176.57-.008 1.132-.08 1.694-.176.74 2.9 1.477 5.798 2.344 8.665.16.54.337 1.077.49 1.623.353 1.23.73 2.45 1.116 3.67.337 1.028.626 2.072.955 3.1.402 1.293.81 2.594 1.22 3.887h.073c.353-1.077.706-2.153 1.083-3.22.242-.707.475-1.414.7-2.12.144-.46.305-.908.44-1.366.346-1.108.74-2.2 1.11-3.3.425-1.23.834-2.466 1.235-3.703.337-1.075.69-2.143 1.028-3.22.32-1.035.626-2.087.923-3.13.08-.298.17-.595.233-.892.384.08.77.168 1.163.176.4 0 .787-.088 1.172-.176.177.65.37 1.3.57 1.95.128.42.265.836.385 1.262.386 1.293.803 2.578 1.204 3.87.362 1.157.747 2.314 1.132 3.47.32 1.012.642 2.016.98 3.02.176.546.37 1.076.537 1.622.338 1.06.715 2.112 1.084 3.164.28.867.562 1.734.867 2.594h.072c.21-.61.418-1.22.603-1.83.27-.933.544-1.873.85-2.796.24-.755.49-1.502.738-2.25.337-1.035.642-2.087.955-3.13.482-1.615 1.004-3.22 1.46-4.85.395-1.254.764-2.515 1.125-3.775.217-.772.45-1.535.61-2.322.482.12.98.2 1.485.168.338-.024.667-.088.996-.168-.258.578-.467 1.172-.683 1.766-.41 1.1-.81 2.2-1.19 3.31-.304.874-.585 1.758-.898 2.633-.555 1.598-1.092 3.204-1.622 4.81-.514 1.542-1.02 3.092-1.574 4.618-.337.964-.666 1.927-.995 2.9-.25.722-.483 1.445-.74 2.167-.25.707-.49 1.414-.754 2.112-.434-.04-.875-.08-1.317-.072-.362.008-.73.04-1.093.072-2.175-6.72-4.23-13.483-6.51-20.172h-.072c-.386 1.156-.795 2.304-1.188 3.453-.747 2.176-1.51 4.352-2.272 6.52-.2.57-.402 1.14-.594 1.71-.192.555-.352 1.117-.553 1.663-.77 2.273-1.51 4.554-2.288 6.818-.563-.056-1.125-.088-1.695-.056-.265.008-.522.032-.787.056-.433-1.172-.714-2.393-1.083-3.58-.354-1.166-.7-2.33-1.092-3.487-.36-1.15-.715-2.297-1.068-3.454-.674-2.224-1.364-4.44-2.055-6.665-.385-1.244-.754-2.49-1.156-3.725-.16-.49-.33-.98-.49-1.478C.474 18.55.257 17.9 0 17.267zm67.424 7.693c1.116-.443 2.337-.587 3.533-.53 1.02.04 2.04.296 2.914.826 1.068.643 1.847 1.727 2.168 2.923.137.505.193 1.027.185 1.54 0 2.563-.13 5.117-.137 7.67 0 .402-.008.803.016 1.205.025.24.008.482.065.715.064.32.224.626.44.875.097.12.226.217.37.257.24.08.498.072.747.064.17-.008.337-.056.482-.136v.78c-.514.232-1.084.32-1.638.368-.506.032-1.036.048-1.525-.096-.41-.12-.795-.354-1.06-.7-.29-.36-.433-.818-.482-1.268-.64.635-1.323 1.237-2.118 1.68-.45.248-.93.44-1.43.57-.673.176-1.363.232-2.054.232-.53 0-1.068-.064-1.573-.217-.498-.146-.972-.354-1.38-.676-.322-.257-.62-.538-.86-.867-.24-.32-.417-.675-.57-1.044-.257-.634-.297-1.34-.233-2.016.072-.843.378-1.678.923-2.328.578-.7 1.39-1.182 2.24-1.487.57-.21 1.164-.353 1.766-.458 1.013-.177 2.032-.337 3.036-.57.53-.112 1.06-.217 1.557-.442.233-.128.482-.273.602-.522.104-.248.13-.52.145-.786.016-.658-.057-1.317-.233-1.95-.13-.45-.313-.893-.602-1.27-.273-.345-.594-.658-.972-.89-.41-.266-.883-.41-1.364-.467-1.085-.13-2.21.04-3.188.514-.827.402-1.55 1.037-1.983 1.848h-.394v-1.84c.786-.61 1.66-1.148 2.608-1.51zm4.81 8.15c-1.133.17-2.273.37-3.365.747-.466.16-.924.345-1.325.626-.36.233-.666.546-.907.9-.265.385-.418.843-.474 1.31-.064.545-.024 1.1.12 1.63.13.44.338.866.643 1.212.337.385.778.682 1.268.85.458.16.955.202 1.445.145.586-.056 1.156-.24 1.678-.522.827-.44 1.533-1.1 2.04-1.887.047-.055.03-.135.04-.208.047-1.718.087-3.437.136-5.155-.426.16-.86.257-1.3.353zm12.346-7.95c.947-.554 2.055-.78 3.138-.74 1.02.017 2.03.33 2.906.868.45.29.876.635 1.22 1.052.37.466.667.996.803 1.582.08.016.097-.08.137-.128.44-.86 1.068-1.63 1.846-2.2.875-.65 1.943-1.028 3.035-1.14 1.1-.105 2.223.007 3.26.4.4.16.778.37 1.115.643.36.28.65.635.907 1.012.257.4.474.826.602 1.292.184.658.264 1.35.28 2.04.008.57 0 1.132-.048 1.702-.032.474-.056.948-.056 1.422-.04.69-.073 1.39-.073 2.08-.032.81-.032 1.622-.032 2.44 0 1.366 0 2.74.106 4.104-.402-.08-.82-.08-1.23-.072-.617.016-1.243-.048-1.853.072.145-1.365.193-2.73.25-4.103.08-2.337.103-4.674.103-7.01 0-.547-.064-1.085-.176-1.615-.13-.522-.37-1.012-.7-1.438-.232-.29-.53-.522-.85-.714-.417-.265-.923-.37-1.405-.418-.69-.064-1.396-.016-2.063.193-.754.24-1.437.69-1.942 1.3-.145.17-.257.354-.362.547-.136.265-.256.538-.32.827-.08.32-.097.658-.137.987-.063.666-.087 1.333-.112 2-.04 1.38-.032 2.754-.032 4.135 0 1.767.08 3.542.177 5.308-.658-.04-1.317-.088-1.975-.064-.377.016-.762.04-1.14.064.265-2.818.32-5.653.32-8.488v-1.285c0-.385.01-.77-.023-1.148-.048-.595-.048-1.198-.2-1.784-.057-.273-.2-.522-.306-.78-.17-.392-.466-.722-.795-.987-.578-.466-1.293-.788-2.047-.844-.964-.04-1.967.145-2.77.69-.666.442-1.14 1.125-1.437 1.864-.256.642-.392 1.333-.464 2.024-.073.706-.057 1.42-.057 2.128 0 1.277-.01 2.553.007 3.838.024 1.598.073 3.196.273 4.787-.698-.05-1.396-.09-2.103-.057-.36.016-.722.04-1.084.057.193-1.55.24-3.116.273-4.674.024-1.406.008-2.81.016-4.216 0-1.518.008-3.036-.048-4.554-.04-1.124-.104-2.248-.24-3.365.577.08 1.155.193 1.74.177.427-.016.844-.104 1.27-.177-.073.948-.105 1.888-.105 2.835.08.016.104-.064.136-.112.554-.97 1.308-1.814 2.264-2.36zm24.42-.49c.746-.2 1.517-.273 2.28-.257.57.016 1.132.104 1.678.257.698.185 1.364.49 2.04.73-.226.418-.387.868-.53 1.318-.13.393-.234.795-.322 1.196h-.426c-.273-.77-.843-1.437-1.565-1.815-.57-.298-1.22-.426-1.863-.362-.41.056-.81.153-1.18.337-.385.2-.722.506-.98.852-.36.506-.53 1.132-.53 1.75 0 .49.09 1.004.362 1.422.105.167.257.304.394.448.305.298.666.522 1.05.707.515.25 1.07.426 1.623.57.523.145 1.06.25 1.582.426.506.17.996.378 1.453.66.426.264.803.602 1.124.98.224.256.393.56.513.882.185.522.257 1.077.257 1.623.008.53-.08 1.052-.24 1.558-.226.738-.667 1.397-1.18 1.975-.53.594-1.205 1.06-1.936 1.39-.45.192-.907.36-1.38.45-.683.144-1.39.168-2.08.144-1.43-.04-2.874-.338-4.118-1.052.2-.45.353-.916.482-1.398.096-.393.184-.787.192-1.188h.426c.112.25.29.458.466.658.28.338.61.635.97.892.354.273.756.482 1.165.642.49.21 1.035.273 1.565.25.546-.025 1.092-.153 1.582-.402.353-.185.706-.402.963-.707.61-.723.82-1.727.658-2.65-.08-.466-.297-.924-.674-1.22-.746-.635-1.677-.98-2.6-1.262-.506-.16-1.036-.25-1.54-.433-.467-.16-.916-.378-1.35-.627-.73-.393-1.357-1.004-1.75-1.734-.217-.44-.33-.93-.37-1.42-.047-.635-.007-1.27.137-1.888.113-.482.273-.948.522-1.38.408-.724 1.027-1.31 1.74-1.736.435-.25.9-.466 1.39-.586zm-72.635.096c.522.08 1.044.17 1.582.177.538-.008 1.076-.096 1.605-.177-.2 1.663-.248 3.34-.273 5.01-.017 1.648-.01 3.286-.01 4.932 0 1.502.01 2.996.082 4.497.04.795.096 1.582.2 2.37-.698-.05-1.396-.09-2.103-.057-.362.016-.723.04-1.085.056.177-1.365.233-2.746.265-4.127.032-1.767.016-3.526.024-5.293-.008-2.457 0-4.93-.29-7.388zm21.54 0c.657.097 1.323.225 1.99.16.4-.03.794-.095 1.196-.16-.168 1.398-.232 2.81-.256 4.216-.032 1.494-.024 2.996-.024 4.49 0 1.525-.008 3.05.04 4.577.04 1.18.096 2.352.25 3.524-.692-.048-1.382-.088-2.072-.064-.37.016-.74.04-1.116.064.176-1.413.232-2.842.265-4.264.032-1.47.016-2.94.016-4.417 0-1.51.008-3.01-.04-4.52-.04-1.197-.105-2.402-.25-3.607z" fill="#B3B3B3"/></svg>