<svg xmlns="http://www.w3.org/2000/svg" width="200" height="30" viewBox="0 0 200 30"><path fill="#B3B3B3" fill-rule="evenodd" d="M174.174 21.852c-.064 1.398-.848 2.742-2.046 3.47-1.534.968-3.682.956-5.134-.166-1.002-.758-1.572-1.986-1.702-3.218-.096-1.006-.06-2.018-.07-3.028.02-1.142-.042-2.348.506-3.39.554-1.156 1.698-1.97 2.948-2.212 1.05-.202 2.174-.108 3.158.326.9.394 1.626 1.162 1.978 2.08.242.596.324 1.242.338 1.88.07 1.418.088 2.84.024 4.258zm-22.166-.062c-.112 1.52-.97 3.004-2.338 3.72-1.6.846-3.718.644-5.064-.59-.924-.818-1.434-2.038-1.492-3.258-.056-1.01-.04-2.024-.042-3.036.03-.882-.024-1.794.29-2.638.446-1.362 1.688-2.374 3.08-2.662 1-.208 2.07-.146 3.026.222.814.308 1.512.906 1.934 1.668.408.72.57 1.556.592 2.378.068 1.396.108 2.8.014 4.196zm-22.306-.226c-.062 1.622-.946 3.252-2.434 3.98-1.642.84-3.822.568-5.13-.762-.842-.814-1.296-1.974-1.35-3.134-.056-1.258-.046-2.522-.022-3.78 0-.87.138-1.762.578-2.526.578-1.066 1.672-1.798 2.85-2.03.936-.186 1.93-.126 2.834.19.878.312 1.646.942 2.082 1.772.322.596.486 1.268.536 1.942.098 1.446.1 2.9.056 4.348zm-55.916-6.718c.34-.796 1.058-1.42 1.912-1.596.736-.164 1.576-.126 2.206.33.566.4.816 1.16.664 1.826-.13.784-.716 1.388-1.342 1.826-1.192.82-2.57 1.298-3.908 1.818.022-1.404-.14-2.888.468-4.204zM37.264 25.258c-.384.306-.754.686-1.248.798-.318.062-.688-.062-.862-.348-.146-.228-.178-.502-.182-.766V13.42c3.382.002 6.764.002 10.146 0 .01 1.634-.002 3.27.006 4.906-2.612 2.318-5.238 4.624-7.86 6.932zm162.582-4.752c.246 1.476.224 3.02-.262 4.448-.6 1.88-2.014 3.486-3.818 4.29-3.256 1.488-7.374.702-9.876-1.85.652-1.11 1.316-2.216 1.968-3.328 1.122 1.066 2.568 1.926 4.154 1.954 1.294.012 2.562-.714 3.226-1.822.476-.76.624-1.68.56-2.564-.126-1.884-.81-3.668-1.446-5.426-.286-.716-.48-1.478-.896-2.134-.208-.338-.664-.498-1.024-.32-.486.234-.764.722-1.048 1.152-2.544 4.144-5.084 8.29-7.624 12.434-.366.618-.824 1.186-1.392 1.626-1.22.978-2.93 1.284-4.416.816-1.102-.334-2.078-1.084-2.64-2.096-1.194 1.116-2.684 1.952-4.312 2.204-2.172.332-4.488-.128-6.3-1.392-1.246-.864-2.228-2.1-2.804-3.502-.502-1.206-.72-2.524-.688-3.826.002-.474-.004-.948.002-1.42-1.31 1.398-2.65 2.772-3.97 4.162-1.146 1.178-2.252 2.396-3.434 3.542-1.36 1.276-3.08 2.23-4.952 2.456-2.156.288-4.446-.13-6.258-1.364-1.834-1.212-3.072-3.228-3.418-5.388-.204-1.134-.098-2.29-.12-3.436-2.482 2.532-4.948 5.078-7.434 7.61-1.238 1.238-2.816 2.176-4.55 2.494-2.078.38-4.314.144-6.182-.88-1.512-.824-2.716-2.172-3.412-3.742-.474-1.062-.742-2.206-.824-3.364-.102-1.946-.032-3.896-.016-5.842-.024-.718-.096-1.484-.516-2.09-.438-.632-1.33-.848-2.036-.602-.54.23-.758.836-.88 1.364-.68 3.928-1.29 7.87-1.988 11.792-.25 1.072-.828 2.098-1.738 2.738-1.112.808-2.602.984-3.908.618-.926-.264-1.696-.936-2.186-1.752-.49-.786-.75-1.684-.986-2.576-.778-2.778-1.548-5.558-2.32-8.338-.028.012-.08.038-.106.05l.09.03c-.772 2.608-1.528 5.222-2.294 7.83-.3.952-.482 1.96-1.02 2.818-.616 1.042-1.662 1.856-2.868 2.066-1.138.168-2.368-.072-3.286-.79-1.02-.78-1.594-2.018-1.812-3.258-.11-.65-.218-1.298-.318-1.948-1.866 1.958-3.836 3.938-6.328 5.086-1.742.804-3.714 1.064-5.612.824-2.442-.338-4.692-1.816-5.972-3.924-.804.702-1.604 1.412-2.412 2.112-1.04.882-2.254 1.628-3.614 1.87-1.342.238-2.824-.058-3.856-.982-1.002-.876-1.484-2.22-1.53-3.522-.004-.594 0-1.186-.002-1.778-1.538 1.36-3.084 2.714-4.624 4.072-.954.862-2.028 1.624-3.26 2.026-1.266.41-2.716.356-3.892-.294-.992-.548-1.706-1.528-2.012-2.61-.338-1.096-.206-2.254-.232-3.38-1.492 1.324-2.996 2.634-4.492 3.952-.968.886-2.012 1.726-3.246 2.204-1.322.526-2.88.546-4.158-.116-1.062-.552-1.826-1.592-2.13-2.74-.27-.932-.208-1.91-.202-2.87-.988.89-1.992 1.764-2.99 2.646-1.242 1.07-2.408 2.292-3.938 2.952-1.494.698-3.364.734-4.776-.176-1.326-.844-1.998-2.442-2.016-3.978.002-4.726 0-9.45.002-14.176h4.088c.002 4.63-.002 9.262 0 13.892.002.342.112.744.438.916.296.174.67.134.96-.03.372-.216.69-.504 1.016-.778 2.404-2.122 4.804-4.252 7.21-6.37.002-1.784-.006-3.568.004-5.352-1.054-.01-2.106-.002-3.158-.004 0-1.27-.002-2.538 0-3.806 1.052-.002 2.104.002 3.158 0-.01-2.088-.002-4.174-.004-6.262h4.084v6.264c3.382-.002 6.764-.004 10.148 0 .004-2.088.002-4.176.002-6.264h4.084c.002 2.088-.002 4.176.002 6.264 1.84-.004 3.678-.004 5.518 0 .004 1.266-.002 2.534.002 3.802-1.84.004-3.682 0-5.522 0 0 3.84-.002 7.678.002 11.518 0 .344.06.732.352.952.31.254.764.216 1.09.014.588-.366 1.082-.858 1.604-1.308 2.296-2.024 4.59-4.05 6.888-6.07.004-5.926-.002-11.85.004-17.774 1.362.006 2.724.004 4.086.002v23.808c.002.386-.048.81.178 1.146.228.378.758.45 1.132.26.426-.216.778-.552 1.142-.854 1.19-1.052 2.388-2.094 3.57-3.152-.092-1.33-.026-2.664-.046-3.996-.012-1.984.434-4.022 1.562-5.682.89-1.358 2.27-2.4 3.84-2.826 1.212-.328 2.512-.362 3.732-.05 1.592.404 3.054 1.44 3.82 2.914.718 1.372.732 3.024.31 4.49-.364 1.244-1.26 2.256-2.298 3.002-1.91 1.442-4.21 2.188-6.416 3.04.29 1.232 1.206 2.29 2.382 2.76 1.018.424 2.16.364 3.226.182 1.472-.266 2.746-1.128 3.848-2.1 1.55-1.366 2.998-2.838 4.51-4.246-.506-3.16-1.042-6.316-1.546-9.476 1.352-.204 2.704-.414 4.058-.61.89 5.408 1.79 10.814 2.68 16.222.018.218.152.51.412.484.226-.092.286-.352.36-.558 1.39-4.654 2.776-9.31 4.168-13.966.172-.586.516-1.144 1.032-1.482.588-.394 1.358-.448 2.024-.24.742.262 1.262.944 1.49 1.678 1.406 4.734 2.812 9.47 4.222 14.206.048.186.22.452.446.336.178-.062.232-.262.262-.428.546-3.272 1.082-6.546 1.63-9.816.16-.972.28-1.962.622-2.89.426-1.268 1.248-2.45 2.442-3.098 1.68-.884 3.806-.812 5.452.116.794.444 1.496 1.056 2.026 1.796 1.184-1.334 2.868-2.176 4.628-2.408 1.99-.264 4.086.114 5.802 1.178 1.262.778 2.294 1.926 2.932 3.266.554 1.128.814 2.386.852 3.638 0 .73-.002 1.458 0 2.188 2.464-2.522 4.92-5.05 7.394-7.566 1.266-1.238 2.824-2.238 4.58-2.592 2.26-.456 4.73-.124 6.686 1.14 1.954 1.232 3.246 3.378 3.564 5.652.162 1.104.072 2.222.092 3.33 2.146-2.238 4.29-4.476 6.432-6.72.914-.982 1.918-1.904 3.102-2.552 1.808-1.01 3.982-1.262 5.998-.87.94.186 1.826.576 2.65 1.06V.756c1.368-.002 2.738 0 4.106-.002.006 8 .002 16 .002 23.996-.006.306.084.626.3.852.294.34.846.442 1.228.188.37-.224.61-.592.844-.948 2.14-3.48 4.274-6.962 6.416-10.44.846-1.378 1.622-2.868 2.924-3.878 1.55-1.242 3.938-1.26 5.524-.074 1.168.888 1.826 2.258 2.334 3.598.77 2.114 1.588 4.23 1.952 6.458zM4.224 24.566c-.02.436.32.882.776.886 3.416.002 6.834 0 10.252.002.002 1.354.002 2.71 0 4.066H4.708c-1.182-.03-2.406-.378-3.288-1.196-.758-.698-1.188-1.696-1.338-2.702-.11-.598-.076-1.208-.082-1.812C0 16.126 0 8.44.002.754c1.408 0 2.814.002 4.222 0v23.812zm13.598-19.16c-.818-.526-1.246-1.576-1.038-2.524.162-.892.86-1.666 1.734-1.906.698-.192 1.482-.072 2.066.362.744.528 1.15 1.484 1.008 2.386-.114.89-.77 1.676-1.62 1.956-.708.24-1.528.144-2.15-.274z"/></svg>