<svg width="320" height="90" viewBox="0 0 320 90" fill="none" xmlns="http://www.w3.org/2000/svg">
<path d="M257.321 55.7657C259.178 55.652 260.921 55.6899 262.664 55.4626C266.264 55.0078 268.576 52.9614 269.523 49.475C270.319 46.5571 270.319 43.6391 269.637 40.7212C269.485 40.0011 269.182 39.2811 268.879 38.6369C268.121 37.0832 266.984 35.9084 265.393 35.1884C262.816 33.9757 260.087 34.2031 257.359 34.2031V55.7657H257.321ZM253.342 31.5125C253.493 31.5125 253.645 31.4746 253.759 31.4746C256.752 31.4746 259.746 31.4746 262.74 31.5504C264.521 31.5883 266.264 32.0052 267.894 32.7252C270.546 33.8999 272.328 35.9084 273.275 38.599C274.677 42.5401 274.715 46.5571 273.54 50.574C272.29 54.7804 269.334 57.2437 265.089 58.0395C263.763 58.3047 262.361 58.4184 261.035 58.4184C258.496 58.4942 255.957 58.4184 253.38 58.4184V31.5125H253.342Z" fill="black"/>
<path d="M231.628 58.4184H228.634V31.4367C229.619 31.4367 230.642 31.3988 231.628 31.4746C231.817 31.4746 232.044 31.7399 232.158 31.9673C235.417 36.4768 238.638 40.9864 241.897 45.496C243.11 47.2013 244.36 48.9445 245.687 50.8014V31.5125H248.794V58.4942C247.961 58.4942 247.165 58.5321 246.369 58.4563C246.179 58.4563 245.952 58.191 245.801 58.0016C241.594 52.2035 237.426 46.3676 233.257 40.5696C232.764 39.8874 232.272 39.2053 231.628 38.5611V58.4184Z" fill="black"/>
<path d="M57.8761 46.1411C60.5666 50.2339 63.2193 54.2887 65.9857 58.4572C64.4699 58.4572 63.0299 58.4572 61.6277 58.4572C61.4761 58.4572 61.3246 58.3057 61.2488 58.1541C58.3687 53.6824 55.4886 49.1728 52.6086 44.6632C52.6086 44.6253 52.6086 44.5874 52.5707 44.5116C53.2907 44.4737 54.0107 44.4737 54.7307 44.3979C58.1034 44.0948 59.5814 42.0484 59.354 38.6757C59.1645 36.023 57.6108 34.4314 54.9202 34.2419C53.6317 34.1282 52.3433 34.2419 50.979 34.2419V58.4572H47V31.5513C47.1516 31.5513 47.2653 31.4755 47.4169 31.4755C50.1074 31.4755 52.7601 31.4755 55.4507 31.5513C57.4592 31.5892 59.3919 32.044 61.0214 33.3324C65.0004 36.5157 64.1667 43.3748 59.5056 45.5348C59.0129 45.7243 58.4824 45.9138 57.8761 46.1411Z" fill="black"/>
<path d="M139.617 58.4563C138.101 58.4563 136.699 58.4563 135.297 58.4563C135.145 58.4563 134.956 58.3047 134.88 58.191C132 53.7193 129.082 49.2097 126.24 44.7001C126.202 44.6622 126.202 44.6243 126.164 44.5486C126.96 44.5107 127.718 44.4728 128.514 44.397C131.621 44.018 133.213 42.1232 132.985 38.9779C132.796 36.022 131.318 34.4683 128.286 34.2409C127.111 34.1273 125.861 34.2409 124.61 34.2409V58.4563H120.631V31.5503C120.783 31.5503 120.934 31.5125 121.086 31.5125C123.701 31.5125 126.316 31.5125 128.968 31.5503C130.484 31.5882 131.924 31.8535 133.288 32.5356C136.017 33.8241 137.495 36.7799 137.078 39.8874C136.661 43.0327 134.918 45.0412 131.924 46.0265C131.81 46.0644 131.697 46.1023 131.469 46.1781C134.198 50.195 136.851 54.2498 139.617 58.4563Z" fill="black"/>
<path d="M213.4 36.8558C211.998 40.8349 210.633 44.7002 209.269 48.6035H217.644C216.242 44.6623 214.84 40.8349 213.4 36.8558ZM202.524 58.4563C202.941 57.2437 203.357 56.1068 203.774 55.0078C206.541 47.3908 209.345 39.7738 212.111 32.1568C212.301 31.5883 212.566 31.361 213.172 31.4367C213.665 31.4746 214.158 31.5125 214.65 31.4367C215.37 31.361 215.711 31.6262 215.977 32.3083C219.084 40.797 222.229 49.2477 225.375 57.6984C225.451 57.9258 225.526 58.1532 225.64 58.4563C224.2 58.4563 222.874 58.4563 221.509 58.4184C221.358 58.4184 221.168 58.1532 221.093 57.9637C220.373 55.9552 219.615 53.9089 218.895 51.9004C218.743 51.4457 218.516 51.332 218.061 51.332C214.991 51.332 211.922 51.3699 208.89 51.332C208.435 51.332 208.246 51.4835 208.094 51.9383C207.412 53.9468 206.654 55.9552 205.972 57.9637C205.859 58.3427 205.669 58.4942 205.252 58.4942C204.343 58.4185 203.509 58.4563 202.524 58.4563Z" fill="black"/>
<path d="M117.145 55.7278V58.4184H101.683V31.4746H116.273V34.0894H105.738V43.0328H115.819V45.6855H105.738V55.7278H117.145Z" fill="black"/>
<path d="M179.938 35.7189C178.612 35.1883 177.323 34.582 176.035 34.1652C174.708 33.7104 173.306 33.5209 171.866 33.8241C170.464 34.0894 169.327 34.7715 168.91 36.2115C168.455 37.7273 168.91 39.1295 170.123 40.0769C171.222 40.9485 172.472 41.5927 173.723 42.3127C175.277 43.2222 176.982 43.9801 178.498 45.0412C182.856 48.0729 182.174 53.6056 179.976 56.1446C178.536 57.812 176.603 58.6078 174.481 58.8731C171.449 59.2521 168.531 58.7594 165.727 57.5468C165.272 57.3573 165.083 57.092 165.121 56.5994C165.159 55.5762 165.121 54.553 165.121 53.4161C165.31 53.5298 165.462 53.6435 165.575 53.7193C168.077 55.5383 170.881 56.4099 173.988 56.0688C174.632 55.9931 175.277 55.8036 175.883 55.5004C178.119 54.4393 178.801 51.7108 177.323 49.7782C176.641 48.9066 175.731 48.2244 174.822 47.656C173.458 46.8223 171.942 46.216 170.578 45.4202C169.365 44.7001 168.114 43.9043 167.129 42.919C164.704 40.5695 164.476 36.2873 166.561 33.7104C167.849 32.0809 169.63 31.3988 171.601 31.1335C174.291 30.7545 176.868 31.2093 179.407 32.1567C179.824 32.3083 180.014 32.4977 179.976 32.9904C179.9 33.8241 179.938 34.7715 179.938 35.7189Z" fill="black"/>
<path d="M76.2933 31.4367C77.6955 31.4367 79.0218 31.3988 80.3103 31.4746C80.4998 31.4746 80.765 31.7399 80.8408 31.9673C82.4703 36.5905 84.0998 41.1759 85.6915 45.7992C86.4873 48.035 87.2452 50.2709 88.1168 52.6583C88.2684 52.2414 88.4199 51.9762 88.4957 51.673C90.7316 45.1549 93.0053 38.6369 95.2033 32.1188C95.3927 31.6262 95.6201 31.3988 96.1506 31.4367C96.9465 31.4746 97.7802 31.4367 98.6897 31.4367C98.2349 32.7631 97.7802 34.0515 97.3254 35.3021C94.6727 42.8054 92.02 50.3087 89.4052 57.8121C89.2157 58.3426 88.9505 58.5321 88.4199 58.4563C88.3441 58.4563 88.2305 58.4563 88.1168 58.4563C87.3968 58.4563 86.5252 58.6458 85.9946 58.3047C85.502 58.0016 85.4262 57.0542 85.1988 56.4099C82.2808 48.3382 79.4008 40.2285 76.4828 32.1188C76.4449 31.9294 76.407 31.7399 76.2933 31.4367Z" fill="black"/>
<path d="M201.046 55.7278C200.743 56.5994 200.477 57.3952 200.174 58.1532C200.136 58.2668 199.909 58.4184 199.757 58.4184C195.286 58.4184 190.776 58.4184 186.266 58.4184C186.229 58.4184 186.229 58.3805 186.191 58.3426V31.4746H190.132V55.7278H201.046V55.7278Z" fill="black"/>
<path d="M72.8827 31.4746H68.9416V58.4184H72.8827V31.4746Z" fill="black"/>
<path d="M160.156 31.5125H156.215V58.4563H160.156V31.5125Z" fill="black"/>
</svg>
