<svg enable-background="new 0 0 476.3 232.3" viewBox="0 0 476.3 232.3" xmlns="http://www.w3.org/2000/svg"><path d="m0 1.5h62.7v3.5h-49.4v48.6h39.7v3.5l-39.8-.5v50.9h49.5v3.5h-62.7zm131 109.5 44.4-109.5h-5.2l-36.5 90.1h-.5l-37.5-90.1h-13.2l45.9 109.5zm167.8-89 76.5 89h2.4v-109.5h-4.3v88.2l-76.4-88.2h-2.5v109.5h4.3zm176.9 53.8c-.8-4.6-2.8-8.8-5.9-12.3-2.7-2.9-5.8-5.3-9.3-7.1-3.6-1.9-7.3-3.6-11.1-5-4.7-1.9-9.3-3.8-14-5.7-3.4-1.3-6.5-3.1-9.3-5.3s-5-5.2-6.2-8.5c-1.2-3.7-1.5-7.6-.9-11.4.6-4.5 2.8-8.5 6.3-11.4 3.9-3.2 8.7-5.1 13.7-5.5 2.2-.2 4.4-.3 6.7-.2 3.2 0 6.3.3 9.4 1 4.4 1 8.6 2.7 12.4 5 .6.4 1.3.8 1.9 1.2v-4.6c-5.3-2.5-13.2-6-23.5-6-3.2-.1-6.4.1-9.6.5-3.3.5-6.5 1.4-9.5 2.8-4.3 1.8-8.1 4.7-11 8.3-3.2 4-5.2 8.9-5.6 14-.2 2.7-.1 5.4.3 8.1.4 3.2 1.5 6.2 3.1 9 2.6 4.2 6.1 7.7 10.4 10.1s8.8 4.5 13.4 6.2c4.7 1.8 9.4 3.6 13.9 5.7 3.9 1.8 7.5 4.2 10.6 7.3 2.1 2.1 3.7 4.7 4.7 7.5 1.4 4.3 1.6 8.9.7 13.4-1.1 6-5 11.1-10.5 13.7-3.7 1.8-7.7 2.8-11.7 3.2-3.7.4-7.5.4-11.2.1-3.2-.3-6.4-.9-9.4-1.7-4.5-1.2-8.7-3.2-12.5-5.8-.8-.6-1.6-1.2-2.4-1.8v4.9s3.7 2.3 5.6 3.1c6.7 3.1 14 4.7 21.4 4.8 4.4.1 8.7-.2 13.1-.9 4.1-.7 8-2 11.8-3.8 8.5-4.2 14.2-12.6 14.8-22.1.2-3.7 0-7.3-.6-10.8zm-254.8-74.3 51 109.5h-12.5l-16.4-35.2-50.8-.1-15 35.3h-5.2l46.3-109.5zm20.4 70.6-24.6-52.7h-.5l-22.5 52.7zm-127.2 114.1c.1 13.1-10.5 23.9-23.6 24-.1 0-.3 0-.4 0-4.9-.1-9.7-1.3-14.1-3.4v-53.2c0-5.9-.2-6.5-6.3-7.1v-2.2c4.7-.7 9.3-1.8 13.9-3.3v29.5l7.8-3.4c1.2-.6 2.6-.9 3.9-1 10.2 0 18.8 8.9 18.8 20.1zm-8.5 2.5c0-10.9-6.7-17.2-14.7-17.2-2.6 0-5.2.6-7.5 1.8v24.7c0 1.1.2 2.2.6 3.3.6 1.9 3.5 5.3 8.5 5.4 8.1-.1 13.2-6.9 13.1-18zm58.2-1.2c0 15.4-11.3 22.8-20.8 22.8-13.1 0-21-10.5-21-21.2 0-15.8 12.3-23 21-23 11.9 0 20.8 9.5 20.8 21.4zm-8.9 2.1c0-11.2-4.5-20.3-12.8-20.3-5.9 0-11.1 5.9-11.1 16.8 0 12.1 5.3 21.1 13.1 21.1 5.9-.1 10.8-4.5 10.8-17.6zm52.3 9v-32c-5 .9-10 1.5-15 1.7v2.2c6.9 1 7.5 1.3 7.5 6.8v22.3c-2.7 2.8-6.4 4.5-10.3 4.6-4.3 0-8.4-2.3-8.4-10.8v-12.8c0-6.5 0-11 .3-14-4.5.8-9.1 1.4-13.7 1.7v2.2c5.5 1.1 5.8 1.4 5.8 6.7v18.8c0 10.3 5.5 14.3 11.9 14.3 2.6 0 4.6-.8 7.4-2.4s4.9-3.4 7.1-5v6.8l.6.6c4.6-1.5 9.3-2.6 14.1-3.4v-2.4l-2.7-.2c-3.8-.2-4.5-.9-4.6-5.7zm29 6.2c-2.4 0-5.6-1.4-5.6-9.2v-24.6h10.2c1.2-.9 1.4-2.5.6-3.7h-10.8v-13.1l-1.4-.2-6.2 6.3v7h-4.4l-2.6 2.8.4 1h6.6v27.9c0 7.6 3.3 11.4 9.4 11.4 1.4-.1 2.8-.5 4-1.2l6.5-3.4-.9-2.5c-1.8.9-3.8 1.5-5.8 1.5zm25.3-5.8v-33c-4.4 1.8-8.9 3-13.6 3.7v2.3c5.8 1 6 1.3 6 7.3v19.7c0 6.5-.7 7.1-6.7 7.7v2.5h21.1v-2.5c-6.2-.6-6.8-1.2-6.8-7.7zm.4-46.1c.1-2.6-1.9-4.9-4.6-5-.1 0-.1 0-.2 0-2.7 0-4.9 2.3-4.9 5 .1 2.6 2.2 4.8 4.8 4.9 2.7 0 4.9-2.2 4.9-4.9zm57.2 76.8v2.6h-23v-2.6c7.5-.7 8.1-1.1 8.1-7.9v-15.5l-10.2 4c-14 0-20.6-10.8-20.6-20.1 0-13.7 12.4-24.1 25.6-24 2.3.1 4.5.5 6.7 1.2.8.3 1.7.5 2.6.5 1.1-.2 2.2-.5 3.3-1.1l.4.3c-.1 2-.3 3.8-.3 10.2v44.5c0 6.9.7 7.2 7.4 7.9zm-14.8-55.7c-2.5-2.5-5.9-3.9-9.4-4-6.5 0-12.8 5.8-12.8 17 0 11.6 8 17.9 15.1 17.9 2.4 0 4.9-.5 7.1-1.5zm56 24.6v-32c-5 .9-10 1.5-15 1.7v2.2c6.9 1 7.5 1.3 7.5 6.8v22.3c-2.7 2.8-6.4 4.5-10.3 4.6-4.3 0-8.4-2.3-8.4-10.8v-12.8c0-6.5 0-11 .3-14-4.5.8-9.1 1.4-13.7 1.7v2.2c5.5 1.1 5.8 1.4 5.8 6.7v18.8c0 10.3 5.5 14.3 11.9 14.3 2.6 0 4.6-.8 7.4-2.4s4.9-3.4 7.1-5v6.8l.6.6c4.6-1.5 9.3-2.6 14.1-3.4v-2.4l-2.7-.2c-3.8-.2-4.6-.9-4.6-5.7zm44.4-14.8c-1.6.3-13.6 1.2-25 1.6.1 13 7.6 18.4 14.3 18.4 3.8 0 7.5-1.5 10.9-4.8l1.5 2c-6 7.6-12.6 9.3-15.6 9.3-11.8 0-18.7-9.6-18.7-20.4-.1-6.2 2.2-12.2 6.3-16.8 3.9-4.4 9.1-7 14.1-7 7.9 0 14.4 7.1 14.4 14.6 0 1.9-.4 2.7-2.2 3.1zm-6-4.6c.1-5-3.2-9.6-8.4-9.6-4.4 0-8.6 4-10.1 11.8 5.4 0 10.6-.1 16.2-.3 1.7.1 2.3-.5 2.3-1.9z" fill="#797979"/></svg>