<svg xmlns="http://www.w3.org/2000/svg" width="124" height="24" viewBox="0 0 124 24"><path fill="#B3B3B3" fill-rule="evenodd" d="M3.673 12.708H15.98v-2.542H3.673V2.943h12.772V.4H.79V23h16.213v-2.542H3.673v-7.75zM36.363 23L44.208.4h-3.07l-6.26 19.128L28.24.4h-3.1L33.264 23h3.1zm27.112-6.79h-8.71L52.376 23h-3.07L57.368.4h3.72L69.025 23H65.8l-2.325-6.79zm-.806-2.417L59.196 3.5l-3.72 10.293h7.192zM95.483.4h-2.728v18.477L80.946.4h-3.132V23h2.728V4.68L92.23 23h3.254V.4zm26.832 6.635c0-1.55-.093-1.984-.59-3.038-1.24-2.604-3.874-3.968-7.687-3.968-4.96 0-8.03 2.54-8.03 6.633 0 2.76 1.457 4.495 4.433 5.27l5.61 1.488c2.884.745 4.155 1.892 4.155 3.66 0 1.208-.65 2.448-1.612 3.13-.9.65-2.325.96-4.154.96-2.48 0-4.123-.588-5.208-1.89-.837-.992-1.21-2.077-1.178-3.472h-2.728c.03 2.077.434 3.44 1.333 4.68 1.55 2.14 4.155 3.225 7.596 3.225 2.697 0 4.898-.62 6.355-1.736 1.52-1.21 2.48-3.224 2.48-5.177 0-2.79-1.735-4.836-4.804-5.673l-5.673-1.52c-2.728-.743-3.72-1.61-3.72-3.347 0-2.294 2.015-3.813 5.053-3.813 3.596 0 5.61 1.612 5.642 4.588h2.728z"/></svg>