<svg width="320" height="91" viewBox="0 0 320 91" fill="none" xmlns="http://www.w3.org/2000/svg">
<g clip-path="url(#clip0)">
<rect width="320" height="90" transform="translate(0 0.87915)" fill="white"/>
<path d="M29.8548 51.8792V37.3991H32.2548V49.6992H43.4348V51.8792H29.8548ZM61.8221 47.8392C61.8221 48.4792 61.6554 49.0658 61.3221 49.5992C61.0021 50.1325 60.5288 50.5992 59.9021 50.9992C59.2888 51.3858 58.5421 51.6858 57.6621 51.8992C56.7821 52.1258 55.7888 52.2392 54.6821 52.2392C53.5754 52.2392 52.5754 52.1258 51.6821 51.8992C50.8021 51.6858 50.0488 51.3858 49.4221 50.9992C48.8088 50.5992 48.3354 50.1325 48.0021 49.5992C47.6821 49.0658 47.5221 48.4792 47.5221 47.8392V39.5792H49.9221V47.3592C49.9221 48.2392 50.3221 48.9125 51.1221 49.3792C51.9221 49.8458 53.1088 50.0792 54.6821 50.0792C56.2554 50.0792 57.4354 49.8458 58.2221 49.3792C59.0221 48.9125 59.4221 48.2392 59.4221 47.3592V39.5792H61.8221V47.8392ZM79.4648 51.8792L74.5648 47.0592L69.6648 51.8792H66.6448L73.0448 45.6392L66.8648 39.5792H69.8848L74.5648 44.2192L79.2448 39.5792H82.2648L76.0848 45.6392L82.4848 51.8792H79.4648ZM101.612 47.8392C101.612 48.4792 101.445 49.0658 101.112 49.5992C100.792 50.1325 100.319 50.5992 99.692 50.9992C99.0786 51.3858 98.332 51.6858 97.452 51.8992C96.572 52.1258 95.5786 52.2392 94.472 52.2392C93.3653 52.2392 92.3653 52.1258 91.472 51.8992C90.592 51.6858 89.8386 51.3858 89.212 50.9992C88.5986 50.5992 88.1253 50.1325 87.792 49.5992C87.472 49.0658 87.312 48.4792 87.312 47.8392V39.5792H89.712V47.3592C89.712 48.2392 90.112 48.9125 90.912 49.3792C91.712 49.8458 92.8986 50.0792 94.472 50.0792C96.0453 50.0792 97.2253 49.8458 98.012 49.3792C98.812 48.9125 99.212 48.2392 99.212 47.3592V39.5792H101.612V47.8392ZM119.995 51.8792L116.775 47.3592H110.675V51.8792H108.275V39.5792H118.215C118.868 39.5792 119.455 39.6725 119.975 39.8592C120.508 40.0458 120.961 40.3125 121.335 40.6591C121.708 40.9925 121.995 41.3992 122.195 41.8792C122.395 42.3592 122.495 42.8925 122.495 43.4792C122.495 44.4791 122.235 45.2991 121.715 45.9391C121.195 46.5658 120.435 46.9925 119.435 47.2192L122.755 51.8792H119.995ZM117.855 45.1792C119.308 45.1792 120.035 44.6258 120.035 43.5192C120.035 42.9058 119.848 42.4592 119.475 42.1792C119.101 41.8991 118.515 41.7591 117.715 41.7591H110.675V45.1792H117.855ZM135.344 47.0392V51.8792H132.944V47.0392L125.984 39.5792H128.904L134.164 45.1792L139.424 39.5792H142.344L135.344 47.0392ZM169.703 51.8792L165.783 46.3591H158.463V51.8792H156.063V37.3991H167.483C169.016 37.3991 170.209 37.8058 171.063 38.6191C171.929 39.4325 172.363 40.5458 172.363 41.9591C172.363 42.5992 172.269 43.1658 172.083 43.6592C171.896 44.1525 171.629 44.5792 171.283 44.9392C170.949 45.2858 170.549 45.5658 170.083 45.7792C169.629 45.9925 169.136 46.1458 168.603 46.2392L172.483 51.8792H169.703ZM167.123 44.1791C168.029 44.1791 168.716 43.9925 169.183 43.6192C169.663 43.2325 169.903 42.6791 169.903 41.9591C169.903 40.3725 168.903 39.5792 166.903 39.5792H158.463V44.1791H167.123ZM178.499 51.8792V39.5792H191.279V41.7591H180.899V44.3992H188.119V46.5792H180.899V49.6992H191.739V51.8792H178.499ZM204.126 41.7591V51.8792H201.726V41.7591H195.846V39.5792H210.006V41.7591H204.126ZM224.31 51.8792L222.89 49.2392H214.63L213.21 51.8792H210.57L217.27 39.5792H220.25L226.95 51.8792H224.31ZM218.77 41.6192L215.83 47.0592H221.69L218.77 41.6192ZM231.748 51.8792V39.5792H234.148V51.8792H231.748ZM240.95 51.8792V39.5792H243.35V49.6992H252.85V51.8792H240.95ZM257.846 51.8792V39.5792H270.626V41.7591H260.246V44.3992H267.466V46.5792H260.246V49.6992H271.086V51.8792H257.846ZM288.514 51.8792L285.294 47.3592H279.194V51.8792H276.794V39.5792H286.734C287.387 39.5792 287.974 39.6725 288.494 39.8592C289.027 40.0458 289.481 40.3125 289.854 40.6591C290.227 40.9925 290.514 41.3992 290.714 41.8792C290.914 42.3592 291.014 42.8925 291.014 43.4792C291.014 44.4791 290.754 45.2991 290.234 45.9391C289.714 46.5658 288.954 46.9925 287.954 47.2192L291.274 51.8792H288.514ZM286.374 45.1792C287.827 45.1792 288.554 44.6258 288.554 43.5192C288.554 42.9058 288.367 42.4592 287.994 42.1792C287.621 41.8991 287.034 41.7591 286.234 41.7591H279.194V45.1792H286.374Z" fill="black"/>
</g>
<defs>
<clipPath id="clip0">
<rect width="320" height="90" fill="white" transform="translate(0 0.87915)"/>
</clipPath>
</defs>
</svg>
