<svg xmlns="http://www.w3.org/2000/svg" width="106" height="38" viewBox="0 0 106 38"><path fill="#B3B3B3" d="M11.693 37.985c-3.16-.127-5.743-.996-7.763-2.61-.386-.31-1.305-1.234-1.613-1.624C1.497 32.716.94 31.707.57 30.588-.575 27.143.013 22.623 2.25 17.662c1.916-4.247 4.873-8.46 10.03-14.293.76-.86 3.024-3.37 3.038-3.37.006 0-.118.215-.273.477-1.34 2.26-2.49 4.92-3.114 7.225-1.004 3.698-.883 6.87.355 9.332.854 1.695 2.318 3.163 3.964 3.975 2.882 1.42 7.102 1.536 12.255.342.354-.082 17.934-4.776 39.066-10.43C88.705 5.264 105.997.64 106 .645c.006.005-49.095 21.14-74.584 32.103-4.037 1.735-5.117 2.173-7.014 2.844-4.85 1.713-9.197 2.53-12.71 2.39z"/></svg>