<svg xmlns="http://www.w3.org/2000/svg" width="165" height="26" viewBox="0 0 165 26"><g fill="#2E2D2B" fill-rule="evenodd"><path d="M165 25.287h-6.95c-.298 0-.47-.084-.597-.377-1.406-2.81-2.856-5.62-4.306-8.43-.128-.293-.128-.503 0-.796 1.407-2.768 2.772-5.578 4.18-8.345.04-.127.212-.21.34-.21h6.78c.04 0 .04 0 .127.04-.17.295-.3.588-.47.882-1.406 2.558-2.77 5.116-4.178 7.674-.085.126-.085.377-.042.46 1.663 2.98 3.325 5.956 4.988 8.89 0 .043.043.085.085.127v.084H165zM101.43 25.37L98.403 9.898h-.085L95.29 25.37H88.13L82.798.21h7.12l2.175 15.935h.085L94.992.21h6.95l2.77 15.935h.13L107.015.21h6.906l-5.33 25.16M6.907 11.155V5.787c1.11.042 2.26-.21 3.283.336.725.377 1.066 1.006 1.15 1.76.044.42 0 .882-.084 1.343-.213 1.006-.896 1.635-1.92 1.803-.81.083-1.62.083-2.43.125zm.298 13.67v-8.973c.384-.084.64-.042.81.335l3.966 8.303c.13.252.256.336.555.336h7.247l-5.16-10.15.3-.166c1.62-.84 2.728-2.14 3.282-3.858.3-.923.342-1.887.342-2.894-.043-3.103-1.75-5.41-4.733-6.416-1.28-.42-2.643-.63-4.008-.63H0v24.114h7.205zm51.462-8.093c-.725.21-1.365.336-1.962.587-1.193.46-1.705 1.3-1.62 2.557.043.88.555 1.468 1.45 1.594.64.085 1.236 0 1.833-.25.213-.085.3-.21.256-.42v-4.068h.043zm-7.12-3.648l-1.75-3.9c1.835-.965 3.71-1.76 5.757-2.097 1.92-.293 3.795-.335 5.67.168 2.175.587 3.37 2.055 3.625 4.32.04.586.084 1.173.084 1.76v8.094c0 1.173.17 1.383 1.364 1.635l.17.04v2.224c-.724 0-1.406.04-2.13 0-1.237-.085-2.474-.253-3.582-.714-.725-.293-1.322-.755-1.706-1.426-.128-.25-.255-.167-.383-.042-.512.462-1.024.923-1.578 1.3-1.323.88-2.772 1.175-4.35.88-2.26-.418-3.666-2.18-3.752-4.486-.085-2.39 1.066-4.026 3.24-5.032 1.663-.755 3.412-1.007 5.202-1.216.213-.042.47-.042.682-.084.555-.042.555-.042.555-.63v-.838c-.043-.923-.597-1.51-1.535-1.636-1.023-.125-2.047.126-2.985.504-.725.293-1.45.63-2.174.922-.128.126-.256.168-.426.252zm86.976 2.18c0-.545.043-1.048 0-1.51-.085-.796-.213-1.55-.426-2.306-.17-.587-.64-.838-1.237-.838-.64 0-1.065.293-1.28.88-.17.462-.297.923-.34 1.426-.085.797-.085 1.594-.17 2.39h3.453v-.04zm6.396 2.56h-9.637c-.3 1.634.98 3.018 2.73 3.102 1.875.084 3.665-.378 5.37-1.132l.427-.168 1.45 4.235c-.725.295-1.407.588-2.132.798-2.558.84-5.202 1.09-7.845.63-3.368-.588-5.372-2.6-6.097-5.83-.512-2.348-.512-4.74.128-7.087.938-3.48 3.71-5.576 7.376-5.618 1.28 0 2.515.125 3.667.587 2.302.92 3.624 2.725 4.22 5.03.342 1.175.427 2.433.384 3.65-.04.586-.04 1.174-.04 1.803zm-23.323-2.56c0-.335.043-.67 0-1.006-.128-.88-.17-1.803-.384-2.684-.17-.713-.64-1.006-1.322-1.006-.638 0-1.107.293-1.32 1.006-.128.42-.213.84-.256 1.216-.085.797-.085 1.636-.17 2.475h3.453zm5.244 4.362l1.45 4.193c-.64.25-1.278.503-1.918.754-2.558.923-5.2 1.132-7.888.755-3.24-.462-5.542-2.517-6.224-5.62-.597-2.642-.64-5.284.213-7.842.98-3.02 3.496-4.865 6.736-5.033 1.62-.083 3.24.084 4.69.84 1.918.964 3.026 2.515 3.623 4.528.555 1.845.47 3.774.427 5.703h-9.636c-.298 1.342.767 2.81 2.132 3.02 1.45.21 2.856 0 4.22-.42.725-.293 1.408-.587 2.175-.88z"/><path d="M27.756 14.845v-.797c-.043-1.006-.043-2.054-.427-3.02-.256-.628-.64-.88-1.237-.88-.597 0-1.023.252-1.28.88-.468 1.217-.425 2.517-.425 3.817h3.368zm6.31 2.558H24.43c.043.378.086.713.17 1.007.342 1.384 1.152 2.013 2.602 2.096 1.876.084 3.624-.42 5.33-1.132l.297-.126h.127l1.45 4.194c-.938.335-1.833.713-2.77 1.006-2.346.67-4.734.84-7.12.42-3.07-.545-5.118-2.307-5.885-5.284-.725-2.726-.725-5.494.17-8.22.98-2.977 3.454-4.78 6.61-4.99 1.662-.084 3.24.084 4.73.84 2.005 1.047 3.114 2.767 3.625 4.863.384 1.762.3 3.523.3 5.326zm118.698 7.842H145.9V1.342c0-.503 0-.503.51-.587 2.005-.252 4.01-.46 6.012-.713.086 0 .214 0 .342-.042v25.245zM81.988 25.245h-6.78V.797L81.99 0M67.11 7.087h6.778v18.116h-6.78zM66.938.84h7.078v4.57h-7.078zM33.81 6.5h2.985V1.384c0-.545 0-.545.51-.587 1.92-.252 3.838-.503 5.757-.713.128 0 .256-.042.426-.042V6.5h4.477v4.655H43.53v7.38c0 1.175.555 1.678 1.706 1.594.98-.085 1.834-.42 2.73-.798l.425-.167c0 .125.044.167.044.21v4.612c0 .126-.085.336-.213.378-2.43 1.132-5.03 1.55-7.673 1.09-2.218-.378-3.497-1.845-3.625-4.152-.085-1.342-.042-2.684-.042-4.026v-6.08h-2.985V6.5h-.085z"/></g></svg>