<svg xmlns="http://www.w3.org/2000/svg" width="152" height="38" viewBox="0 0 152 38"><path fill="#B3B3B3" fill-rule="evenodd" d="M11.206 11.414H4.628c-.468 1.092-.832 1.967-1.092 2.626-.52 1.37-.962 2.765-1.326 4.186-.624-.104-.98-.156-1.066-.156-.087 0-.468.052-1.144.156C3.935 9.63 6.604 3.562 8.008.026c.416.052.633.078.65.078.173 0 .364-.026.572-.078.832 2.288 2.375 5.99 4.628 11.102 1.82 4.143 2.877 6.51 3.172 7.098-.59-.104-1.1-.156-1.534-.156-.45 0-1.005.052-1.664.156-.555-1.924-1.43-4.195-2.626-6.812zm-.52-1.3L7.878 3.666l-2.73 6.448h5.538zm7.202.884c0-5.01-.07-8.597-.206-10.764.72.104 1.225.156 1.517.156.41 0 .907-.052 1.49-.156-.155 2.27-.232 5.235-.232 8.892 0 1.82.06 3.13.18 3.926.154 1.04.47 1.855.95 2.444.412.52.995.932 1.75 1.235.753.304 1.54.456 2.364.456.89 0 1.722-.173 2.493-.52 1.354-.64 2.21-1.733 2.57-3.276.292-1.248.438-3.033.438-5.356 0-3.623-.12-6.223-.36-7.8.445.104.848.156 1.208.156.344 0 .72-.052 1.132-.156-.29 2.063-.437 5.122-.437 9.178 0 1.612-.094 2.886-.283 3.822-.274 1.404-.797 2.505-1.568 3.302-1.302 1.37-3.187 2.054-5.655 2.054-2.897 0-4.988-.875-6.273-2.626-.445-.607-.745-1.317-.9-2.132-.12-.64-.18-1.586-.18-2.834zM40.644 8.06c0-1.89-.015-4.013-.044-6.37-2.36.035-3.985.156-4.878.364.058-.38.088-.685.088-.91 0-.26-.03-.563-.088-.91.908.104 2.878.156 5.91.156 2.99 0 4.952-.052 5.89-.156-.06.312-.088.615-.088.91 0 .225.03.53.088.91-.967-.225-2.527-.347-4.68-.364-.03 2.392-.045 4.186-.045 5.382 0 5.772.052 9.49.154 11.154-.6-.104-1.068-.156-1.405-.156-.366 0-.747.052-1.143.156.16-2.617.242-6.006.242-10.166zM58.08 0c2.645 0 4.803.78 6.473 2.34 1.784 1.647 2.676 3.883 2.676 6.708 0 2.773-.844 5.044-2.53 6.812-1.736 1.837-4.023 2.756-6.862 2.756-2.692 0-4.89-.832-6.593-2.496-1.703-1.664-2.555-3.917-2.555-6.76 0-2.825.83-5.092 2.494-6.8C52.846.855 55.146 0 58.08 0zm-6.616 9.334c0 2.496.596 4.48 1.788 5.954 1.192 1.473 2.737 2.21 4.635 2.21 1.962 0 3.548-.732 4.756-2.197 1.21-1.464 1.813-3.505 1.813-6.122 0-2.045-.357-3.71-1.07-4.992-.6-1.075-1.46-1.88-2.58-2.418-.908-.433-1.857-.65-2.846-.65-1.8 0-3.285.633-4.453 1.898-1.362 1.473-2.043 3.58-2.043 6.318zm33.058-5.122h-.27c-1.22-2.045-3.035-3.068-5.444-3.068-1.904 0-3.467.66-4.688 1.976-1.35 1.456-2.026 3.467-2.026 6.032 0 2.6.716 4.654 2.148 6.162 1.302 1.387 2.914 2.08 4.835 2.08 1.514 0 2.75-.33 3.71-.988.034-3.033-.007-5.13-.12-6.292.422.104.902.156 1.44.156.374 0 .805-.052 1.294-.156-.162 2.045-.243 3.744-.243 5.096 0 .884.024 1.517.073 1.898-2.653.97-4.916 1.456-6.788 1.456-2.72 0-4.92-.862-6.605-2.587-1.685-1.725-2.527-3.982-2.527-6.773 0-2.635.765-4.775 2.295-6.422C73.298.945 75.683.026 78.76.026c2.522 0 4.72.51 6.592 1.534-.374.85-.65 1.733-.83 2.652zm18.342 13.702v.312c-.728-.104-1.24-.156-1.534-.156-.277 0-.9.052-1.872.156-1.976-3.137-4.1-6.04-6.37-8.71h-.676c0 3.38.06 6.283.182 8.71-.433-.104-.936-.156-1.508-.156-.4 0-.858.052-1.378.156.12-2.86.182-6.18.182-9.958 0-1.473-.052-4.15-.156-8.034.66.07 1.413.104 2.262.104.156 0 .667-.01 1.534-.026h1.482c1.456 0 2.557.095 3.302.286.607.156 1.144.425 1.612.806.884.728 1.326 1.768 1.326 3.12 0 1.612-.65 2.817-1.95 3.614-.728.45-1.777.797-3.146 1.04.38.59 1.577 2.175 3.588 4.758 1.04 1.317 2.08 2.643 3.12 3.978zM98.548 4.81c0-2.288-1.49-3.432-4.472-3.432-.52 0-1.066.043-1.638.13-.035.78-.052 1.96-.052 3.536 0 .45.01 1.127.026 2.028v1.534c.38.035.84.043 1.378.026 3.172-.14 4.758-1.413 4.758-3.822zm17.29 6.604h-6.215c-.442 1.092-.786 1.967-1.032 2.626-.49 1.37-.908 2.765-1.252 4.186-.59-.104-.925-.156-1.007-.156-.08 0-.44.052-1.08.156 3.718-8.597 6.24-14.664 7.566-18.2.393.052.598.078.614.078.164 0 .344-.026.54-.078.787 2.288 2.245 5.99 4.374 11.102 1.72 4.143 2.718 6.51 2.997 7.098-.556-.104-1.04-.156-1.45-.156-.424 0-.95.052-1.57.156-.525-1.924-1.352-4.195-2.482-6.812zm-.488-1.3l-2.653-6.448-2.58 6.448h5.233zm20.902-5.278c0 1.837-.832 3.285-2.496 4.342-1.144.728-2.87 1.092-5.174 1.092-.277 0-.693-.017-1.248-.052-.017 2.617.043 5.287.182 8.008-.59-.104-1.092-.156-1.508-.156-.433 0-.893.052-1.378.156.14-2.773.208-6.43.208-10.972 0-2.687-.07-5.027-.208-7.02.676.052 2.115.078 4.316.078 2.427 0 4.056.2 4.888.598 1.612.763 2.418 2.07 2.418 3.926zm-2.832.26c0-1.144-.295-1.993-.884-2.548-.797-.763-2.028-1.144-3.692-1.144-.572 0-1.075.035-1.508.104-.035 2.288-.035 4.827 0 7.618 1.803.052 3.146-.113 4.03-.494 1.37-.607 2.054-1.785 2.054-3.536zm7.875 4.29v3.874c0 2.01.014 3.666.042 4.966-.45-.104-.828-.156-1.137-.156-.323 0-.723.052-1.2.156l.084-1.95c.127-2.79.19-5.304.19-7.54 0-1.283-.063-4.117-.19-8.502.337.104.73.156 1.18.156.45 0 .842-.052 1.18-.156-.142 2.496-.19 5.018-.15 7.566 1.854.07 3.25.104 4.19.104 1.32 0 2.62-.026 3.897-.078.03-2.253-.006-4.784-.104-7.592.337.104.73.156 1.18.156.448 0 .84-.052 1.178-.156-.154 3.536-.232 7.696-.232 12.48 0 1.63.042 3.467.127 5.512-.535-.104-.9-.156-1.096-.156-.267 0-.667.052-1.2.156.098-2.305.147-3.943.147-4.914v-3.9c-.94-.052-2.287-.078-4.042-.078-1.628 0-2.976.017-4.043.052zM56.255 30.28h-.167c-.256-.744-.812-1.116-1.668-1.116-.568 0-.988.176-1.26.528-.184.248-.276.532-.276.852 0 .416.156.756.468 1.02.192.16.504.324.936.492.696.272 1.132.448 1.308.528.232.104.448.24.648.408.448.368.672.88.672 1.536 0 .704-.236 1.304-.708 1.8-.544.584-1.312.876-2.304.876-.872 0-1.6-.22-2.184-.66.12-.4.192-.776.216-1.128h.156c.4.832 1.068 1.248 2.004 1.248.584 0 1.036-.172 1.356-.516.28-.288.42-.648.42-1.08 0-.44-.148-.796-.444-1.068-.2-.192-.548-.388-1.044-.588-1.016-.416-1.644-.728-1.884-.936-.4-.344-.6-.84-.6-1.488 0-.736.268-1.316.804-1.74.488-.392 1.108-.588 1.86-.588.808 0 1.488.184 2.04.552-.2.384-.316.74-.348 1.068zm1.833 2.508c0-1.224-.028-2.568-.084-4.032.192.048.412.072.66.072.264 0 .496-.024.696-.072-.064 1.272-.096 2.7-.096 4.284 0 1.28.028 2.62.084 4.02-.304-.048-.552-.072-.744-.072-.168 0-.38.024-.636.072.08-1.248.12-2.672.12-4.272zm1.64 4.272v-.204c.144-.16.38-.468.708-.924 1.504-2.072 3-4.24 4.488-6.504-2.384 0-3.96.064-4.728.192.032-.16.048-.312.048-.456 0-.176-.016-.312-.048-.408.696.048 1.836.072 3.42.072 1.648 0 2.692-.024 3.132-.072v.18c-1.384 1.896-2.636 3.66-3.756 5.292-.944 1.368-1.416 2.076-1.416 2.124 0 .024.024.036.072.036 2.024 0 3.716-.06 5.076-.18-.032.112-.048.244-.048.396 0 .184.016.336.048.456-.368-.048-1.78-.072-4.236-.072-1.112 0-2.032.024-2.76.072zm9.528-4.68c1.264.016 2.208-.012 2.832-.084-.032.176-.048.312-.048.408 0 .048.008.108.024.18.016.096.024.16.024.192-.592-.08-1.212-.12-1.86-.12-.248 0-.572.008-.972.024-.016.688-.024 1.212-.024 1.572 0 .592.012 1.212.036 1.86 1.16 0 2.212-.048 3.156-.144-.032.176-.048.312-.048.408 0 .096.016.224.048.384-.368-.048-.924-.072-1.668-.072-.624 0-1.552.024-2.784.072.088-1.104.132-2.536.132-4.296 0-1.616-.032-2.948-.096-3.996.56.048 1.396.072 2.508.072.728 0 1.336-.024 1.824-.072-.032.176-.048.316-.048.42 0 .096.016.224.048.384-.552-.104-1.188-.156-1.908-.156-.432 0-.82.008-1.164.024-.016.312-.024.772-.024 1.38 0 .616.004 1.136.012 1.56zm9-2.1h-.168c-.256-.744-.812-1.116-1.668-1.116-.568 0-.988.176-1.26.528-.184.248-.276.532-.276.852 0 .416.156.756.468 1.02.192.16.504.324.936.492.696.272 1.132.448 1.308.528.232.104.448.24.648.408.448.368.672.88.672 1.536 0 .704-.236 1.304-.708 1.8-.544.584-1.312.876-2.304.876-.872 0-1.6-.22-2.184-.66.12-.4.192-.776.216-1.128h.156c.4.832 1.068 1.248 2.004 1.248.584 0 1.036-.172 1.356-.516.28-.288.42-.648.42-1.08 0-.44-.148-.796-.444-1.068-.2-.192-.548-.388-1.044-.588-1.016-.416-1.644-.728-1.884-.936-.4-.344-.6-.84-.6-1.488 0-.736.268-1.316.804-1.74.488-.392 1.108-.588 1.86-.588.808 0 1.488.184 2.04.552-.2.384-.316.74-.348 1.068zm3.692.456v-.084c.48-.152 1.088-.408 1.824-.768.872-.416 1.524-.8 1.956-1.152l.132.084c-.024.184-.044.388-.06.612-.064 1.04-.096 3.144-.096 6.312 0 .56.008 1 .024 1.32-.288-.048-.516-.072-.684-.072-.192 0-.404.024-.636.072.096-.752.144-1.388.144-1.908l.012-1.944c.008-1.36.012-2.436.012-3.228-.536.288-1.244.704-2.124 1.248-.128-.216-.296-.38-.504-.492zm10.288 4.092H90.28c-.368 0-.912.016-1.632.048.008-.12.004-.24-.012-.36.192-.232.868-1.2 2.028-2.904 1.096-1.6 1.688-2.476 1.776-2.628.24.04.412.06.516.06.088 0 .24-.02.456-.06-.056 1.08-.092 2.764-.108 5.052l1.116-.048c-.04.16-.06.316-.06.468 0 .152.02.296.06.432-.44-.04-.812-.06-1.116-.06 0 .272.008.816.024 1.632l.012.6c-.264-.056-.464-.084-.6-.084-.12 0-.32.028-.6.084.064-.808.096-1.552.096-2.232zm-2.592-.792c.304-.496.544-.872.72-1.128.664-.968 1.292-1.86 1.884-2.676v3.804h-2.604zm8.118-.917v-1.945H95.8v-.54h1.962V28.7h.594v1.935h1.962v.54h-1.962v1.944h-.594z"/></svg>