<svg xmlns="http://www.w3.org/2000/svg" width="196" height="29" viewBox="0 0 196 29"><g fill="#B3B3B3"><path d="M134.553 28.403h-1.623V14.97h-16.61v13.433h-1.58V.426h1.58v13.05h16.61V.426h1.623M104.918 21.58c0 4.946-3.673 7.42-8.84 7.42-3.672 0-6.704-1.28-9.052-3.24l1.11-1.195c2.35 1.92 4.868 3.028 8.07 3.028 3.844 0 7.132-1.578 7.132-5.886 0-2.985-1.538-5.757-7.516-7.122-6.405-1.492-8.113-3.966-8.113-7.548 0-4.01 3.116-6.824 8.454-6.824 3.715 0 5.978 1.024 8.2 2.602l-1.07 1.236c-2.05-1.49-4.056-2.387-7.258-2.387-4.655-.085-6.79 2.388-6.79 5.203 0 2.772 1.068 4.82 7.26 6.227 6.575 1.535 8.412 4.69 8.412 8.486m89.374-12.752c0-4.69-2.818-6.866-7.73-6.866h-7.9v13.903h7.39c5.464 0 8.24-2.346 8.24-7.037m1.665-.085c0 5.586-3.715 8.572-9.906 8.572h-7.387V28.53h-1.622V.555h9.608c5.552 0 9.31 2.43 9.31 8.19m-145.57 5.67c0-8.188-4.868-12.92-10.718-12.92s-10.718 4.732-10.718 12.92c0 8.19 4.868 12.923 10.76 12.923 5.808 0 10.676-4.734 10.676-12.922m1.622 0c0 8.956-5.423 14.414-12.34 14.414-6.918 0-12.34-5.46-12.34-14.415C27.33 5.5 32.75 0 39.67 0c6.917 0 12.34 5.46 12.34 14.415M78.186 8.87c0-4.69-2.818-6.866-7.728-6.866h-7.9v13.903h7.387c5.466 0 8.24-2.345 8.24-7.036m1.667-.085c0 5.587-3.715 8.572-9.907 8.572h-7.387v11.217h-1.623V.597h9.608c5.55 0 9.31 2.43 9.31 8.188m86.683 5.63c0-8.19-4.868-12.922-10.718-12.922S145.1 6.226 145.1 14.415c0 8.188 4.868 12.922 10.76 12.922 5.808 0 10.676-4.734 10.676-12.922m1.623 0c0 8.956-5.424 14.414-12.342 14.414s-12.34-5.46-12.34-14.415C143.477 5.5 148.9 0 155.817 0s12.34 5.46 12.34 14.415M23.913 2.09H12.768v26.484h-1.623V2.09H0V.597h23.913"/></g></svg>