<svg width="320" height="90" viewBox="0 0 320 90" fill="none" xmlns="http://www.w3.org/2000/svg">
<path d="M28.13 56.07H25.43V35.71H17V33H36.56V35.71H28.13V56.07ZM66.29 56.07H63.59V49.24H53.81V56.07H51.1V40.14H53.81V46.54H63.59V40.14H66.3L66.29 56.07ZM98.06 56.07H83.73V40.14H97.73V42.85H86.44V46.51H92.65V49.22H86.44V53.37H98.06V56.07ZM156.43 56.07H153.72V38.38H153.66L145.14 54.13L136.63 38.38H136.57V56.07H133.86V33H136.57L145.15 48.59L153.73 33H156.44L156.43 56.07ZM182.51 56.56C176.45 56.56 172.76 52.72 172.76 48.1C172.76 43.48 176.39 39.64 182.51 39.64C188.63 39.64 192.26 43.52 192.26 48.1C192.26 52.68 188.63 56.56 182.51 56.56V56.56ZM189.51 48.1C189.51 45.02 186.87 42.35 182.51 42.35C178.15 42.35 175.51 45.03 175.51 48.1C175.51 51.17 178.15 53.85 182.51 53.85C186.87 53.85 189.55 51.18 189.55 48.1H189.51ZM216.6 40.1C220.07 40.1 224.72 41.42 224.72 48C224.72 53.51 220.88 56 216.6 56H207.87V40.14L216.6 40.1ZM216.6 53.32C219.52 53.32 222.01 51.63 222.01 48.03C222.01 44.09 219.4 42.8 216.6 42.8H210.6V53.36L216.6 53.32ZM243.17 56.03H240.46V40.14H243.17V56.03ZM273.28 44.16C271.319 42.9032 269.028 42.2592 266.7 42.31C263.7 42.31 262.24 43.08 262.24 44.43C262.24 45.97 262.79 46.43 267.38 46.43C274.58 46.43 275.38 48.61 275.38 51.1C275.38 55.68 271.11 56.48 267.54 56.48C262.1 56.48 259.24 54.48 258.19 53.77L259.48 51.4C261.849 53.0682 264.705 53.9019 267.6 53.77C270.46 53.77 272.46 53.16 272.46 51.37C272.46 49.37 271.46 49.28 265.46 49.12C261.83 49.06 259.31 48.01 259.31 44.69C259.31 42.01 261.31 39.55 266.66 39.55C269.447 39.6258 272.172 40.392 274.59 41.78L273.28 44.16ZM296.87 56.03H294.2V42.84H288.05V40.14H303V42.85H296.91L296.87 56.03Z" fill="#1D1D1B"/>
</svg>
