<svg xmlns="http://www.w3.org/2000/svg" width="92" height="40" viewBox="0 0 92 40"><g fill="none" fill-rule="evenodd"><path fill="#B3B3B3" fill-rule="nonzero" d="M9.102 38.78H7.536C4.943 28.878 2.398 19.073.44 8.927h3.28C5.53 16 7.633 22.977 9.25 30.147l.44-.586 7.584-20.584h1.517l7.342 21.268C28.04 23.17 30.194 16 32.298 8.976h2.447c-2.398 10.097-5.14 20.048-8.173 29.853h-1.566L17.52 16.78l-8.418 22zm67.68-29.853c.44 9.902.292 20.146-.1 29.853h-2.74c-.44-9.707-.733-20.048-.146-29.853h2.985zm.244-6.537c0 1.317-1.077 2.342-1.762 2.342S73.502 3.66 73.502 2.39c0-1.805 1.126-2.34 1.762-2.34.685 0 1.762.584 1.762 2.34zM62.296 0l.293 16.05-.49 22.682h-2.887L58.87 16.05 59.115 0"/><path d="M62.296 0l.293 16.05-.49 22.682h-2.887L58.87 16.05 59.115 0"/><path fill="#B3B3B3" fill-rule="nonzero" d="M69.294 0l.342 16.05-.49 22.682H66.26l-.343-22.683L66.162 0"/><path d="M69.294 0l.342 16.05-.49 22.682H66.26l-.343-22.683L66.162 0"/><path fill="#B3B3B3" fill-rule="nonzero" d="M91.02 9.317v2.585c-1.956-.83-4.697-.926-6.556.098-.832.585-1.224 1.415-1.37 2.34-.147 1.514.832 2.49 1.615 3.562 3.18 4 8.61 6.878 6.947 12.976-1.076 3.22-4.16 6.244-7.046 8h-3.865c3.083-2.585 8.172-5.902 7.34-10.927-2.055-5.56-12.332-9.95-7.047-17.12C83.534 8 87.79 8.78 91.02 9.316zm-35.673 11.22c-2.496-7.56-10.375-11.22-17.96-11.903l-.147 2.39c5.14.683 11.354 3.025 13.164 7.854-1.223-.927-2.74-1.122-4.16-1.512-3.914-.732-7.73.536-10.276 3.073-2.936 2.78-3.425 7.414-2.398 11.365 1.077 3.707 4.11 6.78 7.88 7.415 4.6.975 9.737-.244 12.33-3.903 2.79-3.902 3.084-10.097 1.567-14.78zM50.6 34.195c-1.566 2.732-4.943 3.17-7.88 2.732-2.348-.39-3.914-2.244-4.94-4.244C36.7 28.976 36.7 24 39.686 21.366c1.958-1.66 4.992-2.098 7.585-1.366 1.224.44 2.25 1.073 3.18 2.244 2.154 3.22 2.008 8.634.148 11.95z"/></g></svg>