<?xml version="1.0" encoding="utf-8"?>
<!-- Generator: Adobe Illustrator 21.1.0, SVG Export Plug-In . SVG Version: 6.00 Build 0)  -->
<svg version="1.1" id="Layer_1" xmlns="http://www.w3.org/2000/svg" xmlns:xlink="http://www.w3.org/1999/xlink" x="0px" y="0px"
	 viewBox="0 0 92 40" style="enable-background:new 0 0 92 40;" xml:space="preserve">
<g>
	<path d="M9.1,38.8H7.5C4.9,28.9,2.4,19.1,0.4,8.9h3.3C5.5,16,7.6,23,9.2,30.1l0.4-0.6L17.3,9h1.5l7.3,21.3C28,23.2,30.2,16,32.3,9
		h2.4c-2.4,10.1-5.1,20-8.2,29.9H25l-7.5-22L9.1,38.8z M76.8,8.9c0.4,9.9,0.3,20.1-0.1,29.9h-2.7c-0.4-9.7-0.7-20-0.1-29.9H76.8
		L76.8,8.9z M77,2.4c0,1.3-1.1,2.3-1.8,2.3s-1.8-1.1-1.8-2.3c0-1.8,1.1-2.3,1.8-2.3C75.9,0.1,77,0.6,77,2.4z M62.3,0l0.3,16
		l-0.5,22.7h-2.9L58.9,16l0.2-16"/>
	<path d="M62.3,0l0.3,16l-0.5,22.7h-2.9L58.9,16l0.2-16"/>
	<path d="M69.3,0l0.3,16l-0.5,22.7h-2.9L65.9,16l0.2-16"/>
	<path d="M69.3,0l0.3,16l-0.5,22.7h-2.9L65.9,16l0.2-16"/>
	<path d="M91,9.3v2.6c-2-0.8-4.7-0.9-6.6,0.1c-0.8,0.6-1.2,1.4-1.4,2.3c-0.1,1.5,0.8,2.5,1.6,3.6c3.2,4,8.6,6.9,6.9,13
		c-1.1,3.2-4.2,6.2-7,8h-3.9c3.1-2.6,8.2-5.9,7.3-10.9C86,22.4,75.8,18,81,10.8C83.5,8,87.8,8.8,91,9.3L91,9.3z M55.3,20.5
		C52.9,13,45,9.3,37.4,8.6L37.2,11c5.1,0.7,11.4,3,13.2,7.9c-1.2-0.9-2.7-1.1-4.2-1.5c-3.9-0.7-7.7,0.5-10.3,3.1
		c-2.9,2.8-3.4,7.4-2.4,11.4c1.1,3.7,4.1,6.8,7.9,7.4c4.6,1,9.7-0.2,12.3-3.9C56.6,31.4,56.9,25.2,55.3,20.5L55.3,20.5z M50.6,34.2
		c-1.6,2.7-4.9,3.2-7.9,2.7c-2.3-0.4-3.9-2.2-4.9-4.2c-1.1-3.7-1.1-8.7,1.9-11.3c2-1.7,5-2.1,7.6-1.4c1.2,0.4,2.2,1.1,3.2,2.2
		C52.6,25.5,52.5,30.9,50.6,34.2L50.6,34.2z"/>
</g>
</svg>
