<svg width="321" height="90" viewBox="0 0 321 90" fill="none" xmlns="http://www.w3.org/2000/svg">
<path d="M30.3548 51V36.52H32.7548V48.82H43.9348V51H30.3548ZM62.3221 46.96C62.3221 47.6 62.1554 48.1867 61.8221 48.72C61.5021 49.2533 61.0288 49.72 60.4021 50.12C59.7888 50.5067 59.0421 50.8067 58.1621 51.02C57.2821 51.2467 56.2888 51.36 55.1821 51.36C54.0754 51.36 53.0754 51.2467 52.1821 51.02C51.3021 50.8067 50.5488 50.5067 49.9221 50.12C49.3088 49.72 48.8354 49.2533 48.5021 48.72C48.1821 48.1867 48.0221 47.6 48.0221 46.96V38.7H50.4221V46.48C50.4221 47.36 50.8221 48.0333 51.6221 48.5C52.4221 48.9667 53.6088 49.2 55.1821 49.2C56.7554 49.2 57.9354 48.9667 58.7221 48.5C59.5221 48.0333 59.9221 47.36 59.9221 46.48V38.7H62.3221V46.96ZM79.9648 51L75.0648 46.18L70.1648 51H67.1448L73.5448 44.76L67.3648 38.7H70.3848L75.0648 43.34L79.7448 38.7H82.7648L76.5848 44.76L82.9848 51H79.9648ZM102.112 46.96C102.112 47.6 101.945 48.1867 101.612 48.72C101.292 49.2533 100.819 49.72 100.192 50.12C99.5786 50.5067 98.832 50.8067 97.952 51.02C97.072 51.2467 96.0786 51.36 94.972 51.36C93.8653 51.36 92.8653 51.2467 91.972 51.02C91.092 50.8067 90.3386 50.5067 89.712 50.12C89.0986 49.72 88.6253 49.2533 88.292 48.72C87.972 48.1867 87.812 47.6 87.812 46.96V38.7H90.212V46.48C90.212 47.36 90.612 48.0333 91.412 48.5C92.212 48.9667 93.3986 49.2 94.972 49.2C96.5453 49.2 97.7253 48.9667 98.512 48.5C99.312 48.0333 99.712 47.36 99.712 46.48V38.7H102.112V46.96ZM120.495 51L117.275 46.48H111.175V51H108.775V38.7H118.715C119.368 38.7 119.955 38.7933 120.475 38.98C121.008 39.1667 121.461 39.4333 121.835 39.78C122.208 40.1133 122.495 40.52 122.695 41C122.895 41.48 122.995 42.0133 122.995 42.6C122.995 43.6 122.735 44.42 122.215 45.06C121.695 45.6867 120.935 46.1133 119.935 46.34L123.255 51H120.495ZM118.355 44.3C119.808 44.3 120.535 43.7467 120.535 42.64C120.535 42.0267 120.348 41.58 119.975 41.3C119.601 41.02 119.015 40.88 118.215 40.88H111.175V44.3H118.355ZM135.844 46.16V51H133.444V46.16L126.484 38.7H129.404L134.664 44.3L139.924 38.7H142.844L135.844 46.16ZM170.203 51L166.283 45.48H158.963V51H156.563V36.52H167.983C169.516 36.52 170.709 36.9267 171.563 37.74C172.429 38.5533 172.863 39.6667 172.863 41.08C172.863 41.72 172.769 42.2867 172.583 42.78C172.396 43.2733 172.129 43.7 171.783 44.06C171.449 44.4067 171.049 44.6867 170.583 44.9C170.129 45.1133 169.636 45.2667 169.103 45.36L172.983 51H170.203ZM167.623 43.3C168.529 43.3 169.216 43.1133 169.683 42.74C170.163 42.3533 170.403 41.8 170.403 41.08C170.403 39.4933 169.403 38.7 167.403 38.7H158.963V43.3H167.623ZM178.999 51V38.7H191.779V40.88H181.399V43.52H188.619V45.7H181.399V48.82H192.239V51H178.999ZM204.626 40.88V51H202.226V40.88H196.346V38.7H210.506V40.88H204.626ZM224.81 51L223.39 48.36H215.13L213.71 51H211.07L217.77 38.7H220.75L227.45 51H224.81ZM219.27 40.74L216.33 46.18H222.19L219.27 40.74ZM232.248 51V38.7H234.648V51H232.248ZM241.45 51V38.7H243.85V48.82H253.35V51H241.45ZM258.346 51V38.7H271.126V40.88H260.746V43.52H267.966V45.7H260.746V48.82H271.586V51H258.346ZM289.014 51L285.794 46.48H279.694V51H277.294V38.7H287.234C287.887 38.7 288.474 38.7933 288.994 38.98C289.527 39.1667 289.981 39.4333 290.354 39.78C290.727 40.1133 291.014 40.52 291.214 41C291.414 41.48 291.514 42.0133 291.514 42.6C291.514 43.6 291.254 44.42 290.734 45.06C290.214 45.6867 289.454 46.1133 288.454 46.34L291.774 51H289.014ZM286.874 44.3C288.327 44.3 289.054 43.7467 289.054 42.64C289.054 42.0267 288.867 41.58 288.494 41.3C288.121 41.02 287.534 40.88 286.734 40.88H279.694V44.3H286.874Z" fill="black"/>
</svg>
