<svg xmlns="http://www.w3.org/2000/svg" width="99" height="42" viewBox="0 0 99 42"><path fill="#B3B3B3" fill-rule="evenodd" d="M50.492 25.083c-5.67 1.945-12.523-1.015-14.58-6.654 5.024.075 11.58-.23 14.47-5.05.264 3.39.066 7.885.11 11.703zM35.845 5.646c.59-1.03 1.39-2.214 2.653-2.453 1.356-.43 2.754.607 3.1 1.885 1.536 4.655-1.266 10.527-6.348 11.425-.908-3.54-.88-7.47.595-10.857zm62.23-2.693C96.645.34 93.06-.644 90.387.598c-3.3 1.317-4.595 5.397-3.39 8.565.95 2.91 3.882 4.424 6.58 5.455 1.048.757.056 2.313-.262 3.288-.94 2.25-1.885 4.504-3.094 6.626-.624-.07-.61-1.143-1.02-1.547-2.624-5.545-4.526-11.412-5.862-17.387-.4-1.932-1.216-4.1-3.127-5.003C77.696-.48 74.16.07 72.736 2.608c-.826-1.376-2.278-2.49-3.95-2.476-3.034-.266-5.6 1.903-7.207 4.23-.33-1.134-.943-2.244-2.02-2.823C56.793.07 53.527.345 50.51.506c-.044 1.827.04 3.66-.044 5.49-.89-1.525-1.83-3.117-3.446-4.004-6.406-4.02-15.46-1.422-19.552 4.67-.192-2.106-.866-4.564-2.88-5.66-2.396-1.62-5.92-1.032-7.872 1.014-1.877 2.024-2.19 5.093-1.17 7.595 1.08 2.908 4.13 4.088 6.732 5.307-.394 3-2.21 5.652-3.37 8.42-.33.305-.258 1.287-.84 1.19-3.126-6.22-5.186-12.907-6.81-19.648C10.707 1.75 7.492-.763 4.235.214 1.314.647-.417 3.684.086 6.464.577 10.35 1.96 14.06 3.23 17.752c1.353 3.553 2.576 7.196 4.494 10.503 2.11 3.04 6.317 3.615 9.714 2.943 2.72-4.9 5.012-10.06 7.456-15.11.18 4.588 2.02 9.263 5.722 12.172 3.598 2.954 8.628 4.12 13.142 2.806 2.788-.654 4.99-2.567 6.893-4.583 1.282 4.665 7.134 5.727 11.2 4.554.046-7.37-.013-14.742.022-22.113-.028-1.057.423-2.347 1.57-2.62-.007 2.518.974 5.617 3.746 6.31 2.265.767 4.398-.714 5.633-2.474 1.47 5.53 3.037 11.085 5.444 16.3 1.4 3.138 4.922 4.898 8.308 4.472-.6 1.513-1.764 2.7-2.763 3.96-.47.425-.962 1.152-1.672 1.106-.693-1.275-1.115-2.774-2.287-3.735-2.528-2.647-7.594-2.62-9.606.618-1.563 2.2-.973 5.305.89 7.142 1.978 2.018 5.23 2.475 7.84 1.517 3.06-1.165 5.362-3.623 7.283-6.17 3.59-4.78 6.27-10.15 8.794-15.535 1.628-3.515 3.215-7.11 3.842-10.957.15-1.98.32-4.156-.817-5.905z"/></svg>