<svg enable-background="new 0 0 200 25" height="25" viewBox="0 0 200 25" width="200" xmlns="http://www.w3.org/2000/svg"><path d="m70.4 12.1c1.6 0 2.7-.2 3.6-.7 1.2-.7 1.7-2 1.7-3.5 0-1.7-.6-2.8-1.6-3.4-.8-.6-2-.8-3.8-.8h-2v20.1h-3.5v-22.4h6.1c2.3 0 4.2.2 5.8 1.3 2.5 1.6 2.6 4.2 2.6 4.8 0 2.8-1.5 4.9-4.2 5.8-.2.1-.5.2-.8.2l7.1 10.2h-4l-7.9-11.5zm-64.8 0c1.6 0 2.7-.2 3.6-.7 1.2-.7 1.7-2 1.7-3.5 0-1.7-.6-2.8-1.6-3.4-.8-.6-2-.8-3.8-.8h-2v20.1h-3.5v-22.4h6.1c2.3 0 4.2.2 5.9 1.3 2.5 1.6 2.6 4.2 2.6 4.8 0 2.8-1.5 4.9-4.2 5.8-.2.1-.5.2-.8.2l7.1 10.2h-4l-7.9-11.6zm13.7-10.7h3.5v22.2h-3.5zm26.2 0-8.4 22.2h-2.8l-8.5-22.2h3.8l6.6 17.6 6.5-17.5h2.8zm6.1 20.1h10.1v2.2h-13.6v-22.3h12.9v2.2h-9.3v7.4h8.9v2.2h-8.9zm44.5-20.1h3.5v22.2h-3.5zm15.1-.5c1.9 0 3.9.4 5.7 1.2v2.9c-2.1-1.2-4.2-1.8-6-1.8-2.2 0-3.9 1-3.9 2.9 0 4.9 11.3 4.1 11.3 11.5 0 3.6-2.6 6.4-8 6.4-2.3 0-4.7-.5-6.5-1.5v-3.2c1.5 1.3 4.3 2.3 6.8 2.3 2.6 0 4.6-1.1 4.6-3.4 0-5.3-11.4-4.3-11.4-11.7.2-3.8 3.5-5.6 7.4-5.6m14.8.5v20h9.5l-.8 2.2h-12.2v-22.2zm31.1 22.2h-3.8l-2.3-5.9h-9.1l-2.2 5.9h-2.8l8.7-22.2h2.8zm-14.4-8h7.5l-3.8-9.8s-3.7 9.8-3.7 9.8zm34.8-14.2v22.2h-2.3l-12.8-16.6v16.6h-2.7v-22.2h2.8l12.3 16v-16h2.7zm19.2 19.7c-2 1.7-4.9 2.5-8.3 2.5h-6.8v-22.2h6.8c3.5 0 6.4.8 8.3 2.5 2.2 1.9 3.3 5 3.3 8.6s-1.1 6.7-3.3 8.6m-3.6-16.1c-1.4-.9-3.2-1.3-5.9-1.3h-2.2v17.7h2.2c2.5 0 4.4-.4 5.9-1.3 2.2-1.4 3.2-4.1 3.2-7.6s-1-6.1-3.2-7.5" fill="#919191"/></svg>