<svg xmlns="http://www.w3.org/2000/svg" width="238" height="39" viewBox="0 0 238 39"><path d="M21.062 7.122c-.828 0-1.52-.094-2.303-.185v13.55c0 .323-.047.414-.233.552l-7.743 4.915c1.153.55 2.535.92 3.966.92 4.884 0 10.414-2.667 12.998-9.326.137-.37.458-.46.458.182v.46c0 7.302-5.578 13.87-13.826 13.87C5.392 32.063 0 25.31 0 18.283 0 13.003 2.9 8.087 9.493 6.02c.278-.095.324.042.138.182-2.902 2.25-4.47 5.925-4.47 9.6 0 3.905 1.568 7.764 5.07 9.832l1.936-1.472c.648-.505.783-.963.783-1.7V5.742c-2.12-.78-4.008-1.24-5.762-1.24-2.396 0-4.563 1.054-6.683 3.63-.23.274-.37.274-.37 0C.413 2.94 5.068 0 9.677 0c5.302 0 10.187 2.575 15.535 2.575 1.888 0 3.826-.417 5.438-1.29.23-.09.275.093.184.276-1.658 4.136-5.716 5.562-9.772 5.562zm25.092 24.174c-.186.183-.186.138-.324.046l-3.688-3.26c-.37-.324-.553-.598-.553-1.196V14.3c0-.138 0-.277-.185-.415l-1.245-1.103c-.14-.09-.323-.135-.507-.044l-2.35 1.1v11.856c0 .183-.047.366.138.503l1.062.918c.276.23.735.506 1.15.37l.368-.14c.462-.184.556.09.278.322l-4.24 3.63c-.185.182-.23.137-.37.045l-3.733-3.307c-.46-.368-.46-.46-.46-1.057V6.583c0-.23 0-.277-.23-.46l-.462-.415c-.46-.412-.643-.32-1.243-.043l-.923.412c-.138.046-.276-.138-.046-.37l4.886-4.086c.186-.182.186-.136.323-.045l2.95 2.712c.37.366.554.595.554 1.192v7.67l6.128-3.858c.187-.092.37-.092.508.046l2.997 2.757c.414.367.505.643.505 1.1v12.59c0 .23 0 .275.232.458l1.153.964c.46.414.643.322 1.243.048l.923-.414c.137-.045.278.138.045.367l-4.884 4.09zm20.3-14.647l-8.16 5.098v3.904c0 .366.047.506.37.643l2.627 1.378c.46.23 1.246.46 1.708.183l2.443-1.422c.414-.23.738-.093.506.092L59.264 31.9c-.14.137-.092.09-.276 0l-5.948-3.125c-.462-.228-.6-.322-.6-.963V13.296c0-.23.095-.323.368-.414l9.728-3.125c.138-.045.275-.09.367.092l3.642 6.43c.092.14.092.277-.092.37zm-8.674-4.69l-.095.043v8.916l3.227-2.668c.186-.137.186-.23.094-.366L57.78 11.96zM95.256 7.12c-.83 0-1.52-.094-2.304-.185v13.55c0 .323-.048.414-.232.552l-7.74 4.915c1.15.55 2.532.92 3.963.92 4.884 0 10.414-2.667 12.995-9.326.14-.37.464-.46.464.182v.46c0 7.302-5.578 13.87-13.83 13.87-8.987 0-14.382-6.753-14.382-13.78 0-5.28 2.906-10.196 9.496-12.263.276-.095.324.042.138.182-2.905 2.25-4.47 5.925-4.47 9.6 0 3.905 1.565 7.764 5.07 9.832l1.935-1.38c.69-.457.785-.963.785-1.698V5.742c-2.122-.78-4.012-1.24-5.762-1.24-2.398 0-4.563 1.054-6.682 3.63-.232.274-.372.274-.372 0C74.606 2.94 79.26 0 83.872 0c5.3 0 10.185 2.575 15.53 2.575 1.893 0 3.827-.417 5.44-1.29.233-.09.276.093.187.276-1.66 4.136-5.72 5.562-9.774 5.562zm23.322 9.324l-8.157 5.1v3.903c0 .365.047.505.37.642l2.625 1.378c.462.23 1.248.46 1.706.183l2.445-1.422c.416-.23.737-.092.508.093l-6.685 5.374c-.138.137-.092.09-.276 0l-5.945-3.125c-.462-.228-.6-.322-.6-.963V13.092c0-.23.09-.323.368-.414l9.728-3.126c.138-.045.275-.09.37.093l3.64 6.43c.093.14.093.277-.095.37zm-8.065-4.456l-.092.043v8.916l3.228-2.667c.183-.137.183-.23.092-.366l-3.227-5.927zm14.52 19.66c-.186.184-.23.138-.367.047l-3.737-3.307c-.46-.37-.46-.46-.46-1.058V6.937c0-.23 0-.277-.232-.46l-.46-.415c-.46-.412-.647-.32-1.244-.043l-.923.41c-.137.047-.277-.137-.045-.368l4.885-4.087c.184-.183.184-.137.323-.046l2.95 2.71c.37.367.554.597.554 1.193v20.215c0 .183-.048.367.137.504l1.063.918c.275.23.736.506 1.15.368l.37-.14c.46-.183.55.092.276.323l-4.24 3.63zm19.22-15.204l-8.156 5.1v3.903c0 .365.044.505.368.642l2.627 1.378c.46.23 1.244.46 1.704.183l2.443-1.422c.415-.23.736-.092.506.093l-6.684 5.374c-.136.137-.09.09-.275 0l-5.946-3.125c-.46-.228-.6-.322-.6-.963V13.092c0-.23.093-.323.37-.414l9.726-3.126c.138-.045.276-.09.368.093l3.642 6.43c.092.14.092.277-.092.37zm-8.07-4.456l-.086.043v8.916l3.227-2.667c.18-.137.18-.23.09-.366l-3.23-5.927zm24.85 22.83l-5.072 4.088c-.136.137-.228.093-.32.045-2.675-1.79-4.795-2.617-7.1-2.617-1.613 0-3.227.32-5.3.872-.185.048-.23-.092-.14-.23 2.167-3.26 4.842-4.27 7.332-4.27 3.687 0 7.14 2.25 8.526 3.167l.138-.09c.367-.827.508-1.61.508-2.344 0-2.34-1.936-4.224-4.334-5.42l-4.98 3.677c-.182.137-.32.09-.458-.046l-3.135-2.85c-.46-.41-.553-.593-.553-1.056v-13.41c0-.232.183-.277.276-.323l10.602-4.363c.278-.138.46-.138.55-.047l2.955 2.94c.367.368.55.645.55.964v12.222c1.936 1.423 2.768 2.846 2.768 4.27 0 1.61-.785 3.17-2.813 4.824zm-5.763-20.35c0-.185-.046-.322-.23-.505l-1.706-1.698c-.09-.094-.138-.046-.278 0l-1.107.503v13.185c0 .734.188.826.923 1.515.415.368.642.506 1.06.506.37 0 .968-.277 1.337-.506v-13zm20.787 1.01c-.23.185-.46.277-.69.277-.23 0-.463-.092-.69-.277l-2.813-2.387-.276.23v12.77c0 .276 0 .322.184.46l.737.642c.782.643.966.735 1.797.414l.554-.232c.368-.137.46.046.23.275l-4.75 3.998c-.18.184-.228.138-.366.047l-3.642-3.26c-.414-.37-.553-.507-.553-1.013v-13.09l-1.106-1.15c-.095-.09-.138-.09-.278 0l-1.383.78c-.413.23-.553-.09-.275-.32l4.747-3.997c.183-.138.278-.138.37-.047l3.226 3.17 3.18-3.123c.185-.138.323-.184.506 0l2.444 2.25c.46.413.737.644 1.015.644.183 0 .416-.09.694-.273l.64-.417c.417-.274.6.14.37.37l-3.873 3.26zm17.01 16.17c-.184.184-.232.138-.37.047L188.5 28.02l-4.975 3.677c-.184.137-.23.09-.415-.046l-3.18-2.85c-.506-.41-.552-.504-.552-1.056v-13.41c0-.232.183-.277.276-.323L190.35 9.6c.182-.09.365-.09.55.092l2.858 2.85c.416.41.553.643.553.917v12.955l.83.734c1.015.87 1.155.826 1.615.594l.645-.32c.413-.23.737-.046.368.275l-4.702 3.95zM188.5 14.563c0-.277-.042-.414-.272-.643l-1.66-1.653c-.092-.094-.092-.046-.232 0l-1.15.503v13.278c0 .458.09.687.413.964l.598.55c.414.368.923.55 1.523.276l.78-.368V14.562zm26.277 13.734l-4.193 3.218c-.464.366-.556.274-1.11-.046l-4.377-2.667v5.375l1.243 1.06c.14.09.14.183 0 .32l-3.64 3.353c-.092.045-.184.137-.37 0l-4.055-3.26c-.138-.093-.09-.185 0-.324l1.015-1.15v-19.75l-1.015-1.24c-.046-.048-.09-.048-.184 0l-1.383.69c-.32.183-.552-.046-.276-.275l4.702-3.953c.138-.138.323-.138.415-.047l3.41 3.353 6.178-3.306c.186-.093.323-.047.367 0l3.09 2.85c.23.227.508.596.508 1.007V27.56c0 .324 0 .507-.323.736zM209.29 14.7c0-.275-.09-.507-.275-.69l-1.29-1.24c-.092-.09-.184-.09-.324-.046l-2.303.875v14.56l1.29.412c1.06.32 1.52.276 1.983-.136l.46-.415c.417-.367.46-.78.46-1.514V14.7zm23.702 16.95c-.186.184-.186.138-.324.047l-3.688-3.26c-.367-.324-.55-.6-.55-1.196V14.654c0-.136 0-.276-.187-.413l-1.245-1.104c-.137-.09-.32-.135-.505-.043l-2.353 1.1v11.855c0 .183-.047.367.14.504l1.058.918c.278.23.738.506 1.155.368l.368-.14c.462-.183.552.092.276.323l-4.24 3.63c-.183.184-.23.138-.37.047l-3.733-3.307c-.46-.37-.46-.46-.46-1.058V6.937c0-.23 0-.277-.23-.46l-.462-.415c-.46-.412-.645-.32-1.242-.043l-.923.41c-.138.047-.278-.137-.046-.368l4.883-4.087c.186-.183.186-.137.325-.046l2.95 2.71c.37.367.552.597.552 1.193v7.67l6.13-3.856c.187-.093.368-.093.508.045l2.997 2.758c.413.366.505.643.505 1.1V26.14c0 .23 0 .277.23.46l1.155.963c.46.416.643.324 1.242.05l.923-.415c.14-.046.276.137.047.366l-4.885 4.09z"/></svg>