<svg xmlns="http://www.w3.org/2000/svg" width="264" height="22" viewBox="0 0 264 22"><path fill="#231F20" fill-rule="evenodd" d="M6.33 18.574c0 1.52.426 1.867 3.146 1.867v.955H0v-.954c1.87 0 2.507-.173 2.507-1.822V3.125c0-1.65-.637-1.823-2.507-1.823V.347h15.892l.085 5.772h-.765c-.425-4.34-1.487-4.73-5.44-4.73H6.29V9.98h2.803c2.677 0 2.847-.434 3.06-2.604h.765v6.293h-.765c-.213-2.17-.383-2.56-3.06-2.56H6.29v7.465h.04zm11.602 2.82v-.953c1.87 0 2.507-.173 2.507-1.822V3.125c0-1.65-.638-1.823-2.508-1.823V.347h8.838v.955c-1.87 0-2.507.174-2.507 1.823v15.493c0 1.65.637 1.823 2.507 1.823v.956h-8.84.002zm28.894.348L32.72 3.906V18.53c0 1.694 1.146 1.954 3.1 1.954v.955h-7.478v-.956c1.955 0 3.017-.26 3.017-1.953V2.3c-.893-.955-1.53-.998-3.018-.998V.347h6.63l10.792 14.19V3.212c0-1.69-1.147-1.95-3.102-1.95V.346h7.52v.955c-1.953 0-3.016.26-3.016 1.953v18.488h-.34zm10.07-.347h-7.435v-.954c1.956 0 2.848-.26 3.485-1.996L59.66.13h1.87l7.222 18.444c.638 1.65.935 1.823 2.423 1.823v.955H62.55v-.955c2.633 0 2.888-.217 2.25-1.823l-2.124-5.598h-6.46l-1.91 5.425c-.596 1.65.34 1.997 2.634 1.997v.998h-.043zM56.6 11.89h5.61l-2.933-7.55-2.677 7.55zm33.95 9.852L76.487 3.906V18.53c0 1.694 1.147 1.954 3.102 1.954v.955h-7.31v-.956c1.786 0 2.848-.26 2.848-1.953V2.345c-1.02-.955-1.784-1.042-3.484-1.042V.347h7.054l10.792 14.19V3.212c0-1.69-1.147-1.95-3.1-1.95V.346h7.478v.955c-1.955 0-3.017.26-3.017 1.953v18.488h-.3zM111.416.304h.51l.297 6.292-.765.044c-.51-3.602-2.38-5.512-5.82-5.512-3.825 0-6.715 3.342-6.715 8.463 0 6.554 4.037 10.286 8.286 10.286 1.827 0 3.484-.52 5.1-2.3l.594.608c-1.317 1.91-3.91 3.515-7.394 3.515-5.184 0-10.453-3.994-10.453-10.677C95.055 4.557 99.857 0 105.678 0c2.762 0 4.207 1.215 4.972 1.215.34 0 .595-.304.765-.91zm3.187 21.09v-.953c1.87 0 2.507-.173 2.507-1.822V3.125c0-1.65-.64-1.823-2.508-1.823V.347h8.838v.955c-1.87 0-2.507.174-2.507 1.823v15.493c0 1.65.637 1.823 2.507 1.823v.956h-8.838zm17.167 0h-6.928v-.953c1.53 0 2.337-.26 2.975-1.996L134.53.13h1.87l7.224 18.444c.637 1.65.935 1.823 2.422 1.823v.955h-8.626v-.955c2.635 0 2.89-.217 2.252-1.823l-2.124-5.598h-6.46l-1.91 5.425c-.596 1.65.34 1.997 2.633 1.997v.998h-.04zm-.3-9.503h5.61l-2.89-7.55-2.72 7.55zm16.02 9.505v-.954c1.87 0 2.508-.173 2.508-1.822V3.125c0-1.65-.638-1.823-2.507-1.823V.347h8.796v.955c-1.87 0-2.464.174-2.464 1.823v15.623c0 1.39.68 1.563 1.785 1.563h1.062c3.993 0 5.268-.607 6.373-5.25l.765.086-.638 6.206h-15.68v.044zM190.324.347l.085 6.12h-.765c-.425-4.514-1.487-5.078-5.44-5.078h-1.274v17.185c0 1.65.594 1.866 3.144 1.866v.956H175.96v-.955c2.55 0 3.187-.26 3.187-1.865V1.39h-1.274c-3.952 0-5.014.563-5.44 5.076h-.764l.084-6.12h18.57zm1.997 21.05v-.956c1.87 0 2.507-.173 2.507-1.822V3.125c0-1.65-.637-1.823-2.507-1.823V.347h8.838v.955c-1.87 0-2.507.174-2.507 1.823v15.493c0 1.65.64 1.823 2.508 1.823v.956h-8.838zM227.76.346v.955c-1.87 0-2.678.087-2.508 1.78l1.614 15.623c.17 1.606.765 1.78 2.635 1.78v.954h-8.795v-.956c1.827 0 2.465-.173 2.337-1.78L221.385 2.3l-6.502 19.486h-.255l-6.374-19.53-1.53 16.405c-.17 1.65.936 1.824 2.805 1.824v.955h-6.885v-.956c1.87 0 2.508-.304 2.635-1.823l1.615-15.622c.17-1.65-.638-1.78-2.508-1.78V.35h7.224l4.335 14.364L220.62.347h7.138zm16.443 13.323h-.764c-.214-2.17-.384-2.56-3.06-2.56h-3.146v7.638c0 1.388.68 1.562 1.785 1.562h1.7c3.993 0 5.268-.607 6.372-5.25l.765.086-.722 6.206h-16.232v-.955c1.87 0 2.507-.174 2.507-1.823V3.124c0-1.648-.637-1.822-2.507-1.822V.347h15.595l.085 5.25h-.765c-.468-3.73-1.402-4.165-5.482-4.165h-3.06v8.55h3.145c2.678 0 2.848-.435 3.06-2.604h.766v6.292h-.043zm16.402 3.385c0-1.91-1.19-2.864-3.23-4.036l-3.27-1.737c-2.466-1.345-3.91-2.82-3.91-5.468 0-3.298 2.762-5.815 6.373-5.815 2.465 0 3.74 1.215 4.462 1.215.468 0 .68-.304.892-.91h.595l.298 5.9-.765.045c-.425-2.865-2.422-5.078-5.227-5.078-2.124 0-3.527 1.302-3.527 3.124 0 1.997 1.488 2.82 3.145 3.733l2.805 1.517c2.635 1.476 4.505 2.952 4.505 5.772 0 3.732-3.145 6.38-7.054 6.38-2.762 0-4.122-1.346-4.844-1.346-.468 0-.723.434-.935 1.085h-.595l-.425-6.25.765-.088c.595 3.906 3.23 5.512 5.864 5.512 2.21-.043 4.08-1.04 4.08-3.558z"/></svg>