<svg width="321" height="90" viewBox="0 0 321 90" fill="none" xmlns="http://www.w3.org/2000/svg">
<rect width="320" height="90" transform="translate(0.5)" fill="white"/>
<g clip-path="url(#clip0)">
<path fill-rule="evenodd" clip-rule="evenodd" d="M57.8959 25.2928H60.3018V39.6734C60.3018 41.2884 60.2112 43.0935 59.0521 44.3462C58.4815 44.9439 57.7873 45.3273 56.9632 45.4903C56.9209 45.4571 54.7324 43.2565 54.7324 43.2565C55.3814 43.2505 56.0636 43.2988 56.6794 43.0452C57.1111 42.8792 57.416 42.5834 57.5941 42.1638C57.8174 41.7442 57.8989 40.7752 57.8989 39.3957V25.2928H57.8959Z" fill="black"/>
<path d="M79.986 25.0574C82.582 25.0574 84.7464 25.8784 86.473 27.5236C88.1996 29.1687 89.063 31.2304 89.063 33.7087C89.063 36.1869 88.1906 38.2396 86.4488 39.8636C84.7041 41.4876 82.5066 42.2996 79.8532 42.2996C77.3206 42.2996 75.2106 41.4876 73.5232 39.8636C71.8358 38.2396 70.9936 36.2051 70.9936 33.757C70.9936 31.2455 71.8419 29.1687 73.5413 27.5236C75.2408 25.8784 77.39 25.0574 79.986 25.0574ZM80.0826 27.3425C78.1598 27.3425 76.578 27.9432 75.3404 29.1476C74.1028 30.352 73.484 31.8854 73.484 33.757C73.484 35.5681 74.1058 37.0774 75.3464 38.2819C76.5871 39.4863 78.1447 40.087 80.0102 40.087C81.8847 40.087 83.4514 39.4742 84.7041 38.2456C85.9568 37.0171 86.5847 35.4896 86.5847 33.6604C86.5847 31.8794 85.9568 30.3822 84.7041 29.1657C83.4484 27.9492 81.9089 27.3425 80.0826 27.3425Z" fill="black"/>
<path fill-rule="evenodd" clip-rule="evenodd" d="M111.968 25.2959H114.374V42.1035H111.968V34.7894H102.133V42.1035H99.7276V25.2959H102.133V32.616H111.965V25.2959H111.968ZM140.337 25.2959H142.622V42.1035H140.551L128.806 29.1597V42.1035H126.545V25.2959H128.495L140.337 38.3513V25.2959Z" fill="black"/>
<path fill-rule="evenodd" clip-rule="evenodd" d="M163.562 25.2958V42.1033H173.864V39.936H165.977V25.2958H163.562ZM185.217 25.2958V42.1033H196.063V39.936H187.632V34.7078H195.595V32.5404H187.632V27.4632H195.843V25.2958H185.217ZM229.452 25.2958L224.864 36.8782L220.182 25.2958H217.891L213.233 36.8782L208.599 25.2958H206.185L212.985 42.2513H213.453L219.023 28.4985L224.547 42.2513H225.015L231.84 25.2958H229.452ZM242.205 25.2958H244.62V42.1033H242.205V25.2958ZM260.848 35.07L259.019 33.9592C257.872 33.2589 257.148 32.5585 256.625 31.9095C256.085 31.2364 255.813 30.4093 255.813 29.5249C255.813 28.2027 256.272 27.1281 257.19 26.301C258.107 25.4739 259.333 25.0754 260.8 25.0754C262.349 25.0754 263.49 25.4679 264.661 26.2587V28.9906C263.45 27.8254 262.146 27.2428 260.752 27.2428C259.964 27.2428 259.321 27.4239 258.814 27.7892C258.31 28.1514 258.056 28.6283 258.056 29.1958C258.056 29.6999 258.18 30.1165 258.551 30.5572C258.922 30.9979 259.587 31.5111 260.411 31.9941L262.318 33.0808C264.368 34.3063 265.322 35.8639 265.322 37.7566C265.322 39.1029 264.857 40.2137 263.954 41.0559C263.052 41.8981 261.893 42.3479 260.45 42.3207C258.793 42.2905 257.311 41.8287 255.913 40.7721V37.7173C257.211 39.3625 258.717 40.1503 260.426 40.1503C261.18 40.1503 261.808 39.9752 262.309 39.5557C262.81 39.1361 263.082 38.6108 263.082 37.9799C263.085 36.9566 262.324 35.9877 260.848 35.07Z" fill="black"/>
<path d="M121.471 64.1693V54.3257H124.613C125.552 54.3257 126.3 54.5792 126.859 55.0864C127.417 55.5935 127.695 56.2727 127.695 57.1269C127.695 57.7005 127.565 58.2227 127.278 58.6634C126.992 59.0948 126.577 59.4253 126.092 59.6082C125.488 59.8376 124.936 59.9101 123.952 59.9071H122.886V64.1723H121.471V64.1693ZM124.365 55.5754H122.883V58.6513H124.45C125.506 58.6513 126.237 58.1804 126.237 57.0877C126.24 56.0795 125.615 55.5754 124.365 55.5754ZM136.216 54.2804H137.207L141.614 64.1663H140.174L138.864 61.2534H134.671L133.442 64.1663H131.996L136.216 54.2804ZM138.284 60.0037L136.699 56.4417L135.229 60.0037H138.284Z" fill="black"/>
<path fill-rule="evenodd" clip-rule="evenodd" d="M159.94 54.3226H168.192V55.5754H164.775V64.1693H163.36V55.5754H159.94V54.3226ZM182.606 54.3377H183.944V64.1693H182.733L176.11 56.5987V64.1693H174.788V54.3377H175.929L182.609 61.9748V54.3377H182.606ZM191.406 54.3377H196.978V55.5904H192.812V58.5879H196.836V59.8467H192.812V62.9015H197.111V64.1542H191.402V54.3377H191.406Z" fill="black"/>
<path d="M147.898 64.1693V54.3378H150.392C151.385 54.3378 152.176 54.5853 152.758 55.0773C153.344 55.5694 153.634 56.2365 153.634 57.0756C153.634 57.6492 153.492 58.1442 153.205 58.5608C152.918 58.9774 152.535 59.2913 152.001 59.4966C152.315 59.7018 152.623 59.9856 152.921 60.3418C153.22 60.698 153.628 61.3198 154.174 62.2073C154.515 62.7657 154.805 63.1853 155.013 63.466L155.532 64.1693H153.839C153.839 64.1693 153.386 63.457 153.344 63.4026L152.635 62.2978L152.109 61.5311C151.82 61.1266 151.551 60.7945 151.309 60.5531C151.068 60.3146 150.878 60.1546 150.682 60.049C150.485 59.9433 150.132 59.892 149.67 59.892H149.305V64.1693H147.898ZM149.758 55.5331H149.335V58.6363H149.87C150.582 58.6363 151.071 58.5759 151.337 58.4521C151.907 58.1925 152.173 57.6431 152.179 57.0575C152.182 56.4478 151.838 55.8893 151.24 55.6841C150.941 55.5875 150.446 55.5331 149.758 55.5331ZM203.963 64.1693V54.3378H206.456C207.449 54.3378 208.24 54.5853 208.823 55.0773C209.408 55.5694 209.698 56.2365 209.698 57.0756C209.698 57.6492 209.556 58.1442 209.27 58.5608C208.983 58.9774 208.599 59.2913 208.065 59.4966C208.379 59.7018 208.687 59.9856 208.986 60.3418C209.285 60.698 209.692 61.3198 210.239 62.2073C210.58 62.7657 210.869 63.1853 211.078 63.466L211.597 64.1693H209.903C209.903 64.1693 209.451 63.457 209.408 63.4026L208.699 62.2978L208.174 61.5311C207.884 61.1266 207.615 60.7945 207.374 60.5531C207.132 60.3146 206.942 60.1546 206.746 60.049C206.55 59.9433 206.197 59.892 205.735 59.892H205.37V64.1693H203.963ZM205.822 55.5331H205.4V58.6363H205.934C206.646 58.6363 207.135 58.5759 207.401 58.4521C207.972 58.1925 208.237 57.6431 208.243 57.0575C208.246 56.4478 207.902 55.8893 207.304 55.6841C207.006 55.5875 206.511 55.5331 205.822 55.5331Z" fill="black"/>
<path fill-rule="evenodd" clip-rule="evenodd" d="M220.414 60.0489L219.346 59.3999C218.676 58.9894 218.199 58.5879 217.915 58.1894C217.631 57.794 217.489 57.3382 217.489 56.822C217.489 56.0493 217.758 55.4184 218.295 54.9354C218.832 54.4524 219.53 54.2109 220.39 54.2109C221.211 54.2109 221.963 54.4404 222.648 54.9022V56.499C221.939 55.8168 221.178 55.4757 220.36 55.4757C219.901 55.4757 219.524 55.5814 219.228 55.7957C218.932 56.007 218.784 56.2817 218.784 56.6137C218.784 56.9096 218.893 57.1843 219.11 57.4408C219.328 57.6974 219.678 57.9691 220.161 58.2498L221.235 58.8867C222.434 59.6022 223.034 60.5138 223.034 61.6216C223.034 62.4095 222.772 63.0494 222.244 63.5414C221.715 64.0335 221.03 64.281 220.185 64.281C219.213 64.281 218.328 63.9821 217.531 63.3845V61.5974C218.292 62.5604 219.171 63.0434 220.17 63.0434C220.61 63.0434 220.979 62.9196 221.272 62.6751C221.564 62.4306 221.712 62.1227 221.712 61.7544C221.709 61.1537 221.278 60.5862 220.414 60.0489Z" fill="black"/>
<path d="M103.788 61.9507C104.385 61.1779 104.926 59.7501 105.019 59.2279C104.844 59.2279 103.806 59.2309 103.806 59.2309C103.682 59.6384 103.368 60.4504 102.985 61.0843L101.21 59.1464C102.085 58.6362 102.967 57.7035 102.939 56.6138C102.924 55.9799 102.683 55.4577 102.212 55.0502C101.741 54.6426 101.152 54.4374 100.44 54.4374C99.7156 54.4374 99.13 54.6457 98.6863 55.0652C98.2425 55.4818 97.998 56.0282 98.0463 56.6983C98.1006 57.4831 98.4961 58.0959 99.2507 58.9592C99.0304 59.083 98.5082 59.4271 98.324 59.5781C97.4909 60.2663 96.9506 61.024 97.1498 62.2706C97.2826 63.0917 97.9346 64.1392 99.5798 64.2659C100.932 64.3686 102.055 63.8735 102.979 63.0162L104.077 64.1724H105.855L103.788 61.9507ZM100.488 55.6327C101.089 55.6177 101.584 55.9376 101.675 56.4598C101.762 56.9639 101.472 57.4167 101.125 57.7548C100.935 57.939 100.691 58.1261 100.392 58.3193C100.078 58.0355 99.8243 57.7277 99.6492 57.4228C99.5013 57.1602 99.3835 56.8583 99.3835 56.5534C99.3835 56.007 99.8937 55.6478 100.488 55.6327ZM98.7225 62.4578C98.158 61.2232 99.2205 60.4172 100.075 59.9071C100.075 59.9071 101.657 61.6277 102.133 62.1499C101.231 63.1823 99.2024 63.4992 98.7225 62.4578Z" fill="black"/>
</g>
<defs>
<clipPath id="clip0">
<rect width="211" height="39.5436" fill="white" transform="translate(54.5 25)"/>
</clipPath>
</defs>
</svg>
