<svg xmlns="http://www.w3.org/2000/svg" width="299" height="26" viewBox="0 0 299 26"><g fill="#1E1917" fill-rule="evenodd"><path d="M44.232 25.634H31.51v-.932h.656c.843 0 1.342-.403 1.342-1.43V3.123c0-1.026-.5-1.43-1.342-1.43h-.685v-.93h12.752v8.55h-.84v-.097c0-5.065-1.544-7.37-4.365-7.37h-2.093v10.325h.534c1.587 0 2.335-1.526 2.335-4.727v-.092h.844V18.11h-.844v-.06c0-3.143-.717-4.76-2.335-4.76h-.534v11.26h1.968c2.787 0 4.49-2.706 4.49-7.345v-.09h.84v8.52zm-13.562 0h-7.452v-.932h.624c.84 0 1.37-.403 1.37-1.43v-9.763h-5.457v9.76c0 1.03.53 1.432 1.373 1.432h.656v.932H14.3v-.932h.653c.846 0 1.374-.403 1.374-1.43V3.123c0-1.026-.528-1.43-1.374-1.43H14.3v-.93h7.484v.93h-.656c-.844 0-1.373.404-1.373 1.43v9.048h5.457V3.124c0-1.026-.53-1.43-1.37-1.43h-.624v-.93h7.452v.93h-.656c-.842 0-1.373.404-1.373 1.43V23.27c0 1.03.532 1.432 1.374 1.432h.656v.932zM13.895 9.374h-.842V9.28c0-4.012-1.524-7.433-3.305-7.433H9V23.27c0 1.03.527 1.432 1.373 1.432h.778v.932H3.48v-.932h.72c.84 0 1.37-.403 1.37-1.43V1.846h-.655c-1.78 0-3.305 3.206-3.305 7.433v.093H.768V.763h13.127v8.61zm93.802 16.26H95.13v-.932h.875c.842 0 1.374-.374 1.374-1.404V3.093c0-1.033-.533-1.398-1.375-1.398h-.686V.763h7.422v.932h-.595c-.843 0-1.37.365-1.37 1.398V24.55h1.836c3.362 0 4.24-3.83 4.24-7.372v-.094h.844v8.55zm-13 0H82.13l.497-.932h.377c.844 0 1.372-.374 1.372-1.404V3.093c0-1.033-.528-1.398-1.372-1.398h-.682V.763h7.42v.932h-.596c-.842 0-1.372.365-1.372 1.398V24.55h1.842c3.358 0 4.238-3.795 4.238-7.406v-.094h.844v8.584zM72.154 1.694h-.25c-1.2 0-1.816.22-2.245 2.268L65.106 25.82h-1.404l-2.835-14.3h-.03l-2.9 14.3h-1.403l-4.46-22.416c-.285-1.43-.7-1.71-1.965-1.71h-.095v-.93h6.767v.93h-.125c-.972 0-1.216.34-1.216.993 0 .152-.002.38.034.56l2.836 15.17h.062l1.837-9.973-.966-5.04c-.243-1.243-.528-1.71-1.524-1.71h-.16v-.93h6.672v.93h-.123c-1.246 0-1.5.418-1.5 1.273 0 .23.04.49.097.777l2.835 14.49h.065L68.29 3.715c.035-.21.06-.408.06-.592 0-.993-.332-1.43-1.654-1.43h-.186v-.93h5.643v.93z"/><path d="M82.722 25.634h-7.077v-.932h.186c1.293 0 1.685-.34 1.685-1.06 0-.2-.04-.47-.093-.744l-.592-3.296h-4.24l-.594 3.296c-.052.3-.094.527-.094.745 0 .774.302 1.06 1.593 1.06h.123v.93h-5.33v-.93h.276c1.094 0 1.72-.256 1.997-1.712L74.898.516h1.586l4.465 22.383c.264 1.35.963 1.804 1.558 1.804h.216v.932zm-6.142-7.182L74.708 7.445h-.06l-1.87 11.007h3.802zm119.322-9.08h-.842V9.28c0-4.012-1.52-7.433-3.304-7.433h-.746V23.27c0 1.03.526 1.432 1.373 1.432h.773v.932h-7.667v-.932h.717c.843 0 1.373-.403 1.373-1.43V1.846h-.656c-1.783 0-3.304 3.206-3.304 7.433v.093h-.843V.763h13.125v8.61zm-14.215 16.262h-12.723v-.932h.656c.842 0 1.34-.403 1.34-1.43V3.123c0-1.026-.498-1.43-1.34-1.43h-.686v-.93h12.753v8.55h-.843v-.097c0-5.065-1.545-7.37-4.365-7.37h-2.09v10.325h.53c1.59 0 2.34-1.526 2.34-4.727v-.092h.845V18.11h-.845v-.06c0-3.143-.718-4.76-2.34-4.76h-.53v11.26h1.964c2.788 0 4.49-2.706 4.49-7.345v-.09h.843v8.52zm-13.595 0h-12.72v-.932h.656c.838 0 1.335-.403 1.335-1.43V3.123c0-1.026-.497-1.43-1.335-1.43h-.686v-.93h12.75v8.55h-.842v-.097c0-5.065-1.545-7.37-4.367-7.37h-2.086v10.325h.53c1.586 0 2.337-1.526 2.337-4.727v-.092h.84V18.11h-.84v-.06c0-3.143-.714-4.76-2.337-4.76h-.53v11.26h1.962c2.788 0 4.49-2.706 4.49-7.345v-.09h.842v8.52zM139.38 9.374h-.848V9.28c0-4.012-1.518-7.433-3.303-7.433h-.75V23.27c0 1.03.53 1.432 1.374 1.432h.777v.932h-7.666v-.932h.717c.84 0 1.37-.403 1.37-1.43V1.846h-.654c-1.783 0-3.305 3.206-3.305 7.433v.093h-.84V.763h13.13v8.61zM126.218 19.6c0 4.4-2.674 6.218-5.8 6.218-2.267 0-3.306-.744-4.393-1.492l-.595 1.306h-.654v-8.55h.84v.25c0 6 3.03 7.368 4.554 7.368 2.313 0 3.335-1.328 3.335-3.947 0-2.863-1.8-4.948-4.4-6.906-2.347-1.77-4.52-3.948-4.52-7.583.003-3.743 2.32-5.692 5.083-5.692 2.31 0 3.374.936 3.992 1.46l.624-1.215h.625v8.585h-.843v-.25c0-4.662-1.404-7.46-4.18-7.46-1.758 0-2.68 1.234-2.68 3.203 0 2.337 1.385 3.667 3.962 5.66 2.85 2.203 5.048 4.525 5.048 9.044m28.934 2.64c0 2.088-.79 3.578-2.836 3.578-2.043 0-2.91-1.515-3.056-4.603l-.218-4.632c-.117-2.447-1.052-3.106-2.465-3.106h-.9v9.79c0 1.03.4 1.432 1.243 1.432h.873v.932h-7.607v-.932h.718c.84 0 1.372-.403 1.372-1.43V3.123c0-1.026-.532-1.43-1.372-1.43h-.718v-.93h6.828c4.122 0 6.702 2.107 6.702 6.03 0 4.103-2.863 5.657-5.392 6.155v.06c2.073.22 3.965 1.757 4.084 4.105l.282 5.44c.052 1.08.188 1.403.687 1.403.62 0 .745-.468.745-2.083v-.903h1.03v1.27zm-5.02-15.386c0-3.89-1.54-5.01-3.647-5.01h-.81v10.48h.932c2.203 0 3.525-1.488 3.525-5.47zm144.153 18.778H281.72l.498-.932h.377c.84 0 1.37-.374 1.37-1.404V3.095c0-1.03-.53-1.4-1.37-1.4h-.688V.763h7.42v.932h-.593c-.84 0-1.37.37-1.37 1.4V24.55h1.84c3.363 0 4.24-3.795 4.24-7.372v-.094h.84v8.55zm4.34-1.522c0 .935-.7 1.708-1.443 1.708-.742 0-1.432-.773-1.432-1.708 0-.935.69-1.68 1.432-1.68.744 0 1.442.745 1.442 1.68M269.157 1.695h-.66c-.772 0-1.4.587-1.4 1.803v22.23h-1.217l-7.793-19.59h-.063V22.9c0 1.215.62 1.804 1.403 1.804h.624v.932h-5.268v-.932h.718c.78 0 1.402-.59 1.402-1.804V3.248c0-.874-.338-1.553-1.216-1.553h-.904V.763h4.803l6.33 16.012h.06V3.498c0-1.22-.622-1.803-1.406-1.803h-.655V.763h5.242v.932zm-28.652 0h-1.315c-.78 0-1.245.65-1.245 1.803V20.07c0 3.302-1.107 5.75-4.678 5.75-3.797 0-6.02-2.325-6.02-5.75V3.124c0-1.026-.495-1.43-1.333-1.43h-.69v-.93h7.3v.93h-.473c-.843 0-1.338.404-1.338 1.43l.002 17.163c0 2.808 1.104 4.415 2.992 4.415 1.914 0 3.083-1.366 3.083-4.415V3.497c0-1.152-.436-1.802-1.213-1.802h-.717V.763h5.645v.932zm-28.19 0h-.623c-.843 0-1.376.403-1.376 1.43v17.35c0 3.89-2.446 5.345-5.575 5.345-2.243 0-4.488-1.83-4.488-5.345 0-1.892 1.18-2.706 2.112-2.706.983 0 1.69.69 1.69 1.865 0 1.5-.88 2.13-2.028 2.3 0 1.28.99 2.767 2.682 2.767 1.624 0 2.18-.896 2.18-3.58V3.125c0-1.026-.494-1.43-1.338-1.43h-.657v-.93h7.423v.93z"/><path d="M282.31 25.634h-7.076v-.932h.188c1.29 0 1.683-.34 1.683-1.06 0-.2-.043-.47-.09-.744l-.594-3.296h-4.24l-.594 3.296c-.054.3-.093.527-.093.745 0 .774.303 1.06 1.59 1.06h.128v.93h-5.332v-.93h.276c1.09 0 1.72-.256 2-1.712L274.487.516h1.587l4.46 22.383c.272 1.35.967 1.804 1.56 1.804h.215v.932zm-6.138-7.182l-1.87-11.007h-.062l-1.873 11.007h3.805zm-21.454 3.79c0 2.088-.79 3.578-2.832 3.578-2.045 0-2.914-1.515-3.057-4.603l-.22-4.632c-.115-2.46-1.056-3.106-2.462-3.106h-.908v9.79c0 1.03.408 1.432 1.248 1.432h.876v.932h-7.61v-.932h.717c.844 0 1.374-.403 1.374-1.43V3.123c0-1.026-.53-1.43-1.373-1.43h-.717v-.93h6.827c4.126 0 6.704 2.107 6.704 6.03 0 4.103-2.86 5.657-5.396 6.155v.06c2.08.22 3.965 1.744 4.086 4.105l.285 5.44c.05 1.087.185 1.403.682 1.403.624 0 .747-.468.747-2.083v-.903h1.028v1.27zm-5.022-15.386c0-3.89-1.537-5.01-3.647-5.01h-.81v10.48h.935c2.203 0 3.52-1.488 3.52-5.47zm-24.412 6.28c0 7.066-2.32 12.684-6.577 12.684-4.157 0-6.486-5.618-6.486-12.683.003-7.07 2.234-12.562 6.487-12.562 4.205 0 6.577 5.492 6.577 12.562zm-3.866 5.908V7.29c0-4.296-.956-5.595-2.71-5.595-1.756 0-2.65 1.234-2.65 5.658v11.655c0 4.152.8 5.694 2.65 5.694 1.817 0 2.71-1.642 2.71-5.658z"/></g></svg>