<svg width="320" height="90" viewBox="0 0 320 90" fill="none" xmlns="http://www.w3.org/2000/svg">
<path fill-rule="evenodd" clip-rule="evenodd" d="M204.415 73.8724C211.516 69.0799 214.038 64.67 214.038 61.3072C214.038 59.8171 213.211 57.9645 211.456 56.0516L206.433 50.6147C204.456 48.4802 203.084 45.9632 203.084 43.144C203.084 40.7478 204.214 38.7543 205.807 37.5058C207.361 36.2775 209.237 35.6533 212.424 35.6533C214.643 35.6533 216.963 36.1969 217.79 36.3178L217.769 39.6202C216.781 39.3584 214.905 38.8147 213.211 38.8147C211.758 38.8147 210.225 39.1369 209.378 39.6806C208.41 40.3249 207.562 41.5935 207.562 42.8621C207.562 44.1106 208.127 45.3993 209.58 47.0103L215.167 53.0714C217.608 55.7294 218.839 58.0652 218.839 60.7635C218.839 66.442 213.553 71.3553 209.539 73.8321H204.415V73.8724Z" fill="black"/>
<path fill-rule="evenodd" clip-rule="evenodd" d="M158.927 49.4467C152.229 49.4467 149.143 54.501 149.143 60.5822C149.143 67.3481 152.653 71.7379 158.705 71.7379C164.635 71.7379 168.186 68.1536 168.186 59.9379C168.206 54.4003 165.341 49.4467 158.927 49.4467ZM149.607 35.4921C152.391 35.7539 158.523 36.9822 162.295 39.0764C169.941 43.3252 173.511 50.2522 173.511 57.9444C173.511 68.7778 167.581 74.8792 158.684 74.8792C150.353 74.8792 143.999 69.5229 143.999 60.0587C143.999 52.9706 149.365 46.4061 158.019 46.4061C161.327 46.4061 164.454 47.5136 166.33 48.7621C165.462 46.8491 163.344 44.171 161.206 42.8218C157.615 40.5867 153.803 39.0764 149.203 38.5529L149.607 35.4921Z" fill="black"/>
<path fill-rule="evenodd" clip-rule="evenodd" d="M176.86 16H181.056V73.8724H176.86V16Z" fill="black"/>
<path fill-rule="evenodd" clip-rule="evenodd" d="M186.522 16H190.718V73.8724H186.522V16Z" fill="black"/>
<path fill-rule="evenodd" clip-rule="evenodd" d="M195.539 35.9553H199.735V73.8723H195.539V35.9553Z" fill="black"/>
<path d="M197.637 29.9949C198.974 29.9949 200.058 28.913 200.058 27.5785C200.058 26.244 198.974 25.1621 197.637 25.1621C196.301 25.1621 195.217 26.244 195.217 27.5785C195.217 28.913 196.301 29.9949 197.637 29.9949Z" fill="black"/>
<path fill-rule="evenodd" clip-rule="evenodd" d="M141.941 35.5526L134.841 64.6095L125.561 35.5526H122.737L113.458 64.6297L106.337 35.5526H102L111.178 73.9126H111.199H113.781H114.83L124.149 41.815L133.469 73.9126H135.365H137.1L146.278 35.5526H141.941Z" fill="black"/>
</svg>
