<?xml version="1.0" encoding="utf-8"?>
<!-- Generator: Adobe Illustrator 22.1.0, SVG Export Plug-In . SVG Version: 6.00 Build 0)  -->
<svg version="1.1" id="layer" xmlns="http://www.w3.org/2000/svg" xmlns:xlink="http://www.w3.org/1999/xlink" x="0px" y="0px"
	 viewBox="0 0 652 652" style="enable-background:new 0 0 652 652;" xml:space="preserve">
<g>
	<path d="M131,452.3l4.3,0.1h3.2l0,0c31.3-0.9,57.9-13.6,76.9-36.8c18.4-22.5,28.6-54.1,28.6-88.8c0-34.8-10.2-66.3-28.6-88.8
		c-19.1-23.2-45.6-35.9-76.9-36.8h-3.2h-0.1h-0.3h-0.5h-0.2H131v0.1c-31.4,1-57.9,13.7-77,36.9c-18.4,22.5-28.6,54-28.6,88.7
		s10.2,66.2,28.6,88.7C73,438.6,99.6,451.3,131,452.3 M46.2,326.6c0-62.6,36.4-106.6,88.5-106.9c52.1,0.3,88.5,44.3,88.5,106.9
		c0,62.7-36.4,106.6-88.5,106.9C82.6,433.3,46.2,389.3,46.2,326.6"/>
	<path d="M526.8,331.7l3.7,0.7c38.1,7.7,74.1,15,74.1,50.9c0,39.7-40.9,50.2-65,50.2c-29.6,0-53.5-8-67.2-22.6
		c-10.5-11.2-15.4-26.2-14.3-44.5l0.2-3.3h-21v3.1c-0.3,24.7,6.9,44.6,21.3,59.2c17.5,17.6,45.5,27,81,27c20.8,0,41.4-5.6,56.5-15.2
		c19.2-12.3,29.3-30.9,29.3-53.8c0-51.1-47.9-60.9-82.9-68l-5.8-1.2c-36.9-7.5-71.7-14.5-71.7-47.8c0-34.4,33.1-46.6,61.4-46.6
		c44.4,0,70.8,20.7,72.3,56.9l0.1,3h20.8l-0.2-3.3c-2.1-47.9-36.1-75.4-93.1-75.4c-40.9,0-82.2,20.2-82.2,65.4
		C444.2,314.7,490,324.1,526.8,331.7"/>
	<polygon points="349.8,446.8 438.8,206.5 416.9,206.5 337.5,422.9 258.7,206.5 236.5,206.5 325,446.8 	"/>
</g>
</svg>
