<svg width="320" height="90" viewBox="0 0 320 90" fill="none" xmlns="http://www.w3.org/2000/svg">
<rect width="320" height="90" fill="white"/>
<path d="M118.734 64.4202C109.196 64.3466 102.53 56.2812 102.53 44.7909C102.53 33.3006 109.196 25.2352 118.697 25.1616C128.236 25.2352 134.902 33.3006 134.902 44.7909C134.902 56.2812 128.273 64.3834 118.734 64.4202ZM119.434 21H118.771H118.697H118.624H117.703C111.884 21.2578 106.949 23.6884 103.414 27.9973C99.9151 32.2694 98 38.2355 98 44.7909C98 51.3463 99.9151 57.3124 103.414 61.5476C107.023 65.967 112.068 68.3976 118.034 68.5818H118.845H119.765C125.584 68.324 130.482 65.9302 134.055 61.5845C137.553 57.3124 139.468 51.3463 139.468 44.7909C139.468 38.2355 137.553 32.2694 134.055 27.9973C130.445 23.6148 125.363 21.1841 119.434 21Z" fill="black"/>
<path d="M177.18 22.0311L162.596 61.8054L148.123 22.0311H143.298L160.055 67.5505H165.137L182.005 22.0311H177.18Z" fill="black"/>
<path d="M206.274 42.3602L205.206 42.1393C198.467 40.7766 192.096 39.4877 192.096 33.5215C192.096 27.3344 198.099 25.1616 203.218 25.1616C211.32 25.1616 216.107 28.918 216.365 35.4734L216.402 36.3573H220.969L220.932 35.3997C220.527 26.2296 214.045 21 203.218 21C195.41 21 187.529 24.8669 187.529 33.5583C187.529 42.8758 196.22 44.6436 203.218 46.0799L203.917 46.2272C210.878 47.6266 217.47 48.9893 217.47 55.3974C217.47 62.542 210.031 64.457 205.648 64.457C200.198 64.457 195.852 62.9839 193.348 60.3323C191.433 58.3068 190.586 55.5815 190.77 52.267L190.843 51.3094H186.24V52.2301C186.203 56.9441 187.566 60.7374 190.291 63.4995C193.605 66.8509 198.909 68.6186 205.648 68.6186C209.589 68.6186 213.493 67.5506 216.365 65.7092C220.048 63.3522 222 59.7799 222 55.3974C222.037 45.5643 212.94 43.7229 206.274 42.3602Z" fill="black"/>
</svg>
