<svg height="36.711111" viewBox="0 0 400 36.71111111" width="200" xmlns="http://www.w3.org/2000/svg"><g fill-rule="evenodd"><path d="m27.396 2c0 1.054.027 1.485.06.958.034-.527.034-1.389 0-1.916-.033-.527-.06-.096-.06.958m161.688 1.708c-.248.482-.334.763-.192.625.252-.243.847-1.5.711-1.5-.037 0-.271.394-.519.875m-18.652 2.209c.15.229.3.416.334.416.033 0-.025-.187-.13-.416-.104-.229-.254-.417-.333-.417s-.021.188.129.417m16.948.958c-.326.421-.437.68-.24.558s.592-.766.47-.766c-.038 0-.142.093-.23.208m43.662 2.411c.252.038.664.038.916 0s.046-.069-.458-.069-.71.031-.458.069m117.753.001c.299.038.749.037 1-.001.25-.038.005-.069-.545-.068s-.755.032-.455.069m-4.545.546c-.21.091-.241.144-.083.144.137 0 .4-.065.583-.144.21-.09.241-.143.083-.143-.137 0-.4.065-.583.143m-296.505 11.167c0 6.188.021 8.719.047 5.625.025-3.094.025-8.156 0-11.25-.026-3.094-.047-.562-.047 5.625m3.834-6.625.004 4.542 6.875.043 6.875.044-.039-4.627-.038-4.627-.048 4.542-.047 4.541h-6.744-6.745l-.048-4.5-.049-4.5zm185.263-4.245c.736.384 1.158.549 1.158.452 0-.107-.85-.522-1.333-.65-.282-.075-.226-.011.175.198m30.07 10.953c0 6.234.021 8.759.046 5.613.026-3.146.026-8.246 0-11.333-.025-3.087-.046-.513-.046 5.72m112.124-9.291-.036 2.041 4.375-.038 4.375-.039-4.286-.048-4.287-.047-.053-1.955-.052-1.956zm-97.536-1.625c.323.208.5.208.5 0 0-.092-.169-.166-.375-.164-.303.002-.327.033-.125.164m75.583.719c.275.128.532.207.57.174.12-.104-.054-.196-.57-.304l-.5-.104zm-187.553 1.031c.105.229.255.416.334.416s.021-.187-.129-.416-.301-.417-.334-.417.025.188.129.417m116.803-.016c0 .033.188.184.417.334s.417.208.417.129-.188-.229-.417-.334c-.229-.104-.417-.162-.417-.129m-45.166.682c.114.138.282.25.374.25.093 0 .075-.11-.041-.25-.114-.137-.282-.25-.374-.25-.093 0-.075.111.041.25m-53.132.589c-.111.178-.199.418-.195.534s.122-.002.263-.262c.293-.541.238-.761-.068-.272m32.456.453-.574.625.664-.583c.366-.321.697-.602.737-.625.039-.023-.002-.042-.091-.042s-.42.281-.736.625m21.761-.078c.161.255.335.421.386.37.052-.051-.08-.26-.292-.463l-.386-.371zm-58.856.441c-.197.363-.264.618-.152.575.23-.089.814-1.23.628-1.228-.067 0-.281.294-.476.653m-82.259-.196c2.229.026 5.829.026 8-.001 2.17-.026.346-.047-4.054-.047s-6.176.021-3.946.048m169.606.083c-.044.115-.06 3.433-.035 7.375l.046 7.167.04-7.289.039-7.289 4.459-.047 4.458-.048-4.464-.039c-3.446-.029-4.481.009-4.543.17m120.667 0c-.044.115-.06 4.333-.035 9.375l.045 9.167.04-9.289.04-9.289 4.292-.047 4.291-.048-4.297-.039c-3.312-.029-4.315.009-4.376.17m-47.622.489c-.641.72-.473.759.214.05.31-.319.492-.578.406-.574-.087.003-.366.239-.62.524m-156.515.208c-.39.595-.337.721.079.192.194-.247.317-.484.273-.528s-.203.107-.352.336m169.81.428c.275.182.575.331.667.332.092 0-.079-.15-.379-.333-.708-.431-.939-.431-.288.001m-73.09.134c.225.155.594.489.819.741s.488.458.584.458-.182-.337-.619-.75c-.437-.412-.884-.746-.994-.741s-.015.136.21.292m5.348.214c.102.191.219.314.26.273.116-.116-.12-.621-.291-.621-.086 0-.071.156.031.348m-113.674-.151c0 .283.391 1.136.52 1.136.085 0 .031-.243-.121-.541-.292-.575-.399-.735-.399-.595m48.201.613c-.302.311-.521.592-.488.625.032.033.312-.2.62-.518s.528-.6.489-.626c-.04-.026-.319.207-.621.519m115.007-.06c.002.367.036.497.076.29.04-.208.039-.508-.003-.667s-.074.01-.073.377m-166.593 1.239c.047.178.235.459.42.625.312.282.309.259-.033-.322-.413-.7-.511-.777-.387-.303m50.424.219c-.385.649-.776 1.614-.687 1.692.035.031.304-.459.598-1.088.572-1.228.609-1.481.089-.604m-49.706 1.084c0 .079.109.29.242.468.233.312.238.31.146-.054-.095-.376-.388-.689-.388-.414m11.965.583c-.281.439-.487.958-.38.958.041 0 .228-.3.415-.666.37-.725.35-.893-.035-.292m-85.673.083c1.214.028 3.202.028 4.416 0 1.215-.029.221-.052-2.208-.052s-3.423.023-2.208.052m250.256-.001c.53.033 1.355.033 1.833-.001s.044-.061-.964-.06c-1.009 0-1.4.028-.869.061m-169.298.71c-.142.275-.198.5-.124.5s.219-.225.323-.5.16-.5.124-.5c-.035 0-.181.225-.323.5m176.508-.098c.177.129.393.191.479.137.087-.053.013-.154-.165-.223-.522-.204-.659-.167-.314.086m-16.758.681c.215.229.419.417.453.417.139 0-.548-.824-.69-.828-.085-.003.022.182.237.411m17.833-.321c0 .113.866.427.949.345.037-.038-.16-.149-.44-.246-.28-.098-.509-.142-.509-.099m-136.267.474c-.05.129-.064.448-.031.708.049.385.075.342.142-.236.084-.729.047-.886-.111-.472m-3.849.764c0 .504.031.71.069.458s.038-.665 0-.917-.069-.046-.069.459m23.488.166c0 .321.035.452.077.292.041-.16.041-.423 0-.583-.042-.161-.077-.03-.077.291m-57.734.335c-.361.859-.243.858.196-.001.187-.367.282-.666.211-.665-.07.001-.254.301-.407.666m-131.895 1.207c-.045.117-.06 2.312-.034 4.877l.047 4.665.039-4.792.039-4.792h6.747 6.747l.049 4.625.048 4.625-.004-4.666-.004-4.667-6.796-.044c-5.386-.034-6.813.001-6.878.169m131.016.385c-.154.235-.256.49-.228.567.029.078.182-.114.341-.426.34-.671.282-.743-.113-.141m103.478 1.104c-.071.121-.237.388-.369.594-.155.244-.174.375-.054.375.103 0 .186-.088.186-.195s.125-.333.277-.501.235-.348.183-.399c-.051-.051-.151.005-.223.126m-109.403.522c0 .179.657 1.447.749 1.447.098 0-.252-.816-.533-1.245-.119-.181-.216-.272-.216-.202m184.714.697c.001.459.034.626.072.373s.037-.628-.002-.833c-.04-.205-.071.002-.07.46m-4.172.167c.002.367.036.497.076.29.039-.208.038-.508-.004-.667s-.074.01-.072.377m-134.077-.125c.601.586.938.764.462.244-.269-.295-.551-.536-.625-.536-.075 0-.001.132.163.292m-4.299.453c0 .274 1.036 1.755 1.226 1.753.14-.002.141-.035.004-.125-.104-.068-.422-.494-.709-.947-.286-.453-.521-.76-.521-.681m65.584.524c-.184.142-.479.363-.657.491s-.284.272-.236.32.381-.172.74-.489c.663-.586.761-.793.153-.322m53.947.481c-.105.229-.126.417-.047.417.139 0 .388-.684.287-.785-.028-.027-.135.138-.24.368m3.803.318c0 .033.187.184.416.334.23.15.417.208.417.129s-.187-.229-.417-.334c-.229-.104-.416-.162-.416-.129m18.824.54c-.092.242-.207.505-.256.583-.048.078-.021.143.061.143.081 0 .229-.263.327-.584.209-.681.112-.786-.132-.142m-182.65.24c.102.191.219.314.26.274.116-.117-.12-.622-.291-.622-.086 0-.071.157.031.348m109.909.046c-.492.572-.585.798-.165.403.264-.249.447-.485.406-.525-.041-.039-.149.016-.241.122m-61.523.069c.056.09.296.201.533.247.509.097.332-.119-.239-.292-.247-.075-.358-.058-.294.045m117.552.039c.229.212.941.386.828.203-.056-.091-.296-.202-.534-.247-.237-.046-.37-.026-.294.044m10.054.332c-.335.107-.351.134-.083.138.183.003.483-.06.667-.138.424-.183-.014-.183-.584 0m-4.975.414c.123.122 2.306.144 2.426.024.058-.058-.483-.105-1.201-.105s-1.269.036-1.225.081m-108.068.509c-.251.233-.457.472-.457.531 0 .06.225-.108.5-.371.46-.44.572-.583.457-.583-.024 0-.249.19-.5.423m96.47-.012c.178.135.436.244.573.244.145 0 .075-.101-.166-.239-.548-.313-.819-.316-.407-.005m-115.344.754c.056.092.267.253.468.358.363.191.364.189.049-.166-.319-.358-.709-.503-.517-.192m17.417.335c-.229.179-.51.327-.625.329-.114.002-.208.084-.208.181 0 .098.3.009.667-.197.366-.206.666-.436.666-.511 0-.184-.023-.175-.5.198m42.25 1.279-.666.221.666-.098c.657-.097.873-.183.736-.291-.038-.03-.369.045-.736.168m-1.875.336c.161.041.423.041.584 0 .16-.042.029-.077-.292-.077s-.452.035-.292.077" fill="#9c9c9c"/><g fill="#a09c9c"><path d="m0 1.917v1.916h5.917 5.916v14.25 14.25h1.917 1.917v-14.25-14.25h5.823 5.823l.052-1.917.052-1.917-13.709.001h-13.708zm163.444-1.806c-.061.061-.111 7.336-.111 16.167v16.055h2.002 2.003l-.044-12.4c-.044-12.309.041-13.861.613-11.266.032.145 1.288 2.391 1.701 3.041.218.344.353.625.299.625s.02.118.164.262.262.369.262.5.088.238.195.238.147.048.089.106c-.115.115.049.465.693 1.478.234.366.44.758.458.869.019.111.285.59.591 1.063.307.473.52.876.474.896-.046.021.022.164.151.32.129.155.415.671.635 1.146.221.476.476.912.569.969.092.057.19.208.217.337.12.565.475 1.316.621 1.316.088 0 .119.067.068.15-.051.082.02.192.157.244.137.053.249.251.249.44s.112.387.25.439c.137.053.25.228.25.389 0 .162.148.481.328.71s.28.465.222.523-.028.105.067.105c.096 0 .497.675.892 1.5s.77 1.5.832 1.5c.063 0 .242.337.399.749.396 1.035.533 1.055.966.135.208-.44.431-.84.496-.889.065-.05.273-.44.463-.869.189-.428.417-.824.506-.879s.162-.239.162-.409c0-.171.07-.335.154-.365.085-.031.179-.166.209-.299.03-.134.185-.392.346-.574.16-.181.291-.418.291-.528 0-.109.266-.638.59-1.176.325-.539.633-1.148.685-1.354s.166-.375.253-.375.117-.067.066-.149c-.05-.082.021-.193.159-.246.138-.052.235-.154.216-.225-.054-.2 1.368-2.928 1.573-3.019.069-.03.125-.152.125-.269 0-.118.155-.411.345-.653.19-.241.301-.439.245-.439-.124 0 .687-1.483 1.01-1.846.128-.145.233-.355.233-.468 0-.112.188-.48.417-.817s.417-.702.417-.81c0-.109.075-.223.168-.254s.201-.226.241-.433c.04-.208.189-.494.332-.637.142-.142.259-.361.259-.485s.093-.326.208-.447c.454-.481.711-.869.488-.734-.183.11-.183.072-.002-.218.121-.193.267-.351.325-.351s.151-.225.206-.5c.295-1.478.358.604.358 11.875v12.375l1.875.047 1.875.047v-16.172-16.172h-1.905c-1.759 0-1.914.026-2.012.333-.058.184-.18.334-.271.334s-.123.068-.071.152-.093.376-.323.649-.418.609-.418.747c0 .137-.117.294-.261.349-.143.055-.223.16-.178.234.118.19-.753 1.948-1.092 2.205-.124.094-.509 1.039-.466 1.145.014.036-.069.123-.185.195s-.228.247-.249.39c-.021.142-.195.458-.387.702s-.349.546-.349.671-.079.227-.176.227-.134.069-.082.154c.052.084-.035.283-.194.441-.348.348-.714 1.029-.714 1.327 0 .12-.058.242-.129.273-.156.067-1.594 2.571-1.557 2.711.047.179-.528 1.175-.798 1.381-.147.111-.196.205-.109.208.086.003.011.123-.167.268-.178.144-.211.204-.074.133.138-.071.04.149-.216.488-.257.339-.421.616-.364.616s-.014.119-.159.264-.226.324-.18.399-.033.181-.176.235c-.142.055-.216.169-.164.254.052.084.015.18-.082.212-.097.033-.197.195-.221.361-.025.166-.139.361-.255.432-.116.072-.197.16-.18.195.053.108-.577 1.394-.711 1.454-.069.03-.125.13-.125.22 0 .091-.113.277-.25.415-.138.137-.25.39-.25.561 0 .172-.075.358-.167.415-.091.057-.166-.018-.166-.167 0-.148-.077-.222-.171-.164s-.157.044-.14-.032c.048-.212-.314-1.008-.515-1.132-.099-.061-.137-.181-.084-.267.053-.085.004-.155-.108-.155-.113 0-.157-.047-.098-.106.058-.058-.037-.306-.211-.551s-.588-.985-.919-1.644c-.33-.659-.67-1.199-.754-1.199-.085 0-.243-.298-.352-.662s-.34-.814-.513-1-.263-.338-.199-.338c.063 0 .003-.131-.135-.291-.237-.276-.505-.815-.537-1.078-.008-.066-.146-.273-.306-.461-.16-.187-.292-.452-.292-.588 0-.137-.056-.248-.126-.248-.109 0-.606-.935-.62-1.167-.008-.122-.8-1.402-.929-1.5-.06-.046-.288-.477-.508-.958-.219-.482-.455-.875-.524-.875s-.126-.118-.126-.261c0-.144-.187-.507-.416-.807s-.366-.595-.305-.655c.06-.061.016-.111-.098-.111-.115 0-.178-.093-.14-.207.038-.113-.012-.298-.111-.41-.457-.519-.564-.685-.683-1.062-.069-.222-.266-.583-.437-.801-.17-.219-.31-.5-.31-.625 0-.126-.075-.228-.167-.228-.091 0-.166-.146-.166-.323 0-.178-.073-.369-.163-.424-.089-.055-.285-.36-.435-.677l-.274-.576h-1.87c-1.028 0-1.919.05-1.981.111m65.515 9.319c-.032.032-.334.093-.67.134-.336.042-.67.112-.742.156s-.43.128-.797.185c-.367.058-.69.174-.719.257-.029.084-.16.111-.292.061-.131-.051-.239-.009-.239.093 0 .101-.056.175-.125.164-.377-.059-.715.042-.625.187.057.091-.014.176-.157.187-.694.056-1.246.309-1.432.657-.095.177-.31.322-.477.322s-.441.183-.609.407-.348.382-.399.351-.189.049-.308.176c-.118.128-.174.233-.124.233s-.21.271-.577.603c-.367.331-.667.695-.667.808 0 .112-.16.385-.356.605-.324.366-1.038 1.751-.956 1.856.019.025-.049.202-.152.394-.519.97-.783 4.159-.481 5.817.067.367.14.78.163.917s.103.349.178.469c.076.121.094.263.041.316-.119.119.971 2.22 1.377 2.656.162.174.261.419.219.544-.046.138-.002.182.112.112.104-.064.188-.049.188.033 0 .203 1.281 1.537 1.476 1.537.085 0 .199.112.251.25.053.137.181.25.286.25.104 0 .412.187.684.416.273.229.602.417.733.417.13 0 .237.057.237.126 0 .123 1.52.878 1.896.941.103.018.346.12.54.227.195.107.387.161.428.12s.332.001.647.093c1.711.501 5.761.541 7.656.076.229-.056.529-.13.666-.163.138-.034.288-.076.334-.094s.137-.024.202-.014c.066.009.328-.068.584-.173.255-.104.599-.216.764-.248.476-.092 1.283-.55 1.283-.729 0-.089.072-.162.161-.162.64 0 3.529-2.454 3.766-3.198.052-.166.165-.302.251-.302.085 0 .155-.115.155-.255 0-.141.106-.296.235-.346.208-.079.386-.487.53-1.216.026-.128.117-.278.203-.333.146-.093.441-1.123.35-1.222-.022-.025.058-.229.179-.455.456-.852.286-4.891-.259-6.143-.066-.154-.149-.427-.184-.606-.034-.179-.142-.375-.239-.435s-.172-.139-.167-.174c.032-.22-.211-.815-.334-.815-.081 0-.147-.101-.147-.224s-.15-.36-.333-.526c-.184-.166-.334-.371-.334-.457 0-.207-1.956-2.126-2.167-2.126-.091 0-.166-.075-.166-.167s-.115-.167-.255-.167c-.141 0-.298-.109-.349-.243s-.255-.293-.453-.353c-.198-.061-.499-.232-.669-.382-.17-.149-.339-.253-.375-.23s-.084.036-.107.029-.179-.039-.347-.071c-.167-.031-.576-.186-.909-.344-.747-.355-2.214-.751-2.386-.645-.07.043-.167.014-.216-.065-.082-.134-5.345-.229-5.475-.099m117.503-.005c-.025.024-.27.081-.545.128-.876.147-2.38.582-2.78.804-.213.118-.425.217-.47.221-.16.013-1.667.937-1.667 1.022 0 .048.087.033.192-.033.12-.073.148-.045.074.074-.065.106-.214.192-.331.192-.218 0-1.274 1.358-1.334 1.716-.018.111-.123.364-.233.563-.464.844-.573 3.363-.186 4.305.113.275.19.564.172.643s.101.246.265.37.236.228.161.231c-.076.003-.021.122.121.264s.356.386.475.542c.299.389 1.37 1.332 1.224 1.077-.079-.139-.033-.174.141-.108.143.055.259.171.259.258 0 .088.056.126.125.085.069-.04.313.004.542.099.522.215.847.305 1.166.321.138.007.333.078.434.157.306.24 2.156.351 8.858.531.573.015 1.042.069 1.042.118 0 .082.612.179 1.375.218.16.008.291.087.291.174s.047.112.104.055c.056-.056.197-.013.312.098.116.11.365.307.555.439.19.131.307.3.261.375-.047.075-.024.136.051.136s.149.525.165 1.167c.018.752-.036 1.166-.154 1.166-.1 0-.139.044-.085.098.142.142-1.138 1.375-1.491 1.435-.165.028-.344.109-.397.18-.096.129-1.243.34-2.987.548-1.154.138-.981.138-2.75.01-1.481-.106-1.688-.129-3-.332-.367-.056-.945-.137-1.285-.179s-.79-.188-1-.324c-.21-.137-.576-.274-.813-.306-.238-.031-.631-.187-.875-.347s-.444-.246-.444-.192-.218-.056-.484-.246-.561-.345-.655-.345-.27-.094-.391-.21c-.306-.293-1.098-.79-1.258-.79-.138 0-.712 1.21-.712 1.501 0 .092-.074.166-.163.166-.09 0-.211.188-.269.417-.057.229-.159.416-.226.416-.122 0-.563.848-.473.91.026.018.29.129.587.248.297.118.499.281.449.362s.068.147.262.147c.207 0 .307.073.243.178-.063.102-.001.155.147.125.142-.029.38.097.529.28.15.184.223.221.164.084-.059-.138.009-.106.153.071.143.176.311.27.373.208.063-.062.264.018.447.179.184.16.28.199.214.085-.082-.139-.037-.174.138-.107.142.055.258.158.258.23s.117.176.259.231c.176.067.219.033.135-.108-.099-.163-.071-.163.131.001.141.114.305.157.366.097.06-.06.109-.014.109.103 0 .12.109.17.25.116.138-.053.25-.034.25.041 0 .138 2.31.696 3.25.785.275.026.913.108 1.417.183 1.766.26 6.819.096 7.422-.241.16-.09.423-.13.583-.088s.341-.005.403-.105c.061-.1.238-.181.394-.181.361.001 2.698-1.179 2.698-1.362 0-.076.117-.138.26-.138s.226-.057.184-.125c-.042-.069.029-.222.157-.34s.233-.156.235-.084c.003.159.449-.583.597-.993.058-.16.16-.292.225-.292.066 0 .12-.093.12-.208s.128-.479.285-.81c.158-.331.274-.668.258-.75-.015-.082-.011-.223.01-.315.112-.513-.014-3.319-.158-3.492-.093-.113-.127-.248-.075-.301.349-.349-1.479-2.337-2.431-2.644-.321-.104-.712-.301-.869-.438s-.392-.208-.521-.158c-.13.05-.307.019-.394-.067-.173-.173-.693-.312-1.466-.393-.275-.029-.5-.067-.5-.085 0-.075-2.004-.182-4.5-.24-2.293-.054-3.577-.131-5.179-.31-.622-.07-1.684-.684-1.934-1.119-.29-.506-.405-2.336-.146-2.336.096 0 .175-.067.175-.149 0-.273.988-1.212 1.162-1.104.095.058.172.031.172-.061 0-.091.356-.217.791-.28.436-.063.867-.172.959-.242.226-.172 5.75-.164 5.75.009 0 .075.195.116.434.091.239-.026.731.056 1.093.181.362.124.786.248.941.275.155.026.657.224 1.115.439s.908.399 1 .408c.233.025.949.442 1.217.709.288.288.444.282.7-.026.114-.138.149-.25.078-.25-.072 0 .001-.146.162-.323.161-.178.248-.395.194-.483-.055-.088.024-.207.174-.264.15-.058.228-.15.173-.204-.054-.055.011-.209.145-.343s.201-.312.149-.397c-.052-.084-.028-.153.055-.153.082 0 .235-.187.339-.417.169-.369.152-.416-.145-.416-.184 0-.378-.114-.432-.253-.053-.139-.182-.235-.286-.214-.104.022-.38-.087-.612-.242s-.57-.31-.75-.344c-.777-.147-1.244-.328-1.244-.483 0-.092-.113-.123-.25-.071-.138.053-.25.016-.25-.083s-.113-.136-.25-.083c-.138.052-.25.018-.25-.076s-.079-.123-.174-.063c-.096.059-.268.029-.382-.065-.186-.155-1.116-.412-2.278-.631-.444-.084-6.295-.206-6.371-.134m-298.668 11.658-.044 11.25h1.872 1.873l.044-4.791.044-4.792h6.834 6.833v4.797 4.796l1.917-.046 1.916-.047v-11.167-11.166l-1.875-.047-1.875-.048v4.591 4.591l-6.875-.044-6.875-.043-.044-4.542-.044-4.542h-1.829-1.828zm45.616-11.041c-.044.114-.06 5.158-.037 11.208l.044 11h10 10l.047-1.958.047-1.959h-8.172-8.172v-2.75-2.75h4.333 4.333v-1.916-1.917h-4.333-4.333v-2.667-2.666h7.916 7.917v-1.917-1.917h-9.755c-7.651 0-9.773.045-9.835.209m173.59 11.045v11.274l7.125-.067c5.774-.055 7.267-.115 7.877-.319.413-.138.844-.221.958-.183s.207-.017.207-.122.131-.171.291-.146c.161.024.48-.061.709-.19s.517-.251.639-.272c.123-.02.367-.167.542-.325.175-.159.321-.221.324-.138s.082.018.177-.144c.094-.163.237-.255.317-.206.079.05.25-.061.379-.245s.274-.296.322-.248.304-.189.569-.526c.264-.338.668-.806.897-1.041.23-.234.398-.485.375-.558-.023-.072.035-.131.128-.131.266 0 1.236-2.319 1.43-3.417.016-.091.044-.204.062-.25.373-.933.259-5.143-.169-6.269-.1-.264-.171-.501-.158-.525.079-.144-.22-1.039-.348-1.039-.084 0-.137-.056-.118-.125.02-.069-.052-.284-.16-.478s-.16-.39-.115-.435c.045-.044-.033-.176-.173-.292-.139-.116-.254-.284-.254-.374 0-.202-1.509-1.89-1.653-1.85-.058.016-.29-.122-.517-.306-.227-.185-.308-.28-.179-.212.148.078.193.057.123-.056-.061-.099-.335-.229-.609-.289s-.498-.16-.498-.223c0-.062-.158-.212-.351-.332-.193-.121-.305-.145-.249-.055s-.18.028-.524-.138c-.574-.277-1.289-.454-2.376-.589-.229-.028-.604-.109-.833-.179-.229-.071-3.511-.157-7.292-.191l-6.875-.063zm45.579-11.051c-.045.118-.063 5.164-.039 11.214l.043 11 1.96.047 1.959.047-.042-11.214-.043-11.213-1.878-.047c-1.41-.036-1.899.006-1.96.166m66.588 1.713v1.918h4.25 4.25v9.333 9.333h1.832 1.832l.043-9.291.043-9.292 4.297-.044 4.297-.045-.047-1.872-.047-1.872-10.375-.043-10.375-.043zm-145.667 1.559c.504.087.973.123 1.042.082.068-.042.125-.007.125.077 0 .085.168.141.375.126.206-.016.759.179 1.229.432.469.254.901.415.958.357.057-.057.104-.017.104.09s.078.195.174.195c.095 0 .332.147.525.327.194.18.415.288.493.24s.142-.018.142.066.243.424.541.754c.919 1.018 1.288 1.615 1.736 2.812.274.732.447 3.571.237 3.884-.061.092-.212.467-.335.833-.122.367-.439.991-.703 1.386-.264.396-.387.662-.274.592.113-.069-.168.245-.624.698-.455.454-.875.808-.931.787-.057-.021-.237.11-.401.291s-.39.33-.502.33-.296.111-.409.248c-.114.136-.267.21-.342.164-.158-.097-.993.255-.993.42 0 .062-.094.12-.209.129-.321.027-1.208.179-1.208.208 0 .177-4.567.326-4.674.152-.048-.077-.291-.136-.54-.13-.39.008-1.119-.116-1.119-.191 0-.014-.188-.059-.417-.101-.581-.106-1.333-.454-1.333-.617 0-.074-.075-.089-.167-.032-.092.056-.167.032-.167-.054s-.21-.243-.467-.349c-.257-.107-.661-.374-.899-.594-.237-.22-.489-.348-.559-.285-.071.063-.081.033-.024-.068.057-.1-.152-.41-.466-.688-.314-.277-.524-.551-.466-.608.057-.058.012-.104-.101-.104-.112 0-.158-.075-.101-.167s.024-.167-.073-.167c-.098 0-.162-.056-.143-.125.019-.068-.083-.35-.226-.625-.235-.449-.488-1.217-.551-1.666-.012-.092-.085-.529-.161-.972-.098-.572-.075-.922.078-1.208.118-.222.174-.445.122-.496-.237-.238 1.045-3.074 1.39-3.074.081 0 .147-.068.147-.15 0-.173 1.164-1.373 1.172-1.209.003.06.097-.004.209-.141.444-.548 3.362-1.805 3.923-1.691.122.024.309-.021.417-.102.108-.08.758-.165 1.445-.19.687-.024 1.271-.065 1.296-.09.053-.054.399-.01 1.705.214m46.917.542c.55.085 1.14.157 1.311.161s.477.116.68.248c.203.133.419.192.48.13.062-.061.112-.024.112.083s.056.179.125.16c.273-.077 1.371.589 1.862 1.129.287.315.463.575.392.578s.017.115.195.25c.177.134.266.244.197.244-.07 0 .025.214.211.475.325.457.382.652.613 2.109.116.732.133 2.688.026 3.083-.185.687-.351 1.604-.319 1.769.02.103-.078.281-.216.396-.139.115-.253.276-.253.357 0 .354-2.004 2.421-2.352 2.426-.127.002-.569.157-.981.346-.785.359-1.793.598-2.5.592-.229-.001-2.423-.014-4.875-.028l-4.458-.025v-7.222c0-3.972.05-7.272.111-7.333.167-.168 8.492-.106 9.639.072"/><path d="m0 1.917v1.916h5.917 5.916v14.25 14.25h1.917 1.917v-14.25-14.25h5.823 5.823l.052-1.917.052-1.917-13.709.001h-13.708zm163.444-1.806c-.061.061-.111 7.336-.111 16.167v16.055h2.002 2.003l-.044-12.4c-.044-12.309.041-13.861.613-11.266.032.145 1.288 2.391 1.701 3.041.218.344.353.625.299.625s.02.118.164.262.262.369.262.5.088.238.195.238.147.048.089.106c-.115.115.049.465.693 1.478.234.366.44.758.458.869.019.111.285.59.591 1.063.307.473.52.876.474.896-.046.021.022.164.151.32.129.155.415.671.635 1.146.221.476.476.912.569.969.092.057.19.208.217.337.12.565.475 1.316.621 1.316.088 0 .119.067.068.15-.051.082.02.192.157.244.137.053.249.251.249.44s.112.387.25.439c.137.053.25.228.25.389 0 .162.148.481.328.71s.28.465.222.523-.028.105.067.105c.096 0 .497.675.892 1.5s.77 1.5.832 1.5c.063 0 .242.337.399.749.396 1.035.533 1.055.966.135.208-.44.431-.84.496-.889.065-.05.273-.44.463-.869.189-.428.417-.824.506-.879s.162-.239.162-.409c0-.171.07-.335.154-.365.085-.031.179-.166.209-.299.03-.134.185-.392.346-.574.16-.181.291-.418.291-.528 0-.109.266-.638.59-1.176.325-.539.633-1.148.685-1.354s.166-.375.253-.375.117-.067.066-.149c-.05-.082.021-.193.159-.246.138-.052.235-.154.216-.225-.054-.2 1.368-2.928 1.573-3.019.069-.03.125-.152.125-.269 0-.118.155-.411.345-.653.19-.241.301-.439.245-.439-.124 0 .687-1.483 1.01-1.846.128-.145.233-.355.233-.468 0-.112.188-.48.417-.817s.417-.702.417-.81c0-.109.075-.223.168-.254s.201-.226.241-.433c.04-.208.189-.494.332-.637.142-.142.259-.361.259-.485s.093-.326.208-.447c.454-.481.711-.869.488-.734-.183.11-.183.072-.002-.218.121-.193.267-.351.325-.351s.151-.225.206-.5c.295-1.478.358.604.358 11.875v12.375l1.875.047 1.875.047v-16.172-16.172h-1.905c-1.759 0-1.914.026-2.012.333-.058.184-.18.334-.271.334s-.123.068-.071.152-.093.376-.323.649-.418.609-.418.747c0 .137-.117.294-.261.349-.143.055-.223.16-.178.234.118.19-.753 1.948-1.092 2.205-.124.094-.509 1.039-.466 1.145.014.036-.069.123-.185.195s-.228.247-.249.39c-.021.142-.195.458-.387.702s-.349.546-.349.671-.079.227-.176.227-.134.069-.082.154c.052.084-.035.283-.194.441-.348.348-.714 1.029-.714 1.327 0 .12-.058.242-.129.273-.156.067-1.594 2.571-1.557 2.711.047.179-.528 1.175-.798 1.381-.147.111-.196.205-.109.208.086.003.011.123-.167.268-.178.144-.211.204-.074.133.138-.071.04.149-.216.488-.257.339-.421.616-.364.616s-.014.119-.159.264-.226.324-.18.399-.033.181-.176.235c-.142.055-.216.169-.164.254.052.084.015.18-.082.212-.097.033-.197.195-.221.361-.025.166-.139.361-.255.432-.116.072-.197.16-.18.195.053.108-.577 1.394-.711 1.454-.069.03-.125.13-.125.22 0 .091-.113.277-.25.415-.138.137-.25.39-.25.561 0 .172-.075.358-.167.415-.091.057-.166-.018-.166-.167 0-.148-.077-.222-.171-.164s-.157.044-.14-.032c.048-.212-.314-1.008-.515-1.132-.099-.061-.137-.181-.084-.267.053-.085.004-.155-.108-.155-.113 0-.157-.047-.098-.106.058-.058-.037-.306-.211-.551s-.588-.985-.919-1.644c-.33-.659-.67-1.199-.754-1.199-.085 0-.243-.298-.352-.662s-.34-.814-.513-1-.263-.338-.199-.338c.063 0 .003-.131-.135-.291-.237-.276-.505-.815-.537-1.078-.008-.066-.146-.273-.306-.461-.16-.187-.292-.452-.292-.588 0-.137-.056-.248-.126-.248-.109 0-.606-.935-.62-1.167-.008-.122-.8-1.402-.929-1.5-.06-.046-.288-.477-.508-.958-.219-.482-.455-.875-.524-.875s-.126-.118-.126-.261c0-.144-.187-.507-.416-.807s-.366-.595-.305-.655c.06-.061.016-.111-.098-.111-.115 0-.178-.093-.14-.207.038-.113-.012-.298-.111-.41-.457-.519-.564-.685-.683-1.062-.069-.222-.266-.583-.437-.801-.17-.219-.31-.5-.31-.625 0-.126-.075-.228-.167-.228-.091 0-.166-.146-.166-.323 0-.178-.073-.369-.163-.424-.089-.055-.285-.36-.435-.677l-.274-.576h-1.87c-1.028 0-1.919.05-1.981.111m65.515 9.319c-.032.032-.334.093-.67.134-.336.042-.67.112-.742.156s-.43.128-.797.185c-.367.058-.69.174-.719.257-.029.084-.16.111-.292.061-.131-.051-.239-.009-.239.093 0 .101-.056.175-.125.164-.377-.059-.715.042-.625.187.057.091-.014.176-.157.187-.694.056-1.246.309-1.432.657-.095.177-.31.322-.477.322s-.441.183-.609.407-.348.382-.399.351-.189.049-.308.176c-.118.128-.174.233-.124.233s-.21.271-.577.603c-.367.331-.667.695-.667.808 0 .112-.16.385-.356.605-.324.366-1.038 1.751-.956 1.856.019.025-.049.202-.152.394-.519.97-.783 4.159-.481 5.817.067.367.14.78.163.917s.103.349.178.469c.076.121.094.263.041.316-.119.119.971 2.22 1.377 2.656.162.174.261.419.219.544-.046.138-.002.182.112.112.104-.064.188-.049.188.033 0 .203 1.281 1.537 1.476 1.537.085 0 .199.112.251.25.053.137.181.25.286.25.104 0 .412.187.684.416.273.229.602.417.733.417.13 0 .237.057.237.126 0 .123 1.52.878 1.896.941.103.018.346.12.54.227.195.107.387.161.428.12s.332.001.647.093c1.711.501 5.761.541 7.656.076.229-.056.529-.13.666-.163.138-.034.288-.076.334-.094s.137-.024.202-.014c.066.009.328-.068.584-.173.255-.104.599-.216.764-.248.476-.092 1.283-.55 1.283-.729 0-.089.072-.162.161-.162.64 0 3.529-2.454 3.766-3.198.052-.166.165-.302.251-.302.085 0 .155-.115.155-.255 0-.141.106-.296.235-.346.208-.079.386-.487.53-1.216.026-.128.117-.278.203-.333.146-.093.441-1.123.35-1.222-.022-.025.058-.229.179-.455.456-.852.286-4.891-.259-6.143-.066-.154-.149-.427-.184-.606-.034-.179-.142-.375-.239-.435s-.172-.139-.167-.174c.032-.22-.211-.815-.334-.815-.081 0-.147-.101-.147-.224s-.15-.36-.333-.526c-.184-.166-.334-.371-.334-.457 0-.207-1.956-2.126-2.167-2.126-.091 0-.166-.075-.166-.167s-.115-.167-.255-.167c-.141 0-.298-.109-.349-.243s-.255-.293-.453-.353c-.198-.061-.499-.232-.669-.382-.17-.149-.339-.253-.375-.23s-.084.036-.107.029-.179-.039-.347-.071c-.167-.031-.576-.186-.909-.344-.747-.355-2.214-.751-2.386-.645-.07.043-.167.014-.216-.065-.082-.134-5.345-.229-5.475-.099m117.503-.005c-.025.024-.27.081-.545.128-.876.147-2.38.582-2.78.804-.213.118-.425.217-.47.221-.16.013-1.667.937-1.667 1.022 0 .048.087.033.192-.033.12-.073.148-.045.074.074-.065.106-.214.192-.331.192-.218 0-1.274 1.358-1.334 1.716-.018.111-.123.364-.233.563-.464.844-.573 3.363-.186 4.305.113.275.19.564.172.643s.101.246.265.37.236.228.161.231c-.076.003-.021.122.121.264s.356.386.475.542c.299.389 1.37 1.332 1.224 1.077-.079-.139-.033-.174.141-.108.143.055.259.171.259.258 0 .088.056.126.125.085.069-.04.313.004.542.099.522.215.847.305 1.166.321.138.007.333.078.434.157.306.24 2.156.351 8.858.531.573.015 1.042.069 1.042.118 0 .082.612.179 1.375.218.16.008.291.087.291.174s.047.112.104.055c.056-.056.197-.013.312.098.116.11.365.307.555.439.19.131.307.3.261.375-.047.075-.024.136.051.136s.149.525.165 1.167c.018.752-.036 1.166-.154 1.166-.1 0-.139.044-.085.098.142.142-1.138 1.375-1.491 1.435-.165.028-.344.109-.397.18-.096.129-1.243.34-2.987.548-1.154.138-.981.138-2.75.01-1.481-.106-1.688-.129-3-.332-.367-.056-.945-.137-1.285-.179s-.79-.188-1-.324c-.21-.137-.576-.274-.813-.306-.238-.031-.631-.187-.875-.347s-.444-.246-.444-.192-.218-.056-.484-.246-.561-.345-.655-.345-.27-.094-.391-.21c-.306-.293-1.098-.79-1.258-.79-.138 0-.712 1.21-.712 1.501 0 .092-.074.166-.163.166-.09 0-.211.188-.269.417-.057.229-.159.416-.226.416-.122 0-.563.848-.473.91.026.018.29.129.587.248.297.118.499.281.449.362s.068.147.262.147c.207 0 .307.073.243.178-.063.102-.001.155.147.125.142-.029.38.097.529.28.15.184.223.221.164.084-.059-.138.009-.106.153.071.143.176.311.27.373.208.063-.062.264.018.447.179.184.16.28.199.214.085-.082-.139-.037-.174.138-.107.142.055.258.158.258.23s.117.176.259.231c.176.067.219.033.135-.108-.099-.163-.071-.163.131.001.141.114.305.157.366.097.06-.06.109-.014.109.103 0 .12.109.17.25.116.138-.053.25-.034.25.041 0 .138 2.31.696 3.25.785.275.026.913.108 1.417.183 1.766.26 6.819.096 7.422-.241.16-.09.423-.13.583-.088s.341-.005.403-.105c.061-.1.238-.181.394-.181.361.001 2.698-1.179 2.698-1.362 0-.076.117-.138.26-.138s.226-.057.184-.125c-.042-.069.029-.222.157-.34s.233-.156.235-.084c.003.159.449-.583.597-.993.058-.16.16-.292.225-.292.066 0 .12-.093.12-.208s.128-.479.285-.81c.158-.331.274-.668.258-.75-.015-.082-.011-.223.01-.315.112-.513-.014-3.319-.158-3.492-.093-.113-.127-.248-.075-.301.349-.349-1.479-2.337-2.431-2.644-.321-.104-.712-.301-.869-.438s-.392-.208-.521-.158c-.13.05-.307.019-.394-.067-.173-.173-.693-.312-1.466-.393-.275-.029-.5-.067-.5-.085 0-.075-2.004-.182-4.5-.24-2.293-.054-3.577-.131-5.179-.31-.622-.07-1.684-.684-1.934-1.119-.29-.506-.405-2.336-.146-2.336.096 0 .175-.067.175-.149 0-.273.988-1.212 1.162-1.104.095.058.172.031.172-.061 0-.091.356-.217.791-.28.436-.063.867-.172.959-.242.226-.172 5.75-.164 5.75.009 0 .075.195.116.434.091.239-.026.731.056 1.093.181.362.124.786.248.941.275.155.026.657.224 1.115.439s.908.399 1 .408c.233.025.949.442 1.217.709.288.288.444.282.7-.026.114-.138.149-.25.078-.25-.072 0 .001-.146.162-.323.161-.178.248-.395.194-.483-.055-.088.024-.207.174-.264.15-.058.228-.15.173-.204-.054-.055.011-.209.145-.343s.201-.312.149-.397c-.052-.084-.028-.153.055-.153.082 0 .235-.187.339-.417.169-.369.152-.416-.145-.416-.184 0-.378-.114-.432-.253-.053-.139-.182-.235-.286-.214-.104.022-.38-.087-.612-.242s-.57-.31-.75-.344c-.777-.147-1.244-.328-1.244-.483 0-.092-.113-.123-.25-.071-.138.053-.25.016-.25-.083s-.113-.136-.25-.083c-.138.052-.25.018-.25-.076s-.079-.123-.174-.063c-.096.059-.268.029-.382-.065-.186-.155-1.116-.412-2.278-.631-.444-.084-6.295-.206-6.371-.134m-298.668 11.658-.044 11.25h1.872 1.873l.044-4.791.044-4.792h6.834 6.833v4.797 4.796l1.917-.046 1.916-.047v-11.167-11.166l-1.875-.047-1.875-.048v4.591 4.591l-6.875-.044-6.875-.043-.044-4.542-.044-4.542h-1.829-1.828zm45.616-11.041c-.044.114-.06 5.158-.037 11.208l.044 11h10 10l.047-1.958.047-1.959h-8.172-8.172v-2.75-2.75h4.333 4.333v-1.916-1.917h-4.333-4.333v-2.667-2.666h7.916 7.917v-1.917-1.917h-9.755c-7.651 0-9.773.045-9.835.209m173.59 11.045v11.274l7.125-.067c5.774-.055 7.267-.115 7.877-.319.413-.138.844-.221.958-.183s.207-.017.207-.122.131-.171.291-.146c.161.024.48-.061.709-.19s.517-.251.639-.272c.123-.02.367-.167.542-.325.175-.159.321-.221.324-.138s.082.018.177-.144c.094-.163.237-.255.317-.206.079.05.25-.061.379-.245s.274-.296.322-.248.304-.189.569-.526c.264-.338.668-.806.897-1.041.23-.234.398-.485.375-.558-.023-.072.035-.131.128-.131.266 0 1.236-2.319 1.43-3.417.016-.091.044-.204.062-.25.373-.933.259-5.143-.169-6.269-.1-.264-.171-.501-.158-.525.079-.144-.22-1.039-.348-1.039-.084 0-.137-.056-.118-.125.02-.069-.052-.284-.16-.478s-.16-.39-.115-.435c.045-.044-.033-.176-.173-.292-.139-.116-.254-.284-.254-.374 0-.202-1.509-1.89-1.653-1.85-.058.016-.29-.122-.517-.306-.227-.185-.308-.28-.179-.212.148.078.193.057.123-.056-.061-.099-.335-.229-.609-.289s-.498-.16-.498-.223c0-.062-.158-.212-.351-.332-.193-.121-.305-.145-.249-.055s-.18.028-.524-.138c-.574-.277-1.289-.454-2.376-.589-.229-.028-.604-.109-.833-.179-.229-.071-3.511-.157-7.292-.191l-6.875-.063zm45.579-11.051c-.045.118-.063 5.164-.039 11.214l.043 11 1.96.047 1.959.047-.042-11.214-.043-11.213-1.878-.047c-1.41-.036-1.899.006-1.96.166m66.588 1.713v1.918h4.25 4.25v9.333 9.333h1.832 1.832l.043-9.291.043-9.292 4.297-.044 4.297-.045-.047-1.872-.047-1.872-10.375-.043-10.375-.043zm-145.667 1.559c.504.087.973.123 1.042.082.068-.042.125-.007.125.077 0 .085.168.141.375.126.206-.016.759.179 1.229.432.469.254.901.415.958.357.057-.057.104-.017.104.09s.078.195.174.195c.095 0 .332.147.525.327.194.18.415.288.493.24s.142-.018.142.066.243.424.541.754c.919 1.018 1.288 1.615 1.736 2.812.274.732.447 3.571.237 3.884-.061.092-.212.467-.335.833-.122.367-.439.991-.703 1.386-.264.396-.387.662-.274.592.113-.069-.168.245-.624.698-.455.454-.875.808-.931.787-.057-.021-.237.11-.401.291s-.39.33-.502.33-.296.111-.409.248c-.114.136-.267.21-.342.164-.158-.097-.993.255-.993.42 0 .062-.094.12-.209.129-.321.027-1.208.179-1.208.208 0 .177-4.567.326-4.674.152-.048-.077-.291-.136-.54-.13-.39.008-1.119-.116-1.119-.191 0-.014-.188-.059-.417-.101-.581-.106-1.333-.454-1.333-.617 0-.074-.075-.089-.167-.032-.092.056-.167.032-.167-.054s-.21-.243-.467-.349c-.257-.107-.661-.374-.899-.594-.237-.22-.489-.348-.559-.285-.071.063-.081.033-.024-.068.057-.1-.152-.41-.466-.688-.314-.277-.524-.551-.466-.608.057-.058.012-.104-.101-.104-.112 0-.158-.075-.101-.167s.024-.167-.073-.167c-.098 0-.162-.056-.143-.125.019-.068-.083-.35-.226-.625-.235-.449-.488-1.217-.551-1.666-.012-.092-.085-.529-.161-.972-.098-.572-.075-.922.078-1.208.118-.222.174-.445.122-.496-.237-.238 1.045-3.074 1.39-3.074.081 0 .147-.068.147-.15 0-.173 1.164-1.373 1.172-1.209.003.06.097-.004.209-.141.444-.548 3.362-1.805 3.923-1.691.122.024.309-.021.417-.102.108-.08.758-.165 1.445-.19.687-.024 1.271-.065 1.296-.09.053-.054.399-.01 1.705.214m46.917.542c.55.085 1.14.157 1.311.161s.477.116.68.248c.203.133.419.192.48.13.062-.061.112-.024.112.083s.056.179.125.16c.273-.077 1.371.589 1.862 1.129.287.315.463.575.392.578s.017.115.195.25c.177.134.266.244.197.244-.07 0 .025.214.211.475.325.457.382.652.613 2.109.116.732.133 2.688.026 3.083-.185.687-.351 1.604-.319 1.769.02.103-.078.281-.216.396-.139.115-.253.276-.253.357 0 .354-2.004 2.421-2.352 2.426-.127.002-.569.157-.981.346-.785.359-1.793.598-2.5.592-.229-.001-2.423-.014-4.875-.028l-4.458-.025v-7.222c0-3.972.05-7.272.111-7.333.167-.168 8.492-.106 9.639.072"/><path d="m0 1.917v1.916h5.917 5.916v14.25 14.25h1.917 1.917v-14.25-14.25h5.823 5.823l.052-1.917.052-1.917-13.709.001h-13.708zm163.444-1.806c-.061.061-.111 7.336-.111 16.167v16.055h2.002 2.003l-.044-12.4c-.044-12.309.041-13.861.613-11.266.032.145 1.288 2.391 1.701 3.041.218.344.353.625.299.625s.02.118.164.262.262.369.262.5.088.238.195.238.147.048.089.106c-.115.115.049.465.693 1.478.234.366.44.758.458.869.019.111.285.59.591 1.063.307.473.52.876.474.896-.046.021.022.164.151.32.129.155.415.671.635 1.146.221.476.476.912.569.969.092.057.19.208.217.337.12.565.475 1.316.621 1.316.088 0 .119.067.068.15-.051.082.02.192.157.244.137.053.249.251.249.44s.112.387.25.439c.137.053.25.228.25.389 0 .162.148.481.328.71s.28.465.222.523-.028.105.067.105c.096 0 .497.675.892 1.5s.77 1.5.832 1.5c.063 0 .242.337.399.749.396 1.035.533 1.055.966.135.208-.44.431-.84.496-.889.065-.05.273-.44.463-.869.189-.428.417-.824.506-.879s.162-.239.162-.409c0-.171.07-.335.154-.365.085-.031.179-.166.209-.299.03-.134.185-.392.346-.574.16-.181.291-.418.291-.528 0-.109.266-.638.59-1.176.325-.539.633-1.148.685-1.354s.166-.375.253-.375.117-.067.066-.149c-.05-.082.021-.193.159-.246.138-.052.235-.154.216-.225-.054-.2 1.368-2.928 1.573-3.019.069-.03.125-.152.125-.269 0-.118.155-.411.345-.653.19-.241.301-.439.245-.439-.124 0 .687-1.483 1.01-1.846.128-.145.233-.355.233-.468 0-.112.188-.48.417-.817s.417-.702.417-.81c0-.109.075-.223.168-.254s.201-.226.241-.433c.04-.208.189-.494.332-.637.142-.142.259-.361.259-.485s.093-.326.208-.447c.454-.481.711-.869.488-.734-.183.11-.183.072-.002-.218.121-.193.267-.351.325-.351s.151-.225.206-.5c.295-1.478.358.604.358 11.875v12.375l1.875.047 1.875.047v-16.172-16.172h-1.905c-1.759 0-1.914.026-2.012.333-.058.184-.18.334-.271.334s-.123.068-.071.152-.093.376-.323.649-.418.609-.418.747c0 .137-.117.294-.261.349-.143.055-.223.16-.178.234.118.19-.753 1.948-1.092 2.205-.124.094-.509 1.039-.466 1.145.014.036-.069.123-.185.195s-.228.247-.249.39c-.021.142-.195.458-.387.702s-.349.546-.349.671-.079.227-.176.227-.134.069-.082.154c.052.084-.035.283-.194.441-.348.348-.714 1.029-.714 1.327 0 .12-.058.242-.129.273-.156.067-1.594 2.571-1.557 2.711.047.179-.528 1.175-.798 1.381-.147.111-.196.205-.109.208.086.003.011.123-.167.268-.178.144-.211.204-.074.133.138-.071.04.149-.216.488-.257.339-.421.616-.364.616s-.014.119-.159.264-.226.324-.18.399-.033.181-.176.235c-.142.055-.216.169-.164.254.052.084.015.18-.082.212-.097.033-.197.195-.221.361-.025.166-.139.361-.255.432-.116.072-.197.16-.18.195.053.108-.577 1.394-.711 1.454-.069.03-.125.13-.125.22 0 .091-.113.277-.25.415-.138.137-.25.39-.25.561 0 .172-.075.358-.167.415-.091.057-.166-.018-.166-.167 0-.148-.077-.222-.171-.164s-.157.044-.14-.032c.048-.212-.314-1.008-.515-1.132-.099-.061-.137-.181-.084-.267.053-.085.004-.155-.108-.155-.113 0-.157-.047-.098-.106.058-.058-.037-.306-.211-.551s-.588-.985-.919-1.644c-.33-.659-.67-1.199-.754-1.199-.085 0-.243-.298-.352-.662s-.34-.814-.513-1-.263-.338-.199-.338c.063 0 .003-.131-.135-.291-.237-.276-.505-.815-.537-1.078-.008-.066-.146-.273-.306-.461-.16-.187-.292-.452-.292-.588 0-.137-.056-.248-.126-.248-.109 0-.606-.935-.62-1.167-.008-.122-.8-1.402-.929-1.5-.06-.046-.288-.477-.508-.958-.219-.482-.455-.875-.524-.875s-.126-.118-.126-.261c0-.144-.187-.507-.416-.807s-.366-.595-.305-.655c.06-.061.016-.111-.098-.111-.115 0-.178-.093-.14-.207.038-.113-.012-.298-.111-.41-.457-.519-.564-.685-.683-1.062-.069-.222-.266-.583-.437-.801-.17-.219-.31-.5-.31-.625 0-.126-.075-.228-.167-.228-.091 0-.166-.146-.166-.323 0-.178-.073-.369-.163-.424-.089-.055-.285-.36-.435-.677l-.274-.576h-1.87c-1.028 0-1.919.05-1.981.111m65.515 9.319c-.032.032-.334.093-.67.134-.336.042-.67.112-.742.156s-.43.128-.797.185c-.367.058-.69.174-.719.257-.029.084-.16.111-.292.061-.131-.051-.239-.009-.239.093 0 .101-.056.175-.125.164-.377-.059-.715.042-.625.187.057.091-.014.176-.157.187-.694.056-1.246.309-1.432.657-.095.177-.31.322-.477.322s-.441.183-.609.407-.348.382-.399.351-.189.049-.308.176c-.118.128-.174.233-.124.233s-.21.271-.577.603c-.367.331-.667.695-.667.808 0 .112-.16.385-.356.605-.324.366-1.038 1.751-.956 1.856.019.025-.049.202-.152.394-.519.97-.783 4.159-.481 5.817.067.367.14.78.163.917s.103.349.178.469c.076.121.094.263.041.316-.119.119.971 2.22 1.377 2.656.162.174.261.419.219.544-.046.138-.002.182.112.112.104-.064.188-.049.188.033 0 .203 1.281 1.537 1.476 1.537.085 0 .199.112.251.25.053.137.181.25.286.25.104 0 .412.187.684.416.273.229.602.417.733.417.13 0 .237.057.237.126 0 .123 1.52.878 1.896.941.103.018.346.12.54.227.195.107.387.161.428.12s.332.001.647.093c1.711.501 5.761.541 7.656.076.229-.056.529-.13.666-.163.138-.034.288-.076.334-.094s.137-.024.202-.014c.066.009.328-.068.584-.173.255-.104.599-.216.764-.248.476-.092 1.283-.55 1.283-.729 0-.089.072-.162.161-.162.64 0 3.529-2.454 3.766-3.198.052-.166.165-.302.251-.302.085 0 .155-.115.155-.255 0-.141.106-.296.235-.346.208-.079.386-.487.53-1.216.026-.128.117-.278.203-.333.146-.093.441-1.123.35-1.222-.022-.025.058-.229.179-.455.456-.852.286-4.891-.259-6.143-.066-.154-.149-.427-.184-.606-.034-.179-.142-.375-.239-.435s-.172-.139-.167-.174c.032-.22-.211-.815-.334-.815-.081 0-.147-.101-.147-.224s-.15-.36-.333-.526c-.184-.166-.334-.371-.334-.457 0-.207-1.956-2.126-2.167-2.126-.091 0-.166-.075-.166-.167s-.115-.167-.255-.167c-.141 0-.298-.109-.349-.243s-.255-.293-.453-.353c-.198-.061-.499-.232-.669-.382-.17-.149-.339-.253-.375-.23s-.084.036-.107.029-.179-.039-.347-.071c-.167-.031-.576-.186-.909-.344-.747-.355-2.214-.751-2.386-.645-.07.043-.167.014-.216-.065-.082-.134-5.345-.229-5.475-.099m117.503-.005c-.025.024-.27.081-.545.128-.876.147-2.38.582-2.78.804-.213.118-.425.217-.47.221-.16.013-1.667.937-1.667 1.022 0 .048.087.033.192-.033.12-.073.148-.045.074.074-.065.106-.214.192-.331.192-.218 0-1.274 1.358-1.334 1.716-.018.111-.123.364-.233.563-.464.844-.573 3.363-.186 4.305.113.275.19.564.172.643s.101.246.265.37.236.228.161.231c-.076.003-.021.122.121.264s.356.386.475.542c.299.389 1.37 1.332 1.224 1.077-.079-.139-.033-.174.141-.108.143.055.259.171.259.258 0 .088.056.126.125.085.069-.04.313.004.542.099.522.215.847.305 1.166.321.138.007.333.078.434.157.306.24 2.156.351 8.858.531.573.015 1.042.069 1.042.118 0 .082.612.179 1.375.218.16.008.291.087.291.174s.047.112.104.055c.056-.056.197-.013.312.098.116.11.365.307.555.439.19.131.307.3.261.375-.047.075-.024.136.051.136s.149.525.165 1.167c.018.752-.036 1.166-.154 1.166-.1 0-.139.044-.085.098.142.142-1.138 1.375-1.491 1.435-.165.028-.344.109-.397.18-.096.129-1.243.34-2.987.548-1.154.138-.981.138-2.75.01-1.481-.106-1.688-.129-3-.332-.367-.056-.945-.137-1.285-.179s-.79-.188-1-.324c-.21-.137-.576-.274-.813-.306-.238-.031-.631-.187-.875-.347s-.444-.246-.444-.192-.218-.056-.484-.246-.561-.345-.655-.345-.27-.094-.391-.21c-.306-.293-1.098-.79-1.258-.79-.138 0-.712 1.21-.712 1.501 0 .092-.074.166-.163.166-.09 0-.211.188-.269.417-.057.229-.159.416-.226.416-.122 0-.563.848-.473.91.026.018.29.129.587.248.297.118.499.281.449.362s.068.147.262.147c.207 0 .307.073.243.178-.063.102-.001.155.147.125.142-.029.38.097.529.28.15.184.223.221.164.084-.059-.138.009-.106.153.071.143.176.311.27.373.208.063-.062.264.018.447.179.184.16.28.199.214.085-.082-.139-.037-.174.138-.107.142.055.258.158.258.23s.117.176.259.231c.176.067.219.033.135-.108-.099-.163-.071-.163.131.001.141.114.305.157.366.097.06-.06.109-.014.109.103 0 .12.109.17.25.116.138-.053.25-.034.25.041 0 .138 2.31.696 3.25.785.275.026.913.108 1.417.183 1.766.26 6.819.096 7.422-.241.16-.09.423-.13.583-.088s.341-.005.403-.105c.061-.1.238-.181.394-.181.361.001 2.698-1.179 2.698-1.362 0-.076.117-.138.26-.138s.226-.057.184-.125c-.042-.069.029-.222.157-.34s.233-.156.235-.084c.003.159.449-.583.597-.993.058-.16.16-.292.225-.292.066 0 .12-.093.12-.208s.128-.479.285-.81c.158-.331.274-.668.258-.75-.015-.082-.011-.223.01-.315.112-.513-.014-3.319-.158-3.492-.093-.113-.127-.248-.075-.301.349-.349-1.479-2.337-2.431-2.644-.321-.104-.712-.301-.869-.438s-.392-.208-.521-.158c-.13.05-.307.019-.394-.067-.173-.173-.693-.312-1.466-.393-.275-.029-.5-.067-.5-.085 0-.075-2.004-.182-4.5-.24-2.293-.054-3.577-.131-5.179-.31-.622-.07-1.684-.684-1.934-1.119-.29-.506-.405-2.336-.146-2.336.096 0 .175-.067.175-.149 0-.273.988-1.212 1.162-1.104.095.058.172.031.172-.061 0-.091.356-.217.791-.28.436-.063.867-.172.959-.242.226-.172 5.75-.164 5.75.009 0 .075.195.116.434.091.239-.026.731.056 1.093.181.362.124.786.248.941.275.155.026.657.224 1.115.439s.908.399 1 .408c.233.025.949.442 1.217.709.288.288.444.282.7-.026.114-.138.149-.25.078-.25-.072 0 .001-.146.162-.323.161-.178.248-.395.194-.483-.055-.088.024-.207.174-.264.15-.058.228-.15.173-.204-.054-.055.011-.209.145-.343s.201-.312.149-.397c-.052-.084-.028-.153.055-.153.082 0 .235-.187.339-.417.169-.369.152-.416-.145-.416-.184 0-.378-.114-.432-.253-.053-.139-.182-.235-.286-.214-.104.022-.38-.087-.612-.242s-.57-.31-.75-.344c-.777-.147-1.244-.328-1.244-.483 0-.092-.113-.123-.25-.071-.138.053-.25.016-.25-.083s-.113-.136-.25-.083c-.138.052-.25.018-.25-.076s-.079-.123-.174-.063c-.096.059-.268.029-.382-.065-.186-.155-1.116-.412-2.278-.631-.444-.084-6.295-.206-6.371-.134m-298.668 11.658-.044 11.25h1.872 1.873l.044-4.791.044-4.792h6.834 6.833v4.797 4.796l1.917-.046 1.916-.047v-11.167-11.166l-1.875-.047-1.875-.048v4.591 4.591l-6.875-.044-6.875-.043-.044-4.542-.044-4.542h-1.829-1.828zm45.616-11.041c-.044.114-.06 5.158-.037 11.208l.044 11h10 10l.047-1.958.047-1.959h-8.172-8.172v-2.75-2.75h4.333 4.333v-1.916-1.917h-4.333-4.333v-2.667-2.666h7.916 7.917v-1.917-1.917h-9.755c-7.651 0-9.773.045-9.835.209m173.59 11.045v11.274l7.125-.067c5.774-.055 7.267-.115 7.877-.319.413-.138.844-.221.958-.183s.207-.017.207-.122.131-.171.291-.146c.161.024.48-.061.709-.19s.517-.251.639-.272c.123-.02.367-.167.542-.325.175-.159.321-.221.324-.138s.082.018.177-.144c.094-.163.237-.255.317-.206.079.05.25-.061.379-.245s.274-.296.322-.248.304-.189.569-.526c.264-.338.668-.806.897-1.041.23-.234.398-.485.375-.558-.023-.072.035-.131.128-.131.266 0 1.236-2.319 1.43-3.417.016-.091.044-.204.062-.25.373-.933.259-5.143-.169-6.269-.1-.264-.171-.501-.158-.525.079-.144-.22-1.039-.348-1.039-.084 0-.137-.056-.118-.125.02-.069-.052-.284-.16-.478s-.16-.39-.115-.435c.045-.044-.033-.176-.173-.292-.139-.116-.254-.284-.254-.374 0-.202-1.509-1.89-1.653-1.85-.058.016-.29-.122-.517-.306-.227-.185-.308-.28-.179-.212.148.078.193.057.123-.056-.061-.099-.335-.229-.609-.289s-.498-.16-.498-.223c0-.062-.158-.212-.351-.332-.193-.121-.305-.145-.249-.055s-.18.028-.524-.138c-.574-.277-1.289-.454-2.376-.589-.229-.028-.604-.109-.833-.179-.229-.071-3.511-.157-7.292-.191l-6.875-.063zm45.579-11.051c-.045.118-.063 5.164-.039 11.214l.043 11 1.96.047 1.959.047-.042-11.214-.043-11.213-1.878-.047c-1.41-.036-1.899.006-1.96.166m66.588 1.713v1.918h4.25 4.25v9.333 9.333h1.832 1.832l.043-9.291.043-9.292 4.297-.044 4.297-.045-.047-1.872-.047-1.872-10.375-.043-10.375-.043zm-145.667 1.559c.504.087.973.123 1.042.082.068-.042.125-.007.125.077 0 .085.168.141.375.126.206-.016.759.179 1.229.432.469.254.901.415.958.357.057-.057.104-.017.104.09s.078.195.174.195c.095 0 .332.147.525.327.194.18.415.288.493.24s.142-.018.142.066.243.424.541.754c.919 1.018 1.288 1.615 1.736 2.812.274.732.447 3.571.237 3.884-.061.092-.212.467-.335.833-.122.367-.439.991-.703 1.386-.264.396-.387.662-.274.592.113-.069-.168.245-.624.698-.455.454-.875.808-.931.787-.057-.021-.237.11-.401.291s-.39.33-.502.33-.296.111-.409.248c-.114.136-.267.21-.342.164-.158-.097-.993.255-.993.42 0 .062-.094.12-.209.129-.321.027-1.208.179-1.208.208 0 .177-4.567.326-4.674.152-.048-.077-.291-.136-.54-.13-.39.008-1.119-.116-1.119-.191 0-.014-.188-.059-.417-.101-.581-.106-1.333-.454-1.333-.617 0-.074-.075-.089-.167-.032-.092.056-.167.032-.167-.054s-.21-.243-.467-.349c-.257-.107-.661-.374-.899-.594-.237-.22-.489-.348-.559-.285-.071.063-.081.033-.024-.068.057-.1-.152-.41-.466-.688-.314-.277-.524-.551-.466-.608.057-.058.012-.104-.101-.104-.112 0-.158-.075-.101-.167s.024-.167-.073-.167c-.098 0-.162-.056-.143-.125.019-.068-.083-.35-.226-.625-.235-.449-.488-1.217-.551-1.666-.012-.092-.085-.529-.161-.972-.098-.572-.075-.922.078-1.208.118-.222.174-.445.122-.496-.237-.238 1.045-3.074 1.39-3.074.081 0 .147-.068.147-.15 0-.173 1.164-1.373 1.172-1.209.003.06.097-.004.209-.141.444-.548 3.362-1.805 3.923-1.691.122.024.309-.021.417-.102.108-.08.758-.165 1.445-.19.687-.024 1.271-.065 1.296-.09.053-.054.399-.01 1.705.214m46.917.542c.55.085 1.14.157 1.311.161s.477.116.68.248c.203.133.419.192.48.13.062-.061.112-.024.112.083s.056.179.125.16c.273-.077 1.371.589 1.862 1.129.287.315.463.575.392.578s.017.115.195.25c.177.134.266.244.197.244-.07 0 .025.214.211.475.325.457.382.652.613 2.109.116.732.133 2.688.026 3.083-.185.687-.351 1.604-.319 1.769.02.103-.078.281-.216.396-.139.115-.253.276-.253.357 0 .354-2.004 2.421-2.352 2.426-.127.002-.569.157-.981.346-.785.359-1.793.598-2.5.592-.229-.001-2.423-.014-4.875-.028l-4.458-.025v-7.222c0-3.972.05-7.272.111-7.333.167-.168 8.492-.106 9.639.072"/><path d="m0 1.917v1.916h5.917 5.916v14.25 14.25h1.917 1.917v-14.25-14.25h5.823 5.823l.052-1.917.052-1.917-13.709.001h-13.708zm163.444-1.806c-.061.061-.111 7.336-.111 16.167v16.055h2.002 2.003l-.044-12.4c-.044-12.309.041-13.861.613-11.266.032.145 1.288 2.391 1.701 3.041.218.344.353.625.299.625s.02.118.164.262.262.369.262.5.088.238.195.238.147.048.089.106c-.115.115.049.465.693 1.478.234.366.44.758.458.869.019.111.285.59.591 1.063.307.473.52.876.474.896-.046.021.022.164.151.32.129.155.415.671.635 1.146.221.476.476.912.569.969.092.057.19.208.217.337.12.565.475 1.316.621 1.316.088 0 .119.067.068.15-.051.082.02.192.157.244.137.053.249.251.249.44s.112.387.25.439c.137.053.25.228.25.389 0 .162.148.481.328.71s.28.465.222.523-.028.105.067.105c.096 0 .497.675.892 1.5s.77 1.5.832 1.5c.063 0 .242.337.399.749.396 1.035.533 1.055.966.135.208-.44.431-.84.496-.889.065-.05.273-.44.463-.869.189-.428.417-.824.506-.879s.162-.239.162-.409c0-.171.07-.335.154-.365.085-.031.179-.166.209-.299.03-.134.185-.392.346-.574.16-.181.291-.418.291-.528 0-.109.266-.638.59-1.176.325-.539.633-1.148.685-1.354s.166-.375.253-.375.117-.067.066-.149c-.05-.082.021-.193.159-.246.138-.052.235-.154.216-.225-.054-.2 1.368-2.928 1.573-3.019.069-.03.125-.152.125-.269 0-.118.155-.411.345-.653.19-.241.301-.439.245-.439-.124 0 .687-1.483 1.01-1.846.128-.145.233-.355.233-.468 0-.112.188-.48.417-.817s.417-.702.417-.81c0-.109.075-.223.168-.254s.201-.226.241-.433c.04-.208.189-.494.332-.637.142-.142.259-.361.259-.485s.093-.326.208-.447c.454-.481.711-.869.488-.734-.183.11-.183.072-.002-.218.121-.193.267-.351.325-.351s.151-.225.206-.5c.295-1.478.358.604.358 11.875v12.375l1.875.047 1.875.047v-16.172-16.172h-1.905c-1.759 0-1.914.026-2.012.333-.058.184-.18.334-.271.334s-.123.068-.071.152-.093.376-.323.649-.418.609-.418.747c0 .137-.117.294-.261.349-.143.055-.223.16-.178.234.118.19-.753 1.948-1.092 2.205-.124.094-.509 1.039-.466 1.145.014.036-.069.123-.185.195s-.228.247-.249.39c-.021.142-.195.458-.387.702s-.349.546-.349.671-.079.227-.176.227-.134.069-.082.154c.052.084-.035.283-.194.441-.348.348-.714 1.029-.714 1.327 0 .12-.058.242-.129.273-.156.067-1.594 2.571-1.557 2.711.047.179-.528 1.175-.798 1.381-.147.111-.196.205-.109.208.086.003.011.123-.167.268-.178.144-.211.204-.074.133.138-.071.04.149-.216.488-.257.339-.421.616-.364.616s-.014.119-.159.264-.226.324-.18.399-.033.181-.176.235c-.142.055-.216.169-.164.254.052.084.015.18-.082.212-.097.033-.197.195-.221.361-.025.166-.139.361-.255.432-.116.072-.197.16-.18.195.053.108-.577 1.394-.711 1.454-.069.03-.125.13-.125.22 0 .091-.113.277-.25.415-.138.137-.25.39-.25.561 0 .172-.075.358-.167.415-.091.057-.166-.018-.166-.167 0-.148-.077-.222-.171-.164s-.157.044-.14-.032c.048-.212-.314-1.008-.515-1.132-.099-.061-.137-.181-.084-.267.053-.085.004-.155-.108-.155-.113 0-.157-.047-.098-.106.058-.058-.037-.306-.211-.551s-.588-.985-.919-1.644c-.33-.659-.67-1.199-.754-1.199-.085 0-.243-.298-.352-.662s-.34-.814-.513-1-.263-.338-.199-.338c.063 0 .003-.131-.135-.291-.237-.276-.505-.815-.537-1.078-.008-.066-.146-.273-.306-.461-.16-.187-.292-.452-.292-.588 0-.137-.056-.248-.126-.248-.109 0-.606-.935-.62-1.167-.008-.122-.8-1.402-.929-1.5-.06-.046-.288-.477-.508-.958-.219-.482-.455-.875-.524-.875s-.126-.118-.126-.261c0-.144-.187-.507-.416-.807s-.366-.595-.305-.655c.06-.061.016-.111-.098-.111-.115 0-.178-.093-.14-.207.038-.113-.012-.298-.111-.41-.457-.519-.564-.685-.683-1.062-.069-.222-.266-.583-.437-.801-.17-.219-.31-.5-.31-.625 0-.126-.075-.228-.167-.228-.091 0-.166-.146-.166-.323 0-.178-.073-.369-.163-.424-.089-.055-.285-.36-.435-.677l-.274-.576h-1.87c-1.028 0-1.919.05-1.981.111m65.515 9.319c-.032.032-.334.093-.67.134-.336.042-.67.112-.742.156s-.43.128-.797.185c-.367.058-.69.174-.719.257-.029.084-.16.111-.292.061-.131-.051-.239-.009-.239.093 0 .101-.056.175-.125.164-.377-.059-.715.042-.625.187.057.091-.014.176-.157.187-.694.056-1.246.309-1.432.657-.095.177-.31.322-.477.322s-.441.183-.609.407-.348.382-.399.351-.189.049-.308.176c-.118.128-.174.233-.124.233s-.21.271-.577.603c-.367.331-.667.695-.667.808 0 .112-.16.385-.356.605-.324.366-1.038 1.751-.956 1.856.019.025-.049.202-.152.394-.519.97-.783 4.159-.481 5.817.067.367.14.78.163.917s.103.349.178.469c.076.121.094.263.041.316-.119.119.971 2.22 1.377 2.656.162.174.261.419.219.544-.046.138-.002.182.112.112.104-.064.188-.049.188.033 0 .203 1.281 1.537 1.476 1.537.085 0 .199.112.251.25.053.137.181.25.286.25.104 0 .412.187.684.416.273.229.602.417.733.417.13 0 .237.057.237.126 0 .123 1.52.878 1.896.941.103.018.346.12.54.227.195.107.387.161.428.12s.332.001.647.093c1.711.501 5.761.541 7.656.076.229-.056.529-.13.666-.163.138-.034.288-.076.334-.094s.137-.024.202-.014c.066.009.328-.068.584-.173.255-.104.599-.216.764-.248.476-.092 1.283-.55 1.283-.729 0-.089.072-.162.161-.162.64 0 3.529-2.454 3.766-3.198.052-.166.165-.302.251-.302.085 0 .155-.115.155-.255 0-.141.106-.296.235-.346.208-.079.386-.487.53-1.216.026-.128.117-.278.203-.333.146-.093.441-1.123.35-1.222-.022-.025.058-.229.179-.455.456-.852.286-4.891-.259-6.143-.066-.154-.149-.427-.184-.606-.034-.179-.142-.375-.239-.435s-.172-.139-.167-.174c.032-.22-.211-.815-.334-.815-.081 0-.147-.101-.147-.224s-.15-.36-.333-.526c-.184-.166-.334-.371-.334-.457 0-.207-1.956-2.126-2.167-2.126-.091 0-.166-.075-.166-.167s-.115-.167-.255-.167c-.141 0-.298-.109-.349-.243s-.255-.293-.453-.353c-.198-.061-.499-.232-.669-.382-.17-.149-.339-.253-.375-.23s-.084.036-.107.029-.179-.039-.347-.071c-.167-.031-.576-.186-.909-.344-.747-.355-2.214-.751-2.386-.645-.07.043-.167.014-.216-.065-.082-.134-5.345-.229-5.475-.099m117.503-.005c-.025.024-.27.081-.545.128-.876.147-2.38.582-2.78.804-.213.118-.425.217-.47.221-.16.013-1.667.937-1.667 1.022 0 .048.087.033.192-.033.12-.073.148-.045.074.074-.065.106-.214.192-.331.192-.218 0-1.274 1.358-1.334 1.716-.018.111-.123.364-.233.563-.464.844-.573 3.363-.186 4.305.113.275.19.564.172.643s.101.246.265.37.236.228.161.231c-.076.003-.021.122.121.264s.356.386.475.542c.299.389 1.37 1.332 1.224 1.077-.079-.139-.033-.174.141-.108.143.055.259.171.259.258 0 .088.056.126.125.085.069-.04.313.004.542.099.522.215.847.305 1.166.321.138.007.333.078.434.157.306.24 2.156.351 8.858.531.573.015 1.042.069 1.042.118 0 .082.612.179 1.375.218.16.008.291.087.291.174s.047.112.104.055c.056-.056.197-.013.312.098.116.11.365.307.555.439.19.131.307.3.261.375-.047.075-.024.136.051.136s.149.525.165 1.167c.018.752-.036 1.166-.154 1.166-.1 0-.139.044-.085.098.142.142-1.138 1.375-1.491 1.435-.165.028-.344.109-.397.18-.096.129-1.243.34-2.987.548-1.154.138-.981.138-2.75.01-1.481-.106-1.688-.129-3-.332-.367-.056-.945-.137-1.285-.179s-.79-.188-1-.324c-.21-.137-.576-.274-.813-.306-.238-.031-.631-.187-.875-.347s-.444-.246-.444-.192-.218-.056-.484-.246-.561-.345-.655-.345-.27-.094-.391-.21c-.306-.293-1.098-.79-1.258-.79-.138 0-.712 1.21-.712 1.501 0 .092-.074.166-.163.166-.09 0-.211.188-.269.417-.057.229-.159.416-.226.416-.122 0-.563.848-.473.91.026.018.29.129.587.248.297.118.499.281.449.362s.068.147.262.147c.207 0 .307.073.243.178-.063.102-.001.155.147.125.142-.029.38.097.529.28.15.184.223.221.164.084-.059-.138.009-.106.153.071.143.176.311.27.373.208.063-.062.264.018.447.179.184.16.28.199.214.085-.082-.139-.037-.174.138-.107.142.055.258.158.258.23s.117.176.259.231c.176.067.219.033.135-.108-.099-.163-.071-.163.131.001.141.114.305.157.366.097.06-.06.109-.014.109.103 0 .12.109.17.25.116.138-.053.25-.034.25.041 0 .138 2.31.696 3.25.785.275.026.913.108 1.417.183 1.766.26 6.819.096 7.422-.241.16-.09.423-.13.583-.088s.341-.005.403-.105c.061-.1.238-.181.394-.181.361.001 2.698-1.179 2.698-1.362 0-.076.117-.138.26-.138s.226-.057.184-.125c-.042-.069.029-.222.157-.34s.233-.156.235-.084c.003.159.449-.583.597-.993.058-.16.16-.292.225-.292.066 0 .12-.093.12-.208s.128-.479.285-.81c.158-.331.274-.668.258-.75-.015-.082-.011-.223.01-.315.112-.513-.014-3.319-.158-3.492-.093-.113-.127-.248-.075-.301.349-.349-1.479-2.337-2.431-2.644-.321-.104-.712-.301-.869-.438s-.392-.208-.521-.158c-.13.05-.307.019-.394-.067-.173-.173-.693-.312-1.466-.393-.275-.029-.5-.067-.5-.085 0-.075-2.004-.182-4.5-.24-2.293-.054-3.577-.131-5.179-.31-.622-.07-1.684-.684-1.934-1.119-.29-.506-.405-2.336-.146-2.336.096 0 .175-.067.175-.149 0-.273.988-1.212 1.162-1.104.095.058.172.031.172-.061 0-.091.356-.217.791-.28.436-.063.867-.172.959-.242.226-.172 5.75-.164 5.75.009 0 .075.195.116.434.091.239-.026.731.056 1.093.181.362.124.786.248.941.275.155.026.657.224 1.115.439s.908.399 1 .408c.233.025.949.442 1.217.709.288.288.444.282.7-.026.114-.138.149-.25.078-.25-.072 0 .001-.146.162-.323.161-.178.248-.395.194-.483-.055-.088.024-.207.174-.264.15-.058.228-.15.173-.204-.054-.055.011-.209.145-.343s.201-.312.149-.397c-.052-.084-.028-.153.055-.153.082 0 .235-.187.339-.417.169-.369.152-.416-.145-.416-.184 0-.378-.114-.432-.253-.053-.139-.182-.235-.286-.214-.104.022-.38-.087-.612-.242s-.57-.31-.75-.344c-.777-.147-1.244-.328-1.244-.483 0-.092-.113-.123-.25-.071-.138.053-.25.016-.25-.083s-.113-.136-.25-.083c-.138.052-.25.018-.25-.076s-.079-.123-.174-.063c-.096.059-.268.029-.382-.065-.186-.155-1.116-.412-2.278-.631-.444-.084-6.295-.206-6.371-.134m-298.668 11.658-.044 11.25h1.872 1.873l.044-4.791.044-4.792h6.834 6.833v4.797 4.796l1.917-.046 1.916-.047v-11.167-11.166l-1.875-.047-1.875-.048v4.591 4.591l-6.875-.044-6.875-.043-.044-4.542-.044-4.542h-1.829-1.828zm45.616-11.041c-.044.114-.06 5.158-.037 11.208l.044 11h10 10l.047-1.958.047-1.959h-8.172-8.172v-2.75-2.75h4.333 4.333v-1.916-1.917h-4.333-4.333v-2.667-2.666h7.916 7.917v-1.917-1.917h-9.755c-7.651 0-9.773.045-9.835.209m173.59 11.045v11.274l7.125-.067c5.774-.055 7.267-.115 7.877-.319.413-.138.844-.221.958-.183s.207-.017.207-.122.131-.171.291-.146c.161.024.48-.061.709-.19s.517-.251.639-.272c.123-.02.367-.167.542-.325.175-.159.321-.221.324-.138s.082.018.177-.144c.094-.163.237-.255.317-.206.079.05.25-.061.379-.245s.274-.296.322-.248.304-.189.569-.526c.264-.338.668-.806.897-1.041.23-.234.398-.485.375-.558-.023-.072.035-.131.128-.131.266 0 1.236-2.319 1.43-3.417.016-.091.044-.204.062-.25.373-.933.259-5.143-.169-6.269-.1-.264-.171-.501-.158-.525.079-.144-.22-1.039-.348-1.039-.084 0-.137-.056-.118-.125.02-.069-.052-.284-.16-.478s-.16-.39-.115-.435c.045-.044-.033-.176-.173-.292-.139-.116-.254-.284-.254-.374 0-.202-1.509-1.89-1.653-1.85-.058.016-.29-.122-.517-.306-.227-.185-.308-.28-.179-.212.148.078.193.057.123-.056-.061-.099-.335-.229-.609-.289s-.498-.16-.498-.223c0-.062-.158-.212-.351-.332-.193-.121-.305-.145-.249-.055s-.18.028-.524-.138c-.574-.277-1.289-.454-2.376-.589-.229-.028-.604-.109-.833-.179-.229-.071-3.511-.157-7.292-.191l-6.875-.063zm45.579-11.051c-.045.118-.063 5.164-.039 11.214l.043 11 1.96.047 1.959.047-.042-11.214-.043-11.213-1.878-.047c-1.41-.036-1.899.006-1.96.166m66.588 1.713v1.918h4.25 4.25v9.333 9.333h1.832 1.832l.043-9.291.043-9.292 4.297-.044 4.297-.045-.047-1.872-.047-1.872-10.375-.043-10.375-.043zm-145.667 1.559c.504.087.973.123 1.042.082.068-.042.125-.007.125.077 0 .085.168.141.375.126.206-.016.759.179 1.229.432.469.254.901.415.958.357.057-.057.104-.017.104.09s.078.195.174.195c.095 0 .332.147.525.327.194.18.415.288.493.24s.142-.018.142.066.243.424.541.754c.919 1.018 1.288 1.615 1.736 2.812.274.732.447 3.571.237 3.884-.061.092-.212.467-.335.833-.122.367-.439.991-.703 1.386-.264.396-.387.662-.274.592.113-.069-.168.245-.624.698-.455.454-.875.808-.931.787-.057-.021-.237.11-.401.291s-.39.33-.502.33-.296.111-.409.248c-.114.136-.267.21-.342.164-.158-.097-.993.255-.993.42 0 .062-.094.12-.209.129-.321.027-1.208.179-1.208.208 0 .177-4.567.326-4.674.152-.048-.077-.291-.136-.54-.13-.39.008-1.119-.116-1.119-.191 0-.014-.188-.059-.417-.101-.581-.106-1.333-.454-1.333-.617 0-.074-.075-.089-.167-.032-.092.056-.167.032-.167-.054s-.21-.243-.467-.349c-.257-.107-.661-.374-.899-.594-.237-.22-.489-.348-.559-.285-.071.063-.081.033-.024-.068.057-.1-.152-.41-.466-.688-.314-.277-.524-.551-.466-.608.057-.058.012-.104-.101-.104-.112 0-.158-.075-.101-.167s.024-.167-.073-.167c-.098 0-.162-.056-.143-.125.019-.068-.083-.35-.226-.625-.235-.449-.488-1.217-.551-1.666-.012-.092-.085-.529-.161-.972-.098-.572-.075-.922.078-1.208.118-.222.174-.445.122-.496-.237-.238 1.045-3.074 1.39-3.074.081 0 .147-.068.147-.15 0-.173 1.164-1.373 1.172-1.209.003.06.097-.004.209-.141.444-.548 3.362-1.805 3.923-1.691.122.024.309-.021.417-.102.108-.08.758-.165 1.445-.19.687-.024 1.271-.065 1.296-.09.053-.054.399-.01 1.705.214m46.917.542c.55.085 1.14.157 1.311.161s.477.116.68.248c.203.133.419.192.48.13.062-.061.112-.024.112.083s.056.179.125.16c.273-.077 1.371.589 1.862 1.129.287.315.463.575.392.578s.017.115.195.25c.177.134.266.244.197.244-.07 0 .025.214.211.475.325.457.382.652.613 2.109.116.732.133 2.688.026 3.083-.185.687-.351 1.604-.319 1.769.02.103-.078.281-.216.396-.139.115-.253.276-.253.357 0 .354-2.004 2.421-2.352 2.426-.127.002-.569.157-.981.346-.785.359-1.793.598-2.5.592-.229-.001-2.423-.014-4.875-.028l-4.458-.025v-7.222c0-3.972.05-7.272.111-7.333.167-.168 8.492-.106 9.639.072"/></g></g></svg>