<?xml version="1.0" encoding="utf-8"?>
<!-- Generator: Adobe Illustrator 23.0.1, SVG Export Plug-In . SVG Version: 6.00 Build 0)  -->
<svg version="1.1" id="Layer_1" xmlns:serif="http://www.serif.com/"
	 xmlns="http://www.w3.org/2000/svg" xmlns:xlink="http://www.w3.org/1999/xlink" x="0px" y="0px" viewBox="0 0 200 25"
	 style="enable-background:new 0 0 200 25;" xml:space="preserve" height="25px" width= "200px">
<style type="text/css">
	.st0{fill:#919191;}
</style>
<g id="Layer-1" serif:id="Layer 1">
	<path class="st0" d="M70.4,12.1c1.6,0,2.7-0.2,3.6-0.7c1.2-0.7,1.7-2,1.7-3.5c0-1.7-0.6-2.8-1.6-3.4c-0.8-0.6-2-0.8-3.8-0.8h-2
		v20.1h-3.5V1.4h6.1c2.3,0,4.2,0.2,5.8,1.3c2.5,1.6,2.6,4.2,2.6,4.8c0,2.8-1.5,4.9-4.2,5.8c-0.2,0.1-0.5,0.2-0.8,0.2l7.1,10.2h-4
		l-7.9-11.5L70.4,12.1L70.4,12.1z M5.6,12.1c1.6,0,2.7-0.2,3.6-0.7c1.2-0.7,1.7-2,1.7-3.5c0-1.7-0.6-2.8-1.6-3.4
		c-0.8-0.6-2-0.8-3.8-0.8h-2v20.1H0V1.4h6.1c2.3,0,4.2,0.2,5.9,1.3c2.5,1.6,2.6,4.2,2.6,4.8c0,2.8-1.5,4.9-4.2,5.8
		c-0.2,0.1-0.5,0.2-0.8,0.2l7.1,10.2h-4L4.8,12.1C4.8,12.1,5.6,12.1,5.6,12.1z M19.3,1.4h3.5v22.2h-3.5V1.4z M45.5,1.4l-8.4,22.2
		h-2.8L25.8,1.4h3.8L36.2,19l6.5-17.5H45.5z M51.6,21.5h10.1v2.2H48.1V1.4H61v2.2h-9.3V11h8.9v2.2h-8.9L51.6,21.5L51.6,21.5z
		 M96.1,1.4h3.5v22.2h-3.5V1.4z M111.2,0.9c1.9,0,3.9,0.4,5.7,1.2V5c-2.1-1.2-4.2-1.8-6-1.8c-2.2,0-3.9,1-3.9,2.9
		c0,4.9,11.3,4.1,11.3,11.5c0,3.6-2.6,6.4-8,6.4c-2.3,0-4.7-0.5-6.5-1.5v-3.2c1.5,1.3,4.3,2.3,6.8,2.3c2.6,0,4.6-1.1,4.6-3.4
		c0-5.3-11.4-4.3-11.4-11.7C104,2.7,107.3,0.9,111.2,0.9 M126,1.4v20h9.5l-0.8,2.2h-12.2V1.4H126z M157.1,23.6h-3.8l-2.3-5.9h-9.1
		l-2.2,5.9h-2.8l8.7-22.2h2.8L157.1,23.6L157.1,23.6z M142.7,15.6h7.5l-3.8-9.8C146.4,5.8,142.7,15.6,142.7,15.6z M177.5,1.4v22.2
		h-2.3L162.4,7v16.6h-2.7V1.4h2.8l12.3,16v-16H177.5z M196.7,21.1c-2,1.7-4.9,2.5-8.3,2.5h-6.8V1.4h6.8c3.5,0,6.4,0.8,8.3,2.5
		c2.2,1.9,3.3,5,3.3,8.6S198.9,19.2,196.7,21.1 M193.1,5c-1.4-0.9-3.2-1.3-5.9-1.3H185v17.7h2.2c2.5,0,4.4-0.4,5.9-1.3
		c2.2-1.4,3.2-4.1,3.2-7.6C196.3,9,195.3,6.4,193.1,5"/>
</g>
</svg>
