<svg width="320" height="90" viewBox="0 0 320 90" fill="none" xmlns="http://www.w3.org/2000/svg">
<path d="M146.724 34.9313C147.247 36.0295 147.572 36.1195 149.971 36.2455C149.159 36.5516 147.319 37.2357 146.507 37.5597C146.652 37.8478 147.608 38.946 148.582 39.8642C148.943 40.1882 149.484 40.3682 150.313 40.3682C151.324 40.3682 152.225 40.3502 152.225 40.3502C152.225 40.3502 150.62 41.7185 150.079 42.1506C151.143 42.7987 151.919 43.2488 152.694 43.6448C153.723 44.1669 154.192 44.0049 156.068 42.9247C155.815 43.5728 154.679 46.6694 154.57 47.0475H158.449L159.134 44.9951V47.0475H161.443C161.425 46.9935 161.443 44.9951 161.443 44.9951L162.111 47.0475H166.025C165.881 46.6874 164.78 43.5728 164.528 42.9247C166.368 43.9869 166.837 44.1669 167.865 43.6448C168.658 43.2488 169.38 42.7987 170.48 42.1506C169.957 41.7185 168.334 40.3502 168.334 40.3502C168.334 40.3502 169.254 40.3682 170.246 40.3682C171.094 40.3682 171.635 40.1882 171.959 39.8642C172.952 38.946 173.908 37.8478 174.052 37.5597C173.24 37.2357 171.4 36.5516 170.625 36.2455C173.006 36.1195 173.312 36.0115 173.853 34.9313C174.304 34.0131 174.846 32.9329 175.297 31.6007C174.034 31.6907 172.32 31.8347 171.382 31.8167C172.717 30.8445 173.781 30.4304 173.89 29.4043C174.16 27.2259 174.232 24.5434 174.232 24.5434L169.452 27.766C169.452 27.766 170.101 26.8838 170.607 26.1097C171.599 24.5974 171.869 23.5352 169.452 19.4665C169.362 19.6105 166.999 23.5172 167.035 23.5172C167.702 21.6268 167.883 20.2586 167.612 19.3584C167.342 18.4583 165.213 17.3061 164.077 17.018C164.077 17.198 163.067 27.3879 163.067 27.3879C165.375 28.4501 166.981 30.7725 166.981 33.455C166.981 37.1637 163.95 40.1522 160.271 40.1522C156.591 40.1522 153.596 37.1637 153.596 33.455C153.596 30.7725 155.184 28.4501 157.493 27.3879C157.493 27.3879 156.483 17.198 156.446 17.018C155.364 17.3241 153.218 18.4763 152.947 19.3584C152.658 20.2586 152.857 21.6268 153.524 23.5172C153.542 23.5172 151.179 19.5745 151.125 19.4665C148.654 23.5352 148.961 24.6154 149.953 26.1097C150.458 26.8838 151.125 27.766 151.125 27.766L146.327 24.5434C146.327 24.5434 146.399 27.2079 146.652 29.4043C146.796 30.4304 147.842 30.8625 149.177 31.8167C148.239 31.8347 146.525 31.6727 145.263 31.6007C145.732 32.9329 146.273 34.0131 146.724 34.9313Z" fill="#333333"/>
<path d="M160.18 38.73C162.237 38.73 162.76 38.1359 162.76 38.1359V35.0033H165.249C165.682 32.6089 165.051 31.0246 164.852 30.7185H155.779C155.563 31.0246 154.931 32.6089 155.364 35.0033H157.835V38.1359C157.835 38.1359 158.106 38.73 160.18 38.73ZM80 54.8249H90.4262C95.2244 54.8249 96.7035 57.2013 96.7035 59.3617C96.7035 61.2701 96.0361 62.2062 94.3946 62.9264C96.0361 63.5205 97.0643 64.4927 97.0643 66.7611C97.0643 69.5696 95.5671 71.5679 90.4442 71.5679H80V54.8249ZM90.0474 61.3061C91.6888 61.3061 92.2661 61.036 92.2661 59.8658C92.2661 58.8576 91.779 58.4075 90.1015 58.4075H84.6539V61.3241H90.0474V61.3061ZM84.6539 68.0213H90.2458C92.0496 68.0213 92.5547 67.4272 92.5547 66.293C92.5547 65.1588 91.9955 64.6187 90.1195 64.6187H84.6539V68.0213ZM102.584 54.8249H118.025V58.1375H107.22V61.3241H115.301V64.6187H107.22V68.2373H118.476V71.5859H102.584V54.8249ZM123.833 54.8249H128.487V68.1293H137.939V71.5859H123.833V54.8249ZM141.439 68.7594L144.505 66.203C145.75 67.5892 147.752 68.5254 150.566 68.5254C153.073 68.5254 154.101 68.0393 154.101 66.9591C154.101 65.7529 153.182 65.5548 149.935 65.1408C146.417 64.6547 142.124 63.9526 142.124 59.7758C142.124 56.1931 145.191 54.5188 149.844 54.5188C153.885 54.5188 156.266 55.527 158.142 57.3994L155.274 59.9558C154.462 58.9837 152.803 57.8855 149.989 57.8855C147.517 57.8855 146.561 58.3355 146.561 59.3977C146.561 60.5319 147.536 60.784 150.963 61.144C154.625 61.5581 158.665 62.4763 158.665 66.527C158.665 70.1817 156.122 72 150.638 72C146.129 72 143.405 70.7218 141.439 68.7594ZM162.345 58.2995V54.8249H178.327V58.2995H172.807V71.5859H168.189V58.2995H162.345ZM184.334 71.5859H179.824L186.607 54.8249H192.144L198.963 71.5859H194.074L192.866 68.4714H185.524L184.334 71.5859ZM189.186 58.8036L186.733 65.2308H191.621L189.186 58.8036ZM203.671 54.8249H219.112V58.1375H208.307V61.7562H216.875V65.0688H208.307V71.5859H203.671V54.8249ZM224.559 54.8249H240V58.1375H229.195V61.7562H237.763V65.0688H229.195V71.5859H224.559V54.8249Z" fill="#333333"/>
</svg>
