<svg enable-background="new 0 0 295.1 24.2" viewBox="0 0 295.1 24.2" xmlns="http://www.w3.org/2000/svg"><g fill="#8a8a8a"><path d="m12.1 5v18.3h-4.7v-18.3h-7.1v-4.4h19.1v4.4z"/><path d="m53.7 4.6c-3.4 0-5.7 2.7-5.7 7.2s2.5 7.2 5.7 7.2 5.7-2.7 5.7-7.2c.2-4.6-2.3-7.2-5.7-7.2m.2 18.8c-6.5 0-10.7-4.4-10.7-11.6s4.4-11.6 10.9-11.6c6.3 0 10.7 4.4 10.7 11.6s-4.6 11.6-10.9 11.6"/><path d="m101.7 4.8h-5.5v5.7h5.7c2.3 0 3.4-1 3.4-3.1-.2-1.7-1.5-2.6-3.6-2.6m-.2 10.3h-5.3v8h-5v-22.5h10.7c4.6 0 8.4 2.3 8.4 7.1 0 5.3-3.8 7.4-8.8 7.4"/><path d="m144.6 23.4c-4 0-7.6-1.5-9.5-4.2l3.6-2.9c1.7 1.9 3.8 2.7 6.3 2.7 2.9 0 4.2-.8 4.2-2.5 0-1.5-1-2.1-5.3-3.1-4.6-1-7.6-2.3-7.6-6.9 0-4.2 4-6.7 8.8-6.7 3.8 0 6.7 1.3 9 3.6l-3.6 3.2c-1.5-1.5-3.2-2.3-5.5-2.3-2.7 0-3.4 1.1-3.4 2.1 0 1.5 1.1 1.9 5 2.7 3.8 1 8.2 2.1 8.2 7.1-.7 4.4-3.5 7.2-10.2 7.2"/><path d="m195.9 23.1v-9.5h-9.9v9.5h-5v-22.5h5v8.6h9.9v-8.6h5v22.7h-5z"/><path d="m238.2 4.6c-3.4 0-5.7 2.7-5.7 7.2s2.5 7.2 5.7 7.2c3.4 0 5.7-2.7 5.7-7.2s-2.3-7.2-5.7-7.2m0 18.8c-6.5 0-10.7-4.4-10.7-11.6s4.4-11.6 10.9-11.6 10.7 4.4 10.7 11.6-4.6 11.6-10.9 11.6"/><path d="m286.1 4.8h-5.5v5.7h5.7c2.3 0 3.4-1 3.4-3.1 0-1.7-1.5-2.6-3.6-2.6m-.2 10.3h-5.3v8h-5v-22.5h10.7c4.6 0 8.4 2.3 8.4 7.2-.1 5.2-3.7 7.3-8.8 7.3"/></g></svg>