<svg xmlns="http://www.w3.org/2000/svg" width="76" height="29" viewBox="0 0 76 29"><path fill="#B3B3B3" d="M75.68 6.246l-2.31.83c-.917-2.886-3.504-4.743-7.01-4.743-3.824 0-6.334 1.896-6.334 5.098 0 6.88 15.854 3.242 15.854 12.925 0 4.625-3.745 7.865-9.32 7.865-5.18 0-8.284-2.45-10.435-6.363l2.15-1.303c1.432 3.002 4.06 5.335 8.046 5.335 4.62 0 7.01-2.095 7.01-5.574 0-6.917-15.854-3.518-15.854-12.925 0-5.572 5.06-7.39 8.804-7.39 4.22 0 8.047 1.897 9.4 6.246zm-38.996.08c0 1.54 1.035 2.844 3.307 5.256 2.67-1.543 4.144-3.163 4.144-5.257 0-2.055-1.396-3.676-3.785-3.676-2.232 0-3.666 1.738-3.666 3.675zm2.668 8.18c-3.623 1.977-5.216 3.557-5.216 6.007 0 2.806 2.548 5.14 5.814 5.14 2.95 0 4.46-1.345 6.094-3.953l-6.692-7.194zM52.26 28.338l-4.623-4.9c-1.67 2.61-3.944 4.506-7.687 4.506-4.82 0-8.365-3.32-8.365-7.39 0-3.4 2.112-5.495 6.177-7.788-2.31-2.29-3.587-4.19-3.587-6.44 0-3.28 2.788-5.89 6.174-5.89 3.585 0 6.252 2.61 6.252 5.89 0 3.16-2.51 5.295-5.017 6.915l5.734 6.207 3.387-5.454 2.03 1.263-3.745 6.048 5.14 5.415-1.873 1.618zM25.212.358v27.586h-2.55V5.416l-9.16 17.627H11.71L2.546 5.453v22.49H0V.358h2.67l9.955 19.05L22.582.357h2.63z"/></svg>