<svg xmlns="http://www.w3.org/2000/svg" width="172" height="40" viewBox="0 0 172 40"><g fill="#B3B3B3" fill-rule="evenodd"><path fill-rule="nonzero" d="M0 35.985h1.36c4.216 0 4.6-2.072 4.6-6.507V0l4.3 4.24V30.66c0 4.685-1.616 8.402-6.002 9.287L0 35.984"/><path d="M23.737 14.66c3.663 0 6.304 2.577 6.304 6.127 0 3.962-2.424 6.415-6.303 6.415-3.533 0-5.96-2.575-5.96-6.46 0-3.505 2.513-6.082 5.96-6.082zm.043 16.13c6.132 0 10.35-4.054 10.35-10.047 0-5.617-4.343-9.67-10.35-9.67-5.706 0-10.092 4.225-10.092 9.67 0 5.828 4.214 10.047 10.092 10.047z"/><path fill-rule="nonzero" d="M49.67 18.63c0-2.7-1.367-4.43-3.538-4.43-1.572 0-2.852.717-4.555 2.656V30.41h-4.004V2.333h4.004v11.36c1.404-1.69 3.49-2.706 5.538-2.706 3.788 0 6.558 2.576 6.558 7.77V30.41H49.67V18.63m20.73.084c0-2.74-1.36-4.433-3.538-4.433-1.572 0-2.852.718-4.555 2.62v13.51h-4.002V11.396h4.002v2.38c1.406-1.69 3.49-2.704 5.538-2.704 3.664 0 6.56 2.49 6.56 7.686V30.41H70.4V18.714M86.294 0l3.85 3.902v22.582h8.63l3.745 3.926H86.293V0"/><path d="M109.566 14.537c2.513 0 4.09 1.688 4.258 4.073h-9.196c.55-2.514 2.21-4.073 4.938-4.073zm7.86 13.91c-.64-.55-2.495-2.385-2.495-2.385-1.446.632-2.808.926-4.213.926-3.495 0-5.58-1.815-6.175-5.123h13.248c0-7.328-3.242-10.793-8.31-10.793-5.28 0-8.94 3.884-8.94 9.63 0 5.23 3.32 10.088 9.28 10.088 3.2 0 5.274-.713 7.605-2.343z"/><path fill-rule="nonzero" d="M139.623 30.79l-5.668-13.548-5.627 13.548h-1.19l-8.596-19.414h4.27l4.93 11.383 4.723-11.384h2.98l4.744 11.383 4.904-11.393h4.248l-8.526 19.423h-1.193"/><path d="M151.292 4.48c0-1.268 1.02-2.323 2.258-2.323 1.232 0 2.26 1.055 2.26 2.324 0 1.307-1.028 2.363-2.26 2.363-1.237 0-2.258-1.056-2.258-2.362zm.34 6.887h4.008V30.41h-4.007V11.367z"/><path fill-rule="nonzero" d="M159.05 29.017v-4.31c2.598 1.815 4.9 2.585 6.353 2.585 1.39 0 2.473-.536 2.52-1.777.03-.656-.483-1.354-1.293-1.9-.806-.594-1.918-1.142-3.02-1.816-2.178-1.27-4.43-2.915-4.43-5.533 0-3.25 2.32-5.195 6.3-5.195 1.787 0 3.58.51 5.623 1.607v3.967c-2.26-1.52-4.372-2.12-5.734-2.12-1.493 0-2.192.65-2.144 1.61.042.966 1.17 1.717 4.602 3.646C171.055 21.6 172 23.19 172 25.173c0 3.378-2.685 5.617-6.305 5.617-2.344 0-4.133-.466-6.645-1.773"/></g></svg>