<svg xmlns="http://www.w3.org/2000/svg" width="194" height="31" viewBox="0 0 194 31"><g fill="#2E2D2B" fill-rule="evenodd"><path d="M194 30.15h-8.17c-.352 0-.552-.1-.703-.45-1.654-3.35-3.36-6.7-5.063-10.05-.15-.35-.15-.6 0-.95 1.654-3.3 3.258-6.65 4.913-9.95.05-.15.25-.25.4-.25h7.97c.05 0 .05 0 .152.05-.202.35-.352.7-.553 1.05-1.654 3.05-3.258 6.1-4.912 9.15-.1.15-.1.45-.05.55 1.955 3.55 3.91 7.1 5.865 10.6 0 .05.05.1.1.15v.1h.05zM119.257 30.25l-3.56-18.45h-.1l-3.558 18.45h-8.423L97.35.25h8.372l2.557 19h.1l3.308-19h8.17l3.26 19h.15l2.556-19h8.12l-6.265 30M8.12 13.3V6.9c1.304.05 2.658-.25 3.86.4.853.45 1.254 1.2 1.354 2.1.05.5 0 1.05-.1 1.6-.25 1.2-1.053 1.95-2.256 2.15-.952.1-1.905.1-2.857.15zm.352 16.3V18.9c.45-.1.752-.05.952.4l4.662 9.9c.15.3.3.4.652.4h8.522l-6.066-12.1.35-.2c1.906-1 3.21-2.55 3.86-4.6.352-1.1.402-2.25.402-3.45-.05-3.7-2.055-6.45-5.564-7.65-1.504-.5-3.108-.75-4.712-.75H0V29.6h8.472zm60.506-9.65c-.852.25-1.604.4-2.306.7-1.404.55-2.005 1.55-1.905 3.05.05 1.05.652 1.75 1.704 1.9.753.1 1.455 0 2.157-.3.25-.1.35-.25.3-.5v-4.85h.05zm-8.372-4.35l-2.055-4.65c2.156-1.15 4.362-2.1 6.768-2.5 2.256-.35 4.462-.4 6.668.2 2.556.7 3.96 2.45 4.26 5.15.05.7.1 1.4.1 2.1v9.65c0 1.4.2 1.65 1.605 1.95l.2.05v2.65c-.85 0-1.653.05-2.505 0-1.454-.1-2.908-.3-4.21-.85-.853-.35-1.555-.9-2.006-1.7-.15-.3-.302-.2-.452-.05-.602.55-1.203 1.1-1.855 1.55-1.554 1.05-3.258 1.4-5.113 1.05-2.657-.5-4.31-2.6-4.412-5.35-.1-2.85 1.254-4.8 3.81-6 1.955-.9 4.01-1.2 6.116-1.45.25-.05.55-.05.802-.1.652-.05.652-.05.652-.75v-1c-.05-1.1-.702-1.8-1.805-1.95-1.203-.15-2.406.15-3.51.6-.85.35-1.703.75-2.556 1.1-.15.15-.3.2-.5.3zm102.264 2.6c0-.65.05-1.25 0-1.8-.1-.95-.25-1.85-.502-2.75-.2-.7-.75-1-1.453-1-.752 0-1.254.35-1.504 1.05-.2.55-.35 1.1-.4 1.7-.1.95-.1 1.9-.2 2.85h4.06v-.05zm7.52 3.05h-11.33c-.35 1.95 1.153 3.6 3.208 3.7 2.206.1 4.31-.45 6.316-1.35l.502-.2 1.704 5.05c-.852.35-1.654.7-2.506.95-3.008 1-6.116 1.3-9.224.75-3.96-.7-6.316-3.1-7.17-6.95-.6-2.8-.6-5.65.152-8.45 1.103-4.15 4.36-6.65 8.672-6.7 1.504 0 2.958.15 4.31.7 2.708 1.1 4.262 3.25 4.964 6 .4 1.4.5 2.9.45 4.35-.05.7-.05 1.4-.05 2.15zm-27.422-3.05c0-.4.05-.8 0-1.2-.15-1.05-.2-2.15-.45-3.2-.2-.85-.753-1.2-1.555-1.2-.752 0-1.303.35-1.554 1.2-.15.5-.25 1-.3 1.45-.102.95-.102 1.95-.202 2.95h4.06zm6.166 5.2l1.705 5-2.257.9c-3.008 1.1-6.116 1.35-9.274.9-3.81-.55-6.518-3-7.32-6.7-.702-3.15-.752-6.3.25-9.35 1.154-3.6 4.11-5.8 7.92-6 1.906-.1 3.81.1 5.515 1 2.256 1.15 3.56 3 4.26 5.4.653 2.2.553 4.5.503 6.8h-11.33c-.35 1.6.903 3.35 2.507 3.6 1.704.25 3.36 0 4.963-.5.852-.35 1.654-.7 2.556-1.05z"/><path d="M32.634 17.7v-.95c-.05-1.2-.05-2.45-.5-3.6-.302-.75-.753-1.05-1.455-1.05-.703 0-1.204.3-1.505 1.05-.55 1.45-.5 3-.5 4.55h3.96zm7.42 3.05h-11.33c.05.45.1.85.2 1.2.402 1.65 1.354 2.4 3.058 2.5 2.206.1 4.26-.5 6.267-1.35l.35-.15h.15l1.704 5c-1.103.4-2.155.85-3.258 1.2-2.757.8-5.564 1-8.372.5-3.61-.65-6.015-2.75-6.918-6.3-.852-3.25-.852-6.55.2-9.8 1.154-3.55 4.06-5.7 7.77-5.95 1.956-.1 3.81.1 5.565 1 2.357 1.25 3.66 3.3 4.262 5.8.45 2.1.35 4.2.35 6.35zm139.56 9.35h-8.072V1.6c0-.6 0-.6.602-.7 2.356-.3 4.712-.55 7.068-.85.1 0 .25 0 .4-.05v30.1zM96.398 30.1h-7.97V.95l7.97-.95M78.903 8.45h7.97v21.6h-7.97zM78.703 1h8.32v5.45h-8.32zM39.752 7.75h3.51v-6.1c0-.65 0-.65.6-.7C46.12.65 48.376.35 50.63.1c.15 0 .3-.05.502-.05v7.7h5.263v5.55h-5.213v8.8c0 1.4.652 2 2.005 1.9 1.153-.1 2.156-.5 3.208-.95l.502-.2c0 .15.05.2.05.25v5.5c0 .15-.1.4-.25.45-2.858 1.35-5.916 1.85-9.024 1.3-2.607-.45-4.11-2.2-4.26-4.95-.1-1.6-.05-3.2-.05-4.8v-7.25h-3.51v-5.6h-.1z"/></g></svg>