<svg xmlns="http://www.w3.org/2000/svg" width="113" height="50" viewBox="0 0 113 50"><g fill="none"><path fill="#2A3E91" d="M92.228 45.298c.45-.893.81-1.816 1.02-2.71h-1.71c-.24.805-.45 1.58-.898 2.263-.33.805-.9 1.49-1.5 2.055-.568.446-1.258.893-2.067 1.25-.81.327-1.71.446-2.638.446-1.588 0-2.847-.237-3.866-.892-1.02-.565-1.95-1.37-2.52-2.262-.57-.892-1.018-2.053-1.258-3.184-.24-1.25-.45-2.38-.45-3.63 0-1.37.24-2.62.45-3.75.33-1.25.81-2.263 1.5-3.186.568-.892 1.377-1.696 2.397-2.142 1.018-.566 2.157-.804 3.535-.804 1.95 0 3.417.327 4.676 1.13 1.14.805 1.95 2.144 2.4 3.96h1.708c-.24-1.013-.45-1.935-.9-2.62-.45-.893-1.02-1.577-1.828-2.143-.69-.565-1.5-1.012-2.398-1.25-1.02-.327-2.068-.446-3.087-.446-1.5 0-2.848.24-3.987.566-1.258.447-2.277 1.13-3.207 2.054-.808.804-1.587 2.054-2.067 3.393-.57 1.488-.81 3.184-.81 5.208 0 1.58.24 3.067.57 4.436.33 1.37.81 2.5 1.59 3.512.688 1.012 1.707 1.815 2.846 2.5 1.138.565 2.637.892 4.226.892 1.498 0 2.727-.238 3.776-.684 1.02-.327 1.95-.893 2.728-1.577.75-.686 1.32-1.49 1.768-2.382m-56.83-7.143v-8.84h6.745c.81 0 1.498 0 2.068.12.69.12 1.26.327 1.83.684.57.326.898.803 1.258 1.368.33.566.45 1.25.45 2.054 0 .803-.12 1.577-.45 2.143-.24.565-.69 1.01-1.26 1.37-.448.445-1.018.683-1.707.89-.69.12-1.498.24-2.277.24H35.4v-.03zm8.213 1.37c.45 0 1.02.237 1.38.326.45.24.81.567 1.14.894.24.327.45.893.57 1.488.12.447.12 1.012.238 1.697 0 .683 0 1.368.12 2.052 0 .685.12 1.37.24 2.054 0 .565.12 1.012.33 1.37l1.708-.12s-.12-.12-.12-.238c-.12-.238-.24-.566-.33-.893 0-.328-.12-.804-.12-1.37-.12-.565-.12-1.25-.12-2.053 0-.565-.12-1.13-.12-1.815-.12-.566-.24-1.13-.33-1.578-.238-.566-.448-1.013-.808-1.37-.33-.446-.81-.803-1.5-.893l-.448-.238.45-.24c1.258-.564 2.157-1.25 2.637-2.052.57-.685.81-1.816.81-3.066 0-1.934-.57-3.393-1.83-4.196-1.138-.893-2.966-1.37-5.364-1.37H33.81v21.31h1.59v-9.85h6.743c.42.03 1.02.03 1.468.148zM97.354 27.946v1.37h6.984v20.06h1.588v-20.06h6.954v-1.37H97.354M55.6 27.946v21.43H70.08v-1.37h-12.77v-9.048h11.3v-1.37h-11.3v-8.273h12.44v-1.37H55.6M24.548 27.946h1.59v21.43h-1.59v-21.43M7.314 48.006H2.068v-18.69h5.246c.9 0 1.828 0 2.727.12.9.118 1.71.326 2.4.683.808.445 1.378 1.01 1.947 1.576.45.685.9 1.37 1.14 2.054.33.804.57 1.577.69 2.5 0 .804.12 1.577.12 2.38 0 .805-.12 1.578-.24 2.382-.12.803-.24 1.577-.57 2.38-.24.685-.69 1.49-1.14 2.054-.45.685-1.14 1.25-1.828 1.578-.9.446-1.71.803-2.64.893-.778.09-1.707.09-2.606.09zm6.384 0c.57-.327 1.14-.685 1.588-1.25.57-.566.9-1.13 1.26-1.816.33-.565.57-1.25.81-2.053.238-.685.328-1.37.448-2.143.12-.684.12-1.488.12-2.143 0-.683 0-1.487-.12-2.38-.12-.803-.33-1.696-.57-2.5-.33-.803-.69-1.577-1.138-2.262-.45-.803-1.02-1.37-1.71-1.934-.448-.328-1.018-.566-1.587-.804-.45-.238-1.02-.446-1.59-.565-.57-.12-1.14-.12-1.708-.12-.57-.118-1.14-.118-1.71-.118H.45v21.428h7.313c.69 0 1.38-.12 2.068-.12.81-.118 1.38-.237 2.07-.445.66-.09 1.228-.417 1.798-.774zm68.61-37.5c-.57.327-1.26.565-2.07.684-.808.12-1.588.24-2.637.24h-5.034V2.23h5.605c2.07 0 3.538.328 4.467 1.13 1.02.805 1.5 1.817 1.5 3.275 0 .893-.12 1.696-.45 2.38-.36.566-.81 1.132-1.38 1.49zm2.727-.804c.45-.803.69-1.696.69-2.946 0-.804-.12-1.488-.24-2.262-.24-.684-.57-1.25-1.14-1.815-.45-.567-1.14-.894-2.068-1.25-.9-.33-2.068-.448-3.417-.448h-7.883v21.31h1.59V12.65h5.064c.9 0 1.95-.12 2.97-.24.898-.237 1.827-.565 2.636-.892.66-.447 1.35-1.13 1.8-1.816zM58.448 20.685c-1.02.565-2.278.803-3.776.803-1.5 0-2.728-.238-3.777-.803-1.14-.566-1.948-1.25-2.638-2.143-.69-.893-1.26-2.054-1.498-3.185-.33-1.25-.57-2.5-.57-3.75 0-1.37.24-2.62.57-3.75.238-1.25.808-2.262 1.497-3.184.69-.893 1.5-1.697 2.638-2.262 1.02-.565 2.278-.803 3.657-.803 1.38 0 2.517.238 3.537.685 1.018.446 1.947 1.13 2.726 1.934.69.893 1.26 1.935 1.59 3.185.448 1.25.568 2.62.568 4.197 0 1.25-.12 2.5-.45 3.75-.33 1.13-.81 2.262-1.498 3.185-.63.922-1.56 1.577-2.578 2.143zm3.657-1.13c.81-1.013 1.5-2.263 1.948-3.632.45-1.37.69-2.828.69-4.316 0-1.577-.24-3.065-.69-4.434-.45-1.37-1.14-2.62-1.948-3.63-.81-1.013-1.948-1.817-3.207-2.382C57.638.596 56.26.27 54.552.27c-1.59 0-3.088.327-4.227.893-1.258.566-2.278 1.37-3.207 2.382-.81 1.012-1.378 2.262-1.828 3.63-.45 1.37-.69 2.828-.69 4.435 0 1.488.24 2.947.69 4.316.33 1.37 1.02 2.62 1.828 3.63.81 1.012 1.95 1.816 3.207 2.382 1.14.565 2.638.892 4.347.892 1.588 0 3.087-.327 4.346-.892 1.26-.566 2.278-1.34 3.087-2.38zM36.628.982v9.286h-13.46V.982h-1.587v21.31h1.59V11.637h13.458v10.655h1.618V.982h-1.618M15.406 16.726c0-1.012-.12-1.815-.45-2.5-.33-.684-.81-1.25-1.378-1.696-.57-.328-1.26-.804-1.948-1.012-.81-.238-1.59-.447-2.398-.685-.81-.12-1.59-.327-2.398-.446-.69-.238-1.5-.447-2.158-.685-.69-.327-1.26-.684-1.71-1.13-.448-.447-.808-1.012-.898-1.816-.12-.566 0-1.25.12-1.816.24-.565.45-1.13.9-1.577.45-.565 1.138-.893 1.828-1.25.78-.327 1.708-.446 2.727-.446.69 0 1.38.12 2.068.327.69.12 1.38.446 1.83.804.57.446 1.02 1.012 1.26 1.577.328.565.448 1.25.448 2.054h1.59c0-.805-.24-1.49-.45-2.263-.33-.685-.69-1.37-1.38-1.935-.57-.565-1.258-1.012-2.158-1.37C9.95.537 8.902.418 7.643.418c-1.14 0-2.278.12-3.207.446-.81.238-1.59.685-2.158 1.25-.57.447-1.02 1.13-1.38 1.816C.57 4.612.45 5.297.45 5.98c0 1.012.24 1.935.57 2.62.33.565.808 1.13 1.378 1.577.69.445 1.38.802 2.158 1.01.81.24 1.59.447 2.398.685.81.238 1.708.327 2.518.565.81.24 1.498.447 2.158.804.69.446 1.14.893 1.588 1.37.33.565.57 1.368.57 2.26 0 .566-.12 1.25-.33 1.816-.24.566-.57 1.012-1.02 1.49-.45.445-1.018.802-1.827 1.01-.69.328-1.588.447-2.637.447-.81 0-1.59-.12-2.398-.327-.69-.24-1.38-.566-1.948-1.012-.69-.328-1.14-1.012-1.5-1.697-.33-.564-.568-1.368-.688-2.26H0c0 1.01.12 1.934.57 2.708.33.892.9 1.577 1.588 2.142.69.566 1.5 1.012 2.398 1.25.9.328 1.948.447 3.087.447 2.518 0 4.466-.566 5.815-1.577 1.38-1.072 1.948-2.65 1.948-4.584"/><path fill="#A5D71C" d="M94.386 6.756c1.59 0 2.848-1.37 2.848-2.946 0-1.578-1.26-2.828-2.848-2.828-1.588 0-2.967 1.25-2.967 2.828 0 1.577 1.378 2.946 2.966 2.946m7.764 0c1.588 0 2.967-1.37 2.967-2.946 0-1.578-1.38-2.828-2.967-2.828-1.59 0-2.848 1.25-2.848 2.828 0 1.577 1.26 2.946 2.848 2.946m7.763 0c1.708 0 2.967-1.37 2.967-2.946 0-1.578-1.26-2.828-2.967-2.828-1.59 0-2.848 1.25-2.848 2.828 0 1.577 1.26 2.946 2.848 2.946"/><path fill="#E2F1B3" d="M94.386 14.464c1.59 0 2.848-1.25 2.848-2.946 0-1.578-1.26-2.828-2.848-2.828-1.588 0-2.967 1.25-2.967 2.828 0 1.696 1.378 2.946 2.966 2.946"/><path fill="#A5D71C" d="M102.15 14.464c1.588 0 2.967-1.25 2.967-2.946 0-1.578-1.38-2.828-2.967-2.828-1.59 0-2.848 1.25-2.848 2.828 0 1.696 1.26 2.946 2.848 2.946m7.763 0c1.708 0 2.967-1.25 2.967-2.946 0-1.578-1.26-2.828-2.967-2.828-1.59 0-2.848 1.25-2.848 2.828 0 1.696 1.26 2.946 2.848 2.946m-15.527 7.71c1.59 0 2.848-1.25 2.848-2.83 0-1.576-1.26-2.945-2.848-2.945-1.588 0-2.967 1.368-2.967 2.945 0 1.578 1.378 2.828 2.966 2.828"/><path fill="#E2F1B3" d="M102.15 22.173c1.588 0 2.967-1.25 2.967-2.828 0-1.577-1.38-2.946-2.967-2.946-1.59 0-2.848 1.368-2.848 2.945 0 1.578 1.26 2.828 2.848 2.828"/><path fill="#A5D71C" d="M109.913 22.173c1.708 0 2.967-1.25 2.967-2.828 0-1.577-1.26-2.946-2.967-2.946-1.59 0-2.848 1.368-2.848 2.945 0 1.578 1.26 2.828 2.848 2.828"/></g></svg>