<svg width="262" height="16" viewBox="0 0 262 16" fill="none" xmlns="http://www.w3.org/2000/svg">
<path d="M0.354769 15V0.519999H2.75477V12.82H13.9348V15H0.354769ZM32.3221 10.96C32.3221 11.6 32.1554 12.1867 31.8221 12.72C31.5021 13.2533 31.0288 13.72 30.4021 14.12C29.7888 14.5067 29.0421 14.8067 28.1621 15.02C27.2821 15.2467 26.2888 15.36 25.1821 15.36C24.0754 15.36 23.0754 15.2467 22.1821 15.02C21.3021 14.8067 20.5488 14.5067 19.9221 14.12C19.3088 13.72 18.8354 13.2533 18.5021 12.72C18.1821 12.1867 18.0221 11.6 18.0221 10.96V2.7H20.4221V10.48C20.4221 11.36 20.8221 12.0333 21.6221 12.5C22.4221 12.9667 23.6088 13.2 25.1821 13.2C26.7554 13.2 27.9354 12.9667 28.7221 12.5C29.5221 12.0333 29.9221 11.36 29.9221 10.48V2.7H32.3221V10.96ZM49.9648 15L45.0648 10.18L40.1648 15H37.1448L43.5448 8.76L37.3648 2.7H40.3848L45.0648 7.34L49.7448 2.7H52.7648L46.5848 8.76L52.9848 15H49.9648ZM72.112 10.96C72.112 11.6 71.9453 12.1867 71.612 12.72C71.292 13.2533 70.8186 13.72 70.192 14.12C69.5786 14.5067 68.832 14.8067 67.952 15.02C67.072 15.2467 66.0786 15.36 64.972 15.36C63.8653 15.36 62.8653 15.2467 61.972 15.02C61.092 14.8067 60.3386 14.5067 59.712 14.12C59.0986 13.72 58.6253 13.2533 58.292 12.72C57.972 12.1867 57.812 11.6 57.812 10.96V2.7H60.212V10.48C60.212 11.36 60.612 12.0333 61.412 12.5C62.212 12.9667 63.3986 13.2 64.972 13.2C66.5453 13.2 67.7253 12.9667 68.512 12.5C69.312 12.0333 69.712 11.36 69.712 10.48V2.7H72.112V10.96ZM90.4946 15L87.2746 10.48H81.1746V15H78.7746V2.7H88.7146C89.3679 2.7 89.9546 2.79333 90.4746 2.98C91.0079 3.16667 91.4613 3.43333 91.8346 3.78C92.2079 4.11333 92.4946 4.52 92.6946 5C92.8946 5.48 92.9946 6.01333 92.9946 6.6C92.9946 7.6 92.7346 8.42 92.2146 9.06C91.6946 9.68667 90.9346 10.1133 89.9346 10.34L93.2546 15H90.4946ZM88.3546 8.3C89.8079 8.3 90.5346 7.74667 90.5346 6.64C90.5346 6.02667 90.3479 5.58 89.9746 5.3C89.6013 5.02 89.0146 4.88 88.2146 4.88H81.1746V8.3H88.3546ZM105.844 10.16V15H103.444V10.16L96.484 2.7H99.404L104.664 8.3L109.924 2.7H112.844L105.844 10.16ZM140.203 15L136.283 9.48H128.963V15H126.563V0.519999H137.983C139.516 0.519999 140.709 0.926666 141.563 1.74C142.429 2.55333 142.863 3.66667 142.863 5.08C142.863 5.72 142.769 6.28667 142.583 6.78C142.396 7.27333 142.129 7.7 141.783 8.06C141.449 8.40667 141.049 8.68667 140.583 8.9C140.129 9.11333 139.636 9.26667 139.103 9.36L142.983 15H140.203ZM137.623 7.3C138.529 7.3 139.216 7.11333 139.683 6.74C140.163 6.35333 140.403 5.8 140.403 5.08C140.403 3.49333 139.403 2.7 137.403 2.7H128.963V7.3H137.623ZM148.999 15V2.7H161.779V4.88H151.399V7.52H158.619V9.7H151.399V12.82H162.239V15H148.999ZM174.626 4.88V15H172.226V4.88H166.346V2.7H180.506V4.88H174.626ZM194.81 15L193.39 12.36H185.13L183.71 15H181.07L187.77 2.7H190.75L197.45 15H194.81ZM189.27 4.74L186.33 10.18H192.19L189.27 4.74ZM202.248 15V2.7H204.648V15H202.248ZM211.45 15V2.7H213.85V12.82H223.35V15H211.45ZM228.346 15V2.7H241.126V4.88H230.746V7.52H237.966V9.7H230.746V12.82H241.586V15H228.346ZM259.014 15L255.794 10.48H249.694V15H247.294V2.7H257.234C257.887 2.7 258.474 2.79333 258.994 2.98C259.527 3.16667 259.981 3.43333 260.354 3.78C260.727 4.11333 261.014 4.52 261.214 5C261.414 5.48 261.514 6.01333 261.514 6.6C261.514 7.6 261.254 8.42 260.734 9.06C260.214 9.68667 259.454 10.1133 258.454 10.34L261.774 15H259.014ZM256.874 8.3C258.327 8.3 259.054 7.74667 259.054 6.64C259.054 6.02667 258.867 5.58 258.494 5.3C258.121 5.02 257.534 4.88 256.734 4.88H249.694V8.3H256.874Z" fill="black"/>
</svg>
