<svg width="321" height="90" viewBox="0 0 321 90" fill="none" xmlns="http://www.w3.org/2000/svg">
<path d="M257.821 55.7657C259.678 55.652 261.421 55.6899 263.164 55.4626C266.764 55.0078 269.076 52.9614 270.023 49.475C270.819 46.5571 270.819 43.6391 270.137 40.7212C269.985 40.0011 269.682 39.2811 269.379 38.6369C268.621 37.0832 267.484 35.9084 265.893 35.1884C263.316 33.9757 260.587 34.2031 257.859 34.2031V55.7657H257.821ZM253.842 31.5125C253.993 31.5125 254.145 31.4746 254.259 31.4746C257.252 31.4746 260.246 31.4746 263.24 31.5504C265.021 31.5883 266.764 32.0052 268.394 32.7252C271.046 33.8999 272.827 35.9084 273.775 38.599C275.177 42.5401 275.215 46.5571 274.04 50.574C272.79 54.7804 269.834 57.2437 265.589 58.0395C264.263 58.3047 262.861 58.4184 261.535 58.4184C258.996 58.4942 256.457 58.4184 253.88 58.4184V31.5125H253.842Z" fill="black"/>
<path d="M232.128 58.4184H229.134V31.4367C230.119 31.4367 231.142 31.3988 232.128 31.4746C232.317 31.4746 232.544 31.7399 232.658 31.9673C235.917 36.4768 239.138 40.9864 242.397 45.496C243.61 47.2013 244.86 48.9445 246.187 50.8014V31.5125H249.294V58.4942C248.461 58.4942 247.665 58.5321 246.869 58.4563C246.679 58.4563 246.452 58.191 246.301 58.0016C242.094 52.2035 237.926 46.3676 233.757 40.5696C233.264 39.8874 232.772 39.2053 232.128 38.5611V58.4184Z" fill="black"/>
<path d="M58.3761 46.1412C61.0666 50.2339 63.7193 54.2888 66.4857 58.4573C64.9699 58.4573 63.5299 58.4573 62.1277 58.4573C61.9761 58.4573 61.8246 58.3057 61.7488 58.1541C58.8687 53.6824 55.9886 49.1729 53.1086 44.6633C53.1086 44.6254 53.1086 44.5875 53.0707 44.5117C53.7907 44.4738 54.5107 44.4738 55.2307 44.398C58.6034 44.0948 60.0814 42.0485 59.854 38.6758C59.6645 36.0231 58.1108 34.4315 55.4202 34.242C54.1317 34.1283 52.8433 34.242 51.479 34.242V58.4573H47.5V31.5514C47.6516 31.5514 47.7653 31.4756 47.9169 31.4756C50.6074 31.4756 53.2601 31.4756 55.9507 31.5514C57.9592 31.5893 59.8919 32.044 61.5214 33.3325C65.5004 36.5157 64.6667 43.3748 60.0056 45.5349C59.5129 45.7244 58.9824 45.9138 58.3761 46.1412Z" fill="black"/>
<path d="M140.117 58.4563C138.601 58.4563 137.199 58.4563 135.797 58.4563C135.645 58.4563 135.456 58.3047 135.38 58.191C132.5 53.7193 129.582 49.2097 126.74 44.7001C126.702 44.6622 126.702 44.6243 126.664 44.5486C127.46 44.5107 128.218 44.4728 129.014 44.397C132.121 44.018 133.713 42.1232 133.485 38.9779C133.296 36.022 131.818 34.4683 128.786 34.2409C127.611 34.1273 126.361 34.2409 125.11 34.2409V58.4563H121.131V31.5503C121.283 31.5503 121.434 31.5125 121.586 31.5125C124.201 31.5125 126.816 31.5125 129.468 31.5503C130.984 31.5882 132.424 31.8535 133.788 32.5356C136.517 33.8241 137.995 36.7799 137.578 39.8874C137.161 43.0327 135.418 45.0412 132.424 46.0265C132.31 46.0644 132.197 46.1023 131.969 46.1781C134.698 50.195 137.351 54.2498 140.117 58.4563Z" fill="black"/>
<path d="M213.9 36.8558C212.498 40.8349 211.133 44.7002 209.769 48.6035H218.144C216.742 44.6623 215.34 40.8349 213.9 36.8558ZM203.024 58.4563C203.441 57.2437 203.857 56.1068 204.274 55.0078C207.041 47.3908 209.845 39.7738 212.611 32.1568C212.801 31.5883 213.066 31.361 213.672 31.4367C214.165 31.4746 214.658 31.5125 215.15 31.4367C215.87 31.361 216.211 31.6262 216.477 32.3083C219.584 40.797 222.729 49.2477 225.875 57.6984C225.951 57.9258 226.026 58.1532 226.14 58.4563C224.7 58.4563 223.374 58.4563 222.009 58.4184C221.858 58.4184 221.668 58.1532 221.593 57.9637C220.873 55.9552 220.115 53.9089 219.395 51.9004C219.243 51.4457 219.016 51.332 218.561 51.332C215.491 51.332 212.422 51.3699 209.39 51.332C208.935 51.332 208.746 51.4835 208.594 51.9383C207.912 53.9468 207.154 55.9552 206.472 57.9637C206.359 58.3427 206.169 58.4942 205.752 58.4942C204.843 58.4185 204.009 58.4563 203.024 58.4563Z" fill="black"/>
<path d="M117.645 55.7278V58.4184H102.183V31.4746H116.773V34.0894H106.238V43.0328H116.319V45.6855H106.238V55.7278H117.645Z" fill="black"/>
<path d="M180.438 35.7189C179.112 35.1883 177.823 34.582 176.535 34.1652C175.208 33.7104 173.806 33.5209 172.366 33.8241C170.964 34.0894 169.827 34.7715 169.41 36.2115C168.956 37.7273 169.41 39.1295 170.623 40.0769C171.722 40.9485 172.972 41.5927 174.223 42.3127C175.777 43.2222 177.482 43.9801 178.998 45.0412C183.356 48.0729 182.674 53.6056 180.476 56.1446C179.036 57.812 177.103 58.6078 174.981 58.8731C171.949 59.2521 169.031 58.7594 166.227 57.5468C165.772 57.3573 165.583 57.092 165.621 56.5994C165.659 55.5762 165.621 54.553 165.621 53.4161C165.81 53.5298 165.962 53.6435 166.075 53.7193C168.577 55.5383 171.381 56.4099 174.488 56.0688C175.132 55.9931 175.777 55.8036 176.383 55.5004C178.619 54.4393 179.301 51.7108 177.823 49.7782C177.141 48.9066 176.231 48.2244 175.322 47.656C173.958 46.8223 172.442 46.216 171.078 45.4202C169.865 44.7001 168.614 43.9043 167.629 42.919C165.204 40.5695 164.976 36.2873 167.061 33.7104C168.349 32.0809 170.13 31.3988 172.101 31.1335C174.791 30.7545 177.368 31.2093 179.907 32.1567C180.324 32.3083 180.514 32.4977 180.476 32.9904C180.4 33.8241 180.438 34.7715 180.438 35.7189Z" fill="black"/>
<path d="M76.7933 31.4367C78.1955 31.4367 79.5218 31.3988 80.8103 31.4746C80.9997 31.4746 81.265 31.7399 81.3408 31.9673C82.9703 36.5905 84.5998 41.1759 86.1914 45.7992C86.9872 48.035 87.7452 50.2709 88.6168 52.6583C88.7683 52.2414 88.9199 51.9762 88.9957 51.673C91.2316 45.1549 93.5053 38.6369 95.7032 32.1188C95.8927 31.6262 96.1201 31.3988 96.6506 31.4367C97.4464 31.4746 98.2801 31.4367 99.1896 31.4367C98.7349 32.7631 98.2801 34.0515 97.8254 35.3021C95.1727 42.8054 92.52 50.3087 89.9052 57.8121C89.7157 58.3426 89.4505 58.5321 88.9199 58.4563C88.8441 58.4563 88.7304 58.4563 88.6168 58.4563C87.8967 58.4563 87.0251 58.6458 86.4946 58.3047C86.002 58.0016 85.9262 57.0542 85.6988 56.4099C82.7808 48.3382 79.9008 40.2285 76.9828 32.1188C76.9449 31.9294 76.907 31.7399 76.7933 31.4367Z" fill="black"/>
<path d="M201.546 55.7278C201.243 56.5994 200.977 57.3952 200.674 58.1532C200.636 58.2668 200.409 58.4184 200.257 58.4184C195.786 58.4184 191.276 58.4184 186.766 58.4184C186.729 58.4184 186.729 58.3805 186.691 58.3426V31.4746H190.632V55.7278H201.546Z" fill="black"/>
<path d="M73.3827 31.4746H69.4416V58.4184H73.3827V31.4746Z" fill="black"/>
<path d="M160.656 31.5125H156.715V58.4563H160.656V31.5125Z" fill="black"/>
</svg>
