<svg width="320" height="90" viewBox="0 0 320 90" fill="none" xmlns="http://www.w3.org/2000/svg">
<rect width="320" height="90" fill="white"/>
<g clip-path="url(#clip0)">
<path d="M58 30.9927V44.9855H66.6665H75.3329V44.6846V44.3836L68.4238 44.3716L61.5208 44.3535L61.5027 30.6738L61.4907 17H59.7453H58V30.9927Z" fill="black"/>
<path d="M78.9861 17.1625C78.968 17.2588 78.956 23.548 78.962 31.1432L78.9741 44.9554L80.7374 44.9734L82.4948 44.9855V38.3773V31.7751L83.0244 31.2515L83.548 30.7339L84.3906 31.8173C84.854 32.4071 85.3716 33.0691 85.5341 33.2797C85.7026 33.4904 86.0457 33.9297 86.2984 34.2547C86.5512 34.5797 87.1229 35.3019 87.5623 35.8676C88.4049 36.9389 89.4761 38.3051 91.6367 41.0735C92.3469 41.9823 93.1293 42.9874 93.3821 43.3063C93.6348 43.6253 94.032 44.1309 94.2607 44.4318L94.682 44.9795H96.8968L99.1176 44.9855L98.943 44.7568C98.8467 44.6364 98.3833 44.0466 97.9259 43.4508C97.4625 42.855 96.3973 41.4888 95.5547 40.4115C93.5746 37.8717 89.2655 32.3409 88.7599 31.6849C88.5433 31.402 87.9294 30.6196 87.3998 29.9395C86.8642 29.2594 86.3586 28.6095 86.2683 28.4891L86.1058 28.2724L87.8331 26.5933C88.79 25.6725 89.9757 24.523 90.4692 24.0415C90.9687 23.5661 91.8052 22.7536 92.3349 22.236C92.8645 21.7244 94.014 20.611 94.8927 19.7685C95.7714 18.9259 96.7704 17.9569 97.1195 17.6199L97.7514 17H97.294H96.8306L92.9307 20.7735C88.784 24.7757 86.1239 27.3456 84.6012 28.8261C84.0897 29.3256 83.4096 29.9816 83.0966 30.2826L82.5249 30.8302L82.5068 23.9151L82.4948 17H80.7555H79.0162L78.9861 17.1625Z" fill="black"/>
<path d="M112.647 30.9867V44.9855L117.811 44.9795C123.402 44.9734 123.51 44.9674 124.876 44.6304C127.26 44.0526 129.005 42.7707 129.944 40.905C130.642 39.5148 130.834 37.3782 130.413 35.7051C130.088 34.4353 129.595 33.5746 128.686 32.6719C127.675 31.6788 126.435 31.0168 124.816 30.6076C124.25 30.4631 123.179 30.3006 122.782 30.3006C122.397 30.2946 122.547 30.2103 123.029 30.1562C123.642 30.09 124.623 29.8733 125.267 29.6687C127.753 28.8502 129.264 27.3516 129.811 25.1429C130.004 24.3605 130.004 23.0244 129.805 22.2661C129.534 21.2249 129.071 20.4124 128.301 19.6421C126.965 18.312 125.171 17.5296 122.577 17.1384C122.06 17.0602 121.115 17.0361 117.299 17.0181L112.647 16.988V30.9867ZM121.795 17.8004C122.607 17.9991 123.227 18.2639 123.841 18.6851C124.226 18.95 124.936 19.6722 125.219 20.0874C125.562 20.587 125.935 21.4656 126.11 22.1517C126.254 22.7235 126.273 22.9281 126.273 23.7707C126.279 24.86 126.188 25.4077 125.863 26.2803C125.286 27.809 124.124 29.0127 122.698 29.5423C121.65 29.9395 120.946 30.0057 118.244 29.9877L116.168 29.9696L116.15 23.8128L116.138 17.65L118.768 17.6801C120.892 17.7041 121.482 17.7222 121.795 17.8004ZM122.336 30.746C123.342 30.9807 124.13 31.396 124.864 32.0881C126.315 33.4543 127.043 35.4403 126.953 37.8055C126.916 38.7986 126.814 39.3824 126.549 40.1888C125.803 42.4036 124.317 43.7938 122.204 44.2452C121.765 44.3355 121.362 44.3535 118.936 44.3535H116.168L116.15 37.4745L116.138 30.5895L119.008 30.6196C121.458 30.6377 121.951 30.6617 122.336 30.746Z" fill="black"/>
<path d="M134.253 30.9927V44.9855H141.956H149.66V44.6665V44.3535H143.72H137.774L137.762 37.7634L137.744 31.1733L141.824 31.1432L145.898 31.1131L145.917 30.7941L145.935 30.4812H141.836H137.744L137.756 24.0836L137.774 17.6921L143.72 17.6741L149.66 17.662V17.331V17H141.956H134.253V30.9927Z" fill="black"/>
<path d="M153.331 30.9927V44.9855H153.692H154.053L154.065 31.9858L154.083 18.9861L154.655 19.7805C154.968 20.2198 155.528 20.9842 155.889 21.4777C156.683 22.561 157.887 24.222 158.056 24.4628C158.122 24.5591 158.35 24.872 158.561 25.1669C158.778 25.4558 160.102 27.2794 161.51 29.2173C162.912 31.1552 164.2 32.9246 164.375 33.1593C164.712 33.6167 166.391 35.9338 167.781 37.8537C168.263 38.5157 169.238 39.8578 169.948 40.8328C170.658 41.8078 171.669 43.198 172.193 43.9142L173.144 45.2262H173.439H173.733V31.1131V17H173.372H173.011L172.999 28.0136L172.981 39.0333L171.242 36.638C170.285 35.3199 169.358 34.0501 169.19 33.8214C168.901 33.4302 167.167 31.0409 164.537 27.4118C163.924 26.5692 163.28 25.6845 163.111 25.4558C162.936 25.2211 162.503 24.6253 162.148 24.1318C161.143 22.7415 157.863 18.2277 157.514 17.7523C157.339 17.5176 157.153 17.2588 157.093 17.1625L156.99 17H155.161H153.331V30.9927Z" fill="black"/>
<path d="M177.525 30.9927V44.9855H177.886H178.247L178.259 31.9918L178.277 18.9921L178.819 19.7444C179.493 20.6832 179.932 21.2911 181.527 23.4818C182.219 24.4327 183.11 25.6604 183.507 26.2081C183.905 26.7558 184.609 27.7247 185.072 28.3627C185.542 29.0006 186.017 29.6566 186.131 29.8191C186.246 29.9816 187.016 31.0469 187.847 32.1783C193.727 40.261 197.223 45.0878 197.247 45.148C197.265 45.1961 197.398 45.2262 197.602 45.2262H197.927V31.1131V17H197.566H197.205L197.193 28.0257L197.175 39.0513L195.737 37.0653C194.942 35.9759 193.359 33.7973 192.222 32.2265C191.078 30.6557 190.007 29.1752 189.833 28.9465C189.664 28.7118 189.122 27.9715 188.629 27.2914C188.141 26.6113 187.636 25.9192 187.516 25.7567C187.395 25.5882 186.565 24.4507 185.68 23.229C184.789 22.0013 183.802 20.6471 183.489 20.2138C183.17 19.7805 182.52 18.8837 182.039 18.2157L181.166 17.006L179.349 17H177.525V30.9927Z" fill="black"/>
<path d="M201.599 30.9927V44.9855H209.302H217.006V44.6846V44.3836H211.047H205.089V37.7634V31.1432H209.152H213.214V30.8122V30.4812H209.152H205.089V24.0716V17.662H211.047H217.006V17.331V17H209.302H201.599V30.9927Z" fill="black"/>
<path d="M220.617 17.331V17.662H224.348H228.079V31.3237V44.9855H229.825H231.57V31.3237V17.662H235.289H239.003V17.343V17.0301L229.813 17.012L220.617 17V17.331Z" fill="black"/>
<path d="M242.644 17.331V17.662H246.363H250.083L250.089 17.7944C250.089 17.8727 250.095 24.0174 250.101 31.4562L250.107 44.9855H251.852H253.597V31.3237V17.662H257.299H261V17.331V17H251.822H242.644V17.331Z" fill="black"/>
<path d="M139.248 61.9212C137.1 62.3003 135.577 64.3707 135.577 66.9164C135.577 69.2696 136.763 71.1353 138.676 71.8034C139.098 71.9538 139.248 71.9719 139.88 71.9779C140.47 71.9779 140.687 71.9538 141.054 71.8395C142.51 71.3821 143.648 70.1303 144.069 68.5173C144.544 66.6817 144.177 64.7739 143.094 63.4137C142.167 62.2582 140.668 61.6744 139.248 61.9212ZM140.386 62.2041C141.523 62.4628 142.324 63.5221 142.709 65.2674C142.841 65.8753 142.895 67.3257 142.805 67.9877C142.588 69.6187 141.98 70.8284 141.108 71.3821C140.488 71.7733 139.603 71.8094 138.923 71.4724C136.865 70.4613 136.287 65.803 137.912 63.3235C138.508 62.4147 139.447 61.9874 140.386 62.2041Z" fill="black"/>
<path d="M175.99 61.879C175.605 61.9212 174.955 62.1017 174.666 62.2401C172.554 63.2994 171.549 65.8873 172.229 68.5294C172.572 69.8534 173.487 71.033 174.588 71.5747C176.935 72.7302 179.601 71.4422 180.45 68.758C180.823 67.5845 180.793 66.0558 180.378 64.9003C179.83 63.3897 178.548 62.198 177.206 61.9573C176.833 61.8911 176.243 61.855 175.99 61.879ZM177.062 62.3244C178.404 62.7698 179.27 64.5873 179.27 66.9224C179.264 68.1622 179.078 69.0951 178.638 69.9978C178.295 70.708 177.892 71.1594 177.357 71.4182C176.983 71.6047 176.911 71.6168 176.351 71.6168C175.81 71.6168 175.72 71.5987 175.419 71.4483C174.534 70.9909 173.884 69.9437 173.607 68.4932C173.216 66.4771 173.643 64.16 174.612 63.0526C175.268 62.3003 176.183 62.0295 177.062 62.3244Z" fill="black"/>
<path d="M126.772 66.9044C126.784 69.5525 126.796 71.7311 126.808 71.7432C126.82 71.7552 132.538 71.7793 132.917 71.7672C132.959 71.7672 132.989 71.689 132.989 71.5867V71.4061L130.515 71.3941L128.042 71.376L128.048 66.8863C128.054 64.4128 128.042 62.3184 128.018 62.2341C127.982 62.0776 127.976 62.0776 127.368 62.0776H126.76L126.772 66.9044Z" fill="black"/>
<path d="M148.577 66.9165C148.577 72.0742 148.565 71.8515 148.866 71.7733L149.004 71.7372L149.01 68.8484C149.01 67.2595 149.028 65.3156 149.046 64.5272L149.088 63.0948L149.576 63.7448C149.847 64.0999 150.828 65.4239 151.766 66.6817C155.811 72.1103 155.636 71.8876 155.781 71.8876H155.919V66.9827V62.0777H155.708H155.498L155.492 64.6776C155.486 66.11 155.468 67.759 155.444 68.3428L155.407 69.4081L152.669 65.7549L149.931 62.1078L149.251 62.0897L148.577 62.0717V66.9165Z" fill="black"/>
<path d="M160.788 66.7539C160.788 69.3298 160.776 71.4964 160.77 71.5746C160.758 71.6529 160.782 71.7251 160.812 71.7492C160.842 71.7672 161.588 71.7853 162.473 71.7853C163.875 71.7853 164.146 71.7672 164.676 71.6589C166.211 71.3339 167.438 70.3228 167.98 68.9386C168.287 68.1442 168.401 67.2895 168.317 66.3988C168.239 65.6225 168.124 65.2132 167.793 64.5452C167.324 63.6123 166.481 62.842 165.488 62.4508C164.694 62.1438 164.531 62.1198 162.618 62.0957L160.794 62.0656L160.788 66.7539ZM164.429 62.6133C164.959 62.8059 165.284 63.0165 165.711 63.4438C167.137 64.8942 167.324 68.108 166.084 69.9677C165.633 70.6418 164.862 71.1774 164.116 71.3399C163.942 71.376 163.418 71.4061 162.961 71.4061H162.118V66.9164V62.4267L163.099 62.4508C163.893 62.4748 164.14 62.5049 164.429 62.6133Z" fill="black"/>
<path d="M184.94 66.9345L184.958 71.7973H185.138H185.319L185.349 67.4159L185.379 63.0406L186.312 64.2864C191.391 71.1112 191.987 71.8936 192.102 71.8756C192.216 71.8575 192.216 71.7432 192.216 66.9826L192.21 62.1077L191.999 62.0897L191.789 62.0716L191.777 65.7549L191.759 69.4381L188.996 65.7609L186.234 62.0776H185.578H184.928L184.94 66.9345Z" fill="black"/>
</g>
<defs>
<clipPath id="clip0">
<rect width="203" height="55.008" fill="white" transform="translate(58 17)"/>
</clipPath>
</defs>
</svg>
